M48
;GenerationSoftware,Autodesk,EAGLE,9.6.2*%
;CreationDate,2024-06-28T02:36:02Z*%
FMAT,2
ICI,OFF
METRIC,TZ,000.000
T7C0.200
T6C0.350
T5C0.600
T4C0.813
T3C1.000
T2C1.016
T1C1.245
%
G90
M71
T1
X37465Y3683
X43307Y76962
X49809Y76962
X37465Y43942
X30963Y43942
X43561Y36576
X50063Y36576
X30963Y3683
T2
X34417Y27686
X53975Y52959
X56515Y52959
X59055Y52959
X61595Y52959
X34417Y67945
X31877Y67945
X29337Y67945
X26797Y67945
X24257Y67945
X19177Y67945
X21717Y67945
X51435Y52959
X46609Y12573
X49149Y12573
X51689Y12573
X54229Y12573
X56769Y12573
X59309Y12573
X61849Y12573
X46355Y52959
X48895Y52959
X31877Y27686
X29337Y27686
X26797Y27686
X24257Y27686
X21717Y27686
X19177Y27686
T3
X1016Y22069
X1016Y15269
X80010Y18190
X79756Y65376
X1016Y62328
X1016Y55528
X80010Y24990
X79756Y58576
T4
X78867Y9001
X78867Y11001
X2159Y29258
X2159Y69517
X2159Y31258
X16272Y42799
X64500Y78105
X62500Y78105
X78613Y45387
X78613Y47387
X78613Y49387
X78613Y51387
X16272Y2540
X18272Y2540
X2159Y35258
X2159Y33258
X18272Y42799
X2159Y75517
X2159Y73517
X2159Y71517
X78867Y7001
X64754Y37719
X62754Y37719
X78867Y5001
T5
X5712Y11780
X5712Y6000
X5712Y52039
X75314Y28479
X75314Y34259
X75060Y68865
X75060Y74645
X6202Y13215
X6202Y4565
X2032Y13215
X2032Y4565
X74824Y27044
X6202Y44824
X74824Y35694
X78994Y27044
X78994Y35694
X5712Y46259
X6202Y53474
X74570Y67430
X74570Y76080
X78740Y67430
X2032Y44824
X2032Y53474
X78740Y76080
T6
X5334Y30353
X12700Y20701
X2667Y27051
X17537Y18912
X19502Y18542
X1875Y25273
X3556Y36322
X10160Y15748
X4595Y15038
X2393Y23371
X2873Y14447
X18288Y4849
X12319Y17698
X6604Y28575
X20066Y20828
X16891Y20066
X17653Y34544
X20652Y31293
X29337Y5080
X28448Y19050
X16256Y28956
X13081Y34290
X7620Y19431
X8371Y21728
X10541Y31877
X12103Y31750
X10221Y37099
X6731Y36322
X14097Y33401
X10160Y29591
X5461Y22987
X9652Y27181
X38100Y77724
X22225Y74168
X19304Y77216
X15494Y76835
X37592Y78486
X36703Y78994
X38227Y76581
X22225Y73279
X17399Y68707
X18288Y65532
X17780Y58039
X24130Y61087
X23114Y51943
X17780Y52959
X16510Y50038
X23114Y49022
X19558Y45212
X17145Y45339
X24003Y51943
X31496Y51943
X24003Y49022
X7366Y54356
X11938Y55626
X8255Y44958
X4699Y44450
X16637Y61214
X5715Y64516
X4699Y72390
X31496Y59944
X35687Y69723
X35179Y72009
X36068Y72009
X36068Y72898
X35179Y72898
X7747Y71247
X7620Y69342
X12319Y69596
X5715Y76708
X4191Y68199
X9017Y53429
X8359Y48768
X4445Y75034
X28448Y51816
X5354Y75034
X23599Y78341
X24915Y77978
X29591Y49403
X7747Y46736
X12446Y46547
X4953Y48741
X7702Y51497
X9525Y71679
X16637Y74803
X8748Y72187
X18288Y75946
X21209Y75565
X28194Y49149
X8361Y64792
X20170Y60071
X18923Y70358
X26924Y50569
X11176Y67154
X6858Y56769
X10386Y62210
X9375Y60916
X6330Y57678
X20828Y45085
X20828Y49022
X20828Y61722
X13970Y71755
X8383Y66207
X11060Y63235
X26162Y43276
X9827Y64078
X22733Y43276
X6858Y61087
X33528Y44196
X30734Y62103
X23495Y72771
X9762Y78184
X11176Y51497
X10478Y43436
X13578Y47487
X9906Y51497
X9906Y46547
X9017Y55029
X8156Y56868
X9624Y56769
X3302Y63627
X4699Y57785
X2794Y57785
X5334Y69081
X5334Y70612
X12700Y60960
X2667Y67310
X17537Y59171
X19502Y58801
X1875Y65532
X3556Y76581
X10160Y56007
X4595Y55297
X2393Y63630
X2873Y54706
X18288Y45108
X12319Y57957
X6604Y68834
X20066Y61087
X16891Y60325
X17653Y74803
X20652Y71552
X29337Y45339
X28448Y59309
X16256Y69215
X13081Y74549
X7620Y59690
X8371Y61987
X10541Y72136
X12103Y72009
X10221Y77358
X6731Y76581
X14097Y73660
X10160Y69850
X5461Y63246
X9652Y67440
X42926Y2794
X58801Y6350
X61722Y3302
X65532Y3683
X43434Y2032
X44323Y1524
X42799Y3937
X58801Y7239
X63627Y11811
X62738Y14986
X63246Y22479
X56896Y19431
X57912Y28575
X63246Y27559
X64516Y30480
X57912Y31496
X61468Y35306
X63881Y35179
X57023Y28575
X49530Y28575
X57023Y31496
X73660Y26162
X69088Y24892
X72771Y35560
X76327Y36068
X64389Y19304
X75311Y16002
X76327Y8128
X49530Y20574
X45339Y10795
X45847Y8509
X44958Y8509
X44958Y7620
X45847Y7620
X73279Y9271
X73406Y11176
X68707Y10922
X75311Y3810
X76835Y12319
X72009Y27089
X72667Y31750
X76581Y5484
X52578Y28702
X75672Y5484
X57427Y2177
X56111Y2540
X51435Y31115
X73279Y33782
X68580Y33971
X76073Y31777
X73324Y29021
X71501Y8839
X64389Y5715
X72278Y8331
X62738Y4572
X59817Y4953
X52832Y31369
X72665Y15726
X60856Y20447
X62103Y10160
X54102Y29949
X69850Y13364
X74168Y23749
X70640Y18308
X71651Y19602
X74696Y22840
X60198Y35433
X60198Y31496
X60198Y18796
X67056Y8763
X9762Y37925
X69966Y17283
X54864Y37242
X71199Y16440
X58293Y37242
X74168Y19431
X47498Y36322
X50292Y18415
X57531Y7747
X71264Y2334
X69850Y29021
X70549Y37082
X67448Y33031
X71120Y29021
X71120Y33971
X72009Y25489
X72870Y23650
X71402Y23749
X77724Y16891
X76327Y22733
X78232Y22733
X75692Y11437
X75692Y9906
X68326Y19558
X78359Y13208
X63489Y21347
X61524Y21717
X79151Y14986
X77470Y3937
X70866Y24511
X76431Y25221
X78633Y16888
X78153Y25812
X62738Y35410
X68707Y22561
X74422Y11684
X60960Y19431
X64135Y20193
X63373Y5715
X60374Y8966
X51689Y35179
X52578Y21209
X64770Y11303
X67945Y5969
X73406Y20828
X72655Y18531
X70485Y8382
X68923Y8509
X70805Y3160
X74295Y3937
X66929Y6858
X70866Y10668
X75565Y17272
X71374Y13078
X42672Y43180
X58547Y46736
X61468Y43688
X65278Y44069
X43180Y42418
X44069Y41910
X42545Y44323
X58547Y47625
X63373Y52197
X62484Y55372
X62992Y62865
X56642Y59817
X57658Y68961
X62992Y67945
X64262Y70866
X57658Y71882
X61214Y75692
X63627Y75565
X56769Y68961
X49276Y68961
X56769Y71882
X73406Y66548
X68834Y65278
X72517Y75946
X76073Y76454
X64135Y59690
X75057Y56388
X76073Y48514
X49276Y60960
X45085Y51181
X45593Y48895
X44704Y48895
X44704Y48006
X45593Y48006
X73025Y49657
X73152Y51562
X68453Y51308
X75057Y44196
X76581Y52705
X71755Y67475
X72413Y72136
X76327Y45870
X52324Y69088
X75418Y45870
X57173Y42563
X55857Y42926
X51181Y71501
X73025Y74168
X68326Y74357
X75819Y72163
X73070Y69407
X71247Y49225
X64135Y46101
X72024Y48717
X62484Y44958
X59563Y45339
X52578Y71755
X72411Y56112
X60602Y60833
X61849Y50546
X53848Y70335
X69596Y53750
X73914Y64135
X70386Y58694
X71397Y59988
X74442Y63226
X59944Y75819
X59944Y71882
X59944Y59182
X66802Y49149
X72389Y54697
X69712Y57669
X54610Y77628
X70945Y56826
X58039Y77628
X73914Y59817
X47244Y76708
X50038Y58801
X57277Y48133
X71010Y42720
X69596Y69407
X70295Y77468
X67194Y73417
X70866Y69407
X70866Y74357
X71755Y65875
X72616Y64036
X71148Y64135
X77470Y57277
X76073Y63119
X77978Y63119
X75438Y51823
X75438Y50292
X68072Y59944
X78105Y53594
X63235Y61733
X61270Y62103
X78897Y55372
X77216Y44323
X70612Y64897
X76177Y65607
X78379Y57274
X77899Y66198
X62484Y75796
X68453Y62947
X38100Y37465
X60706Y59817
X63881Y60579
X63119Y46101
X60120Y49352
X51435Y75565
X52324Y61595
X64516Y51689
X67691Y46355
X73152Y61214
X72401Y58917
X70231Y48768
X68669Y48895
X70551Y43546
X74041Y44323
X66675Y47244
X70612Y51054
X75311Y57658
X71120Y53464
X22225Y33909
X19304Y36957
X15494Y36576
X37592Y38227
X36703Y38735
X38227Y36322
X22225Y33020
X17399Y28448
X18288Y25273
X17780Y17780
X24130Y20828
X23114Y11684
X17780Y12700
X16510Y9779
X23114Y8763
X19558Y4953
X17145Y5080
X24003Y11684
X31496Y11684
X24003Y8763
X7366Y14097
X11938Y15367
X8255Y4699
X4699Y4191
X16637Y20955
X5715Y24257
X4699Y32131
X31496Y19685
X35687Y29464
X35179Y31750
X36068Y31750
X36068Y32639
X35179Y32639
X7747Y30988
X7620Y29083
X12319Y29337
X72643Y14311
X5715Y36449
X4191Y27940
X9017Y13170
X8359Y8509
X4445Y34775
X28448Y11557
X5354Y34775
X23599Y38082
X24915Y37719
X29591Y9144
X7747Y6477
X12446Y6288
X4953Y8482
X7702Y11238
X9525Y31420
X16637Y34544
X8748Y31928
X18288Y35687
X21209Y35306
X28194Y8890
X8361Y24533
X20170Y19812
X18923Y30099
X26924Y10310
X11176Y26895
X6858Y16510
X10386Y21951
X9375Y20657
X6330Y17419
X20828Y4826
X20828Y8763
X20828Y21463
X13970Y31496
X8383Y25948
X11060Y22976
X26162Y3017
X9827Y23819
X22733Y3017
X6858Y20828
X33528Y3937
X30734Y21844
X23495Y32512
X11176Y11238
X10478Y3177
X13578Y7228
X9906Y11238
X9906Y6288
X9017Y14770
X8156Y16609
X9624Y16510
X3302Y23368
X4699Y17526
X2794Y17526
X5334Y28822
X74168Y52070
T7
X23639Y54664
X22722Y57416
X22722Y55581
X23639Y18075
X23639Y16240
X23639Y14405
X22722Y17158
X22722Y15322
X26392Y17158
X26392Y15322
X25474Y18075
X25474Y16240
X25474Y14405
X24557Y17158
X24557Y15322
X26392Y57416
X26392Y55581
X54380Y63487
X54380Y65322
X55297Y62570
X55297Y64405
X55297Y66240
X56215Y63487
X56215Y65322
X57132Y62570
X57132Y64405
X57132Y66240
X58050Y63487
X58050Y65322
X25474Y58334
X25474Y56499
X25474Y54664
X24557Y57416
X24557Y55581
X54634Y23101
X54634Y24936
X55551Y22184
X55551Y24019
X55551Y25854
X56469Y23101
X56469Y24936
X57386Y22184
X57386Y24019
X57386Y25854
X58304Y23101
X58304Y24936
X23639Y58334
X23639Y56499
M30