G04 EAGLE Gerber RS-274X export*
G75*
%MOMM*%
%FSLAX34Y34*%
%LPD*%
%INBottom Copper*%
%IPPOS*%
%AMOC8*
5,1,8,0,0,1.08239X$1,22.5*%
G01*
%ADD10C,0.708000*%
%ADD11C,1.108000*%
%ADD12C,1.524000*%
%ADD13P,1.814519X8X22.500000*%
%ADD14P,1.814519X8X292.500000*%
%ADD15R,1.866900X1.866900*%
%ADD16C,1.866900*%
%ADD17C,0.756400*%
%ADD18C,0.254000*%
%ADD19C,0.406400*%

G36*
X499968Y416565D02*
X499968Y416565D01*
X499994Y416563D01*
X503210Y416945D01*
X503239Y416955D01*
X503282Y416961D01*
X509664Y419036D01*
X509696Y419055D01*
X509753Y419078D01*
X515380Y422734D01*
X515406Y422762D01*
X515455Y422799D01*
X519083Y426830D01*
X519085Y426832D01*
X519087Y426834D01*
X519127Y426909D01*
X519167Y426981D01*
X519167Y426984D01*
X519168Y426987D01*
X519171Y427070D01*
X519174Y427155D01*
X519173Y427157D01*
X519173Y427160D01*
X519138Y427236D01*
X519104Y427313D01*
X519102Y427315D01*
X519101Y427317D01*
X519036Y427370D01*
X518971Y427424D01*
X518968Y427425D01*
X518966Y427426D01*
X518886Y427444D01*
X518803Y427464D01*
X518800Y427464D01*
X518797Y427464D01*
X518655Y427435D01*
X515240Y426021D01*
X510920Y426021D01*
X506929Y427674D01*
X503874Y430729D01*
X502221Y434720D01*
X502221Y439040D01*
X503874Y443031D01*
X506929Y446086D01*
X510920Y447739D01*
X515240Y447739D01*
X519231Y446086D01*
X522286Y443031D01*
X523617Y439818D01*
X523652Y439768D01*
X523680Y439715D01*
X523702Y439699D01*
X523718Y439677D01*
X523771Y439648D01*
X523820Y439613D01*
X523847Y439608D01*
X523871Y439595D01*
X523931Y439594D01*
X523991Y439583D01*
X524017Y439591D01*
X524044Y439590D01*
X524099Y439616D01*
X524157Y439633D01*
X524177Y439651D01*
X524202Y439663D01*
X524240Y439710D01*
X524284Y439751D01*
X524296Y439779D01*
X524311Y439797D01*
X524319Y439833D01*
X524340Y439884D01*
X524472Y440505D01*
X524472Y440536D01*
X524481Y440579D01*
X524509Y442809D01*
X524509Y442811D01*
X524509Y442814D01*
X524509Y444223D01*
X524507Y444232D01*
X524509Y444243D01*
X524417Y445984D01*
X524487Y446183D01*
X524491Y446217D01*
X524509Y446310D01*
X524509Y461010D01*
X524498Y461060D01*
X524496Y461111D01*
X524478Y461143D01*
X524470Y461179D01*
X524437Y461218D01*
X524413Y461263D01*
X524383Y461284D01*
X524360Y461312D01*
X524313Y461333D01*
X524271Y461363D01*
X524229Y461371D01*
X524201Y461383D01*
X524171Y461382D01*
X524129Y461390D01*
X464978Y461390D01*
X463930Y462438D01*
X463930Y639923D01*
X467518Y643510D01*
X524129Y643510D01*
X524179Y643521D01*
X524230Y643523D01*
X524262Y643541D01*
X524298Y643549D01*
X524337Y643582D01*
X524382Y643606D01*
X524403Y643636D01*
X524431Y643659D01*
X524452Y643706D01*
X524482Y643748D01*
X524490Y643790D01*
X524502Y643818D01*
X524501Y643848D01*
X524509Y643890D01*
X524509Y767870D01*
X524501Y767906D01*
X524489Y767993D01*
X524401Y768250D01*
X524508Y769932D01*
X524507Y769943D01*
X524509Y769956D01*
X524509Y771665D01*
X524528Y771763D01*
X524526Y772825D01*
X524519Y772855D01*
X524519Y772899D01*
X523524Y777856D01*
X523510Y777887D01*
X523509Y777899D01*
X523503Y777912D01*
X523492Y777950D01*
X521249Y782480D01*
X521224Y782509D01*
X521193Y782562D01*
X517854Y786357D01*
X517823Y786379D01*
X517779Y786422D01*
X513571Y789224D01*
X513535Y789237D01*
X513482Y789268D01*
X508692Y790884D01*
X508661Y790887D01*
X508619Y790901D01*
X506272Y791206D01*
X506251Y791204D01*
X506223Y791209D01*
X378251Y791209D01*
X378226Y791203D01*
X378200Y791206D01*
X378143Y791184D01*
X378082Y791170D01*
X378062Y791153D01*
X378038Y791144D01*
X377996Y791099D01*
X377949Y791060D01*
X377938Y791036D01*
X377921Y791017D01*
X377903Y790958D01*
X377878Y790901D01*
X377879Y790876D01*
X377871Y790851D01*
X377882Y790790D01*
X377884Y790728D01*
X377897Y790706D01*
X377901Y790680D01*
X377949Y790609D01*
X377967Y790576D01*
X377975Y790570D01*
X377982Y790560D01*
X383795Y784748D01*
X383795Y781882D01*
X383801Y781856D01*
X383798Y781831D01*
X383820Y781773D01*
X383834Y781713D01*
X383851Y781693D01*
X383860Y781669D01*
X383905Y781627D01*
X383944Y781579D01*
X383968Y781569D01*
X383987Y781551D01*
X384046Y781534D01*
X384103Y781508D01*
X384128Y781509D01*
X384153Y781502D01*
X384214Y781513D01*
X384276Y781515D01*
X384298Y781527D01*
X384324Y781532D01*
X384395Y781580D01*
X384428Y781598D01*
X384434Y781606D01*
X384444Y781613D01*
X385378Y782547D01*
X389774Y782547D01*
X392883Y779438D01*
X392883Y775042D01*
X390482Y772641D01*
X390442Y772577D01*
X390398Y772515D01*
X390396Y772503D01*
X390391Y772494D01*
X390387Y772457D01*
X390371Y772372D01*
X390371Y716099D01*
X390388Y716025D01*
X390401Y715950D01*
X390408Y715940D01*
X390410Y715930D01*
X390434Y715902D01*
X390482Y715830D01*
X409195Y697118D01*
X409195Y693525D01*
X409209Y693463D01*
X409216Y693400D01*
X409229Y693379D01*
X409234Y693356D01*
X409275Y693307D01*
X409309Y693253D01*
X409331Y693238D01*
X409344Y693222D01*
X409379Y693207D01*
X409429Y693173D01*
X411580Y692283D01*
X414153Y689710D01*
X415545Y686349D01*
X415545Y667471D01*
X414153Y664110D01*
X411580Y661537D01*
X409429Y660647D01*
X409424Y660643D01*
X409420Y660642D01*
X409401Y660626D01*
X409378Y660610D01*
X409322Y660579D01*
X409308Y660560D01*
X409289Y660546D01*
X409259Y660489D01*
X409222Y660438D01*
X409217Y660411D01*
X409207Y660393D01*
X409206Y660355D01*
X409195Y660295D01*
X409195Y623615D01*
X409212Y623541D01*
X409225Y623466D01*
X409232Y623456D01*
X409234Y623446D01*
X409258Y623418D01*
X409306Y623346D01*
X434960Y597692D01*
X434982Y597679D01*
X434998Y597659D01*
X435055Y597633D01*
X435107Y597601D01*
X435133Y597598D01*
X435157Y597588D01*
X435218Y597590D01*
X435280Y597584D01*
X435304Y597593D01*
X435330Y597594D01*
X435384Y597624D01*
X435442Y597646D01*
X435459Y597665D01*
X435482Y597677D01*
X435517Y597728D01*
X435559Y597773D01*
X435567Y597798D01*
X435582Y597819D01*
X435598Y597903D01*
X435609Y597939D01*
X435607Y597949D01*
X435609Y597961D01*
X435609Y609742D01*
X441043Y615175D01*
X441053Y615192D01*
X441064Y615201D01*
X441073Y615223D01*
X441104Y615256D01*
X441115Y615291D01*
X441134Y615322D01*
X441139Y615373D01*
X441153Y615422D01*
X441147Y615458D01*
X441150Y615495D01*
X441132Y615542D01*
X441124Y615593D01*
X441100Y615628D01*
X441089Y615656D01*
X441066Y615677D01*
X441043Y615713D01*
X440463Y616292D01*
X440463Y620688D01*
X443572Y623797D01*
X447968Y623797D01*
X451077Y620688D01*
X451077Y616292D01*
X447968Y613183D01*
X447113Y613183D01*
X447039Y613166D01*
X446964Y613153D01*
X446954Y613146D01*
X446944Y613144D01*
X446916Y613120D01*
X446844Y613072D01*
X441310Y607538D01*
X441270Y607473D01*
X441226Y607411D01*
X441224Y607399D01*
X441219Y607391D01*
X441215Y607354D01*
X441199Y607269D01*
X441199Y502711D01*
X441216Y502637D01*
X441229Y502562D01*
X441236Y502552D01*
X441238Y502542D01*
X441262Y502514D01*
X441310Y502442D01*
X447295Y496458D01*
X447295Y458515D01*
X447312Y458441D01*
X447325Y458366D01*
X447332Y458356D01*
X447334Y458346D01*
X447358Y458318D01*
X447406Y458246D01*
X450626Y455026D01*
X450691Y454986D01*
X450753Y454942D01*
X450765Y454940D01*
X450773Y454935D01*
X450810Y454931D01*
X450895Y454915D01*
X462168Y454915D01*
X472244Y444838D01*
X472309Y444798D01*
X472371Y444754D01*
X472383Y444752D01*
X472391Y444747D01*
X472428Y444743D01*
X472513Y444727D01*
X475908Y444727D01*
X479017Y441618D01*
X479017Y437222D01*
X475908Y434113D01*
X471512Y434113D01*
X468403Y437222D01*
X468403Y440617D01*
X468386Y440691D01*
X468373Y440766D01*
X468366Y440776D01*
X468364Y440786D01*
X468340Y440814D01*
X468292Y440886D01*
X459964Y449214D01*
X459899Y449254D01*
X459837Y449298D01*
X459825Y449300D01*
X459817Y449305D01*
X459780Y449309D01*
X459695Y449325D01*
X458486Y449325D01*
X458449Y449317D01*
X458411Y449318D01*
X458366Y449297D01*
X458317Y449286D01*
X458288Y449262D01*
X458253Y449246D01*
X458222Y449207D01*
X458183Y449176D01*
X458168Y449141D01*
X458144Y449111D01*
X458133Y449063D01*
X458113Y449017D01*
X458114Y448980D01*
X458106Y448942D01*
X458117Y448894D01*
X458119Y448844D01*
X458137Y448811D01*
X458146Y448774D01*
X458178Y448736D01*
X458202Y448692D01*
X458233Y448670D01*
X458257Y448641D01*
X458313Y448614D01*
X458344Y448592D01*
X458358Y448590D01*
X458951Y448248D01*
X459424Y447775D01*
X459758Y447195D01*
X459931Y446549D01*
X459931Y437641D01*
X448817Y437641D01*
X448817Y448945D01*
X448806Y448995D01*
X448804Y449046D01*
X448786Y449078D01*
X448778Y449114D01*
X448745Y449153D01*
X448721Y449198D01*
X448691Y449219D01*
X448668Y449247D01*
X448621Y449268D01*
X448579Y449298D01*
X448537Y449306D01*
X448509Y449318D01*
X448479Y449317D01*
X448437Y449325D01*
X448422Y449325D01*
X441705Y456042D01*
X441705Y493985D01*
X441688Y494059D01*
X441675Y494134D01*
X441668Y494144D01*
X441666Y494154D01*
X441642Y494182D01*
X441594Y494254D01*
X437784Y498064D01*
X437762Y498077D01*
X437746Y498097D01*
X437689Y498123D01*
X437637Y498155D01*
X437611Y498158D01*
X437587Y498168D01*
X437526Y498166D01*
X437464Y498172D01*
X437440Y498163D01*
X437414Y498162D01*
X437360Y498132D01*
X437302Y498110D01*
X437285Y498091D01*
X437262Y498079D01*
X437227Y498028D01*
X437185Y497983D01*
X437177Y497958D01*
X437162Y497937D01*
X437146Y497853D01*
X437135Y497817D01*
X437137Y497807D01*
X437135Y497795D01*
X437135Y496358D01*
X437152Y496284D01*
X437165Y496209D01*
X437172Y496199D01*
X437174Y496189D01*
X437198Y496160D01*
X437246Y496089D01*
X439647Y493688D01*
X439647Y489292D01*
X436538Y486183D01*
X434975Y486183D01*
X434925Y486172D01*
X434874Y486170D01*
X434842Y486152D01*
X434806Y486144D01*
X434767Y486111D01*
X434722Y486087D01*
X434701Y486057D01*
X434673Y486034D01*
X434652Y485987D01*
X434622Y485945D01*
X434614Y485903D01*
X434602Y485875D01*
X434603Y485845D01*
X434595Y485803D01*
X434595Y455718D01*
X434607Y455666D01*
X434608Y455626D01*
X434618Y455607D01*
X434625Y455569D01*
X434632Y455559D01*
X434634Y455549D01*
X434658Y455520D01*
X434706Y455449D01*
X437107Y453048D01*
X437107Y448875D01*
X437119Y448823D01*
X437120Y448781D01*
X437125Y448772D01*
X437128Y448751D01*
X437141Y448730D01*
X437146Y448706D01*
X437186Y448657D01*
X437197Y448641D01*
X437203Y448629D01*
X437205Y448628D01*
X437220Y448604D01*
X437241Y448591D01*
X437256Y448572D01*
X437314Y448546D01*
X437368Y448514D01*
X437392Y448511D01*
X437415Y448501D01*
X437477Y448504D01*
X437487Y448502D01*
X437499Y448502D01*
X437540Y448498D01*
X437566Y448507D01*
X437588Y448508D01*
X437621Y448526D01*
X437658Y448539D01*
X437669Y448541D01*
X437671Y448543D01*
X437677Y448545D01*
X437741Y448582D01*
X438387Y448755D01*
X447295Y448755D01*
X447295Y437641D01*
X436181Y437641D01*
X436181Y446549D01*
X436244Y446786D01*
X436247Y446861D01*
X436254Y446935D01*
X436249Y446947D01*
X436250Y446959D01*
X436219Y447027D01*
X436192Y447097D01*
X436183Y447106D01*
X436178Y447117D01*
X436120Y447164D01*
X436065Y447215D01*
X436053Y447218D01*
X436044Y447226D01*
X435971Y447243D01*
X435899Y447264D01*
X435887Y447262D01*
X435875Y447265D01*
X435802Y447247D01*
X435728Y447234D01*
X435717Y447227D01*
X435706Y447224D01*
X435677Y447200D01*
X435608Y447153D01*
X433998Y445543D01*
X429602Y445543D01*
X426493Y448652D01*
X426493Y453048D01*
X428894Y455449D01*
X428919Y455489D01*
X428927Y455496D01*
X428937Y455518D01*
X428978Y455575D01*
X428980Y455587D01*
X428985Y455596D01*
X428989Y455633D01*
X428998Y455654D01*
X428997Y455677D01*
X429005Y455718D01*
X429005Y483415D01*
X428988Y483489D01*
X428975Y483564D01*
X428968Y483574D01*
X428966Y483584D01*
X428942Y483613D01*
X428894Y483684D01*
X426020Y486558D01*
X425977Y486584D01*
X425939Y486619D01*
X425904Y486630D01*
X425873Y486649D01*
X425822Y486654D01*
X425773Y486668D01*
X425737Y486662D01*
X425701Y486666D01*
X425653Y486647D01*
X425603Y486639D01*
X425567Y486615D01*
X425539Y486604D01*
X425518Y486581D01*
X425482Y486558D01*
X422568Y483643D01*
X418172Y483643D01*
X415063Y486752D01*
X415063Y490147D01*
X415046Y490221D01*
X415033Y490296D01*
X415026Y490306D01*
X415024Y490316D01*
X415000Y490344D01*
X414952Y490416D01*
X411704Y493664D01*
X411639Y493704D01*
X411577Y493748D01*
X411565Y493750D01*
X411557Y493755D01*
X411520Y493759D01*
X411435Y493775D01*
X331582Y493775D01*
X329834Y495524D01*
X326614Y498744D01*
X322325Y503032D01*
X322325Y547325D01*
X322308Y547399D01*
X322295Y547474D01*
X322288Y547484D01*
X322286Y547494D01*
X322262Y547522D01*
X322214Y547594D01*
X320011Y549796D01*
X320011Y588149D01*
X319994Y588223D01*
X319981Y588297D01*
X319974Y588308D01*
X319972Y588317D01*
X319948Y588346D01*
X319900Y588418D01*
X319755Y588563D01*
X319733Y588577D01*
X319716Y588596D01*
X319660Y588622D01*
X319607Y588654D01*
X319582Y588657D01*
X319558Y588667D01*
X319496Y588665D01*
X319435Y588671D01*
X319411Y588662D01*
X319385Y588661D01*
X319331Y588631D01*
X319273Y588609D01*
X319255Y588590D01*
X319233Y588578D01*
X319197Y588528D01*
X319155Y588482D01*
X319148Y588457D01*
X319133Y588436D01*
X319117Y588352D01*
X319106Y588316D01*
X319108Y588306D01*
X319105Y588294D01*
X319105Y586973D01*
X315997Y583865D01*
X311601Y583865D01*
X310276Y585189D01*
X310254Y585203D01*
X310238Y585223D01*
X310181Y585248D01*
X310129Y585281D01*
X310103Y585283D01*
X310079Y585294D01*
X310018Y585291D01*
X309956Y585297D01*
X309932Y585288D01*
X309906Y585287D01*
X309852Y585258D01*
X309794Y585236D01*
X309777Y585217D01*
X309754Y585204D01*
X309719Y585154D01*
X309677Y585109D01*
X309669Y585084D01*
X309654Y585063D01*
X309638Y584978D01*
X309627Y584942D01*
X309629Y584932D01*
X309627Y584920D01*
X309627Y513441D01*
X309644Y513367D01*
X309657Y513292D01*
X309664Y513282D01*
X309666Y513272D01*
X309690Y513243D01*
X309738Y513172D01*
X324867Y498043D01*
X324867Y452642D01*
X324884Y452568D01*
X324897Y452493D01*
X324904Y452483D01*
X324906Y452473D01*
X324930Y452444D01*
X324978Y452373D01*
X326617Y450734D01*
X326617Y446338D01*
X325683Y445404D01*
X325669Y445382D01*
X325649Y445366D01*
X325624Y445309D01*
X325591Y445257D01*
X325589Y445231D01*
X325578Y445207D01*
X325581Y445146D01*
X325575Y445084D01*
X325584Y445060D01*
X325585Y445034D01*
X325614Y444980D01*
X325636Y444922D01*
X325655Y444905D01*
X325668Y444882D01*
X325718Y444847D01*
X325763Y444805D01*
X325788Y444797D01*
X325809Y444782D01*
X325894Y444766D01*
X325930Y444755D01*
X325940Y444757D01*
X325952Y444755D01*
X335168Y444755D01*
X346792Y433130D01*
X346857Y433090D01*
X346919Y433046D01*
X346931Y433044D01*
X346939Y433039D01*
X346976Y433035D01*
X347061Y433019D01*
X360892Y433019D01*
X360966Y433036D01*
X361041Y433049D01*
X361051Y433056D01*
X361061Y433058D01*
X361090Y433082D01*
X361161Y433130D01*
X363562Y435531D01*
X367958Y435531D01*
X371067Y432422D01*
X371067Y431101D01*
X371073Y431076D01*
X371070Y431050D01*
X371092Y430993D01*
X371106Y430932D01*
X371123Y430913D01*
X371132Y430888D01*
X371177Y430847D01*
X371216Y430799D01*
X371240Y430788D01*
X371259Y430771D01*
X371318Y430753D01*
X371375Y430728D01*
X371400Y430729D01*
X371425Y430722D01*
X371486Y430732D01*
X371548Y430735D01*
X371570Y430747D01*
X371596Y430751D01*
X371667Y430800D01*
X371700Y430817D01*
X371706Y430825D01*
X371716Y430832D01*
X373902Y433019D01*
X395182Y433019D01*
X395256Y433036D01*
X395331Y433049D01*
X395341Y433056D01*
X395351Y433058D01*
X395380Y433082D01*
X395451Y433130D01*
X397852Y435531D01*
X402248Y435531D01*
X405357Y432422D01*
X405357Y428026D01*
X402248Y424917D01*
X397852Y424917D01*
X395451Y427318D01*
X395387Y427358D01*
X395325Y427402D01*
X395313Y427404D01*
X395304Y427409D01*
X395267Y427413D01*
X395182Y427429D01*
X376375Y427429D01*
X376301Y427412D01*
X376226Y427399D01*
X376216Y427392D01*
X376206Y427390D01*
X376177Y427366D01*
X376106Y427318D01*
X369642Y420853D01*
X345417Y420853D01*
X331280Y434990D01*
X331216Y435030D01*
X331154Y435074D01*
X331142Y435076D01*
X331133Y435081D01*
X331096Y435085D01*
X331011Y435101D01*
X326427Y435101D01*
X326402Y435095D01*
X326376Y435098D01*
X326318Y435076D01*
X326258Y435062D01*
X326238Y435045D01*
X326214Y435036D01*
X326172Y434991D01*
X326125Y434952D01*
X326114Y434928D01*
X326096Y434909D01*
X326079Y434850D01*
X326054Y434793D01*
X326055Y434768D01*
X326047Y434743D01*
X326058Y434682D01*
X326060Y434620D01*
X326073Y434598D01*
X326077Y434572D01*
X326125Y434501D01*
X326143Y434468D01*
X326151Y434462D01*
X326158Y434452D01*
X331057Y429554D01*
X331057Y421346D01*
X326920Y417210D01*
X326906Y417188D01*
X326887Y417172D01*
X326861Y417115D01*
X326829Y417063D01*
X326826Y417037D01*
X326816Y417013D01*
X326818Y416952D01*
X326812Y416890D01*
X326821Y416866D01*
X326822Y416840D01*
X326852Y416786D01*
X326874Y416728D01*
X326893Y416711D01*
X326905Y416688D01*
X326955Y416653D01*
X327001Y416611D01*
X327026Y416603D01*
X327047Y416588D01*
X327131Y416572D01*
X327167Y416561D01*
X327177Y416563D01*
X327189Y416561D01*
X499949Y416561D01*
X499968Y416565D01*
G37*
G36*
X424664Y492406D02*
X424664Y492406D01*
X424690Y492407D01*
X424744Y492436D01*
X424802Y492458D01*
X424819Y492477D01*
X424842Y492490D01*
X424877Y492540D01*
X424919Y492585D01*
X424927Y492610D01*
X424942Y492631D01*
X424958Y492716D01*
X424969Y492752D01*
X424967Y492762D01*
X424969Y492774D01*
X424969Y495481D01*
X424952Y495555D01*
X424939Y495630D01*
X424932Y495640D01*
X424930Y495650D01*
X424906Y495678D01*
X424858Y495750D01*
X415288Y505320D01*
X413539Y507068D01*
X413539Y519502D01*
X413654Y519616D01*
X413694Y519681D01*
X413738Y519743D01*
X413740Y519755D01*
X413745Y519763D01*
X413749Y519800D01*
X413765Y519885D01*
X413765Y524398D01*
X415514Y526146D01*
X423306Y533938D01*
X423346Y534003D01*
X423390Y534065D01*
X423392Y534077D01*
X423397Y534085D01*
X423401Y534122D01*
X423417Y534207D01*
X423417Y584863D01*
X423406Y584913D01*
X423404Y584964D01*
X423386Y584996D01*
X423378Y585032D01*
X423345Y585071D01*
X423321Y585116D01*
X423291Y585137D01*
X423268Y585165D01*
X423221Y585186D01*
X423179Y585216D01*
X423137Y585224D01*
X423109Y585236D01*
X423079Y585235D01*
X423037Y585243D01*
X420712Y585243D01*
X417603Y588352D01*
X417603Y592748D01*
X420712Y595857D01*
X422226Y595857D01*
X422251Y595863D01*
X422276Y595860D01*
X422334Y595882D01*
X422394Y595896D01*
X422414Y595913D01*
X422438Y595922D01*
X422480Y595967D01*
X422528Y596006D01*
X422538Y596030D01*
X422556Y596049D01*
X422574Y596108D01*
X422599Y596165D01*
X422598Y596190D01*
X422605Y596215D01*
X422595Y596276D01*
X422592Y596338D01*
X422580Y596360D01*
X422575Y596386D01*
X422527Y596457D01*
X422509Y596490D01*
X422501Y596496D01*
X422494Y596506D01*
X378205Y640795D01*
X378205Y660295D01*
X378191Y660357D01*
X378184Y660420D01*
X378171Y660441D01*
X378166Y660464D01*
X378125Y660513D01*
X378091Y660567D01*
X378069Y660582D01*
X378056Y660598D01*
X378021Y660613D01*
X377971Y660647D01*
X375820Y661537D01*
X373247Y664110D01*
X371855Y667471D01*
X371855Y686349D01*
X373247Y689710D01*
X375820Y692283D01*
X377971Y693173D01*
X378022Y693210D01*
X378078Y693241D01*
X378092Y693260D01*
X378111Y693274D01*
X378141Y693331D01*
X378178Y693382D01*
X378183Y693409D01*
X378193Y693427D01*
X378194Y693465D01*
X378205Y693525D01*
X378205Y721572D01*
X378199Y721598D01*
X378202Y721623D01*
X378180Y721681D01*
X378166Y721741D01*
X378149Y721761D01*
X378140Y721785D01*
X378095Y721827D01*
X378056Y721875D01*
X378032Y721885D01*
X378013Y721903D01*
X377954Y721920D01*
X377897Y721946D01*
X377872Y721945D01*
X377847Y721952D01*
X377786Y721941D01*
X377724Y721939D01*
X377702Y721927D01*
X377676Y721922D01*
X377605Y721874D01*
X377572Y721856D01*
X377566Y721848D01*
X377556Y721841D01*
X375578Y719863D01*
X371182Y719863D01*
X368073Y722972D01*
X368073Y727368D01*
X370474Y729769D01*
X370514Y729833D01*
X370558Y729895D01*
X370560Y729907D01*
X370565Y729916D01*
X370569Y729953D01*
X370585Y730038D01*
X370585Y732678D01*
X372334Y734426D01*
X374030Y736122D01*
X374070Y736187D01*
X374114Y736249D01*
X374116Y736261D01*
X374121Y736269D01*
X374125Y736306D01*
X374141Y736391D01*
X374141Y767739D01*
X374124Y767813D01*
X374111Y767888D01*
X374104Y767898D01*
X374102Y767908D01*
X374078Y767937D01*
X374030Y768008D01*
X365053Y776985D01*
X365053Y778465D01*
X365036Y778539D01*
X365023Y778614D01*
X365016Y778624D01*
X365014Y778634D01*
X364990Y778662D01*
X364942Y778734D01*
X364770Y778906D01*
X364705Y778946D01*
X364643Y778990D01*
X364631Y778992D01*
X364623Y778997D01*
X364585Y779001D01*
X364501Y779017D01*
X241735Y779017D01*
X241685Y779006D01*
X241634Y779004D01*
X241602Y778986D01*
X241566Y778978D01*
X241526Y778945D01*
X241482Y778921D01*
X241461Y778891D01*
X241432Y778868D01*
X241411Y778821D01*
X241382Y778779D01*
X241374Y778737D01*
X241361Y778709D01*
X241362Y778679D01*
X241354Y778637D01*
X241354Y777102D01*
X241244Y776992D01*
X241231Y776970D01*
X241211Y776954D01*
X241186Y776897D01*
X241153Y776845D01*
X241150Y776819D01*
X241140Y776795D01*
X241142Y776734D01*
X241136Y776672D01*
X241146Y776648D01*
X241147Y776622D01*
X241176Y776568D01*
X241198Y776510D01*
X241217Y776493D01*
X241229Y776470D01*
X241280Y776435D01*
X241325Y776393D01*
X241350Y776385D01*
X241371Y776370D01*
X241455Y776354D01*
X241491Y776343D01*
X241501Y776345D01*
X241513Y776343D01*
X242834Y776343D01*
X245943Y773234D01*
X245943Y768838D01*
X242834Y765729D01*
X238438Y765729D01*
X236037Y768130D01*
X235973Y768170D01*
X235911Y768214D01*
X235899Y768216D01*
X235890Y768221D01*
X235853Y768225D01*
X235768Y768241D01*
X213551Y768241D01*
X213477Y768224D01*
X213402Y768211D01*
X213392Y768204D01*
X213382Y768202D01*
X213354Y768178D01*
X213282Y768130D01*
X211102Y765950D01*
X211076Y765907D01*
X211041Y765869D01*
X211030Y765834D01*
X211011Y765803D01*
X211006Y765752D01*
X210992Y765703D01*
X210998Y765667D01*
X210995Y765630D01*
X211013Y765583D01*
X211021Y765532D01*
X211045Y765497D01*
X211047Y765493D01*
X211047Y761072D01*
X207938Y757963D01*
X203542Y757963D01*
X200433Y761072D01*
X200433Y765468D01*
X203542Y768577D01*
X205667Y768577D01*
X205741Y768594D01*
X205816Y768607D01*
X205826Y768614D01*
X205836Y768616D01*
X205864Y768640D01*
X205936Y768688D01*
X211078Y773831D01*
X233094Y773831D01*
X233119Y773837D01*
X233145Y773834D01*
X233203Y773856D01*
X233263Y773870D01*
X233283Y773887D01*
X233307Y773896D01*
X233349Y773941D01*
X233396Y773980D01*
X233407Y774004D01*
X233425Y774023D01*
X233442Y774082D01*
X233467Y774139D01*
X233466Y774164D01*
X233474Y774189D01*
X233463Y774250D01*
X233461Y774312D01*
X233448Y774334D01*
X233444Y774360D01*
X233396Y774431D01*
X233378Y774464D01*
X233370Y774470D01*
X233363Y774480D01*
X230741Y777102D01*
X230741Y781498D01*
X231675Y782432D01*
X231689Y782454D01*
X231708Y782470D01*
X231734Y782527D01*
X231766Y782579D01*
X231769Y782605D01*
X231779Y782629D01*
X231777Y782690D01*
X231783Y782752D01*
X231774Y782776D01*
X231773Y782802D01*
X231743Y782856D01*
X231721Y782914D01*
X231702Y782931D01*
X231690Y782954D01*
X231640Y782989D01*
X231594Y783031D01*
X231569Y783039D01*
X231548Y783054D01*
X231464Y783070D01*
X231428Y783081D01*
X231418Y783079D01*
X231406Y783081D01*
X191333Y783081D01*
X191283Y783070D01*
X191232Y783068D01*
X191200Y783050D01*
X191164Y783042D01*
X191125Y783009D01*
X191080Y782985D01*
X191059Y782955D01*
X191031Y782932D01*
X191010Y782885D01*
X190980Y782843D01*
X190972Y782801D01*
X190960Y782773D01*
X190961Y782743D01*
X190953Y782701D01*
X190953Y758009D01*
X190965Y757956D01*
X190966Y757925D01*
X190975Y757909D01*
X190983Y757860D01*
X190990Y757850D01*
X190992Y757840D01*
X191016Y757812D01*
X191064Y757740D01*
X194763Y754042D01*
X194763Y752672D01*
X194776Y752616D01*
X194776Y752601D01*
X194781Y752593D01*
X194793Y752523D01*
X194800Y752513D01*
X194802Y752503D01*
X194826Y752474D01*
X194874Y752403D01*
X197275Y750002D01*
X197275Y745606D01*
X194166Y742497D01*
X189770Y742497D01*
X187693Y744574D01*
X187650Y744601D01*
X187612Y744636D01*
X187577Y744646D01*
X187546Y744666D01*
X187495Y744671D01*
X187446Y744685D01*
X187410Y744679D01*
X187373Y744682D01*
X187325Y744664D01*
X187275Y744655D01*
X187240Y744631D01*
X187211Y744621D01*
X187190Y744598D01*
X187155Y744574D01*
X185078Y742497D01*
X180682Y742497D01*
X177573Y745606D01*
X177573Y750002D01*
X179974Y752403D01*
X180014Y752467D01*
X180058Y752529D01*
X180060Y752541D01*
X180065Y752550D01*
X180069Y752587D01*
X180076Y752624D01*
X180078Y752629D01*
X180078Y752635D01*
X180085Y752672D01*
X180085Y787288D01*
X183358Y790560D01*
X183371Y790582D01*
X183391Y790598D01*
X183417Y790655D01*
X183449Y790707D01*
X183452Y790733D01*
X183462Y790757D01*
X183460Y790818D01*
X183466Y790880D01*
X183457Y790904D01*
X183456Y790930D01*
X183426Y790984D01*
X183404Y791042D01*
X183385Y791059D01*
X183373Y791082D01*
X183322Y791117D01*
X183277Y791159D01*
X183252Y791167D01*
X183231Y791182D01*
X183147Y791198D01*
X183111Y791209D01*
X183101Y791207D01*
X183089Y791209D01*
X171640Y791209D01*
X171625Y791206D01*
X171607Y791208D01*
X168950Y790979D01*
X168921Y790970D01*
X168877Y790966D01*
X163717Y789469D01*
X163684Y789451D01*
X163626Y789430D01*
X159029Y786649D01*
X159002Y786622D01*
X158952Y786587D01*
X155231Y782711D01*
X155212Y782679D01*
X155172Y782631D01*
X152581Y777925D01*
X152571Y777888D01*
X152545Y777832D01*
X151261Y772615D01*
X151260Y772584D01*
X151250Y772542D01*
X151131Y769901D01*
X151133Y769893D01*
X151131Y769884D01*
X151131Y769728D01*
X151132Y769724D01*
X151131Y769720D01*
X151170Y767807D01*
X151157Y767773D01*
X151155Y767757D01*
X151131Y767635D01*
X151131Y758669D01*
X151137Y758644D01*
X151134Y758618D01*
X151156Y758560D01*
X151170Y758500D01*
X151187Y758480D01*
X151196Y758456D01*
X151241Y758414D01*
X151280Y758367D01*
X151304Y758356D01*
X151323Y758338D01*
X151382Y758321D01*
X151439Y758296D01*
X151464Y758297D01*
X151489Y758289D01*
X151550Y758300D01*
X151612Y758302D01*
X151634Y758315D01*
X151660Y758319D01*
X151731Y758367D01*
X151764Y758385D01*
X151770Y758393D01*
X151780Y758400D01*
X155916Y762537D01*
X164124Y762537D01*
X169927Y756734D01*
X169927Y748526D01*
X164299Y742899D01*
X164272Y742856D01*
X164238Y742818D01*
X164227Y742783D01*
X164208Y742752D01*
X164203Y742701D01*
X164188Y742652D01*
X164195Y742616D01*
X164191Y742579D01*
X164209Y742532D01*
X164218Y742481D01*
X164242Y742446D01*
X164253Y742417D01*
X164275Y742396D01*
X164299Y742361D01*
X169927Y736734D01*
X169927Y728526D01*
X164299Y722899D01*
X164272Y722856D01*
X164238Y722818D01*
X164227Y722783D01*
X164208Y722752D01*
X164203Y722701D01*
X164188Y722652D01*
X164195Y722616D01*
X164191Y722579D01*
X164209Y722532D01*
X164218Y722481D01*
X164242Y722446D01*
X164253Y722417D01*
X164275Y722396D01*
X164299Y722361D01*
X169927Y716734D01*
X169927Y708526D01*
X165018Y703617D01*
X164991Y703574D01*
X164956Y703537D01*
X164946Y703501D01*
X164926Y703470D01*
X164921Y703419D01*
X164907Y703370D01*
X164913Y703334D01*
X164910Y703298D01*
X164928Y703250D01*
X164936Y703200D01*
X164960Y703164D01*
X164971Y703136D01*
X164994Y703115D01*
X165018Y703080D01*
X170546Y697551D01*
X170568Y697537D01*
X170584Y697517D01*
X170641Y697492D01*
X170693Y697460D01*
X170719Y697457D01*
X170743Y697446D01*
X170804Y697449D01*
X170866Y697443D01*
X170890Y697452D01*
X170916Y697453D01*
X170970Y697483D01*
X171028Y697505D01*
X171045Y697524D01*
X171068Y697536D01*
X171103Y697586D01*
X171145Y697632D01*
X171153Y697656D01*
X171168Y697678D01*
X171184Y697762D01*
X171195Y697798D01*
X171193Y697808D01*
X171195Y697820D01*
X171195Y758402D01*
X171180Y758467D01*
X171179Y758506D01*
X171170Y758522D01*
X171165Y758551D01*
X171158Y758561D01*
X171156Y758571D01*
X171132Y758600D01*
X171109Y758633D01*
X171096Y758658D01*
X171090Y758663D01*
X171084Y758671D01*
X168683Y761072D01*
X168683Y765468D01*
X171792Y768577D01*
X176188Y768577D01*
X179297Y765468D01*
X179297Y761072D01*
X176896Y758671D01*
X176883Y758650D01*
X176866Y758636D01*
X176846Y758593D01*
X176812Y758545D01*
X176810Y758533D01*
X176805Y758524D01*
X176802Y758493D01*
X176795Y758478D01*
X176796Y758458D01*
X176785Y758402D01*
X176785Y684642D01*
X170068Y677925D01*
X162605Y677925D01*
X162531Y677908D01*
X162456Y677895D01*
X162446Y677888D01*
X162436Y677886D01*
X162408Y677862D01*
X162336Y677814D01*
X160086Y675564D01*
X160046Y675499D01*
X160002Y675437D01*
X160000Y675425D01*
X159995Y675417D01*
X159991Y675380D01*
X159975Y675295D01*
X159975Y673858D01*
X159981Y673832D01*
X159978Y673807D01*
X160000Y673749D01*
X160014Y673689D01*
X160031Y673669D01*
X160040Y673645D01*
X160085Y673603D01*
X160124Y673555D01*
X160148Y673545D01*
X160167Y673527D01*
X160226Y673510D01*
X160283Y673484D01*
X160308Y673485D01*
X160333Y673478D01*
X160394Y673489D01*
X160456Y673491D01*
X160478Y673503D01*
X160504Y673508D01*
X160575Y673556D01*
X160608Y673574D01*
X160614Y673582D01*
X160624Y673589D01*
X162902Y675867D01*
X167298Y675867D01*
X169699Y673466D01*
X169763Y673426D01*
X169825Y673382D01*
X169837Y673380D01*
X169846Y673375D01*
X169883Y673371D01*
X169968Y673355D01*
X201885Y673355D01*
X201959Y673372D01*
X202034Y673385D01*
X202044Y673392D01*
X202054Y673394D01*
X202082Y673418D01*
X202154Y673466D01*
X207742Y679054D01*
X207753Y679073D01*
X207766Y679083D01*
X207767Y679086D01*
X207775Y679092D01*
X207801Y679149D01*
X207833Y679201D01*
X207836Y679227D01*
X207846Y679251D01*
X207844Y679312D01*
X207850Y679374D01*
X207841Y679398D01*
X207840Y679424D01*
X207810Y679478D01*
X207788Y679536D01*
X207769Y679553D01*
X207757Y679576D01*
X207706Y679611D01*
X207661Y679653D01*
X207636Y679661D01*
X207615Y679676D01*
X207531Y679692D01*
X207495Y679703D01*
X207485Y679701D01*
X207473Y679703D01*
X205537Y679703D01*
X204858Y680382D01*
X204794Y680422D01*
X204731Y680466D01*
X204719Y680468D01*
X204711Y680473D01*
X204674Y680477D01*
X204589Y680493D01*
X202272Y680493D01*
X199163Y683602D01*
X199163Y687998D01*
X202272Y691107D01*
X206668Y691107D01*
X209777Y687998D01*
X209777Y687197D01*
X209788Y687147D01*
X209790Y687096D01*
X209808Y687064D01*
X209816Y687028D01*
X209849Y686989D01*
X209873Y686944D01*
X209903Y686923D01*
X209926Y686895D01*
X209973Y686874D01*
X210015Y686844D01*
X210057Y686836D01*
X210085Y686824D01*
X210115Y686825D01*
X210157Y686817D01*
X277069Y686817D01*
X277094Y686823D01*
X277120Y686820D01*
X277177Y686842D01*
X277238Y686856D01*
X277258Y686873D01*
X277282Y686882D01*
X277324Y686927D01*
X277371Y686966D01*
X277382Y686990D01*
X277399Y687009D01*
X277417Y687068D01*
X277442Y687125D01*
X277441Y687150D01*
X277449Y687175D01*
X277438Y687236D01*
X277436Y687298D01*
X277423Y687320D01*
X277419Y687346D01*
X277371Y687417D01*
X277353Y687450D01*
X277345Y687456D01*
X277338Y687466D01*
X275335Y689468D01*
X275335Y710142D01*
X275322Y710198D01*
X275322Y710214D01*
X275317Y710224D01*
X275305Y710291D01*
X275298Y710301D01*
X275296Y710311D01*
X275272Y710340D01*
X275224Y710411D01*
X272823Y712812D01*
X272823Y714993D01*
X272817Y715018D01*
X272820Y715044D01*
X272798Y715102D01*
X272784Y715162D01*
X272767Y715182D01*
X272758Y715206D01*
X272713Y715248D01*
X272674Y715295D01*
X272650Y715306D01*
X272631Y715323D01*
X272572Y715341D01*
X272515Y715366D01*
X272490Y715365D01*
X272465Y715373D01*
X272404Y715362D01*
X272342Y715360D01*
X272320Y715347D01*
X272294Y715343D01*
X272223Y715295D01*
X272190Y715277D01*
X272184Y715269D01*
X272174Y715262D01*
X272146Y715234D01*
X272106Y715169D01*
X272062Y715107D01*
X272060Y715095D01*
X272055Y715086D01*
X272051Y715049D01*
X272035Y714965D01*
X272035Y711312D01*
X262778Y702055D01*
X257855Y702055D01*
X257781Y702038D01*
X257706Y702025D01*
X257696Y702018D01*
X257686Y702016D01*
X257658Y701992D01*
X257586Y701944D01*
X248808Y693165D01*
X244898Y693165D01*
X244824Y693148D01*
X244749Y693135D01*
X244739Y693128D01*
X244729Y693126D01*
X244700Y693102D01*
X244629Y693054D01*
X242228Y690653D01*
X237832Y690653D01*
X234723Y693762D01*
X234723Y698158D01*
X237832Y701267D01*
X242228Y701267D01*
X244629Y698866D01*
X244693Y698826D01*
X244755Y698782D01*
X244767Y698780D01*
X244776Y698775D01*
X244813Y698771D01*
X244898Y698755D01*
X246335Y698755D01*
X246409Y698772D01*
X246484Y698785D01*
X246494Y698792D01*
X246504Y698794D01*
X246532Y698818D01*
X246604Y698866D01*
X255382Y707645D01*
X260305Y707645D01*
X260379Y707662D01*
X260454Y707675D01*
X260464Y707682D01*
X260474Y707684D01*
X260502Y707708D01*
X260574Y707756D01*
X266334Y713516D01*
X266374Y713581D01*
X266418Y713643D01*
X266420Y713655D01*
X266425Y713663D01*
X266429Y713700D01*
X266445Y713785D01*
X266445Y717438D01*
X276494Y727486D01*
X276534Y727551D01*
X276578Y727613D01*
X276580Y727625D01*
X276585Y727633D01*
X276589Y727670D01*
X276605Y727755D01*
X276605Y729192D01*
X276588Y729266D01*
X276575Y729341D01*
X276568Y729351D01*
X276566Y729361D01*
X276542Y729390D01*
X276494Y729461D01*
X274093Y731862D01*
X274093Y736258D01*
X276579Y738744D01*
X276593Y738766D01*
X276613Y738782D01*
X276638Y738839D01*
X276671Y738891D01*
X276673Y738917D01*
X276684Y738941D01*
X276681Y739002D01*
X276687Y739064D01*
X276678Y739088D01*
X276677Y739114D01*
X276648Y739168D01*
X276626Y739226D01*
X276607Y739243D01*
X276594Y739266D01*
X276544Y739301D01*
X276499Y739343D01*
X276474Y739351D01*
X276453Y739366D01*
X276368Y739382D01*
X276332Y739393D01*
X276322Y739391D01*
X276310Y739393D01*
X273346Y739393D01*
X273272Y739376D01*
X273197Y739363D01*
X273187Y739356D01*
X273177Y739354D01*
X273148Y739330D01*
X273077Y739282D01*
X271438Y737643D01*
X267042Y737643D01*
X263933Y740752D01*
X263933Y745148D01*
X265911Y747126D01*
X265921Y747142D01*
X265928Y747148D01*
X265930Y747152D01*
X265945Y747164D01*
X265970Y747221D01*
X266003Y747273D01*
X266005Y747299D01*
X266016Y747323D01*
X266013Y747384D01*
X266019Y747446D01*
X266010Y747470D01*
X266009Y747496D01*
X265980Y747550D01*
X265958Y747608D01*
X265939Y747625D01*
X265926Y747648D01*
X265876Y747683D01*
X265831Y747725D01*
X265806Y747733D01*
X265785Y747748D01*
X265700Y747764D01*
X265664Y747775D01*
X265654Y747773D01*
X265642Y747775D01*
X236855Y747775D01*
X236805Y747764D01*
X236754Y747762D01*
X236722Y747744D01*
X236686Y747736D01*
X236647Y747703D01*
X236602Y747679D01*
X236581Y747649D01*
X236553Y747626D01*
X236532Y747579D01*
X236502Y747537D01*
X236494Y747495D01*
X236482Y747467D01*
X236482Y747452D01*
X236482Y747451D01*
X236482Y747434D01*
X236475Y747395D01*
X236475Y719122D01*
X236492Y719048D01*
X236505Y718973D01*
X236512Y718963D01*
X236514Y718953D01*
X236538Y718924D01*
X236586Y718853D01*
X237884Y717555D01*
X237906Y717541D01*
X237922Y717521D01*
X237979Y717496D01*
X238031Y717463D01*
X238057Y717461D01*
X238081Y717450D01*
X238142Y717453D01*
X238204Y717447D01*
X238228Y717456D01*
X238254Y717457D01*
X238308Y717486D01*
X238366Y717508D01*
X238383Y717527D01*
X238406Y717540D01*
X238441Y717590D01*
X238483Y717635D01*
X238491Y717660D01*
X238506Y717681D01*
X238522Y717766D01*
X238533Y717802D01*
X238531Y717812D01*
X238533Y717824D01*
X238533Y721018D01*
X241642Y724127D01*
X246038Y724127D01*
X249147Y721018D01*
X249147Y720725D01*
X249158Y720675D01*
X249160Y720624D01*
X249178Y720592D01*
X249186Y720556D01*
X249219Y720517D01*
X249243Y720472D01*
X249273Y720451D01*
X249296Y720423D01*
X249343Y720402D01*
X249385Y720372D01*
X249427Y720364D01*
X249455Y720352D01*
X249485Y720353D01*
X249527Y720345D01*
X254590Y720345D01*
X254664Y720362D01*
X254739Y720375D01*
X254749Y720382D01*
X254759Y720384D01*
X254788Y720408D01*
X254859Y720456D01*
X257260Y722857D01*
X261656Y722857D01*
X264765Y719748D01*
X264765Y715352D01*
X261656Y712243D01*
X257260Y712243D01*
X254859Y714644D01*
X254795Y714684D01*
X254733Y714728D01*
X254721Y714730D01*
X254712Y714735D01*
X254675Y714739D01*
X254590Y714755D01*
X247438Y714755D01*
X247364Y714738D01*
X247289Y714725D01*
X247279Y714718D01*
X247269Y714716D01*
X247240Y714692D01*
X247169Y714644D01*
X246038Y713513D01*
X241642Y713513D01*
X239636Y715519D01*
X239614Y715533D01*
X239598Y715553D01*
X239541Y715578D01*
X239489Y715611D01*
X239463Y715613D01*
X239439Y715624D01*
X239378Y715621D01*
X239316Y715627D01*
X239292Y715618D01*
X239266Y715617D01*
X239212Y715588D01*
X239154Y715566D01*
X239137Y715547D01*
X239114Y715534D01*
X239079Y715484D01*
X239037Y715439D01*
X239029Y715414D01*
X239014Y715393D01*
X238998Y715308D01*
X238987Y715272D01*
X238989Y715262D01*
X238987Y715250D01*
X238987Y712056D01*
X235878Y708947D01*
X231482Y708947D01*
X228373Y712056D01*
X228373Y713647D01*
X228362Y713697D01*
X228360Y713748D01*
X228342Y713780D01*
X228334Y713816D01*
X228301Y713855D01*
X228277Y713900D01*
X228247Y713921D01*
X228224Y713949D01*
X228177Y713970D01*
X228135Y714000D01*
X228093Y714008D01*
X228065Y714020D01*
X228035Y714019D01*
X227993Y714027D01*
X223709Y714027D01*
X220601Y717136D01*
X220601Y721532D01*
X223002Y723933D01*
X223011Y723948D01*
X223016Y723952D01*
X223023Y723968D01*
X223042Y723997D01*
X223085Y724059D01*
X223088Y724071D01*
X223093Y724080D01*
X223096Y724117D01*
X223113Y724202D01*
X223113Y726175D01*
X226710Y729772D01*
X226750Y729837D01*
X226794Y729899D01*
X226796Y729911D01*
X226801Y729919D01*
X226805Y729956D01*
X226821Y730041D01*
X226821Y752141D01*
X232109Y757429D01*
X278431Y757429D01*
X280860Y755000D01*
X280924Y754960D01*
X280986Y754916D01*
X280998Y754914D01*
X281007Y754909D01*
X281044Y754905D01*
X281129Y754889D01*
X310089Y754889D01*
X310163Y754906D01*
X310238Y754919D01*
X310248Y754926D01*
X310258Y754928D01*
X310286Y754952D01*
X310358Y755000D01*
X315072Y759715D01*
X316442Y759715D01*
X316516Y759732D01*
X316591Y759745D01*
X316601Y759752D01*
X316611Y759754D01*
X316640Y759778D01*
X316711Y759826D01*
X319112Y762227D01*
X323508Y762227D01*
X325909Y759826D01*
X325973Y759786D01*
X326035Y759742D01*
X326047Y759740D01*
X326056Y759735D01*
X326093Y759731D01*
X326178Y759715D01*
X347868Y759715D01*
X349054Y758528D01*
X349119Y758488D01*
X349181Y758444D01*
X349193Y758442D01*
X349201Y758437D01*
X349238Y758433D01*
X349323Y758417D01*
X352718Y758417D01*
X355827Y755308D01*
X355827Y750912D01*
X352718Y747803D01*
X348322Y747803D01*
X345213Y750912D01*
X345213Y753745D01*
X345202Y753795D01*
X345200Y753846D01*
X345182Y753878D01*
X345174Y753914D01*
X345141Y753953D01*
X345117Y753998D01*
X345087Y754019D01*
X345064Y754047D01*
X345017Y754068D01*
X344975Y754098D01*
X344933Y754106D01*
X344905Y754118D01*
X344875Y754117D01*
X344833Y754125D01*
X326178Y754125D01*
X326104Y754108D01*
X326029Y754095D01*
X326019Y754088D01*
X326009Y754086D01*
X325980Y754062D01*
X325909Y754014D01*
X323508Y751613D01*
X319112Y751613D01*
X317263Y753463D01*
X317219Y753489D01*
X317182Y753524D01*
X317147Y753535D01*
X317115Y753554D01*
X317065Y753559D01*
X317016Y753573D01*
X316979Y753567D01*
X316943Y753570D01*
X316895Y753552D01*
X316845Y753544D01*
X316810Y753520D01*
X316781Y753509D01*
X316760Y753486D01*
X316725Y753463D01*
X314708Y751446D01*
X314695Y751425D01*
X314678Y751411D01*
X314678Y751410D01*
X314675Y751408D01*
X314649Y751351D01*
X314617Y751299D01*
X314614Y751273D01*
X314604Y751249D01*
X314606Y751188D01*
X314600Y751126D01*
X314609Y751102D01*
X314610Y751076D01*
X314640Y751022D01*
X314662Y750964D01*
X314681Y750947D01*
X314693Y750924D01*
X314744Y750889D01*
X314789Y750847D01*
X314814Y750839D01*
X314835Y750824D01*
X314919Y750808D01*
X314955Y750797D01*
X314965Y750799D01*
X314977Y750797D01*
X317158Y750797D01*
X320267Y747688D01*
X320267Y743292D01*
X317158Y740183D01*
X314325Y740183D01*
X314275Y740172D01*
X314224Y740170D01*
X314192Y740152D01*
X314156Y740144D01*
X314117Y740111D01*
X314072Y740087D01*
X314051Y740057D01*
X314023Y740034D01*
X314002Y739987D01*
X313972Y739945D01*
X313964Y739903D01*
X313952Y739875D01*
X313953Y739848D01*
X313952Y739846D01*
X313952Y739840D01*
X313945Y739803D01*
X313945Y720135D01*
X313962Y720061D01*
X313975Y719986D01*
X313982Y719976D01*
X313984Y719966D01*
X314008Y719938D01*
X314056Y719866D01*
X317276Y716646D01*
X317341Y716606D01*
X317403Y716562D01*
X317415Y716560D01*
X317423Y716555D01*
X317460Y716551D01*
X317545Y716535D01*
X340842Y716535D01*
X340916Y716552D01*
X340991Y716565D01*
X341001Y716572D01*
X341011Y716574D01*
X341040Y716598D01*
X341111Y716646D01*
X342752Y718287D01*
X347148Y718287D01*
X350257Y715178D01*
X350257Y710782D01*
X347148Y707673D01*
X342752Y707673D01*
X339591Y710834D01*
X339527Y710874D01*
X339465Y710918D01*
X339453Y710920D01*
X339444Y710925D01*
X339407Y710929D01*
X339322Y710945D01*
X315072Y710945D01*
X308355Y717662D01*
X308355Y740622D01*
X308349Y740648D01*
X308352Y740673D01*
X308330Y740731D01*
X308316Y740791D01*
X308299Y740811D01*
X308290Y740835D01*
X308245Y740877D01*
X308206Y740925D01*
X308182Y740935D01*
X308163Y740953D01*
X308104Y740970D01*
X308047Y740996D01*
X308022Y740995D01*
X307997Y741002D01*
X307936Y740991D01*
X307874Y740989D01*
X307852Y740977D01*
X307826Y740972D01*
X307755Y740924D01*
X307722Y740906D01*
X307716Y740898D01*
X307706Y740891D01*
X306998Y740183D01*
X302602Y740183D01*
X299493Y743292D01*
X299493Y744855D01*
X299482Y744905D01*
X299480Y744956D01*
X299462Y744988D01*
X299454Y745024D01*
X299421Y745063D01*
X299397Y745108D01*
X299367Y745129D01*
X299344Y745157D01*
X299297Y745178D01*
X299255Y745208D01*
X299213Y745216D01*
X299185Y745228D01*
X299155Y745227D01*
X299113Y745235D01*
X288143Y745235D01*
X288118Y745229D01*
X288092Y745232D01*
X288034Y745210D01*
X287974Y745196D01*
X287954Y745179D01*
X287930Y745170D01*
X287888Y745125D01*
X287840Y745086D01*
X287830Y745062D01*
X287812Y745043D01*
X287795Y744984D01*
X287769Y744927D01*
X287770Y744902D01*
X287763Y744877D01*
X287774Y744816D01*
X287776Y744754D01*
X287788Y744732D01*
X287793Y744706D01*
X287841Y744635D01*
X287859Y744602D01*
X287867Y744596D01*
X287874Y744586D01*
X304547Y727913D01*
X304547Y693716D01*
X304564Y693642D01*
X304577Y693567D01*
X304584Y693557D01*
X304586Y693547D01*
X304610Y693518D01*
X304658Y693447D01*
X306297Y691808D01*
X306297Y687412D01*
X303188Y684303D01*
X301482Y684303D01*
X301457Y684297D01*
X301431Y684300D01*
X301374Y684278D01*
X301313Y684264D01*
X301293Y684247D01*
X301269Y684238D01*
X301227Y684193D01*
X301180Y684154D01*
X301169Y684130D01*
X301152Y684111D01*
X301134Y684052D01*
X301109Y683995D01*
X301110Y683970D01*
X301102Y683945D01*
X301113Y683884D01*
X301115Y683822D01*
X301128Y683800D01*
X301132Y683774D01*
X301180Y683703D01*
X301198Y683670D01*
X301206Y683664D01*
X301213Y683654D01*
X311151Y673717D01*
X311151Y656889D01*
X311168Y656815D01*
X311181Y656740D01*
X311188Y656730D01*
X311190Y656720D01*
X311214Y656692D01*
X311254Y656633D01*
X311257Y656626D01*
X311259Y656625D01*
X311262Y656620D01*
X327690Y640192D01*
X327755Y640152D01*
X327817Y640108D01*
X327829Y640106D01*
X327837Y640101D01*
X327874Y640097D01*
X327959Y640081D01*
X338437Y640081D01*
X340185Y638332D01*
X347756Y630761D01*
X349505Y629013D01*
X349505Y619548D01*
X349508Y619533D01*
X349506Y619517D01*
X349543Y619386D01*
X349544Y619379D01*
X349545Y619378D01*
X349597Y619315D01*
X349654Y619245D01*
X349655Y619245D01*
X349656Y619244D01*
X349731Y619211D01*
X349813Y619174D01*
X349814Y619174D01*
X349899Y619178D01*
X349986Y619181D01*
X349987Y619181D01*
X350062Y619222D01*
X350138Y619264D01*
X350139Y619265D01*
X350188Y619335D01*
X350238Y619405D01*
X350238Y619406D01*
X350238Y619407D01*
X350239Y619414D01*
X350265Y619548D01*
X350265Y650195D01*
X350248Y650269D01*
X350235Y650344D01*
X350228Y650354D01*
X350226Y650364D01*
X350202Y650392D01*
X350154Y650464D01*
X340105Y660512D01*
X340105Y664765D01*
X340086Y664849D01*
X340068Y664930D01*
X340066Y664932D01*
X340066Y664934D01*
X340012Y664999D01*
X339959Y665065D01*
X339957Y665066D01*
X339956Y665068D01*
X339880Y665102D01*
X339802Y665138D01*
X339800Y665138D01*
X339797Y665139D01*
X339713Y665136D01*
X339629Y665133D01*
X339627Y665132D01*
X339624Y665132D01*
X339550Y665092D01*
X339475Y665052D01*
X339474Y665050D01*
X339472Y665049D01*
X339463Y665036D01*
X339386Y664938D01*
X338890Y663965D01*
X337950Y662671D01*
X336819Y661540D01*
X335525Y660600D01*
X334100Y659874D01*
X332579Y659379D01*
X331000Y659129D01*
X330961Y659129D01*
X330961Y676529D01*
X330950Y676579D01*
X330948Y676630D01*
X330930Y676662D01*
X330922Y676698D01*
X330889Y676737D01*
X330865Y676782D01*
X330835Y676803D01*
X330812Y676831D01*
X330765Y676852D01*
X330723Y676881D01*
X330681Y676890D01*
X330653Y676902D01*
X330623Y676901D01*
X330581Y676909D01*
X330199Y676909D01*
X330199Y676911D01*
X330581Y676911D01*
X330631Y676923D01*
X330682Y676924D01*
X330714Y676942D01*
X330750Y676950D01*
X330789Y676983D01*
X330834Y677007D01*
X330855Y677037D01*
X330883Y677061D01*
X330904Y677107D01*
X330934Y677149D01*
X330942Y677191D01*
X330954Y677219D01*
X330953Y677249D01*
X330961Y677291D01*
X330961Y694691D01*
X331000Y694691D01*
X332579Y694441D01*
X334100Y693946D01*
X335525Y693220D01*
X336819Y692280D01*
X337950Y691149D01*
X338890Y689855D01*
X339386Y688882D01*
X339441Y688817D01*
X339494Y688752D01*
X339496Y688751D01*
X339498Y688750D01*
X339576Y688716D01*
X339653Y688681D01*
X339655Y688681D01*
X339657Y688680D01*
X339741Y688685D01*
X339826Y688688D01*
X339828Y688689D01*
X339830Y688689D01*
X339903Y688730D01*
X339978Y688771D01*
X339979Y688772D01*
X339981Y688774D01*
X340028Y688842D01*
X340078Y688912D01*
X340078Y688915D01*
X340079Y688916D01*
X340082Y688933D01*
X340105Y689055D01*
X340105Y693375D01*
X340088Y693449D01*
X340084Y693470D01*
X340084Y693483D01*
X340081Y693489D01*
X340075Y693524D01*
X340068Y693534D01*
X340066Y693544D01*
X340042Y693572D01*
X340008Y693622D01*
X340001Y693636D01*
X339998Y693638D01*
X339994Y693644D01*
X335504Y698134D01*
X335439Y698174D01*
X335377Y698218D01*
X335365Y698220D01*
X335357Y698225D01*
X335320Y698229D01*
X335235Y698245D01*
X332528Y698245D01*
X332454Y698228D01*
X332379Y698215D01*
X332369Y698208D01*
X332359Y698206D01*
X332330Y698182D01*
X332259Y698134D01*
X329858Y695733D01*
X325462Y695733D01*
X322353Y698842D01*
X322353Y703238D01*
X325462Y706347D01*
X329858Y706347D01*
X332259Y703946D01*
X332323Y703906D01*
X332385Y703862D01*
X332397Y703860D01*
X332406Y703855D01*
X332443Y703851D01*
X332528Y703835D01*
X337708Y703835D01*
X345695Y695848D01*
X345695Y662985D01*
X345712Y662911D01*
X345725Y662836D01*
X345732Y662826D01*
X345734Y662816D01*
X345758Y662788D01*
X345806Y662716D01*
X355855Y652668D01*
X355855Y618945D01*
X355872Y618871D01*
X355885Y618796D01*
X355892Y618786D01*
X355894Y618776D01*
X355918Y618747D01*
X355966Y618676D01*
X356081Y618562D01*
X356081Y610164D01*
X345552Y599636D01*
X345512Y599571D01*
X345468Y599509D01*
X345466Y599497D01*
X345461Y599489D01*
X345457Y599452D01*
X345441Y599367D01*
X345441Y595972D01*
X342332Y592863D01*
X337936Y592863D01*
X334827Y595972D01*
X334827Y600368D01*
X336918Y602459D01*
X336945Y602502D01*
X336980Y602540D01*
X336990Y602575D01*
X337010Y602606D01*
X337015Y602657D01*
X337029Y602706D01*
X337023Y602742D01*
X337026Y602779D01*
X337008Y602827D01*
X336999Y602877D01*
X336975Y602912D01*
X336965Y602941D01*
X336942Y602962D01*
X336918Y602997D01*
X333783Y606132D01*
X333783Y610528D01*
X335422Y612167D01*
X335462Y612231D01*
X335506Y612293D01*
X335508Y612305D01*
X335513Y612314D01*
X335517Y612351D01*
X335533Y612436D01*
X335533Y627019D01*
X335516Y627093D01*
X335503Y627168D01*
X335496Y627178D01*
X335494Y627188D01*
X335470Y627217D01*
X335422Y627288D01*
X333918Y628792D01*
X333854Y628832D01*
X333791Y628876D01*
X333779Y628878D01*
X333771Y628883D01*
X333734Y628887D01*
X333649Y628903D01*
X324182Y628903D01*
X324157Y628897D01*
X324131Y628900D01*
X324074Y628878D01*
X324013Y628864D01*
X323993Y628847D01*
X323969Y628838D01*
X323927Y628793D01*
X323880Y628754D01*
X323869Y628730D01*
X323852Y628711D01*
X323834Y628652D01*
X323809Y628595D01*
X323810Y628570D01*
X323802Y628545D01*
X323813Y628484D01*
X323815Y628422D01*
X323828Y628400D01*
X323832Y628374D01*
X323880Y628303D01*
X323898Y628270D01*
X323906Y628264D01*
X323913Y628254D01*
X327944Y624223D01*
X329693Y622475D01*
X329693Y598977D01*
X329710Y598903D01*
X329723Y598828D01*
X329730Y598818D01*
X329732Y598808D01*
X329756Y598780D01*
X329804Y598708D01*
X336241Y592272D01*
X336241Y590338D01*
X336255Y590275D01*
X336257Y590234D01*
X336266Y590218D01*
X336271Y590189D01*
X336278Y590179D01*
X336280Y590169D01*
X336304Y590140D01*
X336326Y590108D01*
X336340Y590082D01*
X336346Y590078D01*
X336352Y590069D01*
X338753Y587668D01*
X338753Y583272D01*
X335644Y580163D01*
X331248Y580163D01*
X330314Y581097D01*
X330292Y581111D01*
X330276Y581131D01*
X330219Y581156D01*
X330167Y581189D01*
X330141Y581191D01*
X330117Y581202D01*
X330056Y581199D01*
X329994Y581205D01*
X329970Y581196D01*
X329944Y581195D01*
X329890Y581166D01*
X329832Y581144D01*
X329815Y581125D01*
X329792Y581112D01*
X329757Y581062D01*
X329715Y581017D01*
X329707Y580992D01*
X329692Y580971D01*
X329676Y580886D01*
X329665Y580850D01*
X329667Y580840D01*
X329665Y580828D01*
X329665Y553952D01*
X329682Y553878D01*
X329695Y553804D01*
X329702Y553794D01*
X329704Y553784D01*
X329728Y553755D01*
X329776Y553684D01*
X331979Y551481D01*
X331979Y507189D01*
X331996Y507115D01*
X332009Y507040D01*
X332016Y507030D01*
X332018Y507020D01*
X332042Y506991D01*
X332090Y506920D01*
X335470Y503540D01*
X335534Y503500D01*
X335596Y503456D01*
X335608Y503454D01*
X335617Y503449D01*
X335654Y503445D01*
X335739Y503429D01*
X395179Y503429D01*
X395253Y503446D01*
X395328Y503459D01*
X395338Y503466D01*
X395348Y503468D01*
X395376Y503492D01*
X395448Y503540D01*
X397848Y505941D01*
X402802Y505941D01*
X402876Y505958D01*
X402951Y505971D01*
X402961Y505978D01*
X402971Y505980D01*
X403000Y506004D01*
X403071Y506052D01*
X405472Y508453D01*
X409868Y508453D01*
X412977Y505344D01*
X412977Y500948D01*
X412043Y500014D01*
X412029Y499992D01*
X412009Y499976D01*
X411984Y499919D01*
X411951Y499867D01*
X411949Y499841D01*
X411938Y499817D01*
X411941Y499756D01*
X411935Y499694D01*
X411944Y499670D01*
X411945Y499644D01*
X411974Y499590D01*
X411996Y499532D01*
X412015Y499515D01*
X412028Y499492D01*
X412078Y499457D01*
X412123Y499415D01*
X412148Y499407D01*
X412169Y499392D01*
X412254Y499376D01*
X412290Y499365D01*
X412300Y499367D01*
X412312Y499365D01*
X413908Y499365D01*
X418904Y494368D01*
X418969Y494328D01*
X419031Y494284D01*
X419043Y494282D01*
X419051Y494277D01*
X419088Y494273D01*
X419173Y494257D01*
X422568Y494257D01*
X424320Y492505D01*
X424342Y492491D01*
X424358Y492471D01*
X424415Y492446D01*
X424467Y492413D01*
X424493Y492411D01*
X424517Y492400D01*
X424578Y492403D01*
X424640Y492397D01*
X424664Y492406D01*
G37*
G36*
X239654Y426981D02*
X239654Y426981D01*
X239679Y426978D01*
X239737Y427000D01*
X239797Y427014D01*
X239817Y427031D01*
X239841Y427040D01*
X239883Y427085D01*
X239931Y427124D01*
X239942Y427148D01*
X239959Y427167D01*
X239977Y427226D01*
X240002Y427283D01*
X240001Y427308D01*
X240008Y427333D01*
X239998Y427394D01*
X239995Y427456D01*
X239983Y427478D01*
X239979Y427504D01*
X239930Y427575D01*
X239913Y427608D01*
X239904Y427614D01*
X239897Y427624D01*
X237898Y429623D01*
X237898Y434019D01*
X240299Y436420D01*
X240339Y436485D01*
X240383Y436547D01*
X240385Y436559D01*
X240390Y436567D01*
X240394Y436604D01*
X240399Y436633D01*
X240403Y436642D01*
X240403Y436651D01*
X240410Y436689D01*
X240410Y443753D01*
X245476Y448819D01*
X267194Y448819D01*
X268832Y447180D01*
X268897Y447140D01*
X268959Y447096D01*
X268971Y447094D01*
X268980Y447089D01*
X269017Y447085D01*
X269101Y447069D01*
X275729Y447069D01*
X275803Y447086D01*
X275877Y447099D01*
X275888Y447106D01*
X275897Y447108D01*
X275926Y447132D01*
X275998Y447180D01*
X279034Y450216D01*
X279074Y450281D01*
X279118Y450343D01*
X279120Y450355D01*
X279125Y450364D01*
X279129Y450401D01*
X279145Y450485D01*
X279145Y468842D01*
X279139Y468868D01*
X279142Y468893D01*
X279120Y468951D01*
X279106Y469011D01*
X279089Y469031D01*
X279080Y469055D01*
X279035Y469097D01*
X278996Y469145D01*
X278972Y469155D01*
X278953Y469173D01*
X278894Y469190D01*
X278837Y469216D01*
X278812Y469215D01*
X278787Y469222D01*
X278726Y469211D01*
X278664Y469209D01*
X278642Y469197D01*
X278616Y469192D01*
X278545Y469144D01*
X278512Y469126D01*
X278506Y469118D01*
X278496Y469111D01*
X276409Y467025D01*
X272013Y467025D01*
X268905Y470133D01*
X268905Y474529D01*
X271305Y476930D01*
X271345Y476995D01*
X271389Y477057D01*
X271391Y477069D01*
X271397Y477077D01*
X271400Y477114D01*
X271417Y477199D01*
X271417Y481110D01*
X271454Y481171D01*
X271498Y481233D01*
X271500Y481245D01*
X271505Y481253D01*
X271509Y481290D01*
X271525Y481375D01*
X271525Y481887D01*
X271508Y481961D01*
X271495Y482036D01*
X271488Y482046D01*
X271486Y482056D01*
X271462Y482085D01*
X271414Y482156D01*
X258636Y494934D01*
X258572Y494974D01*
X258510Y495018D01*
X258498Y495020D01*
X258489Y495025D01*
X258452Y495029D01*
X258367Y495045D01*
X250922Y495045D01*
X238956Y507012D01*
X238891Y507052D01*
X238829Y507096D01*
X238817Y507098D01*
X238809Y507103D01*
X238772Y507107D01*
X238687Y507123D01*
X235292Y507123D01*
X232183Y510232D01*
X232183Y514628D01*
X235292Y517737D01*
X239688Y517737D01*
X242797Y514628D01*
X242797Y511233D01*
X242809Y511182D01*
X242810Y511142D01*
X242820Y511124D01*
X242827Y511084D01*
X242834Y511074D01*
X242836Y511064D01*
X242860Y511036D01*
X242908Y510964D01*
X253126Y500746D01*
X253191Y500706D01*
X253253Y500662D01*
X253265Y500660D01*
X253273Y500655D01*
X253310Y500651D01*
X253395Y500635D01*
X257765Y500635D01*
X257790Y500641D01*
X257816Y500638D01*
X257873Y500660D01*
X257934Y500674D01*
X257954Y500691D01*
X257978Y500700D01*
X258020Y500745D01*
X258067Y500784D01*
X258078Y500808D01*
X258095Y500827D01*
X258113Y500886D01*
X258138Y500943D01*
X258137Y500968D01*
X258145Y500993D01*
X258134Y501054D01*
X258132Y501116D01*
X258119Y501138D01*
X258115Y501164D01*
X258067Y501235D01*
X258049Y501268D01*
X258041Y501274D01*
X258034Y501284D01*
X252306Y507012D01*
X252241Y507052D01*
X252179Y507096D01*
X252167Y507098D01*
X252159Y507103D01*
X252122Y507107D01*
X252037Y507123D01*
X247992Y507123D01*
X244883Y510232D01*
X244883Y514628D01*
X247992Y517737D01*
X252388Y517737D01*
X255497Y514628D01*
X255497Y511883D01*
X255514Y511809D01*
X255527Y511734D01*
X255534Y511724D01*
X255536Y511714D01*
X255560Y511686D01*
X255608Y511614D01*
X284735Y482488D01*
X284735Y448012D01*
X282986Y446264D01*
X278202Y441479D01*
X266628Y441479D01*
X264990Y443118D01*
X264925Y443158D01*
X264863Y443202D01*
X264851Y443204D01*
X264843Y443209D01*
X264806Y443213D01*
X264721Y443229D01*
X247949Y443229D01*
X247875Y443212D01*
X247800Y443199D01*
X247790Y443192D01*
X247780Y443190D01*
X247752Y443166D01*
X247680Y443118D01*
X246111Y441549D01*
X246094Y441521D01*
X246078Y441508D01*
X246060Y441469D01*
X246027Y441422D01*
X246025Y441410D01*
X246020Y441402D01*
X246017Y441372D01*
X246007Y441349D01*
X246008Y441321D01*
X246000Y441280D01*
X246000Y436689D01*
X246012Y436634D01*
X246013Y436613D01*
X246019Y436602D01*
X246030Y436540D01*
X246037Y436530D01*
X246039Y436520D01*
X246063Y436491D01*
X246111Y436420D01*
X248512Y434019D01*
X248512Y429623D01*
X246513Y427624D01*
X246499Y427602D01*
X246479Y427586D01*
X246454Y427529D01*
X246421Y427477D01*
X246419Y427451D01*
X246408Y427427D01*
X246410Y427366D01*
X246405Y427304D01*
X246414Y427280D01*
X246415Y427254D01*
X246444Y427200D01*
X246466Y427142D01*
X246485Y427125D01*
X246497Y427102D01*
X246548Y427067D01*
X246593Y427025D01*
X246618Y427017D01*
X246639Y427002D01*
X246724Y426986D01*
X246759Y426975D01*
X246769Y426977D01*
X246781Y426975D01*
X280035Y426975D01*
X280085Y426986D01*
X280136Y426988D01*
X280168Y427006D01*
X280204Y427014D01*
X280243Y427047D01*
X280288Y427071D01*
X280309Y427101D01*
X280337Y427124D01*
X280358Y427171D01*
X280388Y427213D01*
X280396Y427255D01*
X280408Y427283D01*
X280407Y427313D01*
X280415Y427355D01*
X280415Y438038D01*
X287132Y444755D01*
X316668Y444755D01*
X316694Y444761D01*
X316719Y444758D01*
X316777Y444780D01*
X316837Y444794D01*
X316857Y444811D01*
X316881Y444820D01*
X316923Y444865D01*
X316971Y444904D01*
X316981Y444928D01*
X316999Y444947D01*
X317016Y445006D01*
X317042Y445063D01*
X317041Y445088D01*
X317048Y445113D01*
X317037Y445174D01*
X317035Y445236D01*
X317023Y445258D01*
X317018Y445284D01*
X316970Y445355D01*
X316952Y445388D01*
X316944Y445394D01*
X316937Y445404D01*
X316003Y446338D01*
X316003Y450734D01*
X317642Y452373D01*
X317682Y452437D01*
X317726Y452499D01*
X317728Y452511D01*
X317733Y452520D01*
X317737Y452557D01*
X317753Y452642D01*
X317753Y494939D01*
X317736Y495013D01*
X317723Y495088D01*
X317716Y495098D01*
X317714Y495108D01*
X317690Y495137D01*
X317642Y495208D01*
X302513Y510337D01*
X302513Y585109D01*
X302496Y585183D01*
X302483Y585258D01*
X302476Y585268D01*
X302474Y585278D01*
X302450Y585307D01*
X302402Y585378D01*
X302168Y585612D01*
X302103Y585652D01*
X302042Y585696D01*
X302029Y585698D01*
X302021Y585703D01*
X301984Y585707D01*
X301899Y585723D01*
X272141Y585723D01*
X272067Y585706D01*
X271992Y585693D01*
X271982Y585686D01*
X271972Y585684D01*
X271943Y585660D01*
X271872Y585612D01*
X266478Y580218D01*
X266451Y580175D01*
X266417Y580138D01*
X266406Y580102D01*
X266387Y580071D01*
X266382Y580020D01*
X266368Y579971D01*
X266374Y579935D01*
X266370Y579899D01*
X266388Y579851D01*
X266397Y579801D01*
X266421Y579765D01*
X266432Y579737D01*
X266454Y579716D01*
X266478Y579681D01*
X266927Y579232D01*
X266927Y574836D01*
X263818Y571727D01*
X259422Y571727D01*
X256313Y574836D01*
X256313Y579232D01*
X257952Y580871D01*
X257992Y580935D01*
X258036Y580997D01*
X258038Y581009D01*
X258043Y581018D01*
X258047Y581055D01*
X258063Y581140D01*
X258063Y581863D01*
X269037Y592837D01*
X301899Y592837D01*
X301973Y592854D01*
X302048Y592867D01*
X302058Y592874D01*
X302068Y592876D01*
X302097Y592900D01*
X302168Y592948D01*
X303672Y594452D01*
X303712Y594516D01*
X303756Y594579D01*
X303758Y594591D01*
X303763Y594599D01*
X303767Y594636D01*
X303783Y594721D01*
X303783Y596604D01*
X303766Y596678D01*
X303753Y596753D01*
X303746Y596763D01*
X303744Y596773D01*
X303720Y596802D01*
X303672Y596873D01*
X302033Y598512D01*
X302033Y602908D01*
X305142Y606017D01*
X309538Y606017D01*
X310472Y605083D01*
X310494Y605069D01*
X310510Y605049D01*
X310567Y605024D01*
X310619Y604991D01*
X310645Y604989D01*
X310669Y604978D01*
X310730Y604981D01*
X310792Y604975D01*
X310816Y604984D01*
X310842Y604985D01*
X310896Y605014D01*
X310954Y605036D01*
X310971Y605055D01*
X310994Y605068D01*
X311029Y605118D01*
X311071Y605163D01*
X311079Y605188D01*
X311094Y605209D01*
X311110Y605294D01*
X311121Y605330D01*
X311119Y605340D01*
X311121Y605352D01*
X311121Y611869D01*
X311104Y611943D01*
X311091Y612018D01*
X311084Y612028D01*
X311082Y612038D01*
X311058Y612066D01*
X311010Y612138D01*
X307564Y615584D01*
X307499Y615624D01*
X307437Y615668D01*
X307425Y615670D01*
X307417Y615675D01*
X307380Y615679D01*
X307295Y615695D01*
X297225Y615695D01*
X297151Y615678D01*
X297076Y615665D01*
X297066Y615658D01*
X297056Y615656D01*
X297028Y615632D01*
X296956Y615584D01*
X296276Y614904D01*
X296236Y614839D01*
X296192Y614777D01*
X296190Y614765D01*
X296185Y614757D01*
X296181Y614720D01*
X296165Y614635D01*
X296165Y610982D01*
X294416Y609234D01*
X291196Y606014D01*
X289448Y604265D01*
X270298Y604265D01*
X270224Y604248D01*
X270149Y604235D01*
X270139Y604228D01*
X270129Y604226D01*
X270100Y604202D01*
X270029Y604154D01*
X267628Y601753D01*
X263232Y601753D01*
X260123Y604862D01*
X260123Y609258D01*
X263232Y612367D01*
X267628Y612367D01*
X270029Y609966D01*
X270093Y609926D01*
X270155Y609882D01*
X270167Y609880D01*
X270176Y609875D01*
X270213Y609871D01*
X270298Y609855D01*
X286975Y609855D01*
X287049Y609872D01*
X287124Y609885D01*
X287134Y609892D01*
X287144Y609894D01*
X287172Y609918D01*
X287244Y609966D01*
X290464Y613186D01*
X290504Y613251D01*
X290548Y613313D01*
X290550Y613325D01*
X290555Y613333D01*
X290559Y613370D01*
X290575Y613455D01*
X290575Y617108D01*
X293594Y620126D01*
X293603Y620141D01*
X293607Y620144D01*
X293610Y620150D01*
X293627Y620164D01*
X293653Y620221D01*
X293685Y620273D01*
X293688Y620299D01*
X293698Y620323D01*
X293696Y620384D01*
X293702Y620446D01*
X293693Y620470D01*
X293692Y620496D01*
X293662Y620550D01*
X293640Y620608D01*
X293621Y620625D01*
X293609Y620648D01*
X293558Y620683D01*
X293513Y620725D01*
X293488Y620733D01*
X293467Y620748D01*
X293383Y620764D01*
X293347Y620775D01*
X293337Y620773D01*
X293325Y620775D01*
X282052Y620775D01*
X254224Y648604D01*
X254159Y648644D01*
X254097Y648688D01*
X254085Y648690D01*
X254077Y648695D01*
X254040Y648699D01*
X253955Y648715D01*
X248711Y648715D01*
X248686Y648709D01*
X248660Y648712D01*
X248603Y648690D01*
X248542Y648676D01*
X248522Y648659D01*
X248498Y648650D01*
X248456Y648605D01*
X248409Y648566D01*
X248398Y648542D01*
X248381Y648523D01*
X248363Y648464D01*
X248338Y648407D01*
X248339Y648382D01*
X248331Y648357D01*
X248342Y648296D01*
X248344Y648234D01*
X248357Y648212D01*
X248361Y648186D01*
X248409Y648115D01*
X248427Y648082D01*
X248435Y648076D01*
X248442Y648066D01*
X248696Y647812D01*
X250445Y646064D01*
X250445Y635498D01*
X250456Y635449D01*
X250458Y635398D01*
X250476Y635365D01*
X250484Y635330D01*
X250517Y635290D01*
X250541Y635245D01*
X250571Y635224D01*
X250594Y635196D01*
X250641Y635175D01*
X250683Y635146D01*
X250725Y635137D01*
X250753Y635125D01*
X250783Y635126D01*
X250825Y635118D01*
X251227Y635118D01*
X254335Y632009D01*
X254335Y627613D01*
X251227Y624505D01*
X246831Y624505D01*
X243722Y627613D01*
X243722Y632009D01*
X244744Y633031D01*
X244761Y633059D01*
X244777Y633073D01*
X244794Y633111D01*
X244828Y633158D01*
X244830Y633170D01*
X244835Y633178D01*
X244838Y633208D01*
X244848Y633231D01*
X244847Y633259D01*
X244855Y633300D01*
X244855Y643591D01*
X244843Y643645D01*
X244842Y643671D01*
X244835Y643684D01*
X244825Y643740D01*
X244818Y643750D01*
X244816Y643760D01*
X244792Y643788D01*
X244744Y643860D01*
X244064Y644540D01*
X243999Y644580D01*
X243937Y644624D01*
X243925Y644626D01*
X243917Y644631D01*
X243880Y644635D01*
X243795Y644651D01*
X235409Y644651D01*
X235334Y644634D01*
X235260Y644621D01*
X235250Y644614D01*
X235240Y644612D01*
X235211Y644588D01*
X235140Y644540D01*
X234793Y644193D01*
X234779Y644171D01*
X234760Y644155D01*
X234734Y644099D01*
X234702Y644046D01*
X234699Y644021D01*
X234689Y643997D01*
X234691Y643935D01*
X234685Y643874D01*
X234694Y643850D01*
X234695Y643824D01*
X234725Y643769D01*
X234747Y643712D01*
X234766Y643694D01*
X234778Y643672D01*
X234829Y643636D01*
X234874Y643594D01*
X234899Y643587D01*
X234920Y643572D01*
X235004Y643555D01*
X235040Y643545D01*
X235050Y643547D01*
X235062Y643544D01*
X238898Y643544D01*
X242007Y640436D01*
X242007Y636039D01*
X238898Y632931D01*
X235721Y632931D01*
X235647Y632913D01*
X235572Y632900D01*
X235562Y632894D01*
X235552Y632891D01*
X235523Y632868D01*
X235452Y632819D01*
X235062Y632430D01*
X235049Y632408D01*
X235030Y632393D01*
X235010Y632348D01*
X234978Y632303D01*
X234976Y632291D01*
X234971Y632283D01*
X234968Y632254D01*
X234959Y632235D01*
X234960Y632210D01*
X234951Y632161D01*
X234951Y631048D01*
X225948Y622045D01*
X225848Y622045D01*
X225822Y622039D01*
X225797Y622042D01*
X225739Y622020D01*
X225679Y622006D01*
X225659Y621989D01*
X225635Y621980D01*
X225593Y621935D01*
X225545Y621896D01*
X225535Y621872D01*
X225517Y621853D01*
X225500Y621794D01*
X225474Y621737D01*
X225475Y621712D01*
X225468Y621687D01*
X225479Y621626D01*
X225481Y621564D01*
X225493Y621542D01*
X225498Y621516D01*
X225546Y621445D01*
X225564Y621412D01*
X225572Y621406D01*
X225579Y621396D01*
X227448Y619527D01*
X227448Y615131D01*
X224339Y612022D01*
X222022Y612022D01*
X221948Y612005D01*
X221873Y611992D01*
X221863Y611985D01*
X221853Y611983D01*
X221824Y611959D01*
X221753Y611911D01*
X218298Y608456D01*
X218289Y608441D01*
X218285Y608437D01*
X218279Y608425D01*
X218258Y608391D01*
X218214Y608329D01*
X218212Y608317D01*
X218207Y608308D01*
X218203Y608271D01*
X218187Y608187D01*
X218187Y598466D01*
X218204Y598392D01*
X218217Y598317D01*
X218224Y598307D01*
X218226Y598297D01*
X218250Y598268D01*
X218298Y598197D01*
X219937Y596558D01*
X219937Y592162D01*
X216828Y589053D01*
X212432Y589053D01*
X209323Y592162D01*
X209323Y596558D01*
X210962Y598197D01*
X211002Y598261D01*
X211046Y598323D01*
X211048Y598335D01*
X211053Y598344D01*
X211057Y598381D01*
X211073Y598466D01*
X211073Y603970D01*
X211067Y603996D01*
X211070Y604021D01*
X211048Y604079D01*
X211034Y604139D01*
X211017Y604159D01*
X211008Y604183D01*
X210963Y604225D01*
X210924Y604273D01*
X210900Y604283D01*
X210881Y604301D01*
X210822Y604318D01*
X210765Y604344D01*
X210740Y604343D01*
X210715Y604350D01*
X210654Y604339D01*
X210592Y604337D01*
X210570Y604325D01*
X210544Y604320D01*
X210473Y604272D01*
X210440Y604254D01*
X210434Y604246D01*
X210424Y604239D01*
X209916Y603731D01*
X209876Y603667D01*
X209832Y603605D01*
X209830Y603593D01*
X209825Y603584D01*
X209821Y603547D01*
X209805Y603462D01*
X209805Y602092D01*
X204358Y596645D01*
X185357Y596645D01*
X185283Y596628D01*
X185208Y596615D01*
X185198Y596608D01*
X185188Y596606D01*
X185160Y596582D01*
X185088Y596534D01*
X180706Y592152D01*
X180666Y592087D01*
X180622Y592025D01*
X180620Y592013D01*
X180615Y592005D01*
X180611Y591968D01*
X180605Y591936D01*
X180602Y591928D01*
X180602Y591920D01*
X180595Y591883D01*
X180595Y578908D01*
X180601Y578882D01*
X180598Y578857D01*
X180608Y578830D01*
X180608Y578827D01*
X180612Y578819D01*
X180620Y578799D01*
X180634Y578739D01*
X180651Y578719D01*
X180660Y578695D01*
X180705Y578653D01*
X180744Y578605D01*
X180768Y578595D01*
X180787Y578577D01*
X180846Y578560D01*
X180903Y578534D01*
X180928Y578535D01*
X180953Y578528D01*
X181014Y578539D01*
X181076Y578541D01*
X181098Y578553D01*
X181124Y578558D01*
X181195Y578606D01*
X181228Y578624D01*
X181234Y578632D01*
X181244Y578639D01*
X183222Y580617D01*
X187618Y580617D01*
X190019Y578216D01*
X190083Y578176D01*
X190145Y578132D01*
X190157Y578130D01*
X190166Y578125D01*
X190203Y578121D01*
X190288Y578105D01*
X192518Y578105D01*
X195769Y574853D01*
X195791Y574840D01*
X195808Y574820D01*
X195858Y574797D01*
X195893Y574772D01*
X195902Y574771D01*
X195916Y574762D01*
X195942Y574759D01*
X195966Y574749D01*
X196006Y574750D01*
X196035Y574745D01*
X196038Y574745D01*
X196055Y574749D01*
X196089Y574745D01*
X196113Y574754D01*
X196139Y574755D01*
X196180Y574778D01*
X196207Y574784D01*
X196220Y574795D01*
X196251Y574807D01*
X196268Y574826D01*
X196291Y574838D01*
X196317Y574875D01*
X196340Y574894D01*
X196349Y574912D01*
X196369Y574934D01*
X196376Y574959D01*
X196391Y574980D01*
X196400Y575027D01*
X196411Y575053D01*
X196410Y575076D01*
X196418Y575100D01*
X196416Y575110D01*
X196418Y575122D01*
X196418Y576443D01*
X199527Y579552D01*
X202922Y579552D01*
X202996Y579569D01*
X203071Y579582D01*
X203081Y579589D01*
X203091Y579591D01*
X203119Y579615D01*
X203191Y579663D01*
X204172Y580645D01*
X207567Y580645D01*
X207641Y580662D01*
X207716Y580675D01*
X207726Y580682D01*
X207736Y580684D01*
X207765Y580708D01*
X207836Y580756D01*
X207979Y580899D01*
X223061Y580899D01*
X223135Y580916D01*
X223210Y580929D01*
X223220Y580936D01*
X223230Y580938D01*
X223259Y580962D01*
X223330Y581010D01*
X231790Y589470D01*
X231830Y589534D01*
X231874Y589596D01*
X231876Y589608D01*
X231881Y589617D01*
X231885Y589654D01*
X231901Y589739D01*
X231901Y594569D01*
X231884Y594643D01*
X231871Y594718D01*
X231864Y594728D01*
X231862Y594738D01*
X231838Y594766D01*
X231790Y594838D01*
X229389Y597238D01*
X229389Y601749D01*
X229377Y601800D01*
X229376Y601843D01*
X229365Y601863D01*
X229359Y601898D01*
X229352Y601908D01*
X229350Y601918D01*
X229326Y601946D01*
X229278Y602018D01*
X226877Y604418D01*
X226877Y608815D01*
X229986Y611923D01*
X234382Y611923D01*
X235316Y610989D01*
X235338Y610976D01*
X235354Y610956D01*
X235411Y610930D01*
X235463Y610898D01*
X235489Y610895D01*
X235513Y610885D01*
X235574Y610887D01*
X235636Y610881D01*
X235660Y610890D01*
X235686Y610891D01*
X235740Y610921D01*
X235798Y610943D01*
X235815Y610962D01*
X235838Y610974D01*
X235873Y611025D01*
X235915Y611070D01*
X235923Y611095D01*
X235938Y611116D01*
X235954Y611200D01*
X235965Y611236D01*
X235963Y611246D01*
X235965Y611258D01*
X235965Y617192D01*
X236870Y618096D01*
X236910Y618161D01*
X236954Y618223D01*
X236956Y618235D01*
X236961Y618243D01*
X236965Y618280D01*
X236981Y618365D01*
X236981Y621760D01*
X240090Y624869D01*
X244486Y624869D01*
X247595Y621760D01*
X247595Y617364D01*
X244486Y614255D01*
X241935Y614255D01*
X241885Y614244D01*
X241834Y614242D01*
X241802Y614224D01*
X241766Y614216D01*
X241727Y614183D01*
X241682Y614159D01*
X241661Y614129D01*
X241633Y614106D01*
X241612Y614059D01*
X241582Y614017D01*
X241574Y613975D01*
X241562Y613947D01*
X241563Y613917D01*
X241555Y613875D01*
X241555Y585582D01*
X227218Y571245D01*
X223308Y571245D01*
X223282Y571239D01*
X223257Y571242D01*
X223199Y571220D01*
X223139Y571206D01*
X223119Y571189D01*
X223095Y571180D01*
X223053Y571135D01*
X223005Y571096D01*
X222995Y571072D01*
X222977Y571053D01*
X222960Y570994D01*
X222934Y570937D01*
X222935Y570912D01*
X222928Y570887D01*
X222939Y570826D01*
X222941Y570764D01*
X222953Y570742D01*
X222958Y570716D01*
X223006Y570645D01*
X223024Y570612D01*
X223032Y570606D01*
X223039Y570596D01*
X225299Y568336D01*
X225299Y568325D01*
X225310Y568275D01*
X225312Y568224D01*
X225330Y568192D01*
X225338Y568156D01*
X225371Y568117D01*
X225395Y568072D01*
X225425Y568051D01*
X225448Y568023D01*
X225495Y568002D01*
X225537Y567972D01*
X225579Y567964D01*
X225607Y567952D01*
X225637Y567953D01*
X225679Y567945D01*
X229800Y567945D01*
X229874Y567962D01*
X229949Y567975D01*
X229959Y567982D01*
X229969Y567984D01*
X229998Y568008D01*
X230069Y568056D01*
X232470Y570457D01*
X236866Y570457D01*
X239975Y567348D01*
X239975Y563217D01*
X239986Y563167D01*
X239988Y563116D01*
X240006Y563084D01*
X240014Y563048D01*
X240047Y563009D01*
X240071Y562964D01*
X240101Y562943D01*
X240124Y562915D01*
X240171Y562894D01*
X240213Y562864D01*
X240255Y562856D01*
X240283Y562844D01*
X240313Y562845D01*
X240355Y562837D01*
X242228Y562837D01*
X245337Y559728D01*
X245337Y555332D01*
X242228Y552223D01*
X237832Y552223D01*
X235431Y554624D01*
X235367Y554664D01*
X235305Y554708D01*
X235293Y554710D01*
X235284Y554715D01*
X235247Y554719D01*
X235162Y554735D01*
X225503Y554735D01*
X225429Y554718D01*
X225354Y554705D01*
X225344Y554698D01*
X225334Y554696D01*
X225305Y554672D01*
X225234Y554624D01*
X218741Y548131D01*
X189736Y548131D01*
X189662Y548114D01*
X189587Y548101D01*
X189577Y548094D01*
X189567Y548092D01*
X189538Y548068D01*
X189467Y548020D01*
X186574Y545127D01*
X182178Y545127D01*
X181244Y546061D01*
X181222Y546075D01*
X181206Y546095D01*
X181149Y546120D01*
X181097Y546153D01*
X181071Y546155D01*
X181047Y546166D01*
X180986Y546163D01*
X180924Y546169D01*
X180900Y546160D01*
X180874Y546159D01*
X180820Y546130D01*
X180762Y546108D01*
X180745Y546089D01*
X180722Y546076D01*
X180687Y546026D01*
X180645Y545981D01*
X180637Y545956D01*
X180622Y545935D01*
X180606Y545850D01*
X180595Y545814D01*
X180597Y545804D01*
X180595Y545792D01*
X180595Y434385D01*
X180612Y434311D01*
X180625Y434236D01*
X180632Y434226D01*
X180634Y434216D01*
X180658Y434188D01*
X180706Y434116D01*
X187736Y427086D01*
X187801Y427046D01*
X187863Y427002D01*
X187875Y427000D01*
X187883Y426995D01*
X187920Y426991D01*
X188005Y426975D01*
X239629Y426975D01*
X239654Y426981D01*
G37*
G36*
X172778Y599275D02*
X172778Y599275D01*
X172840Y599278D01*
X172862Y599290D01*
X172888Y599295D01*
X172959Y599343D01*
X172992Y599361D01*
X172998Y599369D01*
X173008Y599376D01*
X178183Y604550D01*
X179931Y606299D01*
X195789Y606299D01*
X195863Y606316D01*
X195938Y606329D01*
X195948Y606336D01*
X195958Y606338D01*
X195986Y606362D01*
X196058Y606410D01*
X197528Y607880D01*
X197568Y607945D01*
X197612Y608007D01*
X197614Y608019D01*
X197619Y608027D01*
X197623Y608064D01*
X197639Y608149D01*
X197639Y612212D01*
X213062Y627635D01*
X223475Y627635D01*
X223549Y627652D01*
X223624Y627665D01*
X223634Y627672D01*
X223644Y627674D01*
X223672Y627698D01*
X223744Y627746D01*
X229250Y633252D01*
X229290Y633317D01*
X229334Y633379D01*
X229336Y633391D01*
X229341Y633399D01*
X229345Y633436D01*
X229361Y633521D01*
X229361Y634634D01*
X231110Y636382D01*
X231282Y636554D01*
X231322Y636619D01*
X231366Y636681D01*
X231368Y636693D01*
X231373Y636701D01*
X231377Y636738D01*
X231393Y636823D01*
X231393Y639876D01*
X231387Y639901D01*
X231390Y639926D01*
X231368Y639984D01*
X231354Y640044D01*
X231337Y640064D01*
X231328Y640088D01*
X231283Y640130D01*
X231244Y640178D01*
X231220Y640188D01*
X231201Y640206D01*
X231142Y640224D01*
X231085Y640249D01*
X231060Y640248D01*
X231035Y640255D01*
X230974Y640245D01*
X230912Y640242D01*
X230890Y640230D01*
X230864Y640225D01*
X230793Y640177D01*
X230760Y640159D01*
X230754Y640151D01*
X230744Y640144D01*
X227885Y637285D01*
X227350Y637285D01*
X227276Y637268D01*
X227201Y637255D01*
X227191Y637248D01*
X227181Y637246D01*
X227152Y637222D01*
X227081Y637174D01*
X225918Y636010D01*
X216017Y636010D01*
X211835Y640192D01*
X211835Y652668D01*
X212994Y653826D01*
X214742Y655575D01*
X217792Y655575D01*
X217817Y655581D01*
X217843Y655578D01*
X217901Y655600D01*
X217961Y655614D01*
X217981Y655631D01*
X218005Y655640D01*
X218047Y655685D01*
X218095Y655724D01*
X218105Y655748D01*
X218123Y655767D01*
X218140Y655826D01*
X218166Y655883D01*
X218165Y655908D01*
X218172Y655933D01*
X218161Y655994D01*
X218159Y656056D01*
X218147Y656078D01*
X218142Y656104D01*
X218094Y656175D01*
X218076Y656208D01*
X218068Y656214D01*
X218061Y656224D01*
X216949Y657336D01*
X216949Y661732D01*
X219031Y663814D01*
X219045Y663836D01*
X219065Y663852D01*
X219090Y663909D01*
X219123Y663961D01*
X219125Y663987D01*
X219136Y664011D01*
X219133Y664072D01*
X219139Y664134D01*
X219130Y664158D01*
X219129Y664184D01*
X219099Y664238D01*
X219077Y664296D01*
X219059Y664313D01*
X219046Y664336D01*
X218996Y664371D01*
X218950Y664413D01*
X218926Y664421D01*
X218905Y664436D01*
X218820Y664452D01*
X218784Y664463D01*
X218774Y664461D01*
X218762Y664463D01*
X213721Y664463D01*
X213647Y664446D01*
X213572Y664433D01*
X213562Y664426D01*
X213552Y664424D01*
X213523Y664400D01*
X213452Y664352D01*
X210678Y661578D01*
X210638Y661514D01*
X210594Y661451D01*
X210592Y661439D01*
X210587Y661431D01*
X210583Y661394D01*
X210567Y661309D01*
X210567Y630987D01*
X205943Y626363D01*
X197146Y626363D01*
X197072Y626346D01*
X196997Y626333D01*
X196987Y626326D01*
X196977Y626324D01*
X196948Y626300D01*
X196877Y626252D01*
X195238Y624613D01*
X190842Y624613D01*
X187733Y627722D01*
X187733Y632118D01*
X190842Y635227D01*
X195238Y635227D01*
X196877Y633588D01*
X196941Y633548D01*
X197003Y633504D01*
X197015Y633502D01*
X197024Y633497D01*
X197061Y633493D01*
X197146Y633477D01*
X202839Y633477D01*
X202913Y633494D01*
X202988Y633507D01*
X202998Y633514D01*
X203008Y633516D01*
X203037Y633540D01*
X203108Y633588D01*
X203342Y633822D01*
X203382Y633886D01*
X203426Y633949D01*
X203428Y633961D01*
X203433Y633969D01*
X203437Y634006D01*
X203453Y634091D01*
X203453Y664413D01*
X208422Y669382D01*
X210617Y671577D01*
X229263Y671577D01*
X229313Y671588D01*
X229364Y671590D01*
X229396Y671608D01*
X229432Y671616D01*
X229471Y671649D01*
X229516Y671673D01*
X229537Y671703D01*
X229565Y671726D01*
X229586Y671773D01*
X229616Y671815D01*
X229624Y671857D01*
X229636Y671885D01*
X229635Y671915D01*
X229643Y671957D01*
X229643Y674056D01*
X230577Y674990D01*
X230591Y675012D01*
X230611Y675028D01*
X230636Y675085D01*
X230669Y675137D01*
X230671Y675163D01*
X230682Y675187D01*
X230679Y675248D01*
X230685Y675310D01*
X230676Y675334D01*
X230675Y675360D01*
X230646Y675414D01*
X230624Y675472D01*
X230605Y675489D01*
X230592Y675512D01*
X230542Y675547D01*
X230497Y675589D01*
X230472Y675597D01*
X230451Y675612D01*
X230366Y675628D01*
X230330Y675639D01*
X230320Y675637D01*
X230308Y675639D01*
X212389Y675639D01*
X212315Y675622D01*
X212240Y675609D01*
X212230Y675602D01*
X212220Y675600D01*
X212192Y675576D01*
X212120Y675528D01*
X204358Y667765D01*
X169968Y667765D01*
X169894Y667748D01*
X169819Y667735D01*
X169809Y667728D01*
X169799Y667726D01*
X169770Y667702D01*
X169699Y667654D01*
X167298Y665253D01*
X162902Y665253D01*
X160624Y667531D01*
X160602Y667545D01*
X160586Y667565D01*
X160529Y667590D01*
X160477Y667623D01*
X160451Y667625D01*
X160427Y667636D01*
X160366Y667633D01*
X160304Y667639D01*
X160280Y667630D01*
X160254Y667629D01*
X160200Y667600D01*
X160142Y667578D01*
X160125Y667559D01*
X160102Y667546D01*
X160067Y667496D01*
X160025Y667451D01*
X160017Y667426D01*
X160002Y667405D01*
X159986Y667320D01*
X159975Y667284D01*
X159977Y667274D01*
X159975Y667262D01*
X159975Y657648D01*
X159992Y657574D01*
X159996Y657549D01*
X159997Y657539D01*
X159999Y657535D01*
X160005Y657499D01*
X160012Y657489D01*
X160014Y657479D01*
X160038Y657450D01*
X160073Y657398D01*
X160079Y657386D01*
X160082Y657384D01*
X160086Y657379D01*
X162487Y654978D01*
X162487Y650582D01*
X159378Y647473D01*
X154982Y647473D01*
X151780Y650675D01*
X151758Y650689D01*
X151742Y650709D01*
X151685Y650734D01*
X151633Y650767D01*
X151607Y650769D01*
X151583Y650780D01*
X151522Y650777D01*
X151460Y650783D01*
X151436Y650774D01*
X151410Y650773D01*
X151356Y650744D01*
X151298Y650722D01*
X151281Y650703D01*
X151258Y650690D01*
X151223Y650640D01*
X151181Y650595D01*
X151173Y650570D01*
X151158Y650549D01*
X151142Y650464D01*
X151131Y650428D01*
X151133Y650418D01*
X151131Y650406D01*
X151131Y636281D01*
X151142Y636231D01*
X151144Y636180D01*
X151162Y636148D01*
X151170Y636112D01*
X151203Y636073D01*
X151227Y636028D01*
X151257Y636007D01*
X151280Y635979D01*
X151327Y635958D01*
X151369Y635928D01*
X151411Y635920D01*
X151439Y635908D01*
X151469Y635909D01*
X151511Y635901D01*
X151606Y635901D01*
X156530Y633861D01*
X156567Y633855D01*
X156603Y633839D01*
X156652Y633841D01*
X156700Y633833D01*
X156737Y633844D01*
X156776Y633846D01*
X156819Y633869D01*
X156866Y633884D01*
X156894Y633910D01*
X156928Y633929D01*
X156956Y633969D01*
X156992Y634003D01*
X157006Y634039D01*
X157028Y634070D01*
X157039Y634130D01*
X157052Y634165D01*
X157050Y634186D01*
X157055Y634213D01*
X157055Y635954D01*
X160164Y639063D01*
X164560Y639063D01*
X166650Y636973D01*
X166693Y636946D01*
X166731Y636911D01*
X166766Y636901D01*
X166797Y636881D01*
X166848Y636877D01*
X166897Y636862D01*
X166933Y636868D01*
X166970Y636865D01*
X167018Y636883D01*
X167068Y636892D01*
X167103Y636916D01*
X167132Y636926D01*
X167153Y636949D01*
X167188Y636973D01*
X169252Y639037D01*
X173648Y639037D01*
X176757Y635928D01*
X176757Y631532D01*
X174356Y629131D01*
X174316Y629067D01*
X174272Y629005D01*
X174270Y628993D01*
X174265Y628984D01*
X174261Y628947D01*
X174245Y628862D01*
X174245Y623080D01*
X174102Y622937D01*
X174073Y622891D01*
X174069Y622887D01*
X174063Y622874D01*
X174062Y622873D01*
X174018Y622810D01*
X174016Y622798D01*
X174011Y622790D01*
X174007Y622753D01*
X174006Y622747D01*
X173998Y622729D01*
X173998Y622708D01*
X173991Y622668D01*
X173991Y605821D01*
X172470Y604301D01*
X172447Y604263D01*
X172437Y604255D01*
X172425Y604229D01*
X172386Y604174D01*
X172384Y604162D01*
X172379Y604153D01*
X172375Y604118D01*
X172366Y604096D01*
X172367Y604072D01*
X172359Y604032D01*
X172359Y599644D01*
X172365Y599619D01*
X172362Y599594D01*
X172384Y599536D01*
X172398Y599476D01*
X172415Y599456D01*
X172424Y599432D01*
X172469Y599390D01*
X172508Y599342D01*
X172532Y599332D01*
X172551Y599314D01*
X172610Y599296D01*
X172667Y599271D01*
X172692Y599272D01*
X172717Y599265D01*
X172778Y599275D01*
G37*
%LPC*%
G36*
X231275Y452035D02*
X231275Y452035D01*
X229080Y454230D01*
X222158Y461152D01*
X222094Y461192D01*
X222032Y461236D01*
X222019Y461238D01*
X222011Y461243D01*
X221974Y461247D01*
X221889Y461263D01*
X220006Y461263D01*
X219932Y461246D01*
X219857Y461233D01*
X219847Y461226D01*
X219837Y461224D01*
X219808Y461200D01*
X219737Y461152D01*
X218098Y459513D01*
X213702Y459513D01*
X210593Y462622D01*
X210593Y467018D01*
X212994Y469419D01*
X213034Y469483D01*
X213078Y469545D01*
X213080Y469557D01*
X213085Y469566D01*
X213089Y469603D01*
X213105Y469688D01*
X213105Y469855D01*
X213088Y469929D01*
X213075Y470004D01*
X213068Y470014D01*
X213066Y470024D01*
X213042Y470052D01*
X212994Y470124D01*
X201150Y481968D01*
X201085Y482008D01*
X201023Y482052D01*
X201011Y482054D01*
X201003Y482059D01*
X200966Y482063D01*
X200881Y482079D01*
X192828Y482079D01*
X192754Y482062D01*
X192679Y482049D01*
X192669Y482042D01*
X192659Y482040D01*
X192630Y482016D01*
X192559Y481968D01*
X190158Y479567D01*
X185762Y479567D01*
X182653Y482676D01*
X182653Y487072D01*
X185762Y490181D01*
X190158Y490181D01*
X192559Y487780D01*
X192623Y487740D01*
X192685Y487696D01*
X192697Y487694D01*
X192706Y487689D01*
X192743Y487685D01*
X192828Y487669D01*
X201619Y487669D01*
X201693Y487686D01*
X201768Y487699D01*
X201778Y487706D01*
X201788Y487708D01*
X201816Y487732D01*
X201888Y487780D01*
X212542Y498434D01*
X212554Y498453D01*
X212567Y498464D01*
X212584Y498501D01*
X212626Y498561D01*
X212628Y498573D01*
X212633Y498581D01*
X212637Y498618D01*
X212637Y498621D01*
X212638Y498622D01*
X212638Y498624D01*
X212653Y498703D01*
X212653Y507562D01*
X212636Y507636D01*
X212623Y507711D01*
X212616Y507721D01*
X212614Y507731D01*
X212590Y507760D01*
X212542Y507831D01*
X210141Y510232D01*
X210141Y514628D01*
X213250Y517737D01*
X217646Y517737D01*
X220755Y514628D01*
X220755Y510232D01*
X218354Y507831D01*
X218314Y507767D01*
X218270Y507705D01*
X218268Y507693D01*
X218263Y507684D01*
X218259Y507647D01*
X218243Y507562D01*
X218243Y496230D01*
X206786Y484774D01*
X206759Y484731D01*
X206725Y484693D01*
X206714Y484658D01*
X206695Y484627D01*
X206690Y484576D01*
X206675Y484527D01*
X206682Y484491D01*
X206678Y484454D01*
X206696Y484406D01*
X206705Y484356D01*
X206729Y484321D01*
X206740Y484292D01*
X206762Y484271D01*
X206786Y484236D01*
X218695Y472328D01*
X218695Y469688D01*
X218712Y469614D01*
X218725Y469539D01*
X218732Y469529D01*
X218734Y469519D01*
X218758Y469490D01*
X218806Y469419D01*
X219737Y468488D01*
X219801Y468448D01*
X219863Y468404D01*
X219875Y468402D01*
X219884Y468397D01*
X219921Y468393D01*
X220006Y468377D01*
X224993Y468377D01*
X227188Y466182D01*
X231534Y461836D01*
X231556Y461822D01*
X231572Y461802D01*
X231629Y461777D01*
X231681Y461744D01*
X231707Y461742D01*
X231731Y461731D01*
X231792Y461734D01*
X231854Y461728D01*
X231878Y461737D01*
X231904Y461738D01*
X231958Y461768D01*
X232016Y461790D01*
X232033Y461808D01*
X232056Y461821D01*
X232091Y461871D01*
X232133Y461917D01*
X232141Y461941D01*
X232156Y461962D01*
X232172Y462047D01*
X232183Y462083D01*
X232181Y462093D01*
X232183Y462105D01*
X232183Y464127D01*
X232170Y464183D01*
X232170Y464193D01*
X232166Y464199D01*
X232166Y464201D01*
X232153Y464276D01*
X232146Y464286D01*
X232144Y464296D01*
X232120Y464324D01*
X232072Y464396D01*
X225805Y470662D01*
X225805Y523128D01*
X233314Y530636D01*
X233354Y530701D01*
X233398Y530763D01*
X233400Y530775D01*
X233405Y530783D01*
X233409Y530820D01*
X233425Y530905D01*
X233425Y542245D01*
X233408Y542319D01*
X233395Y542394D01*
X233388Y542404D01*
X233386Y542414D01*
X233362Y542442D01*
X233314Y542514D01*
X232360Y543468D01*
X232317Y543494D01*
X232279Y543529D01*
X232244Y543540D01*
X232213Y543559D01*
X232162Y543564D01*
X232113Y543578D01*
X232077Y543572D01*
X232040Y543575D01*
X231993Y543557D01*
X231942Y543549D01*
X231907Y543525D01*
X231879Y543514D01*
X231858Y543491D01*
X231822Y543468D01*
X230798Y542443D01*
X226402Y542443D01*
X223293Y545552D01*
X223293Y549948D01*
X226402Y553057D01*
X230798Y553057D01*
X233917Y549937D01*
X233924Y549909D01*
X233937Y549834D01*
X233944Y549824D01*
X233946Y549814D01*
X233970Y549786D01*
X234018Y549714D01*
X239015Y544718D01*
X239015Y528432D01*
X231506Y520924D01*
X231466Y520859D01*
X231422Y520797D01*
X231420Y520785D01*
X231415Y520777D01*
X231411Y520740D01*
X231395Y520655D01*
X231395Y473135D01*
X231412Y473061D01*
X231425Y472986D01*
X231432Y472976D01*
X231434Y472966D01*
X231458Y472938D01*
X231506Y472866D01*
X236024Y468348D01*
X236089Y468308D01*
X236151Y468264D01*
X236163Y468262D01*
X236171Y468257D01*
X236208Y468253D01*
X236293Y468237D01*
X239688Y468237D01*
X242797Y465128D01*
X242797Y460835D01*
X242803Y460810D01*
X242800Y460784D01*
X242822Y460726D01*
X242836Y460666D01*
X242853Y460646D01*
X242862Y460622D01*
X242907Y460580D01*
X242946Y460532D01*
X242970Y460522D01*
X242989Y460504D01*
X243048Y460487D01*
X243105Y460461D01*
X243130Y460462D01*
X243155Y460455D01*
X243216Y460466D01*
X243278Y460468D01*
X243300Y460480D01*
X243326Y460485D01*
X243397Y460533D01*
X243430Y460551D01*
X243436Y460559D01*
X243446Y460566D01*
X249367Y466487D01*
X258784Y466487D01*
X258858Y466504D01*
X258933Y466517D01*
X258943Y466524D01*
X258953Y466526D01*
X258982Y466550D01*
X259053Y466598D01*
X260692Y468237D01*
X265088Y468237D01*
X268197Y465128D01*
X268197Y460732D01*
X265088Y457623D01*
X260692Y457623D01*
X259053Y459262D01*
X258989Y459302D01*
X258927Y459346D01*
X258915Y459348D01*
X258906Y459353D01*
X258869Y459357D01*
X258784Y459373D01*
X252471Y459373D01*
X252397Y459356D01*
X252322Y459343D01*
X252312Y459336D01*
X252302Y459334D01*
X252273Y459310D01*
X252202Y459262D01*
X244975Y452035D01*
X231275Y452035D01*
G37*
%LPD*%
%LPC*%
G36*
X192932Y504689D02*
X192932Y504689D01*
X188095Y506693D01*
X184393Y510395D01*
X182389Y515232D01*
X182389Y520468D01*
X184393Y525305D01*
X188095Y529007D01*
X189044Y529400D01*
X189111Y529448D01*
X189179Y529495D01*
X189181Y529499D01*
X189185Y529501D01*
X189224Y529574D01*
X189264Y529646D01*
X189264Y529650D01*
X189266Y529654D01*
X189268Y529737D01*
X189273Y529819D01*
X189271Y529823D01*
X189271Y529827D01*
X189260Y529851D01*
X189220Y529954D01*
X189215Y529962D01*
X189219Y529980D01*
X189219Y530034D01*
X189228Y530086D01*
X189219Y530119D01*
X189219Y530154D01*
X189195Y530201D01*
X189180Y530252D01*
X189154Y530282D01*
X189141Y530309D01*
X189115Y530328D01*
X189086Y530362D01*
X189071Y530374D01*
X189023Y530803D01*
X189011Y530836D01*
X189004Y530887D01*
X188861Y531294D01*
X188869Y531311D01*
X188881Y531363D01*
X188901Y531412D01*
X188899Y531447D01*
X188907Y531480D01*
X188894Y531532D01*
X188891Y531585D01*
X188873Y531620D01*
X188866Y531649D01*
X188845Y531673D01*
X188824Y531713D01*
X188812Y531728D01*
X188861Y532157D01*
X188856Y532192D01*
X188861Y532243D01*
X188812Y532672D01*
X188824Y532687D01*
X188847Y532735D01*
X188878Y532778D01*
X188883Y532812D01*
X188898Y532843D01*
X188897Y532896D01*
X188906Y532949D01*
X188896Y532987D01*
X188895Y533016D01*
X188881Y533045D01*
X188869Y533089D01*
X188861Y533106D01*
X189004Y533513D01*
X189007Y533548D01*
X189023Y533597D01*
X189071Y534026D01*
X189086Y534038D01*
X189119Y534079D01*
X189159Y534114D01*
X189172Y534146D01*
X189193Y534174D01*
X189204Y534226D01*
X189224Y534275D01*
X189223Y534315D01*
X189229Y534343D01*
X189221Y534374D01*
X189219Y534420D01*
X189215Y534438D01*
X189445Y534804D01*
X189456Y534837D01*
X189482Y534881D01*
X189625Y535288D01*
X189642Y535296D01*
X189683Y535330D01*
X189730Y535355D01*
X189750Y535383D01*
X189777Y535405D01*
X189799Y535453D01*
X189829Y535497D01*
X189837Y535536D01*
X189849Y535562D01*
X189848Y535595D01*
X189857Y535639D01*
X189857Y535658D01*
X190163Y535963D01*
X190181Y535993D01*
X190216Y536030D01*
X190445Y536396D01*
X190464Y536400D01*
X190512Y536423D01*
X190563Y536438D01*
X190588Y536461D01*
X190620Y536476D01*
X190652Y536518D01*
X190691Y536554D01*
X190708Y536590D01*
X190725Y536613D01*
X190732Y536645D01*
X190750Y536686D01*
X190754Y536705D01*
X191120Y536934D01*
X191144Y536959D01*
X191187Y536987D01*
X191492Y537293D01*
X191511Y537293D01*
X191563Y537305D01*
X191616Y537308D01*
X191646Y537325D01*
X191680Y537332D01*
X191721Y537366D01*
X191767Y537392D01*
X191791Y537424D01*
X191813Y537443D01*
X191826Y537472D01*
X191854Y537508D01*
X191862Y537525D01*
X192270Y537668D01*
X192299Y537686D01*
X192346Y537705D01*
X192712Y537935D01*
X192730Y537931D01*
X192784Y537931D01*
X192836Y537922D01*
X192869Y537931D01*
X192904Y537931D01*
X192951Y537955D01*
X193002Y537970D01*
X193032Y537996D01*
X193059Y538009D01*
X193078Y538035D01*
X193112Y538064D01*
X193124Y538079D01*
X193553Y538127D01*
X193586Y538139D01*
X193637Y538146D01*
X194060Y538294D01*
X194161Y538275D01*
X194840Y538275D01*
X194859Y538279D01*
X194883Y538277D01*
X195436Y538339D01*
X195447Y538334D01*
X195492Y538302D01*
X195529Y538295D01*
X195553Y538283D01*
X195587Y538284D01*
X195634Y538275D01*
X196579Y538275D01*
X196581Y538275D01*
X196583Y538275D01*
X196725Y538304D01*
X199045Y539265D01*
X201855Y539265D01*
X204175Y538304D01*
X204177Y538303D01*
X204179Y538302D01*
X204321Y538275D01*
X205266Y538275D01*
X205320Y538287D01*
X205375Y538291D01*
X205408Y538308D01*
X205435Y538314D01*
X205460Y538335D01*
X205467Y538339D01*
X206017Y538277D01*
X206036Y538279D01*
X206060Y538275D01*
X206739Y538275D01*
X206752Y538278D01*
X206764Y538276D01*
X206838Y538295D01*
X207263Y538146D01*
X207298Y538143D01*
X207347Y538127D01*
X207776Y538079D01*
X207788Y538064D01*
X207829Y538031D01*
X207864Y537992D01*
X207896Y537978D01*
X207924Y537957D01*
X207976Y537946D01*
X208025Y537926D01*
X208065Y537927D01*
X208093Y537921D01*
X208124Y537929D01*
X208170Y537931D01*
X208188Y537935D01*
X208554Y537705D01*
X208587Y537694D01*
X208631Y537668D01*
X209038Y537525D01*
X209046Y537508D01*
X209080Y537467D01*
X209105Y537420D01*
X209133Y537400D01*
X209155Y537373D01*
X209203Y537351D01*
X209247Y537321D01*
X209286Y537313D01*
X209312Y537301D01*
X209345Y537302D01*
X209389Y537293D01*
X209408Y537293D01*
X209713Y536987D01*
X209743Y536969D01*
X209780Y536934D01*
X210146Y536705D01*
X210150Y536686D01*
X210173Y536638D01*
X210188Y536587D01*
X210211Y536562D01*
X210226Y536530D01*
X210268Y536498D01*
X210304Y536459D01*
X210340Y536442D01*
X210363Y536425D01*
X210395Y536418D01*
X210436Y536400D01*
X210455Y536396D01*
X210684Y536030D01*
X210709Y536006D01*
X210737Y535964D01*
X211043Y535658D01*
X211043Y535639D01*
X211055Y535587D01*
X211058Y535534D01*
X211075Y535504D01*
X211082Y535470D01*
X211116Y535429D01*
X211142Y535383D01*
X211174Y535359D01*
X211193Y535337D01*
X211222Y535324D01*
X211258Y535296D01*
X211275Y535288D01*
X211418Y534880D01*
X211436Y534851D01*
X211455Y534804D01*
X211685Y534438D01*
X211681Y534420D01*
X211681Y534366D01*
X211672Y534314D01*
X211681Y534281D01*
X211681Y534246D01*
X211705Y534199D01*
X211720Y534148D01*
X211746Y534118D01*
X211759Y534091D01*
X211785Y534072D01*
X211814Y534038D01*
X211829Y534026D01*
X211877Y533597D01*
X211884Y533577D01*
X211889Y533564D01*
X211896Y533513D01*
X212039Y533106D01*
X212031Y533089D01*
X212019Y533037D01*
X211999Y532988D01*
X212001Y532953D01*
X211993Y532920D01*
X212006Y532868D01*
X212009Y532815D01*
X212027Y532780D01*
X212034Y532751D01*
X212055Y532727D01*
X212076Y532687D01*
X212088Y532672D01*
X212039Y532243D01*
X212044Y532208D01*
X212039Y532157D01*
X212088Y531728D01*
X212076Y531713D01*
X212053Y531665D01*
X212022Y531622D01*
X212017Y531588D01*
X212002Y531557D01*
X212003Y531504D01*
X211994Y531451D01*
X212004Y531413D01*
X212005Y531384D01*
X212019Y531355D01*
X212031Y531311D01*
X212039Y531294D01*
X211896Y530887D01*
X211893Y530852D01*
X211877Y530803D01*
X211829Y530374D01*
X211814Y530362D01*
X211781Y530321D01*
X211741Y530286D01*
X211728Y530254D01*
X211707Y530226D01*
X211696Y530174D01*
X211676Y530125D01*
X211677Y530085D01*
X211671Y530057D01*
X211679Y530026D01*
X211681Y529980D01*
X211685Y529962D01*
X211455Y529596D01*
X211444Y529564D01*
X211418Y529520D01*
X211275Y529112D01*
X211258Y529104D01*
X211217Y529070D01*
X211170Y529045D01*
X211150Y529017D01*
X211123Y528995D01*
X211101Y528947D01*
X211071Y528903D01*
X211063Y528864D01*
X211051Y528838D01*
X211051Y528810D01*
X211050Y528807D01*
X211050Y528798D01*
X211043Y528761D01*
X211043Y528742D01*
X210737Y528437D01*
X210719Y528407D01*
X210684Y528370D01*
X210455Y528004D01*
X210436Y528000D01*
X210388Y527977D01*
X210337Y527962D01*
X210312Y527939D01*
X210280Y527924D01*
X210248Y527882D01*
X210209Y527846D01*
X210192Y527810D01*
X210175Y527787D01*
X210168Y527755D01*
X210150Y527714D01*
X210146Y527695D01*
X209780Y527466D01*
X209756Y527441D01*
X209713Y527413D01*
X209408Y527107D01*
X209389Y527107D01*
X209337Y527095D01*
X209284Y527092D01*
X209254Y527075D01*
X209220Y527068D01*
X209179Y527034D01*
X209133Y527008D01*
X209109Y526976D01*
X209087Y526957D01*
X209074Y526928D01*
X209046Y526892D01*
X209038Y526875D01*
X208630Y526732D01*
X208601Y526714D01*
X208554Y526695D01*
X208188Y526465D01*
X208170Y526469D01*
X208116Y526469D01*
X208064Y526478D01*
X208031Y526469D01*
X207996Y526469D01*
X207949Y526445D01*
X207898Y526430D01*
X207868Y526404D01*
X207841Y526391D01*
X207822Y526365D01*
X207788Y526336D01*
X207776Y526321D01*
X207347Y526273D01*
X207314Y526261D01*
X207263Y526254D01*
X206720Y526063D01*
X206678Y526037D01*
X206633Y526020D01*
X206606Y525991D01*
X206574Y525970D01*
X206548Y525929D01*
X206515Y525893D01*
X206504Y525855D01*
X206484Y525822D01*
X206480Y525773D01*
X206466Y525726D01*
X206472Y525688D01*
X206469Y525650D01*
X206487Y525604D01*
X206495Y525556D01*
X206521Y525518D01*
X206532Y525488D01*
X206554Y525469D01*
X206572Y525442D01*
X206573Y525440D01*
X206574Y525439D01*
X206576Y525436D01*
X206707Y525305D01*
X208711Y520468D01*
X208711Y515232D01*
X206707Y510395D01*
X203005Y506693D01*
X198168Y504689D01*
X192932Y504689D01*
G37*
%LPD*%
%LPC*%
G36*
X199045Y438635D02*
X199045Y438635D01*
X196725Y439596D01*
X196723Y439597D01*
X196721Y439598D01*
X196579Y439625D01*
X195634Y439625D01*
X195580Y439613D01*
X195525Y439609D01*
X195492Y439592D01*
X195465Y439586D01*
X195440Y439565D01*
X195433Y439561D01*
X194883Y439623D01*
X194864Y439621D01*
X194840Y439625D01*
X194161Y439625D01*
X194148Y439622D01*
X194136Y439624D01*
X194062Y439605D01*
X193637Y439754D01*
X193602Y439757D01*
X193553Y439773D01*
X193124Y439821D01*
X193112Y439836D01*
X193071Y439869D01*
X193036Y439909D01*
X193004Y439922D01*
X192976Y439943D01*
X192924Y439954D01*
X192875Y439974D01*
X192835Y439973D01*
X192807Y439979D01*
X192776Y439971D01*
X192730Y439969D01*
X192712Y439965D01*
X192346Y440195D01*
X192314Y440206D01*
X192270Y440232D01*
X191862Y440375D01*
X191854Y440392D01*
X191820Y440433D01*
X191795Y440480D01*
X191767Y440500D01*
X191745Y440527D01*
X191697Y440549D01*
X191653Y440579D01*
X191614Y440587D01*
X191588Y440599D01*
X191555Y440598D01*
X191511Y440607D01*
X191492Y440607D01*
X191187Y440913D01*
X191157Y440931D01*
X191120Y440966D01*
X190754Y441195D01*
X190750Y441214D01*
X190727Y441262D01*
X190712Y441313D01*
X190689Y441338D01*
X190674Y441370D01*
X190632Y441402D01*
X190596Y441441D01*
X190560Y441458D01*
X190537Y441475D01*
X190505Y441482D01*
X190464Y441500D01*
X190445Y441504D01*
X190216Y441870D01*
X190195Y441891D01*
X190184Y441910D01*
X190177Y441915D01*
X190163Y441937D01*
X189857Y442242D01*
X189857Y442261D01*
X189845Y442313D01*
X189842Y442366D01*
X189825Y442396D01*
X189818Y442430D01*
X189784Y442471D01*
X189758Y442517D01*
X189726Y442541D01*
X189707Y442563D01*
X189678Y442576D01*
X189642Y442604D01*
X189625Y442612D01*
X189482Y443020D01*
X189464Y443049D01*
X189445Y443096D01*
X189215Y443462D01*
X189219Y443480D01*
X189219Y443484D01*
X189221Y443486D01*
X189219Y443519D01*
X189219Y443534D01*
X189228Y443586D01*
X189219Y443619D01*
X189219Y443654D01*
X189195Y443701D01*
X189180Y443752D01*
X189154Y443782D01*
X189141Y443809D01*
X189115Y443828D01*
X189086Y443862D01*
X189071Y443874D01*
X189023Y444303D01*
X189011Y444336D01*
X189004Y444387D01*
X188861Y444794D01*
X188869Y444811D01*
X188881Y444863D01*
X188901Y444912D01*
X188899Y444947D01*
X188907Y444980D01*
X188894Y445032D01*
X188891Y445085D01*
X188873Y445120D01*
X188866Y445149D01*
X188845Y445173D01*
X188824Y445213D01*
X188812Y445228D01*
X188861Y445657D01*
X188856Y445692D01*
X188861Y445743D01*
X188812Y446172D01*
X188824Y446187D01*
X188847Y446235D01*
X188878Y446278D01*
X188883Y446312D01*
X188898Y446343D01*
X188897Y446396D01*
X188906Y446449D01*
X188896Y446487D01*
X188895Y446516D01*
X188881Y446545D01*
X188869Y446589D01*
X188861Y446606D01*
X189004Y447013D01*
X189007Y447048D01*
X189023Y447097D01*
X189071Y447526D01*
X189086Y447538D01*
X189119Y447579D01*
X189159Y447614D01*
X189172Y447646D01*
X189193Y447674D01*
X189204Y447726D01*
X189224Y447775D01*
X189223Y447815D01*
X189229Y447843D01*
X189221Y447874D01*
X189219Y447920D01*
X189215Y447938D01*
X189220Y447946D01*
X189247Y448024D01*
X189276Y448101D01*
X189275Y448106D01*
X189277Y448110D01*
X189266Y448192D01*
X189258Y448274D01*
X189255Y448277D01*
X189255Y448282D01*
X189209Y448350D01*
X189165Y448420D01*
X189161Y448423D01*
X189158Y448426D01*
X189136Y448439D01*
X189044Y448500D01*
X188095Y448893D01*
X184393Y452595D01*
X182389Y457432D01*
X182389Y462668D01*
X184393Y467505D01*
X188095Y471207D01*
X192932Y473211D01*
X198168Y473211D01*
X203005Y471207D01*
X206707Y467505D01*
X208711Y462668D01*
X208711Y457432D01*
X206707Y452595D01*
X206576Y452464D01*
X206551Y452423D01*
X206517Y452387D01*
X206506Y452350D01*
X206485Y452317D01*
X206480Y452268D01*
X206466Y452222D01*
X206472Y452183D01*
X206468Y452145D01*
X206486Y452099D01*
X206494Y452051D01*
X206516Y452019D01*
X206530Y451983D01*
X206566Y451949D01*
X206595Y451910D01*
X206634Y451887D01*
X206657Y451865D01*
X206685Y451857D01*
X206720Y451837D01*
X207263Y451646D01*
X207298Y451643D01*
X207347Y451627D01*
X207776Y451579D01*
X207788Y451564D01*
X207829Y451531D01*
X207864Y451492D01*
X207896Y451478D01*
X207924Y451457D01*
X207976Y451446D01*
X208025Y451426D01*
X208065Y451427D01*
X208093Y451421D01*
X208124Y451429D01*
X208170Y451431D01*
X208188Y451435D01*
X208554Y451205D01*
X208580Y451196D01*
X208587Y451191D01*
X208593Y451190D01*
X208631Y451168D01*
X209038Y451025D01*
X209046Y451008D01*
X209080Y450967D01*
X209105Y450920D01*
X209133Y450900D01*
X209155Y450873D01*
X209203Y450851D01*
X209247Y450821D01*
X209286Y450813D01*
X209312Y450801D01*
X209345Y450802D01*
X209389Y450793D01*
X209408Y450793D01*
X209713Y450487D01*
X209743Y450469D01*
X209780Y450434D01*
X210146Y450205D01*
X210150Y450186D01*
X210173Y450138D01*
X210188Y450087D01*
X210211Y450062D01*
X210226Y450030D01*
X210268Y449998D01*
X210304Y449959D01*
X210340Y449942D01*
X210363Y449925D01*
X210395Y449918D01*
X210436Y449900D01*
X210455Y449896D01*
X210684Y449530D01*
X210709Y449506D01*
X210737Y449463D01*
X211043Y449158D01*
X211043Y449139D01*
X211055Y449087D01*
X211058Y449034D01*
X211075Y449004D01*
X211082Y448970D01*
X211116Y448929D01*
X211142Y448883D01*
X211174Y448859D01*
X211193Y448837D01*
X211222Y448824D01*
X211258Y448796D01*
X211275Y448788D01*
X211418Y448381D01*
X211436Y448351D01*
X211455Y448304D01*
X211685Y447938D01*
X211681Y447920D01*
X211681Y447866D01*
X211672Y447814D01*
X211681Y447781D01*
X211682Y447746D01*
X211705Y447699D01*
X211720Y447648D01*
X211746Y447617D01*
X211759Y447591D01*
X211785Y447572D01*
X211814Y447538D01*
X211829Y447526D01*
X211877Y447097D01*
X211889Y447064D01*
X211896Y447013D01*
X212039Y446606D01*
X212031Y446589D01*
X212019Y446537D01*
X211999Y446488D01*
X212001Y446453D01*
X211993Y446420D01*
X212006Y446368D01*
X212009Y446315D01*
X212027Y446280D01*
X212034Y446251D01*
X212055Y446227D01*
X212076Y446187D01*
X212088Y446172D01*
X212039Y445743D01*
X212044Y445708D01*
X212039Y445657D01*
X212088Y445228D01*
X212076Y445213D01*
X212053Y445165D01*
X212022Y445122D01*
X212017Y445088D01*
X212002Y445057D01*
X212003Y445004D01*
X211994Y444951D01*
X212004Y444913D01*
X212005Y444884D01*
X212019Y444855D01*
X212031Y444811D01*
X212039Y444794D01*
X211896Y444387D01*
X211893Y444352D01*
X211877Y444303D01*
X211829Y443874D01*
X211814Y443862D01*
X211781Y443821D01*
X211741Y443786D01*
X211728Y443754D01*
X211707Y443726D01*
X211696Y443674D01*
X211676Y443625D01*
X211677Y443585D01*
X211671Y443557D01*
X211679Y443526D01*
X211681Y443480D01*
X211685Y443462D01*
X211455Y443096D01*
X211444Y443064D01*
X211418Y443020D01*
X211275Y442612D01*
X211258Y442604D01*
X211217Y442570D01*
X211170Y442545D01*
X211150Y442517D01*
X211123Y442495D01*
X211101Y442446D01*
X211071Y442403D01*
X211063Y442364D01*
X211051Y442337D01*
X211052Y442305D01*
X211043Y442261D01*
X211043Y442242D01*
X210737Y441937D01*
X210719Y441907D01*
X210714Y441901D01*
X210697Y441888D01*
X210694Y441880D01*
X210684Y441870D01*
X210455Y441504D01*
X210436Y441500D01*
X210388Y441477D01*
X210337Y441462D01*
X210312Y441439D01*
X210280Y441424D01*
X210248Y441382D01*
X210209Y441346D01*
X210192Y441310D01*
X210175Y441287D01*
X210168Y441255D01*
X210150Y441214D01*
X210146Y441195D01*
X209780Y440966D01*
X209756Y440941D01*
X209713Y440913D01*
X209408Y440607D01*
X209389Y440607D01*
X209337Y440595D01*
X209284Y440592D01*
X209254Y440575D01*
X209220Y440568D01*
X209179Y440534D01*
X209133Y440508D01*
X209109Y440476D01*
X209087Y440457D01*
X209074Y440428D01*
X209046Y440392D01*
X209038Y440375D01*
X208630Y440232D01*
X208601Y440214D01*
X208554Y440195D01*
X208188Y439965D01*
X208170Y439969D01*
X208116Y439969D01*
X208064Y439978D01*
X208031Y439969D01*
X207996Y439969D01*
X207949Y439945D01*
X207898Y439930D01*
X207868Y439904D01*
X207841Y439891D01*
X207822Y439865D01*
X207788Y439836D01*
X207776Y439821D01*
X207347Y439773D01*
X207314Y439761D01*
X207263Y439754D01*
X206840Y439606D01*
X206739Y439625D01*
X206060Y439625D01*
X206041Y439621D01*
X206017Y439623D01*
X205464Y439561D01*
X205453Y439566D01*
X205408Y439598D01*
X205371Y439605D01*
X205347Y439617D01*
X205313Y439616D01*
X205266Y439625D01*
X204321Y439625D01*
X204319Y439625D01*
X204317Y439625D01*
X204175Y439596D01*
X201855Y438635D01*
X199045Y438635D01*
G37*
%LPD*%
%LPC*%
G36*
X353781Y660145D02*
X353781Y660145D01*
X350420Y661537D01*
X347847Y664110D01*
X346455Y667471D01*
X346455Y686349D01*
X347847Y689710D01*
X350420Y692283D01*
X353781Y693675D01*
X357419Y693675D01*
X360780Y692283D01*
X363353Y689710D01*
X364745Y686349D01*
X364745Y667471D01*
X363353Y664110D01*
X360780Y661537D01*
X357419Y660145D01*
X353781Y660145D01*
G37*
%LPD*%
%LPC*%
G36*
X455381Y660145D02*
X455381Y660145D01*
X452020Y661537D01*
X449447Y664110D01*
X448055Y667471D01*
X448055Y686349D01*
X449447Y689710D01*
X452020Y692283D01*
X455381Y693675D01*
X459019Y693675D01*
X462380Y692283D01*
X464953Y689710D01*
X466345Y686349D01*
X466345Y667471D01*
X464953Y664110D01*
X462380Y661537D01*
X459019Y660145D01*
X455381Y660145D01*
G37*
%LPD*%
%LPC*%
G36*
X480781Y660145D02*
X480781Y660145D01*
X477420Y661537D01*
X474847Y664110D01*
X473455Y667471D01*
X473455Y686349D01*
X474847Y689710D01*
X477420Y692283D01*
X480781Y693675D01*
X484419Y693675D01*
X487780Y692283D01*
X490353Y689710D01*
X491745Y686349D01*
X491745Y667471D01*
X490353Y664110D01*
X487780Y661537D01*
X484419Y660145D01*
X480781Y660145D01*
G37*
%LPD*%
%LPC*%
G36*
X344512Y443003D02*
X344512Y443003D01*
X341403Y446112D01*
X341403Y450508D01*
X343804Y452909D01*
X343844Y452973D01*
X343888Y453035D01*
X343890Y453047D01*
X343895Y453056D01*
X343899Y453093D01*
X343915Y453178D01*
X343915Y482812D01*
X343898Y482886D01*
X343885Y482961D01*
X343878Y482971D01*
X343876Y482981D01*
X343852Y483010D01*
X343804Y483081D01*
X341403Y485482D01*
X341403Y489878D01*
X344512Y492987D01*
X348908Y492987D01*
X352017Y489878D01*
X352017Y485482D01*
X349616Y483081D01*
X349576Y483017D01*
X349532Y482955D01*
X349530Y482943D01*
X349525Y482934D01*
X349521Y482897D01*
X349505Y482812D01*
X349505Y453178D01*
X349522Y453104D01*
X349535Y453029D01*
X349542Y453019D01*
X349544Y453009D01*
X349568Y452980D01*
X349616Y452909D01*
X352017Y450508D01*
X352017Y446112D01*
X348908Y443003D01*
X344512Y443003D01*
G37*
%LPD*%
%LPC*%
G36*
X189572Y682965D02*
X189572Y682965D01*
X186463Y686074D01*
X186463Y690470D01*
X188864Y692871D01*
X188904Y692935D01*
X188948Y692997D01*
X188950Y693009D01*
X188955Y693018D01*
X188959Y693055D01*
X188975Y693140D01*
X188975Y698712D01*
X188963Y698763D01*
X188962Y698807D01*
X188951Y698827D01*
X188945Y698861D01*
X188938Y698871D01*
X188936Y698881D01*
X188912Y698910D01*
X188880Y698958D01*
X188879Y698959D01*
X188864Y698981D01*
X186463Y701382D01*
X186463Y705778D01*
X189572Y708887D01*
X193968Y708887D01*
X197077Y705778D01*
X197077Y701382D01*
X194676Y698981D01*
X194655Y698947D01*
X194643Y698937D01*
X194629Y698907D01*
X194592Y698855D01*
X194590Y698843D01*
X194585Y698834D01*
X194582Y698801D01*
X194572Y698779D01*
X194573Y698753D01*
X194565Y698712D01*
X194565Y693140D01*
X194582Y693066D01*
X194595Y692991D01*
X194602Y692981D01*
X194604Y692971D01*
X194628Y692942D01*
X194676Y692871D01*
X197077Y690470D01*
X197077Y686074D01*
X193968Y682965D01*
X189572Y682965D01*
G37*
%LPD*%
G36*
X205953Y441153D02*
X205953Y441153D01*
X205956Y441151D01*
X206957Y441264D01*
X206963Y441270D01*
X206968Y441266D01*
X207919Y441599D01*
X207923Y441606D01*
X207929Y441604D01*
X208782Y442140D01*
X208785Y442148D01*
X208791Y442147D01*
X209503Y442859D01*
X209504Y442868D01*
X209510Y442868D01*
X210046Y443721D01*
X210045Y443729D01*
X210051Y443731D01*
X210384Y444682D01*
X210383Y444683D01*
X210384Y444683D01*
X210383Y444685D01*
X210381Y444690D01*
X210386Y444693D01*
X210499Y445695D01*
X210495Y445702D01*
X210499Y445706D01*
X210386Y446707D01*
X210380Y446713D01*
X210384Y446718D01*
X210051Y447669D01*
X210044Y447673D01*
X210046Y447679D01*
X209510Y448532D01*
X209502Y448535D01*
X209503Y448541D01*
X208791Y449253D01*
X208782Y449254D01*
X208782Y449260D01*
X207929Y449796D01*
X207921Y449795D01*
X207919Y449801D01*
X206968Y450134D01*
X206960Y450131D01*
X206957Y450136D01*
X205956Y450249D01*
X205952Y450247D01*
X205950Y450249D01*
X194950Y450249D01*
X194947Y450247D01*
X194945Y450249D01*
X193943Y450136D01*
X193937Y450130D01*
X193932Y450134D01*
X192981Y449801D01*
X192977Y449794D01*
X192971Y449796D01*
X192118Y449260D01*
X192115Y449252D01*
X192109Y449253D01*
X191397Y448541D01*
X191396Y448532D01*
X191390Y448532D01*
X190854Y447679D01*
X190855Y447671D01*
X190849Y447669D01*
X190516Y446718D01*
X190519Y446710D01*
X190514Y446707D01*
X190401Y445706D01*
X190405Y445698D01*
X190401Y445695D01*
X190514Y444693D01*
X190520Y444687D01*
X190516Y444682D01*
X190849Y443731D01*
X190856Y443727D01*
X190854Y443721D01*
X191390Y442868D01*
X191398Y442865D01*
X191397Y442859D01*
X192109Y442147D01*
X192118Y442146D01*
X192118Y442140D01*
X192971Y441604D01*
X192979Y441605D01*
X192981Y441599D01*
X193932Y441266D01*
X193940Y441269D01*
X193943Y441264D01*
X194945Y441151D01*
X194948Y441153D01*
X194950Y441151D01*
X205950Y441151D01*
X205953Y441153D01*
G37*
G36*
X205953Y527653D02*
X205953Y527653D01*
X205956Y527651D01*
X206957Y527764D01*
X206963Y527770D01*
X206968Y527766D01*
X207919Y528099D01*
X207923Y528106D01*
X207929Y528104D01*
X208782Y528640D01*
X208785Y528648D01*
X208791Y528647D01*
X209503Y529359D01*
X209504Y529368D01*
X209510Y529368D01*
X210046Y530221D01*
X210045Y530229D01*
X210051Y530231D01*
X210384Y531182D01*
X210383Y531183D01*
X210384Y531183D01*
X210383Y531185D01*
X210381Y531190D01*
X210386Y531193D01*
X210499Y532195D01*
X210495Y532202D01*
X210499Y532206D01*
X210386Y533207D01*
X210380Y533213D01*
X210384Y533218D01*
X210051Y534169D01*
X210044Y534173D01*
X210046Y534179D01*
X209510Y535032D01*
X209502Y535035D01*
X209503Y535041D01*
X208791Y535753D01*
X208782Y535754D01*
X208782Y535760D01*
X207929Y536296D01*
X207921Y536295D01*
X207919Y536301D01*
X206968Y536634D01*
X206960Y536631D01*
X206957Y536636D01*
X205956Y536749D01*
X205952Y536747D01*
X205950Y536749D01*
X194950Y536749D01*
X194947Y536747D01*
X194945Y536749D01*
X193943Y536636D01*
X193937Y536630D01*
X193932Y536634D01*
X192981Y536301D01*
X192977Y536294D01*
X192971Y536296D01*
X192118Y535760D01*
X192115Y535752D01*
X192109Y535753D01*
X191397Y535041D01*
X191396Y535032D01*
X191390Y535032D01*
X190854Y534179D01*
X190855Y534171D01*
X190849Y534169D01*
X190516Y533218D01*
X190519Y533210D01*
X190514Y533207D01*
X190401Y532206D01*
X190405Y532198D01*
X190401Y532195D01*
X190514Y531193D01*
X190520Y531187D01*
X190516Y531182D01*
X190849Y530231D01*
X190856Y530227D01*
X190854Y530221D01*
X191390Y529368D01*
X191398Y529365D01*
X191397Y529359D01*
X192109Y528647D01*
X192118Y528646D01*
X192118Y528640D01*
X192971Y528104D01*
X192979Y528105D01*
X192981Y528099D01*
X193932Y527766D01*
X193940Y527769D01*
X193943Y527764D01*
X194945Y527651D01*
X194948Y527653D01*
X194950Y527651D01*
X205950Y527651D01*
X205953Y527653D01*
G37*
%LPC*%
G36*
X432561Y677671D02*
X432561Y677671D01*
X432561Y694691D01*
X432600Y694691D01*
X434179Y694441D01*
X435700Y693946D01*
X437125Y693220D01*
X438419Y692280D01*
X439550Y691149D01*
X440490Y689855D01*
X441216Y688430D01*
X441711Y686909D01*
X441961Y685330D01*
X441961Y677671D01*
X432561Y677671D01*
G37*
%LPD*%
%LPC*%
G36*
X432561Y659129D02*
X432561Y659129D01*
X432561Y676149D01*
X441961Y676149D01*
X441961Y668490D01*
X441711Y666911D01*
X441216Y665390D01*
X440490Y663965D01*
X439550Y662671D01*
X438419Y661540D01*
X437125Y660600D01*
X435700Y659874D01*
X434179Y659379D01*
X432600Y659129D01*
X432561Y659129D01*
G37*
%LPD*%
%LPC*%
G36*
X320039Y677671D02*
X320039Y677671D01*
X320039Y685330D01*
X320289Y686909D01*
X320784Y688430D01*
X321510Y689855D01*
X322450Y691149D01*
X323581Y692280D01*
X324875Y693220D01*
X326300Y693946D01*
X327821Y694441D01*
X329400Y694691D01*
X329439Y694691D01*
X329439Y677671D01*
X320039Y677671D01*
G37*
%LPD*%
%LPC*%
G36*
X421639Y677671D02*
X421639Y677671D01*
X421639Y685330D01*
X421889Y686909D01*
X422384Y688430D01*
X423110Y689855D01*
X424050Y691149D01*
X425181Y692280D01*
X426475Y693220D01*
X427900Y693946D01*
X429421Y694441D01*
X431000Y694691D01*
X431039Y694691D01*
X431039Y677671D01*
X421639Y677671D01*
G37*
%LPD*%
%LPC*%
G36*
X329400Y659129D02*
X329400Y659129D01*
X327821Y659379D01*
X326300Y659874D01*
X324875Y660600D01*
X323581Y661540D01*
X322450Y662671D01*
X321510Y663965D01*
X320784Y665390D01*
X320289Y666911D01*
X320039Y668490D01*
X320039Y676149D01*
X329439Y676149D01*
X329439Y659129D01*
X329400Y659129D01*
G37*
%LPD*%
%LPC*%
G36*
X431000Y659129D02*
X431000Y659129D01*
X429421Y659379D01*
X427900Y659874D01*
X426475Y660600D01*
X425181Y661540D01*
X424050Y662671D01*
X423110Y663965D01*
X422384Y665390D01*
X421889Y666911D01*
X421639Y668490D01*
X421639Y676149D01*
X431039Y676149D01*
X431039Y659129D01*
X431000Y659129D01*
G37*
%LPD*%
G36*
X162753Y441153D02*
X162753Y441153D01*
X162756Y441151D01*
X163757Y441264D01*
X163763Y441270D01*
X163768Y441266D01*
X164719Y441599D01*
X164723Y441606D01*
X164729Y441604D01*
X165582Y442140D01*
X165585Y442148D01*
X165591Y442147D01*
X166303Y442859D01*
X166304Y442868D01*
X166310Y442868D01*
X166846Y443721D01*
X166845Y443729D01*
X166851Y443731D01*
X167184Y444682D01*
X167183Y444683D01*
X167184Y444683D01*
X167183Y444685D01*
X167181Y444690D01*
X167186Y444693D01*
X167299Y445695D01*
X167295Y445702D01*
X167299Y445706D01*
X167186Y446707D01*
X167180Y446713D01*
X167184Y446718D01*
X166851Y447669D01*
X166844Y447673D01*
X166846Y447679D01*
X166310Y448532D01*
X166302Y448535D01*
X166303Y448541D01*
X165591Y449253D01*
X165582Y449254D01*
X165582Y449260D01*
X164729Y449796D01*
X164721Y449795D01*
X164719Y449801D01*
X163768Y450134D01*
X163760Y450131D01*
X163757Y450136D01*
X162756Y450249D01*
X162752Y450247D01*
X162750Y450249D01*
X154750Y450249D01*
X154747Y450247D01*
X154745Y450249D01*
X153743Y450136D01*
X153737Y450130D01*
X153732Y450134D01*
X152781Y449801D01*
X152777Y449794D01*
X152771Y449796D01*
X151918Y449260D01*
X151915Y449252D01*
X151909Y449253D01*
X151197Y448541D01*
X151196Y448532D01*
X151190Y448532D01*
X150654Y447679D01*
X150655Y447671D01*
X150649Y447669D01*
X150316Y446718D01*
X150319Y446710D01*
X150314Y446707D01*
X150201Y445706D01*
X150205Y445698D01*
X150201Y445695D01*
X150314Y444693D01*
X150320Y444687D01*
X150316Y444682D01*
X150649Y443731D01*
X150656Y443727D01*
X150654Y443721D01*
X151190Y442868D01*
X151198Y442865D01*
X151197Y442859D01*
X151909Y442147D01*
X151918Y442146D01*
X151918Y442140D01*
X152771Y441604D01*
X152779Y441605D01*
X152781Y441599D01*
X153732Y441266D01*
X153740Y441269D01*
X153743Y441264D01*
X154745Y441151D01*
X154748Y441153D01*
X154750Y441151D01*
X162750Y441151D01*
X162753Y441153D01*
G37*
G36*
X162753Y527653D02*
X162753Y527653D01*
X162756Y527651D01*
X163757Y527764D01*
X163763Y527770D01*
X163768Y527766D01*
X164719Y528099D01*
X164723Y528106D01*
X164729Y528104D01*
X165582Y528640D01*
X165585Y528648D01*
X165591Y528647D01*
X166303Y529359D01*
X166304Y529368D01*
X166310Y529368D01*
X166846Y530221D01*
X166845Y530229D01*
X166851Y530231D01*
X167184Y531182D01*
X167183Y531183D01*
X167184Y531183D01*
X167183Y531185D01*
X167181Y531190D01*
X167186Y531193D01*
X167299Y532195D01*
X167295Y532202D01*
X167299Y532206D01*
X167186Y533207D01*
X167180Y533213D01*
X167184Y533218D01*
X166851Y534169D01*
X166844Y534173D01*
X166846Y534179D01*
X166310Y535032D01*
X166302Y535035D01*
X166303Y535041D01*
X165591Y535753D01*
X165582Y535754D01*
X165582Y535760D01*
X164729Y536296D01*
X164721Y536295D01*
X164719Y536301D01*
X163768Y536634D01*
X163760Y536631D01*
X163757Y536636D01*
X162756Y536749D01*
X162752Y536747D01*
X162750Y536749D01*
X154750Y536749D01*
X154747Y536747D01*
X154745Y536749D01*
X153743Y536636D01*
X153737Y536630D01*
X153732Y536634D01*
X152781Y536301D01*
X152777Y536294D01*
X152771Y536296D01*
X151918Y535760D01*
X151915Y535752D01*
X151909Y535753D01*
X151197Y535041D01*
X151196Y535032D01*
X151190Y535032D01*
X150654Y534179D01*
X150655Y534171D01*
X150649Y534169D01*
X150316Y533218D01*
X150319Y533210D01*
X150314Y533207D01*
X150201Y532206D01*
X150205Y532198D01*
X150201Y532195D01*
X150314Y531193D01*
X150320Y531187D01*
X150316Y531182D01*
X150649Y530231D01*
X150656Y530227D01*
X150654Y530221D01*
X151190Y529368D01*
X151198Y529365D01*
X151197Y529359D01*
X151909Y528647D01*
X151918Y528646D01*
X151918Y528640D01*
X152771Y528104D01*
X152779Y528105D01*
X152781Y528099D01*
X153732Y527766D01*
X153740Y527769D01*
X153743Y527764D01*
X154745Y527651D01*
X154748Y527653D01*
X154750Y527651D01*
X162750Y527651D01*
X162753Y527653D01*
G37*
%LPC*%
G36*
X448817Y425005D02*
X448817Y425005D01*
X448817Y436119D01*
X459931Y436119D01*
X459931Y427211D01*
X459758Y426565D01*
X459424Y425985D01*
X458951Y425512D01*
X458371Y425178D01*
X457725Y425005D01*
X448817Y425005D01*
G37*
%LPD*%
%LPC*%
G36*
X438387Y425005D02*
X438387Y425005D01*
X437741Y425178D01*
X437161Y425512D01*
X436688Y425985D01*
X436354Y426565D01*
X436181Y427211D01*
X436181Y436119D01*
X447295Y436119D01*
X447295Y425005D01*
X438387Y425005D01*
G37*
%LPD*%
%LPC*%
G36*
X393674Y581299D02*
X393674Y581299D01*
X393674Y586881D01*
X393774Y586881D01*
X394949Y586647D01*
X396055Y586189D01*
X397051Y585523D01*
X397898Y584676D01*
X398564Y583680D01*
X399022Y582574D01*
X399256Y581399D01*
X399256Y581299D01*
X393674Y581299D01*
G37*
%LPD*%
%LPC*%
G36*
X375324Y562949D02*
X375324Y562949D01*
X375324Y568531D01*
X375424Y568531D01*
X376599Y568297D01*
X377705Y567839D01*
X378701Y567173D01*
X379548Y566326D01*
X380214Y565330D01*
X380672Y564224D01*
X380906Y563049D01*
X380906Y562949D01*
X375324Y562949D01*
G37*
%LPD*%
%LPC*%
G36*
X402849Y572124D02*
X402849Y572124D01*
X402849Y577706D01*
X402949Y577706D01*
X404124Y577472D01*
X405230Y577014D01*
X406226Y576348D01*
X407073Y575501D01*
X407739Y574505D01*
X408197Y573399D01*
X408431Y572224D01*
X408431Y572124D01*
X402849Y572124D01*
G37*
%LPD*%
%LPC*%
G36*
X384499Y572124D02*
X384499Y572124D01*
X384499Y577706D01*
X384599Y577706D01*
X385774Y577472D01*
X386880Y577014D01*
X387876Y576348D01*
X388723Y575501D01*
X389389Y574505D01*
X389847Y573399D01*
X390081Y572224D01*
X390081Y572124D01*
X384499Y572124D01*
G37*
%LPD*%
%LPC*%
G36*
X375324Y544599D02*
X375324Y544599D01*
X375324Y550181D01*
X375424Y550181D01*
X376599Y549947D01*
X377705Y549489D01*
X378701Y548823D01*
X379548Y547976D01*
X380214Y546980D01*
X380672Y545874D01*
X380906Y544699D01*
X380906Y544599D01*
X375324Y544599D01*
G37*
%LPD*%
%LPC*%
G36*
X366149Y572124D02*
X366149Y572124D01*
X366149Y577706D01*
X366249Y577706D01*
X367424Y577472D01*
X368530Y577014D01*
X369526Y576348D01*
X370373Y575501D01*
X371039Y574505D01*
X371497Y573399D01*
X371731Y572224D01*
X371731Y572124D01*
X366149Y572124D01*
G37*
%LPD*%
%LPC*%
G36*
X393674Y544599D02*
X393674Y544599D01*
X393674Y550181D01*
X393774Y550181D01*
X394949Y549947D01*
X396055Y549489D01*
X397051Y548823D01*
X397898Y547976D01*
X398564Y546980D01*
X399022Y545874D01*
X399256Y544699D01*
X399256Y544599D01*
X393674Y544599D01*
G37*
%LPD*%
%LPC*%
G36*
X375324Y581299D02*
X375324Y581299D01*
X375324Y586881D01*
X375424Y586881D01*
X376599Y586647D01*
X377705Y586189D01*
X378701Y585523D01*
X379548Y584676D01*
X380214Y583680D01*
X380672Y582574D01*
X380906Y581399D01*
X380906Y581299D01*
X375324Y581299D01*
G37*
%LPD*%
%LPC*%
G36*
X366149Y553774D02*
X366149Y553774D01*
X366149Y559356D01*
X366249Y559356D01*
X367424Y559122D01*
X368530Y558664D01*
X369526Y557998D01*
X370373Y557151D01*
X371039Y556155D01*
X371497Y555049D01*
X371731Y553874D01*
X371731Y553774D01*
X366149Y553774D01*
G37*
%LPD*%
%LPC*%
G36*
X402849Y553774D02*
X402849Y553774D01*
X402849Y559356D01*
X402949Y559356D01*
X404124Y559122D01*
X405230Y558664D01*
X406226Y557998D01*
X407073Y557151D01*
X407739Y556155D01*
X408197Y555049D01*
X408431Y553874D01*
X408431Y553774D01*
X402849Y553774D01*
G37*
%LPD*%
%LPC*%
G36*
X384499Y553774D02*
X384499Y553774D01*
X384499Y559356D01*
X384599Y559356D01*
X385774Y559122D01*
X386880Y558664D01*
X387876Y557998D01*
X388723Y557151D01*
X389389Y556155D01*
X389847Y555049D01*
X390081Y553874D01*
X390081Y553774D01*
X384499Y553774D01*
G37*
%LPD*%
%LPC*%
G36*
X393674Y562949D02*
X393674Y562949D01*
X393674Y568531D01*
X393774Y568531D01*
X394949Y568297D01*
X396055Y567839D01*
X397051Y567173D01*
X397898Y566326D01*
X398564Y565330D01*
X399022Y564224D01*
X399256Y563049D01*
X399256Y562949D01*
X393674Y562949D01*
G37*
%LPD*%
%LPC*%
G36*
X359569Y553774D02*
X359569Y553774D01*
X359569Y553874D01*
X359773Y554899D01*
X359803Y555049D01*
X360261Y556155D01*
X360927Y557151D01*
X361774Y557998D01*
X362770Y558664D01*
X363876Y559122D01*
X365051Y559356D01*
X365151Y559356D01*
X365151Y553774D01*
X359569Y553774D01*
G37*
%LPD*%
%LPC*%
G36*
X377919Y553774D02*
X377919Y553774D01*
X377919Y553874D01*
X378123Y554899D01*
X378153Y555049D01*
X378611Y556155D01*
X379277Y557151D01*
X380124Y557998D01*
X381120Y558664D01*
X382226Y559122D01*
X383401Y559356D01*
X383501Y559356D01*
X383501Y553774D01*
X377919Y553774D01*
G37*
%LPD*%
%LPC*%
G36*
X396269Y553774D02*
X396269Y553774D01*
X396269Y553874D01*
X396473Y554899D01*
X396503Y555049D01*
X396961Y556155D01*
X397627Y557151D01*
X398474Y557998D01*
X399470Y558664D01*
X400576Y559122D01*
X401751Y559356D01*
X401851Y559356D01*
X401851Y553774D01*
X396269Y553774D01*
G37*
%LPD*%
%LPC*%
G36*
X402849Y565544D02*
X402849Y565544D01*
X402849Y571126D01*
X408431Y571126D01*
X408431Y571026D01*
X408428Y571015D01*
X408202Y569874D01*
X408197Y569851D01*
X407739Y568745D01*
X407073Y567749D01*
X406226Y566902D01*
X405230Y566236D01*
X404124Y565778D01*
X402949Y565544D01*
X402849Y565544D01*
G37*
%LPD*%
%LPC*%
G36*
X384499Y565544D02*
X384499Y565544D01*
X384499Y571126D01*
X390081Y571126D01*
X390081Y571026D01*
X390078Y571015D01*
X389852Y569874D01*
X389847Y569851D01*
X389389Y568745D01*
X388723Y567749D01*
X387876Y566902D01*
X386880Y566236D01*
X385774Y565778D01*
X384599Y565544D01*
X384499Y565544D01*
G37*
%LPD*%
%LPC*%
G36*
X366149Y565544D02*
X366149Y565544D01*
X366149Y571126D01*
X371731Y571126D01*
X371731Y571026D01*
X371728Y571015D01*
X371502Y569874D01*
X371497Y569851D01*
X371039Y568745D01*
X370373Y567749D01*
X369526Y566902D01*
X368530Y566236D01*
X367424Y565778D01*
X366249Y565544D01*
X366149Y565544D01*
G37*
%LPD*%
%LPC*%
G36*
X387094Y544599D02*
X387094Y544599D01*
X387094Y544699D01*
X387157Y545013D01*
X387308Y545773D01*
X387328Y545874D01*
X387786Y546980D01*
X388452Y547976D01*
X389299Y548823D01*
X390295Y549489D01*
X391401Y549947D01*
X392576Y550181D01*
X392676Y550181D01*
X392676Y544599D01*
X387094Y544599D01*
G37*
%LPD*%
%LPC*%
G36*
X368744Y544599D02*
X368744Y544599D01*
X368744Y544699D01*
X368807Y545013D01*
X368958Y545773D01*
X368978Y545874D01*
X369436Y546980D01*
X370102Y547976D01*
X370949Y548823D01*
X371945Y549489D01*
X373051Y549947D01*
X374226Y550181D01*
X374326Y550181D01*
X374326Y544599D01*
X368744Y544599D01*
G37*
%LPD*%
%LPC*%
G36*
X359569Y572124D02*
X359569Y572124D01*
X359569Y572224D01*
X359678Y572771D01*
X359754Y573151D01*
X359803Y573399D01*
X360261Y574505D01*
X360927Y575501D01*
X361774Y576348D01*
X362770Y577014D01*
X363876Y577472D01*
X365051Y577706D01*
X365151Y577706D01*
X365151Y572124D01*
X359569Y572124D01*
G37*
%LPD*%
%LPC*%
G36*
X396269Y572124D02*
X396269Y572124D01*
X396269Y572224D01*
X396378Y572771D01*
X396454Y573151D01*
X396503Y573399D01*
X396961Y574505D01*
X397627Y575501D01*
X398474Y576348D01*
X399470Y577014D01*
X400576Y577472D01*
X401751Y577706D01*
X401851Y577706D01*
X401851Y572124D01*
X396269Y572124D01*
G37*
%LPD*%
%LPC*%
G36*
X377919Y572124D02*
X377919Y572124D01*
X377919Y572224D01*
X378028Y572771D01*
X378104Y573151D01*
X378153Y573399D01*
X378611Y574505D01*
X379277Y575501D01*
X380124Y576348D01*
X381120Y577014D01*
X382226Y577472D01*
X383401Y577706D01*
X383501Y577706D01*
X383501Y572124D01*
X377919Y572124D01*
G37*
%LPD*%
%LPC*%
G36*
X366149Y547194D02*
X366149Y547194D01*
X366149Y552776D01*
X371731Y552776D01*
X371731Y552676D01*
X371597Y552002D01*
X371521Y551622D01*
X371497Y551501D01*
X371039Y550395D01*
X370373Y549399D01*
X369526Y548552D01*
X368530Y547886D01*
X367424Y547428D01*
X366249Y547194D01*
X366149Y547194D01*
G37*
%LPD*%
%LPC*%
G36*
X402849Y547194D02*
X402849Y547194D01*
X402849Y552776D01*
X408431Y552776D01*
X408431Y552676D01*
X408297Y552002D01*
X408221Y551622D01*
X408197Y551501D01*
X407739Y550395D01*
X407073Y549399D01*
X406226Y548552D01*
X405230Y547886D01*
X404124Y547428D01*
X402949Y547194D01*
X402849Y547194D01*
G37*
%LPD*%
%LPC*%
G36*
X384499Y547194D02*
X384499Y547194D01*
X384499Y552776D01*
X390081Y552776D01*
X390081Y552676D01*
X389947Y552002D01*
X389871Y551622D01*
X389847Y551501D01*
X389389Y550395D01*
X388723Y549399D01*
X387876Y548552D01*
X386880Y547886D01*
X385774Y547428D01*
X384599Y547194D01*
X384499Y547194D01*
G37*
%LPD*%
%LPC*%
G36*
X368744Y562949D02*
X368744Y562949D01*
X368744Y563049D01*
X368863Y563645D01*
X368938Y564025D01*
X368978Y564224D01*
X369436Y565330D01*
X370102Y566326D01*
X370949Y567173D01*
X371945Y567839D01*
X373051Y568297D01*
X374226Y568531D01*
X374326Y568531D01*
X374326Y562949D01*
X368744Y562949D01*
G37*
%LPD*%
%LPC*%
G36*
X387094Y562949D02*
X387094Y562949D01*
X387094Y563049D01*
X387213Y563645D01*
X387288Y564025D01*
X387328Y564224D01*
X387786Y565330D01*
X388452Y566326D01*
X389299Y567173D01*
X390295Y567839D01*
X391401Y568297D01*
X392576Y568531D01*
X392676Y568531D01*
X392676Y562949D01*
X387094Y562949D01*
G37*
%LPD*%
%LPC*%
G36*
X375324Y556369D02*
X375324Y556369D01*
X375324Y561951D01*
X380906Y561951D01*
X380906Y561851D01*
X380762Y561128D01*
X380686Y560748D01*
X380672Y560676D01*
X380214Y559570D01*
X379548Y558574D01*
X378701Y557727D01*
X377705Y557061D01*
X376599Y556603D01*
X375424Y556369D01*
X375324Y556369D01*
G37*
%LPD*%
%LPC*%
G36*
X393674Y556369D02*
X393674Y556369D01*
X393674Y561951D01*
X399256Y561951D01*
X399256Y561851D01*
X399112Y561128D01*
X399036Y560748D01*
X399022Y560676D01*
X398564Y559570D01*
X397898Y558574D01*
X397051Y557727D01*
X396055Y557061D01*
X394949Y556603D01*
X393774Y556369D01*
X393674Y556369D01*
G37*
%LPD*%
%LPC*%
G36*
X368744Y581299D02*
X368744Y581299D01*
X368744Y581399D01*
X368768Y581517D01*
X368843Y581897D01*
X368919Y582277D01*
X368978Y582574D01*
X369436Y583680D01*
X370102Y584676D01*
X370949Y585523D01*
X371945Y586189D01*
X373051Y586647D01*
X374226Y586881D01*
X374326Y586881D01*
X374326Y581299D01*
X368744Y581299D01*
G37*
%LPD*%
%LPC*%
G36*
X387094Y581299D02*
X387094Y581299D01*
X387094Y581399D01*
X387118Y581517D01*
X387193Y581897D01*
X387269Y582277D01*
X387328Y582574D01*
X387786Y583680D01*
X388452Y584676D01*
X389299Y585523D01*
X390295Y586189D01*
X391401Y586647D01*
X392576Y586881D01*
X392676Y586881D01*
X392676Y581299D01*
X387094Y581299D01*
G37*
%LPD*%
%LPC*%
G36*
X375324Y574719D02*
X375324Y574719D01*
X375324Y580301D01*
X380906Y580301D01*
X380906Y580201D01*
X380894Y580141D01*
X380818Y579761D01*
X380818Y579760D01*
X380672Y579026D01*
X380214Y577920D01*
X379548Y576924D01*
X378701Y576077D01*
X377705Y575411D01*
X376599Y574953D01*
X375424Y574719D01*
X375324Y574719D01*
G37*
%LPD*%
%LPC*%
G36*
X393674Y574719D02*
X393674Y574719D01*
X393674Y580301D01*
X399256Y580301D01*
X399256Y580201D01*
X399244Y580141D01*
X399168Y579761D01*
X399168Y579760D01*
X399022Y579026D01*
X398564Y577920D01*
X397898Y576924D01*
X397051Y576077D01*
X396055Y575411D01*
X394949Y574953D01*
X393774Y574719D01*
X393674Y574719D01*
G37*
%LPD*%
%LPC*%
G36*
X393674Y538019D02*
X393674Y538019D01*
X393674Y543601D01*
X399256Y543601D01*
X399256Y543501D01*
X399131Y542876D01*
X399056Y542496D01*
X399022Y542326D01*
X398564Y541220D01*
X397898Y540224D01*
X397051Y539377D01*
X396055Y538711D01*
X394949Y538253D01*
X393774Y538019D01*
X393674Y538019D01*
G37*
%LPD*%
%LPC*%
G36*
X375324Y538019D02*
X375324Y538019D01*
X375324Y543601D01*
X380906Y543601D01*
X380906Y543501D01*
X380781Y542876D01*
X380706Y542496D01*
X380672Y542326D01*
X380214Y541220D01*
X379548Y540224D01*
X378701Y539377D01*
X377705Y538711D01*
X376599Y538253D01*
X375424Y538019D01*
X375324Y538019D01*
G37*
%LPD*%
%LPC*%
G36*
X374226Y556369D02*
X374226Y556369D01*
X373051Y556603D01*
X371945Y557061D01*
X370949Y557727D01*
X370102Y558574D01*
X369436Y559570D01*
X368978Y560676D01*
X368744Y561851D01*
X368744Y561951D01*
X374326Y561951D01*
X374326Y556369D01*
X374226Y556369D01*
G37*
%LPD*%
%LPC*%
G36*
X401751Y565544D02*
X401751Y565544D01*
X400576Y565778D01*
X399470Y566236D01*
X398474Y566902D01*
X397627Y567749D01*
X396961Y568745D01*
X396503Y569851D01*
X396269Y571026D01*
X396269Y571126D01*
X401851Y571126D01*
X401851Y565544D01*
X401751Y565544D01*
G37*
%LPD*%
%LPC*%
G36*
X383401Y547194D02*
X383401Y547194D01*
X382226Y547428D01*
X381120Y547886D01*
X380124Y548552D01*
X379277Y549399D01*
X378611Y550395D01*
X378153Y551501D01*
X377919Y552676D01*
X377919Y552776D01*
X383501Y552776D01*
X383501Y547194D01*
X383401Y547194D01*
G37*
%LPD*%
%LPC*%
G36*
X401751Y547194D02*
X401751Y547194D01*
X400576Y547428D01*
X399470Y547886D01*
X398474Y548552D01*
X397627Y549399D01*
X396961Y550395D01*
X396503Y551501D01*
X396269Y552676D01*
X396269Y552776D01*
X401851Y552776D01*
X401851Y547194D01*
X401751Y547194D01*
G37*
%LPD*%
%LPC*%
G36*
X392576Y538019D02*
X392576Y538019D01*
X391401Y538253D01*
X390295Y538711D01*
X389299Y539377D01*
X388452Y540224D01*
X387786Y541220D01*
X387328Y542326D01*
X387094Y543501D01*
X387094Y543601D01*
X392676Y543601D01*
X392676Y538019D01*
X392576Y538019D01*
G37*
%LPD*%
%LPC*%
G36*
X374226Y538019D02*
X374226Y538019D01*
X373051Y538253D01*
X371945Y538711D01*
X370949Y539377D01*
X370102Y540224D01*
X369436Y541220D01*
X368978Y542326D01*
X368744Y543501D01*
X368744Y543601D01*
X374326Y543601D01*
X374326Y538019D01*
X374226Y538019D01*
G37*
%LPD*%
%LPC*%
G36*
X365051Y565544D02*
X365051Y565544D01*
X363876Y565778D01*
X362770Y566236D01*
X361774Y566902D01*
X360927Y567749D01*
X360261Y568745D01*
X359803Y569851D01*
X359569Y571026D01*
X359569Y571126D01*
X365151Y571126D01*
X365151Y565544D01*
X365051Y565544D01*
G37*
%LPD*%
%LPC*%
G36*
X392576Y556369D02*
X392576Y556369D01*
X391401Y556603D01*
X390295Y557061D01*
X389299Y557727D01*
X388452Y558574D01*
X387786Y559570D01*
X387328Y560676D01*
X387094Y561851D01*
X387094Y561951D01*
X392676Y561951D01*
X392676Y556369D01*
X392576Y556369D01*
G37*
%LPD*%
%LPC*%
G36*
X383401Y565544D02*
X383401Y565544D01*
X382226Y565778D01*
X381120Y566236D01*
X380124Y566902D01*
X379277Y567749D01*
X378611Y568745D01*
X378153Y569851D01*
X377919Y571026D01*
X377919Y571126D01*
X383501Y571126D01*
X383501Y565544D01*
X383401Y565544D01*
G37*
%LPD*%
%LPC*%
G36*
X374226Y574719D02*
X374226Y574719D01*
X373051Y574953D01*
X371945Y575411D01*
X370949Y576077D01*
X370102Y576924D01*
X369436Y577920D01*
X368978Y579026D01*
X368744Y580201D01*
X368744Y580301D01*
X374326Y580301D01*
X374326Y574719D01*
X374226Y574719D01*
G37*
%LPD*%
%LPC*%
G36*
X392576Y574719D02*
X392576Y574719D01*
X391401Y574953D01*
X390295Y575411D01*
X389299Y576077D01*
X388452Y576924D01*
X387786Y577920D01*
X387328Y579026D01*
X387094Y580201D01*
X387094Y580301D01*
X392676Y580301D01*
X392676Y574719D01*
X392576Y574719D01*
G37*
%LPD*%
%LPC*%
G36*
X365051Y547194D02*
X365051Y547194D01*
X363876Y547428D01*
X362770Y547886D01*
X361774Y548552D01*
X360927Y549399D01*
X360261Y550395D01*
X359803Y551501D01*
X359569Y552676D01*
X359569Y552776D01*
X365151Y552776D01*
X365151Y547194D01*
X365051Y547194D01*
G37*
%LPD*%
%LPC*%
G36*
X448055Y436879D02*
X448055Y436879D01*
X448055Y436881D01*
X448057Y436881D01*
X448057Y436879D01*
X448055Y436879D01*
G37*
%LPD*%
%LPC*%
G36*
X431799Y676909D02*
X431799Y676909D01*
X431799Y676911D01*
X431801Y676911D01*
X431801Y676909D01*
X431799Y676909D01*
G37*
%LPD*%
D10*
X402350Y571625D03*
X402350Y553275D03*
X393175Y580800D03*
X393175Y562450D03*
X393175Y544100D03*
X384000Y571625D03*
X384000Y553275D03*
X374825Y580800D03*
X374825Y562450D03*
X374825Y544100D03*
X365650Y571625D03*
X365650Y553275D03*
D11*
X200450Y532200D03*
X200450Y445700D03*
X158750Y532200D03*
X158750Y445700D03*
D12*
X482600Y669290D02*
X482600Y684530D01*
X457200Y684530D02*
X457200Y669290D01*
X431800Y669290D02*
X431800Y684530D01*
X406400Y684530D02*
X406400Y669290D01*
X381000Y669290D02*
X381000Y684530D01*
X355600Y684530D02*
X355600Y669290D01*
X330200Y669290D02*
X330200Y684530D01*
D13*
X301150Y425450D03*
X321150Y425450D03*
D14*
X160020Y752630D03*
X160020Y732630D03*
X160020Y712630D03*
X160020Y692630D03*
D15*
X448056Y436880D03*
D16*
X513080Y436880D03*
D17*
X519430Y774700D03*
X360680Y739140D03*
X331470Y769620D03*
X293370Y765810D03*
X514350Y782320D03*
X505460Y787400D03*
X520700Y763270D03*
X360680Y730250D03*
X312420Y684530D03*
X321310Y652780D03*
X316230Y577850D03*
X379730Y608330D03*
X369570Y516890D03*
X316230Y527050D03*
X303530Y497840D03*
X369570Y487680D03*
X334010Y449580D03*
X309880Y450850D03*
X378460Y516890D03*
X453390Y516890D03*
X378460Y487680D03*
X212090Y541020D03*
X257810Y553720D03*
X220980Y447040D03*
X185420Y441960D03*
X304800Y609600D03*
X195580Y642620D03*
X185420Y721360D03*
X453390Y596900D03*
X495300Y694690D03*
X490220Y717550D03*
X499110Y717550D03*
X499110Y726440D03*
X490220Y726440D03*
X215900Y709930D03*
X214630Y690880D03*
X261620Y693420D03*
X195580Y764540D03*
X180340Y679450D03*
X228600Y531750D03*
X222024Y485140D03*
D18*
X228600Y528546D02*
X228600Y531750D01*
X228600Y528546D02*
X222024Y521970D01*
X222024Y485140D01*
D17*
X182880Y747804D03*
D18*
X182880Y786130D01*
X186690Y789940D01*
X381000Y783590D02*
X381000Y676910D01*
X374650Y789940D02*
X186690Y789940D01*
X374650Y789940D02*
X381000Y783590D01*
D17*
X422910Y515620D03*
D18*
X430276Y522986D01*
X381000Y641953D02*
X381000Y676910D01*
X430276Y592677D02*
X430276Y522986D01*
X430276Y592677D02*
X381000Y641953D01*
D17*
X191968Y747804D03*
D18*
X191968Y752884D01*
X188158Y756694D01*
X188158Y784804D01*
X189230Y785876D01*
X369570Y785876D01*
X374424Y781022D01*
X374424Y780866D01*
D17*
X374424Y780866D03*
X387576Y777240D03*
D18*
X387576Y714784D01*
X406400Y695960D02*
X406400Y676910D01*
X406400Y695960D02*
X387576Y714784D01*
X406400Y676910D02*
X406400Y622300D01*
D17*
X434340Y491490D03*
D18*
X434340Y594360D02*
X406400Y622300D01*
X434340Y594360D02*
X434340Y491490D01*
D17*
X215900Y464820D03*
D19*
X223520Y464820D01*
D17*
X262890Y462930D03*
D19*
X250840Y462930D01*
X232748Y455592D02*
X223520Y464820D01*
X243502Y455592D02*
X250840Y462930D01*
X243502Y455592D02*
X232748Y455592D01*
D17*
X187960Y484874D03*
D18*
X202196Y484874D01*
X215900Y471170D02*
X215900Y464820D01*
X215900Y471170D02*
X202196Y484874D01*
D17*
X215448Y512430D03*
D18*
X215448Y497388D01*
X202934Y484874D02*
X202196Y484874D01*
X202934Y484874D02*
X215448Y497388D01*
D17*
X233680Y714254D03*
D18*
X233680Y749300D01*
X234950Y750570D01*
X275590Y750570D01*
X278130Y748030D01*
X302260Y748030D02*
X304800Y745490D01*
D17*
X304800Y745490D03*
D18*
X302260Y748030D02*
X278130Y748030D01*
D17*
X225908Y719334D03*
D18*
X225908Y725018D01*
X229616Y728726D01*
X229616Y750983D02*
X233267Y754634D01*
X316230Y756920D02*
X321310Y756920D01*
X316230Y756920D02*
X311404Y752094D01*
D17*
X321310Y756920D03*
D18*
X229616Y750983D02*
X229616Y728726D01*
X233267Y754634D02*
X277273Y754634D01*
X279813Y752094D01*
X311404Y752094D01*
D17*
X350520Y753110D03*
D18*
X346710Y756920D01*
X321310Y756920D01*
X412750Y496570D02*
X420370Y488950D01*
D17*
X420370Y488950D03*
D18*
X332740Y496570D02*
X327660Y501650D01*
X332740Y496570D02*
X412750Y496570D01*
D17*
X222036Y645381D03*
D18*
X226281Y645381D01*
X232410Y651510D01*
X255270Y651510D01*
X317980Y614867D02*
X317980Y614200D01*
X318770Y613410D01*
X317980Y614867D02*
X309277Y623570D01*
X318770Y593500D02*
X322806Y589464D01*
X322806Y550954D01*
X325120Y504190D02*
X327660Y501650D01*
X325120Y504190D02*
X325120Y548640D01*
X283210Y623570D02*
X255270Y651510D01*
X283210Y623570D02*
X309277Y623570D01*
X318770Y613410D02*
X318770Y593500D01*
X322806Y550954D02*
X325120Y548640D01*
D17*
X340134Y598170D03*
D18*
X353286Y617404D02*
X353060Y617630D01*
X353286Y611322D02*
X340134Y598170D01*
X353286Y611322D02*
X353286Y617404D01*
X353060Y617630D02*
X353060Y651510D01*
X342900Y661670D01*
X342900Y694690D01*
X336550Y701040D01*
X327660Y701040D01*
D17*
X327660Y701040D03*
X407670Y503146D03*
D18*
X399006Y503146D01*
X396494Y500634D01*
X334423Y500634D01*
X329184Y505873D01*
X250190Y662337D02*
X250190Y668996D01*
D17*
X250190Y668996D03*
D18*
X275289Y637239D02*
X276003Y636524D01*
X275289Y637239D02*
X250190Y662337D01*
X329184Y550323D02*
X329184Y505873D01*
X329184Y550323D02*
X326870Y552637D01*
X322834Y595183D02*
X322834Y615761D01*
X310961Y627634D01*
X284893Y627634D02*
X276003Y636524D01*
X326870Y591147D02*
X326870Y552637D01*
X326870Y591147D02*
X322834Y595183D01*
X310961Y627634D02*
X284893Y627634D01*
D17*
X207010Y565150D03*
D18*
X207010Y570230D01*
X210820Y574040D02*
X226060Y574040D01*
X238760Y586740D01*
X238760Y616034D02*
X242288Y619562D01*
D17*
X242288Y619562D03*
D18*
X210820Y574040D02*
X207010Y570230D01*
X238760Y586740D02*
X238760Y616034D01*
D17*
X232184Y606617D03*
D18*
X232184Y598396D01*
X234696Y595884D01*
X234696Y588423D01*
X224377Y578104D01*
X209137Y578104D01*
X208883Y577850D01*
X205330Y577850D01*
X201725Y574245D01*
D17*
X201725Y574245D03*
X346710Y448310D03*
D18*
X346710Y487680D01*
D17*
X346710Y487680D03*
D18*
X280670Y688086D02*
X278130Y690626D01*
X280670Y688086D02*
X292829Y688086D01*
X326644Y637286D02*
X337279Y637286D01*
X346710Y627855D02*
X346710Y614680D01*
D17*
X346710Y614680D03*
D18*
X308356Y672559D02*
X292829Y688086D01*
X308356Y672559D02*
X308356Y655574D01*
X326644Y637286D01*
X337279Y637286D02*
X346710Y627855D01*
D17*
X278130Y715010D03*
D18*
X278130Y690626D01*
D17*
X222256Y659534D03*
D18*
X222250Y659528D01*
X222250Y654050D01*
X220980Y652780D01*
X215900Y652780D02*
X214630Y651510D01*
X214630Y641350D01*
X224760Y638805D02*
X226035Y640080D01*
X234093Y647446D02*
X245110Y647446D01*
X247650Y644906D01*
X247650Y631190D02*
X249029Y629811D01*
D17*
X249029Y629811D03*
D18*
X220980Y652780D02*
X215900Y652780D01*
X214630Y641350D02*
X217175Y638805D01*
X224760Y638805D01*
X226035Y640080D02*
X226727Y640080D01*
X234093Y647446D01*
X247650Y644906D02*
X247650Y631190D01*
X173736Y596151D02*
X173736Y431387D01*
X187293Y417830D01*
X284480Y417830D01*
X288290Y421640D01*
X288290Y435356D01*
X290830Y437896D01*
X332327Y437896D01*
D17*
X400050Y430224D03*
D18*
X375060Y430224D01*
X368484Y423648D01*
X346575Y423648D01*
X332327Y437896D01*
X236700Y638020D02*
X236700Y638238D01*
D17*
X236700Y638238D03*
D18*
X236700Y638020D02*
X232156Y633476D01*
X181089Y603504D02*
X173736Y596151D01*
X200434Y606834D02*
X200434Y611054D01*
X214220Y624840D02*
X224790Y624840D01*
X232156Y632206D01*
X232156Y633476D01*
X197104Y603504D02*
X181089Y603504D01*
X197104Y603504D02*
X200434Y606834D01*
X200434Y611054D02*
X214220Y624840D01*
X177800Y593198D02*
X177800Y433070D01*
X186690Y424180D01*
X281940Y424180D01*
X283210Y425450D01*
X283210Y436880D01*
X288290Y441960D01*
X334010Y441960D01*
X345746Y430224D01*
X365760Y430224D01*
D17*
X365760Y430224D03*
X207010Y608330D03*
D18*
X207010Y603250D01*
X184042Y599440D02*
X177800Y593198D01*
X203200Y599440D02*
X207010Y603250D01*
X203200Y599440D02*
X184042Y599440D01*
D17*
X473710Y439420D03*
D18*
X461010Y452120D01*
X449580Y452120D01*
X444500Y457200D01*
X444500Y495300D01*
X438404Y501396D01*
X438404Y608584D01*
X445770Y615950D02*
X445770Y618490D01*
D17*
X445770Y618490D03*
D18*
X445770Y615950D02*
X438404Y608584D01*
D17*
X373380Y725170D03*
D18*
X373380Y731520D01*
X376936Y735076D01*
X367848Y778142D02*
X367848Y779780D01*
X367848Y778142D02*
X376936Y769054D01*
X367848Y779780D02*
X365816Y781812D01*
X238560Y781812D02*
X236048Y779300D01*
D17*
X236048Y779300D03*
D18*
X376936Y769054D02*
X376936Y735076D01*
X365816Y781812D02*
X238560Y781812D01*
D17*
X250190Y512430D03*
D18*
X267786Y444274D02*
X277044Y444274D01*
X267786Y444274D02*
X266036Y446024D01*
X277044Y444274D02*
X281940Y449170D01*
X243205Y442595D02*
X243205Y431821D01*
D17*
X243205Y431821D03*
D18*
X281940Y481330D02*
X250840Y512430D01*
X250190Y512430D01*
X281940Y481330D02*
X281940Y449170D01*
X266036Y446024D02*
X246634Y446024D01*
X243205Y442595D01*
D17*
X274211Y472331D03*
D18*
X274211Y479951D01*
X274320Y480060D01*
X274320Y483203D01*
X259683Y497840D01*
X252080Y497840D02*
X237490Y512430D01*
D17*
X237490Y512430D03*
D18*
X252080Y497840D02*
X259683Y497840D01*
D17*
X237490Y462930D03*
D18*
X228600Y471820D02*
X228600Y521970D01*
X228600Y471820D02*
X237490Y462930D01*
X228600Y521970D02*
X236220Y529590D01*
X236220Y543560D01*
X232030Y547750D02*
X228600Y547750D01*
D17*
X228600Y547750D03*
D18*
X232030Y547750D02*
X236220Y543560D01*
D17*
X219992Y566138D03*
D18*
X220980Y565150D01*
X234668Y565150D01*
D17*
X234668Y565150D03*
X171450Y633730D03*
D18*
X171450Y624237D01*
X171196Y623983D01*
X171196Y606979D01*
X169564Y605347D01*
D17*
X185420Y575310D03*
D18*
X191360Y575310D01*
X196850Y569820D02*
X196850Y562610D01*
X204470Y554990D01*
X219992Y559082D02*
X219992Y566138D01*
X196850Y569820D02*
X191360Y575310D01*
X204470Y554990D02*
X215900Y554990D01*
X219992Y559082D01*
X169564Y589934D02*
X165100Y585470D01*
X165100Y576580D01*
X166370Y575310D01*
D17*
X166370Y575310D03*
D18*
X169564Y589934D02*
X169564Y605347D01*
D17*
X191770Y688272D03*
D18*
X191770Y703580D01*
D17*
X191770Y703580D03*
X265430Y607060D03*
X165100Y670560D03*
D18*
X203200Y670560D02*
X211074Y678434D01*
X203200Y670560D02*
X165100Y670560D01*
X211074Y678434D02*
X288831Y678434D01*
X298704Y668561D01*
X288290Y607060D02*
X265430Y607060D01*
X293370Y612140D02*
X293370Y615950D01*
X295910Y618490D01*
X313916Y597986D02*
X313690Y597760D01*
X313916Y597986D02*
X313916Y613184D01*
X313690Y589280D02*
X313799Y589171D01*
D17*
X313799Y589171D03*
D18*
X293370Y612140D02*
X288290Y607060D01*
X295910Y618490D02*
X308610Y618490D01*
X313916Y613184D01*
X313690Y597760D02*
X313690Y589280D01*
X333446Y591114D02*
X333446Y585470D01*
D17*
X333446Y585470D03*
D18*
X298704Y649511D02*
X298704Y668561D01*
X298704Y649511D02*
X326898Y621317D01*
X326898Y597662D01*
X333446Y591114D01*
D17*
X157180Y652780D03*
D18*
X157180Y676610D01*
X161290Y680720D02*
X168910Y680720D01*
X161290Y680720D02*
X157180Y676610D01*
X168910Y680720D02*
X173990Y685800D01*
D17*
X173990Y763270D03*
D18*
X173990Y685800D01*
D17*
X240030Y557530D03*
D18*
X224187Y557530D01*
X217583Y550926D01*
X184868Y550926D01*
X184376Y550434D01*
D17*
X184376Y550434D03*
X162362Y633756D03*
D18*
X162362Y630204D01*
X167132Y625434D01*
X167132Y608662D01*
X160420Y601950D01*
X160420Y578660D02*
X159794Y578034D01*
X165020Y559546D02*
X165020Y553800D01*
X159794Y564772D02*
X159794Y578034D01*
X159794Y564772D02*
X165020Y559546D01*
X167160Y551660D02*
X167160Y544522D01*
D17*
X167160Y544522D03*
D18*
X160420Y578660D02*
X160420Y601950D01*
X165020Y553800D02*
X167160Y551660D01*
D17*
X321310Y448536D03*
D19*
X321310Y496570D01*
X306070Y511810D01*
X306070Y586740D01*
X303530Y589280D01*
X270510Y589280D01*
X261620Y580390D01*
X261620Y577034D01*
D17*
X261620Y577034D03*
X204470Y685800D03*
D19*
X207010Y683260D01*
X303530Y670560D02*
X303530Y651510D01*
X322580Y632460D01*
X335280Y632460D01*
X339090Y628650D01*
X339090Y608330D01*
D17*
X339090Y608330D03*
X307340Y600710D03*
D19*
X307340Y593090D01*
X303530Y589280D01*
X290830Y683260D02*
X207010Y683260D01*
X290830Y683260D02*
X303530Y670560D01*
D17*
X314960Y745490D03*
D18*
X311150Y741680D01*
X344190Y713740D02*
X344950Y712980D01*
D17*
X344950Y712980D03*
D18*
X311150Y718820D02*
X311150Y741680D01*
X311150Y718820D02*
X316230Y713740D01*
X344190Y713740D01*
D17*
X431800Y450850D03*
D18*
X431800Y484730D01*
X427764Y488766D01*
X427764Y496796D01*
X416334Y518344D02*
X416560Y518570D01*
X416334Y518344D02*
X416334Y508226D01*
X416560Y523240D02*
X426212Y532892D01*
D17*
X422910Y590550D03*
D18*
X416334Y508226D02*
X427764Y496796D01*
X416560Y518570D02*
X416560Y523240D01*
X426212Y532892D02*
X426212Y587248D01*
X422910Y590550D01*
D17*
X300990Y689610D03*
D19*
X300990Y726440D01*
X284480Y742950D02*
X269240Y742950D01*
D17*
X269240Y742950D03*
D19*
X284480Y742950D02*
X300990Y726440D01*
D17*
X214630Y594360D03*
D19*
X214630Y609818D01*
X222141Y617329D01*
D17*
X222141Y617329D03*
X243840Y718820D03*
X259458Y717550D03*
D18*
X245110Y717550D01*
X243840Y718820D01*
D17*
X240636Y771036D03*
D18*
X212236Y771036D01*
X205740Y764540D02*
X205740Y763270D01*
D17*
X205740Y763270D03*
D18*
X205740Y764540D02*
X212236Y771036D01*
D17*
X279400Y734060D03*
D18*
X279400Y726440D01*
X269240Y716280D02*
X269240Y712470D01*
X261620Y704850D01*
X247650Y695960D02*
X240030Y695960D01*
D17*
X240030Y695960D03*
D18*
X269240Y716280D02*
X279400Y726440D01*
X261620Y704850D02*
X256540Y704850D01*
X247650Y695960D01*
D17*
X193040Y629920D03*
D19*
X204470Y629920D01*
X207010Y632460D01*
X207010Y662940D01*
X212090Y668020D01*
X231112Y668020D02*
X234950Y671858D01*
D17*
X234950Y671858D03*
D19*
X231112Y668020D02*
X212090Y668020D01*
M02*
