G04 EAGLE Gerber RS-274X export*
G75*
%MOMM*%
%FSLAX34Y34*%
%LPD*%
%INSilkscreen Bottom*%
%IPPOS*%
%AMOC8*
5,1,8,0,0,1.08239X$1,22.5*%
G01*
%ADD10R,0.127000X0.025400*%
%ADD11R,0.203200X0.025400*%
%ADD12R,0.279400X0.025400*%
%ADD13R,0.177800X0.025400*%
%ADD14R,0.355600X0.025400*%
%ADD15R,0.381000X0.025400*%
%ADD16R,0.457200X0.025400*%
%ADD17R,0.736600X0.025400*%
%ADD18R,0.508000X0.025400*%
%ADD19R,0.914400X0.025400*%
%ADD20R,0.558800X0.025400*%
%ADD21R,1.092200X0.025400*%
%ADD22R,0.152400X0.025400*%
%ADD23R,0.584200X0.025400*%
%ADD24R,1.219200X0.025400*%
%ADD25R,1.371600X0.025400*%
%ADD26R,0.228600X0.025400*%
%ADD27R,1.473200X0.025400*%
%ADD28R,1.574800X0.025400*%
%ADD29R,1.651000X0.025400*%
%ADD30R,1.752600X0.025400*%
%ADD31R,1.828800X0.025400*%
%ADD32R,1.905000X0.025400*%
%ADD33R,0.889000X0.025400*%
%ADD34R,0.863600X0.025400*%
%ADD35R,0.711200X0.025400*%
%ADD36R,0.431800X0.025400*%
%ADD37R,0.685800X0.025400*%
%ADD38R,0.635000X0.025400*%
%ADD39R,0.406400X0.025400*%
%ADD40R,0.609600X0.025400*%
%ADD41R,0.330200X0.025400*%
%ADD42R,0.533400X0.025400*%
%ADD43R,0.304800X0.025400*%
%ADD44R,0.254000X0.025400*%
%ADD45R,0.482600X0.025400*%
%ADD46R,0.050800X0.025400*%
%ADD47R,0.838200X0.025400*%
%ADD48R,0.965200X0.025400*%
%ADD49R,1.041400X0.025400*%
%ADD50R,1.117600X0.025400*%
%ADD51R,1.270000X0.025400*%
%ADD52R,1.320800X0.025400*%
%ADD53R,1.422400X0.025400*%
%ADD54R,1.524000X0.025400*%
%ADD55R,1.549400X0.025400*%
%ADD56R,0.660400X0.025400*%
%ADD57R,0.101600X0.025400*%
%ADD58R,0.812800X0.025400*%
%ADD59R,1.295400X0.025400*%
%ADD60R,1.244600X0.025400*%
%ADD61R,1.193800X0.025400*%
%ADD62R,0.076200X0.025400*%
%ADD63R,1.066800X0.025400*%
%ADD64R,0.990600X0.025400*%
%ADD65R,0.025400X0.025400*%
%ADD66R,0.787400X0.025400*%
%ADD67R,0.762000X0.025400*%
%ADD68C,0.076200*%


D10*
X415290Y740410D03*
D11*
X415163Y740664D03*
D12*
X441960Y740918D03*
D13*
X414528Y740918D03*
D14*
X441833Y741172D03*
D15*
X424434Y741172D03*
D13*
X414020Y741172D03*
D16*
X441579Y741426D03*
D17*
X424434Y741426D03*
D13*
X413766Y741426D03*
D18*
X441579Y741680D03*
D19*
X424561Y741680D03*
D13*
X413258Y741680D03*
D20*
X441325Y741934D03*
D21*
X424434Y741934D03*
D22*
X412877Y741934D03*
D23*
X441452Y742188D03*
D24*
X424561Y742188D03*
D13*
X412496Y742188D03*
D22*
X443611Y742442D03*
D12*
X439674Y742442D03*
D25*
X424561Y742442D03*
D13*
X412242Y742442D03*
D22*
X443611Y742696D03*
D26*
X439420Y742696D03*
D27*
X424561Y742696D03*
D22*
X411861Y742696D03*
X443357Y742950D03*
D13*
X439166Y742950D03*
D28*
X424561Y742950D03*
D22*
X411607Y742950D03*
D13*
X443230Y743204D03*
D22*
X439039Y743204D03*
D29*
X424688Y743204D03*
D13*
X411226Y743204D03*
X443230Y743458D03*
D10*
X439166Y743458D03*
D30*
X424688Y743458D03*
D13*
X410972Y743458D03*
X442976Y743712D03*
D22*
X439293Y743712D03*
D31*
X424561Y743712D03*
D22*
X410591Y743712D03*
D11*
X442849Y743966D03*
D22*
X439293Y743966D03*
D32*
X424688Y743966D03*
D22*
X410337Y743966D03*
D11*
X442595Y744220D03*
D22*
X439547Y744220D03*
D33*
X430022Y744220D03*
D34*
X418973Y744220D03*
D22*
X410083Y744220D03*
D11*
X442341Y744474D03*
D22*
X439547Y744474D03*
D17*
X431038Y744474D03*
D35*
X417957Y744474D03*
D22*
X409829Y744474D03*
D36*
X441198Y744728D03*
D37*
X431800Y744728D03*
D38*
X417322Y744728D03*
D22*
X409575Y744728D03*
D39*
X441071Y744982D03*
D40*
X432435Y744982D03*
X416687Y744982D03*
D22*
X409321Y744982D03*
D14*
X441071Y745236D03*
D23*
X432816Y745236D03*
X416306Y745236D03*
D22*
X409067Y745236D03*
D41*
X440944Y745490D03*
D42*
X433324Y745490D03*
X415798Y745490D03*
D22*
X409067Y745490D03*
D43*
X440817Y745744D03*
D18*
X433705Y745744D03*
X415417Y745744D03*
D22*
X408813Y745744D03*
D44*
X440563Y745998D03*
D18*
X433959Y745998D03*
X415163Y745998D03*
D22*
X408559Y745998D03*
D26*
X440436Y746252D03*
D45*
X434340Y746252D03*
X414782Y746252D03*
D22*
X408305Y746252D03*
D13*
X440436Y746506D03*
D16*
X434721Y746506D03*
D45*
X414528Y746506D03*
D22*
X408051Y746506D03*
D10*
X440436Y746760D03*
D16*
X434975Y746760D03*
D10*
X425958Y746760D03*
D16*
X414147Y746760D03*
D22*
X408051Y746760D03*
D46*
X440309Y747014D03*
D16*
X435229Y747014D03*
D22*
X426847Y747014D03*
D16*
X413893Y747014D03*
D22*
X407797Y747014D03*
D36*
X435610Y747268D03*
D22*
X427863Y747268D03*
D36*
X413512Y747268D03*
D22*
X407543Y747268D03*
D36*
X435864Y747522D03*
D10*
X428498Y747522D03*
D36*
X413258Y747522D03*
D22*
X407543Y747522D03*
D39*
X435991Y747776D03*
D10*
X429006Y747776D03*
D36*
X413004Y747776D03*
D22*
X407289Y747776D03*
D39*
X436245Y748030D03*
D10*
X429514Y748030D03*
D39*
X412877Y748030D03*
D22*
X407035Y748030D03*
D39*
X436499Y748284D03*
D10*
X430022Y748284D03*
D39*
X412623Y748284D03*
D22*
X407035Y748284D03*
D15*
X436626Y748538D03*
D10*
X430276Y748538D03*
D12*
X423164Y748538D03*
D39*
X412369Y748538D03*
D22*
X406781Y748538D03*
D15*
X436880Y748792D03*
D10*
X430784Y748792D03*
D20*
X423291Y748792D03*
D15*
X412242Y748792D03*
D22*
X406781Y748792D03*
D15*
X437134Y749046D03*
D10*
X431038Y749046D03*
D35*
X423291Y749046D03*
D15*
X411988Y749046D03*
D22*
X406527Y749046D03*
D15*
X437134Y749300D03*
D10*
X431292Y749300D03*
D47*
X423164Y749300D03*
D15*
X411734Y749300D03*
D22*
X406527Y749300D03*
D15*
X437388Y749554D03*
D10*
X431546Y749554D03*
D48*
X423291Y749554D03*
D14*
X411607Y749554D03*
D22*
X406273Y749554D03*
D15*
X437642Y749808D03*
D10*
X431800Y749808D03*
D49*
X423164Y749808D03*
D15*
X411480Y749808D03*
D22*
X406273Y749808D03*
D14*
X437769Y750062D03*
D10*
X432054Y750062D03*
D50*
X423291Y750062D03*
D14*
X411353Y750062D03*
D22*
X406019Y750062D03*
D15*
X437896Y750316D03*
D10*
X432308Y750316D03*
D24*
X423291Y750316D03*
D14*
X411099Y750316D03*
D22*
X406019Y750316D03*
D14*
X438023Y750570D03*
D22*
X432435Y750570D03*
D51*
X423291Y750570D03*
D15*
X410972Y750570D03*
D10*
X405892Y750570D03*
D14*
X438277Y750824D03*
D22*
X432689Y750824D03*
D52*
X423291Y750824D03*
D14*
X410845Y750824D03*
D22*
X405765Y750824D03*
D14*
X438277Y751078D03*
D22*
X432943Y751078D03*
D25*
X423291Y751078D03*
D14*
X410591Y751078D03*
D10*
X405638Y751078D03*
D14*
X438531Y751332D03*
D13*
X433070Y751332D03*
D53*
X423291Y751332D03*
D14*
X410591Y751332D03*
D22*
X405511Y751332D03*
D41*
X438658Y751586D03*
D22*
X433197Y751586D03*
D27*
X423291Y751586D03*
D41*
X410464Y751586D03*
D22*
X405511Y751586D03*
D41*
X438658Y751840D03*
D22*
X433451Y751840D03*
D54*
X423291Y751840D03*
D14*
X410337Y751840D03*
D10*
X405384Y751840D03*
D41*
X438912Y752094D03*
D13*
X433578Y752094D03*
D28*
X423291Y752094D03*
D41*
X410210Y752094D03*
D22*
X405257Y752094D03*
D41*
X438912Y752348D03*
D22*
X433705Y752348D03*
D55*
X422910Y752348D03*
D41*
X410210Y752348D03*
D22*
X405257Y752348D03*
D14*
X439039Y752602D03*
D13*
X433832Y752602D03*
D42*
X427736Y752602D03*
D56*
X418211Y752602D03*
D41*
X409956Y752602D03*
D10*
X405130Y752602D03*
D41*
X439166Y752856D03*
D22*
X433959Y752856D03*
D36*
X427990Y752856D03*
D40*
X417703Y752856D03*
D41*
X409956Y752856D03*
D10*
X405130Y752856D03*
D41*
X439166Y753110D03*
D13*
X434086Y753110D03*
D14*
X428117Y753110D03*
D20*
X417449Y753110D03*
D41*
X409956Y753110D03*
D22*
X405003Y753110D03*
D41*
X439420Y753364D03*
D13*
X434086Y753364D03*
D12*
X428244Y753364D03*
D42*
X417068Y753364D03*
D41*
X409702Y753364D03*
D22*
X405003Y753364D03*
D41*
X439420Y753618D03*
D13*
X434340Y753618D03*
D26*
X428244Y753618D03*
D42*
X416814Y753618D03*
D41*
X409702Y753618D03*
D10*
X404876Y753618D03*
D41*
X439420Y753872D03*
D13*
X434340Y753872D03*
X428244Y753872D03*
D18*
X416687Y753872D03*
D41*
X409702Y753872D03*
D10*
X404876Y753872D03*
D43*
X439547Y754126D03*
D11*
X434467Y754126D03*
D57*
X428117Y754126D03*
D45*
X416306Y754126D03*
D43*
X409575Y754126D03*
D22*
X404749Y754126D03*
D41*
X439674Y754380D03*
D13*
X434594Y754380D03*
D46*
X428117Y754380D03*
D16*
X416179Y754380D03*
D41*
X409448Y754380D03*
D22*
X404749Y754380D03*
D41*
X439674Y754634D03*
D13*
X434594Y754634D03*
D16*
X415925Y754634D03*
D41*
X409448Y754634D03*
D22*
X404749Y754634D03*
D41*
X439674Y754888D03*
D11*
X434721Y754888D03*
D16*
X415925Y754888D03*
D41*
X409448Y754888D03*
D10*
X404622Y754888D03*
D43*
X439801Y755142D03*
D11*
X434721Y755142D03*
D16*
X415671Y755142D03*
D43*
X409321Y755142D03*
D10*
X404622Y755142D03*
D43*
X439801Y755396D03*
D11*
X434721Y755396D03*
D36*
X415544Y755396D03*
D43*
X409321Y755396D03*
D10*
X404622Y755396D03*
D43*
X439801Y755650D03*
D13*
X434848Y755650D03*
D36*
X415544Y755650D03*
D41*
X409194Y755650D03*
D22*
X404495Y755650D03*
D41*
X439928Y755904D03*
D11*
X434975Y755904D03*
D36*
X415290Y755904D03*
D41*
X409194Y755904D03*
D22*
X404495Y755904D03*
D41*
X439928Y756158D03*
D11*
X434975Y756158D03*
D39*
X415163Y756158D03*
D41*
X409194Y756158D03*
D22*
X404495Y756158D03*
D41*
X439928Y756412D03*
D11*
X434975Y756412D03*
D39*
X415163Y756412D03*
D41*
X409194Y756412D03*
D22*
X404495Y756412D03*
D43*
X440055Y756666D03*
D11*
X434975Y756666D03*
D36*
X415036Y756666D03*
D43*
X409067Y756666D03*
D22*
X404495Y756666D03*
D43*
X440055Y756920D03*
D11*
X434975Y756920D03*
D39*
X414909Y756920D03*
D43*
X409067Y756920D03*
D22*
X404495Y756920D03*
D43*
X440055Y757174D03*
D11*
X434975Y757174D03*
D39*
X414909Y757174D03*
D43*
X409067Y757174D03*
D10*
X404368Y757174D03*
D43*
X440055Y757428D03*
D11*
X434975Y757428D03*
D39*
X414909Y757428D03*
D43*
X409067Y757428D03*
D10*
X404368Y757428D03*
D43*
X440055Y757682D03*
D11*
X434975Y757682D03*
D39*
X414909Y757682D03*
D43*
X409067Y757682D03*
D10*
X404368Y757682D03*
D43*
X440055Y757936D03*
D11*
X434975Y757936D03*
D15*
X414782Y757936D03*
D43*
X409067Y757936D03*
D10*
X404368Y757936D03*
D43*
X440055Y758190D03*
D11*
X434975Y758190D03*
D15*
X414782Y758190D03*
D43*
X409067Y758190D03*
D10*
X404368Y758190D03*
D43*
X440055Y758444D03*
D11*
X434975Y758444D03*
D15*
X414782Y758444D03*
D43*
X409067Y758444D03*
D10*
X404368Y758444D03*
D43*
X440055Y758698D03*
D26*
X434848Y758698D03*
D15*
X414782Y758698D03*
D43*
X409067Y758698D03*
D10*
X404368Y758698D03*
D43*
X440055Y758952D03*
D26*
X434848Y758952D03*
D15*
X414782Y758952D03*
D43*
X409067Y758952D03*
D10*
X404368Y758952D03*
D43*
X440055Y759206D03*
D26*
X434848Y759206D03*
D15*
X414782Y759206D03*
D43*
X409067Y759206D03*
D22*
X404495Y759206D03*
D41*
X439928Y759460D03*
D26*
X434848Y759460D03*
D15*
X414782Y759460D03*
D43*
X409067Y759460D03*
D22*
X404495Y759460D03*
D41*
X439928Y759714D03*
D26*
X434848Y759714D03*
D15*
X414782Y759714D03*
D43*
X409067Y759714D03*
D22*
X404495Y759714D03*
D43*
X439801Y759968D03*
D26*
X434848Y759968D03*
D39*
X414909Y759968D03*
D41*
X409194Y759968D03*
D22*
X404495Y759968D03*
D43*
X439801Y760222D03*
D26*
X434594Y760222D03*
D39*
X414909Y760222D03*
D41*
X409194Y760222D03*
D22*
X404495Y760222D03*
D43*
X439801Y760476D03*
D26*
X434594Y760476D03*
D39*
X414909Y760476D03*
D41*
X409194Y760476D03*
D10*
X404622Y760476D03*
D43*
X439801Y760730D03*
D26*
X434594Y760730D03*
D39*
X414909Y760730D03*
D41*
X409194Y760730D03*
D10*
X404622Y760730D03*
D43*
X439801Y760984D03*
D44*
X434467Y760984D03*
D39*
X414909Y760984D03*
D43*
X409321Y760984D03*
D10*
X404622Y760984D03*
D41*
X439674Y761238D03*
D44*
X434467Y761238D03*
D36*
X415036Y761238D03*
D43*
X409321Y761238D03*
D10*
X404622Y761238D03*
D41*
X439674Y761492D03*
D26*
X434340Y761492D03*
D39*
X415163Y761492D03*
D41*
X409448Y761492D03*
D22*
X404749Y761492D03*
D43*
X439547Y761746D03*
D44*
X434213Y761746D03*
D36*
X415290Y761746D03*
D41*
X409448Y761746D03*
D22*
X404749Y761746D03*
D43*
X439547Y762000D03*
D44*
X434213Y762000D03*
D36*
X415290Y762000D03*
D41*
X409448Y762000D03*
D10*
X404876Y762000D03*
D41*
X439420Y762254D03*
D44*
X433959Y762254D03*
D36*
X415544Y762254D03*
D43*
X409575Y762254D03*
D10*
X404876Y762254D03*
D41*
X439420Y762508D03*
D44*
X433959Y762508D03*
D36*
X415544Y762508D03*
D41*
X409702Y762508D03*
D10*
X404876Y762508D03*
D43*
X439293Y762762D03*
D44*
X433705Y762762D03*
D16*
X415671Y762762D03*
D41*
X409702Y762762D03*
D22*
X405003Y762762D03*
D41*
X439166Y763016D03*
D44*
X433705Y763016D03*
D16*
X415925Y763016D03*
D14*
X409829Y763016D03*
D10*
X405130Y763016D03*
D41*
X439166Y763270D03*
D44*
X433451Y763270D03*
D45*
X416052Y763270D03*
D41*
X409956Y763270D03*
D10*
X405130Y763270D03*
D43*
X439039Y763524D03*
D44*
X433451Y763524D03*
D16*
X416179Y763524D03*
D41*
X409956Y763524D03*
D10*
X405130Y763524D03*
D41*
X438912Y763778D03*
D44*
X433197Y763778D03*
D45*
X416306Y763778D03*
D14*
X410083Y763778D03*
D22*
X405257Y763778D03*
D41*
X438912Y764032D03*
D12*
X433070Y764032D03*
D45*
X416560Y764032D03*
D41*
X410210Y764032D03*
D10*
X405384Y764032D03*
D41*
X438658Y764286D03*
D12*
X432816Y764286D03*
D18*
X416687Y764286D03*
D14*
X410337Y764286D03*
D10*
X405384Y764286D03*
D41*
X438658Y764540D03*
D12*
X432816Y764540D03*
D18*
X416941Y764540D03*
D41*
X410464Y764540D03*
D22*
X405511Y764540D03*
D14*
X438531Y764794D03*
D12*
X432562Y764794D03*
D18*
X417195Y764794D03*
D14*
X410591Y764794D03*
D10*
X405638Y764794D03*
D41*
X438404Y765048D03*
D12*
X432308Y765048D03*
D42*
X417322Y765048D03*
D41*
X410718Y765048D03*
D10*
X405638Y765048D03*
D14*
X438277Y765302D03*
D12*
X432054Y765302D03*
D42*
X417576Y765302D03*
D14*
X410845Y765302D03*
D10*
X405892Y765302D03*
D14*
X438023Y765556D03*
D12*
X431800Y765556D03*
D42*
X417830Y765556D03*
D14*
X411099Y765556D03*
D10*
X405892Y765556D03*
D14*
X438023Y765810D03*
D41*
X431546Y765810D03*
D42*
X418084Y765810D03*
D14*
X411099Y765810D03*
D22*
X406019Y765810D03*
D14*
X437769Y766064D03*
D41*
X431292Y766064D03*
D18*
X418211Y766064D03*
D14*
X411353Y766064D03*
D10*
X406146Y766064D03*
D15*
X437642Y766318D03*
D41*
X431038Y766318D03*
D18*
X418465Y766318D03*
D15*
X411480Y766318D03*
D22*
X406273Y766318D03*
D14*
X437515Y766572D03*
D43*
X430657Y766572D03*
D42*
X418592Y766572D03*
D15*
X411734Y766572D03*
D10*
X406400Y766572D03*
D15*
X437388Y766826D03*
D41*
X430276Y766826D03*
D42*
X418846Y766826D03*
D15*
X411734Y766826D03*
D22*
X406527Y766826D03*
D15*
X437134Y767080D03*
D41*
X430022Y767080D03*
D42*
X419100Y767080D03*
D15*
X411988Y767080D03*
D10*
X406654Y767080D03*
D15*
X436880Y767334D03*
D14*
X429641Y767334D03*
D42*
X419354Y767334D03*
D15*
X412242Y767334D03*
D22*
X406781Y767334D03*
D39*
X436753Y767588D03*
D14*
X429133Y767588D03*
D42*
X419608Y767588D03*
D39*
X412369Y767588D03*
D10*
X406908Y767588D03*
D39*
X436499Y767842D03*
D15*
X428752Y767842D03*
D42*
X419862Y767842D03*
D15*
X412496Y767842D03*
D10*
X407162Y767842D03*
D39*
X436245Y768096D03*
X428117Y768096D03*
D42*
X420116Y768096D03*
D15*
X412750Y768096D03*
D10*
X407162Y768096D03*
D39*
X435991Y768350D03*
D45*
X427482Y768350D03*
D42*
X420370Y768350D03*
D15*
X413004Y768350D03*
D10*
X407416Y768350D03*
D36*
X435864Y768604D03*
D23*
X426466Y768604D03*
D42*
X420624Y768604D03*
D39*
X413131Y768604D03*
D22*
X407543Y768604D03*
D36*
X435610Y768858D03*
D49*
X423418Y768858D03*
D15*
X413258Y768858D03*
D10*
X407670Y768858D03*
D16*
X435229Y769112D03*
D48*
X423291Y769112D03*
D15*
X413512Y769112D03*
D10*
X407924Y769112D03*
D16*
X434975Y769366D03*
D47*
X422910Y769366D03*
D15*
X413766Y769366D03*
D10*
X408178Y769366D03*
D16*
X434721Y769620D03*
D57*
X424815Y769620D03*
D42*
X421386Y769620D03*
D15*
X414020Y769620D03*
D10*
X408178Y769620D03*
D45*
X434340Y769874D03*
D42*
X421640Y769874D03*
D14*
X414147Y769874D03*
D10*
X408432Y769874D03*
D18*
X433959Y770128D03*
D42*
X421894Y770128D03*
D14*
X414401Y770128D03*
D10*
X408686Y770128D03*
D18*
X433705Y770382D03*
D42*
X422148Y770382D03*
D15*
X414528Y770382D03*
D10*
X408940Y770382D03*
D42*
X433324Y770636D03*
X422402Y770636D03*
D15*
X414782Y770636D03*
D10*
X408940Y770636D03*
D20*
X432943Y770890D03*
D42*
X422656Y770890D03*
D14*
X414909Y770890D03*
D10*
X409194Y770890D03*
D40*
X432435Y771144D03*
D18*
X422783Y771144D03*
D14*
X415163Y771144D03*
D10*
X409448Y771144D03*
D56*
X431927Y771398D03*
D18*
X423037Y771398D03*
D14*
X415417Y771398D03*
D10*
X409702Y771398D03*
D37*
X431292Y771652D03*
D18*
X423291Y771652D03*
D14*
X415671Y771652D03*
D10*
X409956Y771652D03*
D58*
X430403Y771906D03*
D18*
X423545Y771906D03*
D15*
X415798Y771906D03*
D10*
X410210Y771906D03*
D59*
X427736Y772160D03*
D14*
X415925Y772160D03*
D10*
X410464Y772160D03*
D60*
X427482Y772414D03*
D14*
X416179Y772414D03*
D10*
X410718Y772414D03*
D61*
X427482Y772668D03*
D14*
X416433Y772668D03*
D10*
X410972Y772668D03*
D50*
X427355Y772922D03*
D41*
X416560Y772922D03*
D10*
X411226Y772922D03*
D62*
X403860Y772922D03*
D63*
X427101Y773176D03*
D41*
X416814Y773176D03*
D10*
X411734Y773176D03*
D62*
X407924Y773176D03*
D10*
X403860Y773176D03*
D64*
X426974Y773430D03*
D43*
X416941Y773430D03*
D10*
X407924Y773430D03*
D22*
X403733Y773430D03*
D19*
X426847Y773684D03*
D41*
X417068Y773684D03*
D22*
X407797Y773684D03*
D13*
X403860Y773684D03*
D47*
X426720Y773938D03*
D41*
X417322Y773938D03*
D22*
X407797Y773938D03*
D13*
X403860Y773938D03*
D17*
X426466Y774192D03*
D43*
X417449Y774192D03*
D22*
X407797Y774192D03*
D13*
X403606Y774192D03*
D38*
X426212Y774446D03*
D43*
X417703Y774446D03*
D13*
X407670Y774446D03*
X403606Y774446D03*
D20*
X425831Y774700D03*
D43*
X417957Y774700D03*
D12*
X408178Y774700D03*
D13*
X403606Y774700D03*
D36*
X425450Y774954D03*
D43*
X418211Y774954D03*
D16*
X407543Y774954D03*
D11*
X403479Y774954D03*
D36*
X425450Y775208D03*
D43*
X418211Y775208D03*
D45*
X407416Y775208D03*
D13*
X403352Y775208D03*
D39*
X425577Y775462D03*
D43*
X418465Y775462D03*
D45*
X407416Y775462D03*
D13*
X403352Y775462D03*
D36*
X425704Y775716D03*
D12*
X418592Y775716D03*
D36*
X407670Y775716D03*
D13*
X403352Y775716D03*
D39*
X425831Y775970D03*
D12*
X418846Y775970D03*
D41*
X407416Y775970D03*
D13*
X403098Y775970D03*
D39*
X425831Y776224D03*
D12*
X418846Y776224D03*
D13*
X407416Y776224D03*
X403098Y776224D03*
D39*
X425831Y776478D03*
D12*
X419100Y776478D03*
D22*
X407289Y776478D03*
D13*
X403098Y776478D03*
D15*
X425958Y776732D03*
D12*
X419100Y776732D03*
D22*
X407289Y776732D03*
X402971Y776732D03*
D39*
X426085Y776986D03*
D44*
X419227Y776986D03*
D10*
X407162Y776986D03*
D22*
X402971Y776986D03*
D39*
X426085Y777240D03*
D12*
X419354Y777240D03*
D10*
X407162Y777240D03*
D22*
X402971Y777240D03*
D39*
X426085Y777494D03*
D12*
X419354Y777494D03*
D62*
X407162Y777494D03*
D22*
X402971Y777494D03*
D39*
X426085Y777748D03*
D12*
X419354Y777748D03*
D46*
X407035Y777748D03*
D13*
X403098Y777748D03*
D15*
X426212Y778002D03*
D12*
X419608Y778002D03*
D13*
X403098Y778002D03*
D15*
X426212Y778256D03*
D12*
X419608Y778256D03*
D22*
X403225Y778256D03*
D15*
X426212Y778510D03*
D12*
X419608Y778510D03*
D22*
X403225Y778510D03*
D15*
X426212Y778764D03*
D12*
X419608Y778764D03*
D22*
X403225Y778764D03*
D15*
X426212Y779018D03*
D12*
X419608Y779018D03*
D10*
X403352Y779018D03*
D15*
X426212Y779272D03*
D12*
X419608Y779272D03*
D57*
X403479Y779272D03*
D15*
X426212Y779526D03*
D43*
X419481Y779526D03*
D65*
X403606Y779526D03*
D15*
X426212Y779780D03*
D43*
X419481Y779780D03*
D15*
X426212Y780034D03*
D43*
X419481Y780034D03*
D15*
X426212Y780288D03*
D43*
X419481Y780288D03*
D15*
X426212Y780542D03*
D43*
X419481Y780542D03*
D39*
X426085Y780796D03*
D43*
X419227Y780796D03*
D39*
X426085Y781050D03*
D43*
X419227Y781050D03*
D39*
X426085Y781304D03*
D43*
X419227Y781304D03*
D39*
X426085Y781558D03*
D43*
X418973Y781558D03*
D39*
X425831Y781812D03*
D41*
X418846Y781812D03*
D39*
X425831Y782066D03*
D43*
X418719Y782066D03*
D39*
X425831Y782320D03*
D43*
X418465Y782320D03*
D36*
X425704Y782574D03*
D43*
X418211Y782574D03*
D39*
X425577Y782828D03*
D43*
X417957Y782828D03*
D36*
X425450Y783082D03*
D41*
X417576Y783082D03*
D36*
X425450Y783336D03*
D41*
X417322Y783336D03*
D36*
X425196Y783590D03*
D41*
X416814Y783590D03*
D36*
X425196Y783844D03*
D15*
X416052Y783844D03*
D16*
X425069Y784098D03*
D43*
X415671Y784098D03*
D13*
X411988Y784098D03*
D16*
X424815Y784352D03*
D13*
X411988Y784352D03*
D45*
X424688Y784606D03*
D13*
X411988Y784606D03*
D45*
X424434Y784860D03*
D13*
X411988Y784860D03*
D18*
X424307Y785114D03*
D13*
X411988Y785114D03*
D18*
X424053Y785368D03*
D13*
X411988Y785368D03*
D18*
X423799Y785622D03*
D13*
X411988Y785622D03*
D42*
X423672Y785876D03*
D13*
X411988Y785876D03*
D20*
X423291Y786130D03*
D13*
X411988Y786130D03*
D20*
X423037Y786384D03*
D13*
X411988Y786384D03*
D40*
X422783Y786638D03*
D13*
X411988Y786638D03*
D56*
X422275Y786892D03*
D13*
X411988Y786892D03*
D35*
X421767Y787146D03*
D13*
X411988Y787146D03*
D66*
X421132Y787400D03*
D13*
X411988Y787400D03*
D19*
X420243Y787654D03*
D13*
X411988Y787654D03*
D33*
X420116Y787908D03*
D13*
X411988Y787908D03*
D34*
X419989Y788162D03*
D13*
X411988Y788162D03*
D47*
X419862Y788416D03*
D13*
X411988Y788416D03*
D58*
X419735Y788670D03*
D13*
X411988Y788670D03*
D67*
X419481Y788924D03*
D13*
X411988Y788924D03*
D17*
X419354Y789178D03*
D13*
X411988Y789178D03*
D37*
X419100Y789432D03*
D13*
X411988Y789432D03*
D56*
X418973Y789686D03*
D13*
X411988Y789686D03*
D40*
X418719Y789940D03*
D13*
X411988Y789940D03*
D20*
X418465Y790194D03*
D13*
X411988Y790194D03*
D18*
X418211Y790448D03*
D13*
X411988Y790448D03*
D36*
X417830Y790702D03*
D13*
X411988Y790702D03*
D14*
X417449Y790956D03*
D13*
X411988Y790956D03*
D44*
X416941Y791210D03*
D13*
X411988Y791210D03*
D68*
X409831Y517130D02*
X409833Y517052D01*
X409838Y516974D01*
X409848Y516897D01*
X409861Y516820D01*
X409877Y516744D01*
X409897Y516669D01*
X409921Y516595D01*
X409948Y516522D01*
X409979Y516450D01*
X410013Y516380D01*
X410050Y516311D01*
X410091Y516245D01*
X410135Y516180D01*
X410181Y516118D01*
X410231Y516058D01*
X410283Y516000D01*
X410338Y515945D01*
X410396Y515893D01*
X410456Y515843D01*
X410518Y515797D01*
X410583Y515753D01*
X410650Y515712D01*
X410718Y515675D01*
X410788Y515641D01*
X410860Y515610D01*
X410933Y515583D01*
X411007Y515559D01*
X411082Y515539D01*
X411158Y515523D01*
X411235Y515510D01*
X411312Y515500D01*
X411390Y515495D01*
X411468Y515493D01*
X411582Y515495D01*
X411695Y515500D01*
X411809Y515510D01*
X411922Y515523D01*
X412034Y515540D01*
X412146Y515560D01*
X412257Y515584D01*
X412368Y515612D01*
X412477Y515643D01*
X412585Y515678D01*
X412692Y515717D01*
X412798Y515759D01*
X412902Y515804D01*
X413005Y515853D01*
X413106Y515906D01*
X413205Y515961D01*
X413303Y516020D01*
X413398Y516082D01*
X413491Y516147D01*
X413583Y516215D01*
X413671Y516286D01*
X413758Y516360D01*
X413842Y516437D01*
X413923Y516516D01*
X413719Y521222D02*
X413717Y521300D01*
X413712Y521378D01*
X413702Y521455D01*
X413689Y521532D01*
X413673Y521608D01*
X413653Y521683D01*
X413629Y521757D01*
X413602Y521830D01*
X413571Y521902D01*
X413537Y521972D01*
X413500Y522041D01*
X413459Y522107D01*
X413415Y522172D01*
X413369Y522234D01*
X413319Y522294D01*
X413267Y522352D01*
X413212Y522407D01*
X413154Y522459D01*
X413094Y522509D01*
X413032Y522555D01*
X412967Y522599D01*
X412901Y522640D01*
X412832Y522677D01*
X412762Y522711D01*
X412690Y522742D01*
X412617Y522769D01*
X412543Y522793D01*
X412468Y522813D01*
X412392Y522829D01*
X412315Y522842D01*
X412238Y522852D01*
X412160Y522857D01*
X412082Y522859D01*
X411972Y522857D01*
X411863Y522851D01*
X411753Y522841D01*
X411645Y522828D01*
X411536Y522810D01*
X411429Y522789D01*
X411322Y522763D01*
X411216Y522734D01*
X411111Y522702D01*
X411008Y522665D01*
X410906Y522625D01*
X410805Y522581D01*
X410706Y522533D01*
X410609Y522483D01*
X410514Y522428D01*
X410421Y522370D01*
X410330Y522309D01*
X410241Y522245D01*
X412901Y519789D02*
X412968Y519831D01*
X413033Y519875D01*
X413095Y519923D01*
X413155Y519973D01*
X413213Y520026D01*
X413268Y520082D01*
X413320Y520141D01*
X413370Y520201D01*
X413417Y520265D01*
X413460Y520330D01*
X413501Y520397D01*
X413538Y520466D01*
X413572Y520537D01*
X413603Y520609D01*
X413630Y520683D01*
X413654Y520757D01*
X413674Y520833D01*
X413690Y520910D01*
X413703Y520987D01*
X413713Y521065D01*
X413718Y521144D01*
X413720Y521222D01*
X410650Y518562D02*
X410584Y518521D01*
X410519Y518476D01*
X410457Y518429D01*
X410397Y518378D01*
X410339Y518325D01*
X410284Y518269D01*
X410231Y518211D01*
X410182Y518150D01*
X410135Y518087D01*
X410092Y518022D01*
X410051Y517955D01*
X410014Y517886D01*
X409980Y517815D01*
X409949Y517743D01*
X409922Y517669D01*
X409898Y517594D01*
X409878Y517519D01*
X409862Y517442D01*
X409849Y517365D01*
X409839Y517287D01*
X409834Y517208D01*
X409832Y517130D01*
X410650Y518562D02*
X412901Y519790D01*
X406593Y522859D02*
X406593Y515493D01*
X403319Y515493D01*
X399929Y515493D02*
X399929Y522859D01*
X400748Y515493D02*
X399111Y515493D01*
X399111Y522859D02*
X400748Y522859D01*
X395801Y522859D02*
X395801Y515493D01*
X393346Y518767D02*
X395801Y522859D01*
X393346Y518767D02*
X390890Y522859D01*
X390890Y515493D01*
X387086Y515493D02*
X383812Y515493D01*
X387086Y515493D02*
X387086Y522859D01*
X383812Y522859D01*
X384630Y519585D02*
X387086Y519585D01*
X381415Y522859D02*
X378959Y515493D01*
X376504Y522859D01*
X373395Y522859D02*
X373395Y515493D01*
X373395Y522859D02*
X371349Y522859D01*
X371260Y522857D01*
X371171Y522851D01*
X371082Y522841D01*
X370994Y522828D01*
X370906Y522811D01*
X370819Y522789D01*
X370734Y522764D01*
X370649Y522736D01*
X370566Y522703D01*
X370484Y522667D01*
X370404Y522628D01*
X370326Y522585D01*
X370250Y522539D01*
X370175Y522489D01*
X370103Y522436D01*
X370034Y522380D01*
X369967Y522321D01*
X369902Y522260D01*
X369841Y522195D01*
X369782Y522128D01*
X369726Y522059D01*
X369673Y521987D01*
X369623Y521912D01*
X369577Y521836D01*
X369534Y521758D01*
X369495Y521678D01*
X369459Y521596D01*
X369426Y521513D01*
X369398Y521428D01*
X369373Y521343D01*
X369351Y521256D01*
X369334Y521168D01*
X369321Y521080D01*
X369311Y520991D01*
X369305Y520902D01*
X369303Y520813D01*
X369305Y520724D01*
X369311Y520635D01*
X369321Y520546D01*
X369334Y520458D01*
X369351Y520370D01*
X369373Y520283D01*
X369398Y520198D01*
X369426Y520113D01*
X369459Y520030D01*
X369495Y519948D01*
X369534Y519868D01*
X369577Y519790D01*
X369623Y519714D01*
X369673Y519639D01*
X369726Y519567D01*
X369782Y519498D01*
X369841Y519431D01*
X369902Y519366D01*
X369967Y519305D01*
X370034Y519246D01*
X370103Y519190D01*
X370175Y519137D01*
X370250Y519087D01*
X370326Y519041D01*
X370404Y518998D01*
X370484Y518959D01*
X370566Y518923D01*
X370649Y518890D01*
X370734Y518862D01*
X370819Y518837D01*
X370906Y518815D01*
X370994Y518798D01*
X371082Y518785D01*
X371171Y518775D01*
X371260Y518769D01*
X371349Y518767D01*
X373395Y518767D01*
X370940Y518767D02*
X369303Y515493D01*
X361986Y515493D02*
X361986Y522859D01*
X359940Y522859D01*
X359851Y522857D01*
X359762Y522851D01*
X359673Y522841D01*
X359585Y522828D01*
X359497Y522811D01*
X359410Y522789D01*
X359325Y522764D01*
X359240Y522736D01*
X359157Y522703D01*
X359075Y522667D01*
X358995Y522628D01*
X358917Y522585D01*
X358841Y522539D01*
X358766Y522489D01*
X358694Y522436D01*
X358625Y522380D01*
X358558Y522321D01*
X358493Y522260D01*
X358432Y522195D01*
X358373Y522128D01*
X358317Y522059D01*
X358264Y521987D01*
X358214Y521912D01*
X358168Y521836D01*
X358125Y521758D01*
X358086Y521678D01*
X358050Y521596D01*
X358017Y521513D01*
X357989Y521428D01*
X357964Y521343D01*
X357942Y521256D01*
X357925Y521168D01*
X357912Y521080D01*
X357902Y520991D01*
X357896Y520902D01*
X357894Y520813D01*
X357894Y517539D01*
X357896Y517450D01*
X357902Y517361D01*
X357912Y517272D01*
X357925Y517184D01*
X357942Y517096D01*
X357964Y517009D01*
X357989Y516924D01*
X358017Y516839D01*
X358050Y516756D01*
X358086Y516674D01*
X358125Y516594D01*
X358168Y516516D01*
X358214Y516440D01*
X358264Y516365D01*
X358317Y516293D01*
X358373Y516224D01*
X358432Y516157D01*
X358493Y516092D01*
X358558Y516031D01*
X358625Y515972D01*
X358694Y515916D01*
X358766Y515863D01*
X358841Y515813D01*
X358917Y515767D01*
X358995Y515724D01*
X359075Y515685D01*
X359157Y515649D01*
X359240Y515616D01*
X359325Y515588D01*
X359410Y515563D01*
X359497Y515541D01*
X359585Y515524D01*
X359673Y515511D01*
X359762Y515501D01*
X359851Y515495D01*
X359940Y515493D01*
X361986Y515493D01*
X353844Y515493D02*
X353844Y522859D01*
X354662Y515493D02*
X353025Y515493D01*
X353025Y522859D02*
X354662Y522859D01*
X350447Y522859D02*
X347992Y519381D01*
X345536Y522859D01*
X347992Y519381D02*
X347992Y515493D01*
X397106Y507393D02*
X399152Y507393D01*
X397106Y507393D02*
X397017Y507391D01*
X396928Y507385D01*
X396839Y507375D01*
X396751Y507362D01*
X396663Y507345D01*
X396576Y507323D01*
X396491Y507298D01*
X396406Y507270D01*
X396323Y507237D01*
X396241Y507201D01*
X396161Y507162D01*
X396083Y507119D01*
X396007Y507073D01*
X395932Y507023D01*
X395860Y506970D01*
X395791Y506914D01*
X395724Y506855D01*
X395659Y506794D01*
X395598Y506729D01*
X395539Y506662D01*
X395483Y506593D01*
X395430Y506521D01*
X395380Y506446D01*
X395334Y506370D01*
X395291Y506292D01*
X395252Y506212D01*
X395216Y506130D01*
X395183Y506047D01*
X395155Y505962D01*
X395130Y505877D01*
X395108Y505790D01*
X395091Y505702D01*
X395078Y505614D01*
X395068Y505525D01*
X395062Y505436D01*
X395060Y505347D01*
X395062Y505258D01*
X395068Y505169D01*
X395078Y505080D01*
X395091Y504992D01*
X395108Y504904D01*
X395130Y504817D01*
X395155Y504732D01*
X395183Y504647D01*
X395216Y504564D01*
X395252Y504482D01*
X395291Y504402D01*
X395334Y504324D01*
X395380Y504248D01*
X395430Y504173D01*
X395483Y504101D01*
X395539Y504032D01*
X395598Y503965D01*
X395659Y503900D01*
X395724Y503839D01*
X395791Y503780D01*
X395860Y503724D01*
X395932Y503671D01*
X396007Y503621D01*
X396083Y503575D01*
X396161Y503532D01*
X396241Y503493D01*
X396323Y503457D01*
X396406Y503424D01*
X396491Y503396D01*
X396576Y503371D01*
X396663Y503349D01*
X396751Y503332D01*
X396839Y503319D01*
X396928Y503309D01*
X397017Y503303D01*
X397106Y503301D01*
X399152Y503301D01*
X399152Y510667D01*
X397106Y510667D01*
X397027Y510665D01*
X396948Y510659D01*
X396869Y510650D01*
X396791Y510637D01*
X396714Y510619D01*
X396638Y510599D01*
X396563Y510574D01*
X396489Y510546D01*
X396416Y510515D01*
X396345Y510479D01*
X396276Y510441D01*
X396209Y510399D01*
X396144Y510354D01*
X396081Y510306D01*
X396020Y510255D01*
X395963Y510201D01*
X395907Y510145D01*
X395855Y510086D01*
X395805Y510024D01*
X395759Y509960D01*
X395715Y509894D01*
X395675Y509826D01*
X395639Y509756D01*
X395605Y509684D01*
X395575Y509610D01*
X395549Y509536D01*
X395526Y509460D01*
X395508Y509383D01*
X395492Y509306D01*
X395481Y509227D01*
X395473Y509149D01*
X395469Y509070D01*
X395469Y508990D01*
X395473Y508911D01*
X395481Y508833D01*
X395492Y508754D01*
X395508Y508677D01*
X395526Y508600D01*
X395549Y508524D01*
X395575Y508450D01*
X395605Y508376D01*
X395639Y508304D01*
X395675Y508234D01*
X395715Y508166D01*
X395759Y508100D01*
X395805Y508036D01*
X395855Y507974D01*
X395907Y507915D01*
X395963Y507859D01*
X396020Y507805D01*
X396081Y507754D01*
X396144Y507706D01*
X396209Y507661D01*
X396276Y507619D01*
X396345Y507581D01*
X396416Y507545D01*
X396489Y507514D01*
X396563Y507486D01*
X396638Y507461D01*
X396714Y507441D01*
X396791Y507423D01*
X396869Y507410D01*
X396948Y507401D01*
X397027Y507395D01*
X397106Y507393D01*
X391876Y510667D02*
X391876Y503301D01*
X389421Y506575D02*
X391876Y510667D01*
X389421Y506575D02*
X386965Y510667D01*
X386965Y503301D01*
X382837Y503301D02*
X382837Y510667D01*
X383655Y503301D02*
X382018Y503301D01*
X382018Y510667D02*
X383655Y510667D01*
X379031Y509030D02*
X376985Y510667D01*
X376985Y503301D01*
X379031Y503301D02*
X374939Y503301D01*
X371716Y507393D02*
X369260Y507393D01*
X369180Y507391D01*
X369100Y507385D01*
X369020Y507375D01*
X368941Y507362D01*
X368862Y507344D01*
X368785Y507323D01*
X368709Y507297D01*
X368634Y507268D01*
X368560Y507236D01*
X368488Y507200D01*
X368418Y507160D01*
X368351Y507117D01*
X368285Y507071D01*
X368222Y507021D01*
X368161Y506969D01*
X368102Y506914D01*
X368047Y506855D01*
X367995Y506795D01*
X367945Y506731D01*
X367899Y506665D01*
X367856Y506598D01*
X367816Y506528D01*
X367780Y506456D01*
X367748Y506382D01*
X367719Y506308D01*
X367693Y506231D01*
X367672Y506154D01*
X367654Y506075D01*
X367641Y505996D01*
X367631Y505916D01*
X367625Y505836D01*
X367623Y505756D01*
X367623Y505347D01*
X367625Y505258D01*
X367631Y505169D01*
X367641Y505080D01*
X367654Y504992D01*
X367671Y504904D01*
X367693Y504817D01*
X367718Y504732D01*
X367746Y504647D01*
X367779Y504564D01*
X367815Y504482D01*
X367854Y504402D01*
X367897Y504324D01*
X367943Y504248D01*
X367993Y504173D01*
X368046Y504101D01*
X368102Y504032D01*
X368161Y503965D01*
X368222Y503900D01*
X368287Y503839D01*
X368354Y503780D01*
X368423Y503724D01*
X368495Y503671D01*
X368570Y503621D01*
X368646Y503575D01*
X368724Y503532D01*
X368804Y503493D01*
X368886Y503457D01*
X368969Y503424D01*
X369054Y503396D01*
X369139Y503371D01*
X369226Y503349D01*
X369314Y503332D01*
X369402Y503319D01*
X369491Y503309D01*
X369580Y503303D01*
X369669Y503301D01*
X369758Y503303D01*
X369847Y503309D01*
X369936Y503319D01*
X370024Y503332D01*
X370112Y503349D01*
X370199Y503371D01*
X370284Y503396D01*
X370369Y503424D01*
X370452Y503457D01*
X370534Y503493D01*
X370614Y503532D01*
X370692Y503575D01*
X370768Y503621D01*
X370843Y503671D01*
X370915Y503724D01*
X370984Y503780D01*
X371051Y503839D01*
X371116Y503900D01*
X371177Y503965D01*
X371236Y504032D01*
X371292Y504101D01*
X371345Y504173D01*
X371395Y504248D01*
X371441Y504324D01*
X371484Y504402D01*
X371523Y504482D01*
X371559Y504564D01*
X371592Y504647D01*
X371620Y504732D01*
X371645Y504817D01*
X371667Y504904D01*
X371684Y504992D01*
X371697Y505080D01*
X371707Y505169D01*
X371713Y505258D01*
X371715Y505347D01*
X371716Y505347D02*
X371716Y507393D01*
X371714Y507505D01*
X371708Y507616D01*
X371699Y507728D01*
X371686Y507839D01*
X371668Y507949D01*
X371648Y508059D01*
X371623Y508168D01*
X371595Y508276D01*
X371563Y508383D01*
X371527Y508489D01*
X371488Y508594D01*
X371445Y508697D01*
X371399Y508799D01*
X371349Y508899D01*
X371296Y508998D01*
X371239Y509094D01*
X371180Y509189D01*
X371117Y509281D01*
X371051Y509371D01*
X370982Y509459D01*
X370910Y509545D01*
X370835Y509628D01*
X370757Y509708D01*
X370677Y509786D01*
X370594Y509861D01*
X370508Y509933D01*
X370420Y510002D01*
X370330Y510068D01*
X370238Y510131D01*
X370143Y510190D01*
X370047Y510247D01*
X369948Y510300D01*
X369848Y510350D01*
X369746Y510396D01*
X369643Y510439D01*
X369538Y510478D01*
X369432Y510514D01*
X369325Y510546D01*
X369217Y510574D01*
X369108Y510599D01*
X368998Y510619D01*
X368888Y510637D01*
X368777Y510650D01*
X368665Y510659D01*
X368554Y510665D01*
X368442Y510667D01*
X363786Y509644D02*
X363852Y509505D01*
X363913Y509366D01*
X363972Y509224D01*
X364026Y509081D01*
X364077Y508937D01*
X364125Y508792D01*
X364168Y508645D01*
X364208Y508497D01*
X364245Y508349D01*
X364277Y508199D01*
X364306Y508049D01*
X364331Y507898D01*
X364352Y507747D01*
X364369Y507595D01*
X364383Y507442D01*
X364392Y507290D01*
X364398Y507137D01*
X364400Y506984D01*
X363786Y509644D02*
X363760Y509714D01*
X363730Y509783D01*
X363698Y509851D01*
X363661Y509917D01*
X363622Y509981D01*
X363579Y510043D01*
X363534Y510102D01*
X363485Y510160D01*
X363434Y510214D01*
X363380Y510267D01*
X363323Y510316D01*
X363264Y510363D01*
X363203Y510406D01*
X363140Y510447D01*
X363075Y510484D01*
X363008Y510519D01*
X362939Y510549D01*
X362869Y510577D01*
X362798Y510600D01*
X362726Y510621D01*
X362653Y510637D01*
X362579Y510650D01*
X362504Y510660D01*
X362429Y510665D01*
X362354Y510667D01*
X362279Y510665D01*
X362204Y510660D01*
X362129Y510650D01*
X362055Y510637D01*
X361982Y510621D01*
X361910Y510600D01*
X361839Y510577D01*
X361769Y510549D01*
X361700Y510519D01*
X361633Y510484D01*
X361568Y510447D01*
X361505Y510406D01*
X361444Y510363D01*
X361385Y510316D01*
X361328Y510267D01*
X361274Y510214D01*
X361223Y510160D01*
X361175Y510102D01*
X361129Y510043D01*
X361086Y509981D01*
X361047Y509917D01*
X361011Y509851D01*
X360978Y509784D01*
X360948Y509714D01*
X360922Y509644D01*
X360857Y509506D01*
X360795Y509366D01*
X360737Y509224D01*
X360682Y509081D01*
X360631Y508937D01*
X360583Y508792D01*
X360540Y508645D01*
X360500Y508498D01*
X360463Y508349D01*
X360431Y508199D01*
X360402Y508049D01*
X360377Y507898D01*
X360356Y507747D01*
X360339Y507595D01*
X360325Y507442D01*
X360316Y507290D01*
X360310Y507137D01*
X360308Y506984D01*
X364401Y506984D02*
X364399Y506831D01*
X364393Y506678D01*
X364384Y506525D01*
X364370Y506373D01*
X364353Y506221D01*
X364332Y506070D01*
X364307Y505919D01*
X364278Y505768D01*
X364246Y505619D01*
X364209Y505470D01*
X364169Y505323D01*
X364126Y505176D01*
X364078Y505031D01*
X364027Y504886D01*
X363972Y504744D01*
X363914Y504602D01*
X363852Y504462D01*
X363787Y504324D01*
X363786Y504324D02*
X363760Y504254D01*
X363730Y504184D01*
X363698Y504117D01*
X363661Y504051D01*
X363622Y503987D01*
X363579Y503925D01*
X363533Y503866D01*
X363485Y503808D01*
X363434Y503754D01*
X363380Y503701D01*
X363323Y503652D01*
X363264Y503605D01*
X363203Y503562D01*
X363140Y503521D01*
X363075Y503484D01*
X363008Y503449D01*
X362939Y503419D01*
X362869Y503391D01*
X362798Y503368D01*
X362726Y503347D01*
X362653Y503331D01*
X362579Y503318D01*
X362504Y503308D01*
X362429Y503303D01*
X362354Y503301D01*
X360922Y504324D02*
X360857Y504462D01*
X360795Y504602D01*
X360737Y504744D01*
X360682Y504887D01*
X360631Y505031D01*
X360583Y505176D01*
X360540Y505323D01*
X360500Y505471D01*
X360463Y505619D01*
X360431Y505769D01*
X360402Y505919D01*
X360377Y506070D01*
X360356Y506221D01*
X360339Y506373D01*
X360325Y506526D01*
X360316Y506678D01*
X360310Y506831D01*
X360308Y506984D01*
X360922Y504324D02*
X360948Y504253D01*
X360978Y504184D01*
X361011Y504117D01*
X361047Y504051D01*
X361086Y503987D01*
X361129Y503925D01*
X361175Y503866D01*
X361223Y503808D01*
X361274Y503754D01*
X361328Y503701D01*
X361385Y503652D01*
X361444Y503605D01*
X361505Y503562D01*
X361568Y503521D01*
X361633Y503484D01*
X361700Y503449D01*
X361769Y503419D01*
X361839Y503391D01*
X361910Y503368D01*
X361982Y503347D01*
X362055Y503331D01*
X362129Y503318D01*
X362204Y503308D01*
X362279Y503303D01*
X362354Y503301D01*
X363991Y504938D02*
X360717Y509030D01*
X450968Y725043D02*
X450968Y732409D01*
X448922Y732409D01*
X448833Y732407D01*
X448744Y732401D01*
X448655Y732391D01*
X448567Y732378D01*
X448479Y732361D01*
X448392Y732339D01*
X448307Y732314D01*
X448222Y732286D01*
X448139Y732253D01*
X448057Y732217D01*
X447977Y732178D01*
X447899Y732135D01*
X447823Y732089D01*
X447748Y732039D01*
X447676Y731986D01*
X447607Y731930D01*
X447540Y731871D01*
X447475Y731810D01*
X447414Y731745D01*
X447355Y731678D01*
X447299Y731609D01*
X447246Y731537D01*
X447196Y731462D01*
X447150Y731386D01*
X447107Y731308D01*
X447068Y731228D01*
X447032Y731146D01*
X446999Y731063D01*
X446971Y730978D01*
X446946Y730893D01*
X446924Y730806D01*
X446907Y730718D01*
X446894Y730630D01*
X446884Y730541D01*
X446878Y730452D01*
X446876Y730363D01*
X446878Y730274D01*
X446884Y730185D01*
X446894Y730096D01*
X446907Y730008D01*
X446924Y729920D01*
X446946Y729833D01*
X446971Y729748D01*
X446999Y729663D01*
X447032Y729580D01*
X447068Y729498D01*
X447107Y729418D01*
X447150Y729340D01*
X447196Y729264D01*
X447246Y729189D01*
X447299Y729117D01*
X447355Y729048D01*
X447414Y728981D01*
X447475Y728916D01*
X447540Y728855D01*
X447607Y728796D01*
X447676Y728740D01*
X447748Y728687D01*
X447823Y728637D01*
X447899Y728591D01*
X447977Y728548D01*
X448057Y728509D01*
X448139Y728473D01*
X448222Y728440D01*
X448307Y728412D01*
X448392Y728387D01*
X448479Y728365D01*
X448567Y728348D01*
X448655Y728335D01*
X448744Y728325D01*
X448833Y728319D01*
X448922Y728317D01*
X450968Y728317D01*
X444014Y727089D02*
X444014Y730363D01*
X444012Y730452D01*
X444006Y730541D01*
X443996Y730630D01*
X443983Y730718D01*
X443966Y730806D01*
X443944Y730893D01*
X443919Y730978D01*
X443891Y731063D01*
X443858Y731146D01*
X443822Y731228D01*
X443783Y731308D01*
X443740Y731386D01*
X443694Y731462D01*
X443644Y731537D01*
X443591Y731609D01*
X443535Y731678D01*
X443476Y731745D01*
X443415Y731810D01*
X443350Y731871D01*
X443283Y731930D01*
X443214Y731986D01*
X443142Y732039D01*
X443067Y732089D01*
X442991Y732135D01*
X442913Y732178D01*
X442833Y732217D01*
X442751Y732253D01*
X442668Y732286D01*
X442583Y732314D01*
X442498Y732339D01*
X442411Y732361D01*
X442323Y732378D01*
X442235Y732391D01*
X442146Y732401D01*
X442057Y732407D01*
X441968Y732409D01*
X441879Y732407D01*
X441790Y732401D01*
X441701Y732391D01*
X441613Y732378D01*
X441525Y732361D01*
X441438Y732339D01*
X441353Y732314D01*
X441268Y732286D01*
X441185Y732253D01*
X441103Y732217D01*
X441023Y732178D01*
X440945Y732135D01*
X440869Y732089D01*
X440794Y732039D01*
X440722Y731986D01*
X440653Y731930D01*
X440586Y731871D01*
X440521Y731810D01*
X440460Y731745D01*
X440401Y731678D01*
X440345Y731609D01*
X440292Y731537D01*
X440242Y731462D01*
X440196Y731386D01*
X440153Y731308D01*
X440114Y731228D01*
X440078Y731146D01*
X440045Y731063D01*
X440017Y730978D01*
X439992Y730893D01*
X439970Y730806D01*
X439953Y730718D01*
X439940Y730630D01*
X439930Y730541D01*
X439924Y730452D01*
X439922Y730363D01*
X439922Y727089D01*
X439924Y727000D01*
X439930Y726911D01*
X439940Y726822D01*
X439953Y726734D01*
X439970Y726646D01*
X439992Y726559D01*
X440017Y726474D01*
X440045Y726389D01*
X440078Y726306D01*
X440114Y726224D01*
X440153Y726144D01*
X440196Y726066D01*
X440242Y725990D01*
X440292Y725915D01*
X440345Y725843D01*
X440401Y725774D01*
X440460Y725707D01*
X440521Y725642D01*
X440586Y725581D01*
X440653Y725522D01*
X440722Y725466D01*
X440794Y725413D01*
X440869Y725363D01*
X440945Y725317D01*
X441023Y725274D01*
X441103Y725235D01*
X441185Y725199D01*
X441268Y725166D01*
X441353Y725138D01*
X441438Y725113D01*
X441525Y725091D01*
X441613Y725074D01*
X441701Y725061D01*
X441790Y725051D01*
X441879Y725045D01*
X441968Y725043D01*
X442057Y725045D01*
X442146Y725051D01*
X442235Y725061D01*
X442323Y725074D01*
X442411Y725091D01*
X442498Y725113D01*
X442583Y725138D01*
X442668Y725166D01*
X442751Y725199D01*
X442833Y725235D01*
X442913Y725274D01*
X442991Y725317D01*
X443067Y725363D01*
X443142Y725413D01*
X443214Y725466D01*
X443283Y725522D01*
X443350Y725581D01*
X443415Y725642D01*
X443476Y725707D01*
X443535Y725774D01*
X443591Y725843D01*
X443644Y725915D01*
X443694Y725990D01*
X443740Y726066D01*
X443783Y726144D01*
X443822Y726224D01*
X443858Y726306D01*
X443891Y726389D01*
X443919Y726474D01*
X443944Y726559D01*
X443966Y726646D01*
X443983Y726734D01*
X443996Y726822D01*
X444006Y726911D01*
X444012Y727000D01*
X444014Y727089D01*
X434487Y725043D02*
X434409Y725045D01*
X434331Y725050D01*
X434254Y725060D01*
X434177Y725073D01*
X434101Y725089D01*
X434026Y725109D01*
X433952Y725133D01*
X433879Y725160D01*
X433807Y725191D01*
X433737Y725225D01*
X433669Y725262D01*
X433602Y725303D01*
X433537Y725347D01*
X433475Y725393D01*
X433415Y725443D01*
X433357Y725495D01*
X433302Y725550D01*
X433250Y725608D01*
X433200Y725668D01*
X433154Y725730D01*
X433110Y725795D01*
X433069Y725861D01*
X433032Y725930D01*
X432998Y726000D01*
X432967Y726072D01*
X432940Y726145D01*
X432916Y726219D01*
X432896Y726294D01*
X432880Y726370D01*
X432867Y726447D01*
X432857Y726524D01*
X432852Y726602D01*
X432850Y726680D01*
X434487Y725043D02*
X434601Y725045D01*
X434714Y725050D01*
X434828Y725060D01*
X434941Y725073D01*
X435053Y725090D01*
X435165Y725110D01*
X435276Y725134D01*
X435387Y725162D01*
X435496Y725193D01*
X435604Y725228D01*
X435711Y725267D01*
X435817Y725309D01*
X435921Y725354D01*
X436024Y725403D01*
X436125Y725456D01*
X436224Y725511D01*
X436322Y725570D01*
X436417Y725632D01*
X436510Y725697D01*
X436602Y725765D01*
X436690Y725836D01*
X436777Y725910D01*
X436861Y725987D01*
X436942Y726066D01*
X436738Y730772D02*
X436736Y730850D01*
X436731Y730928D01*
X436721Y731005D01*
X436708Y731082D01*
X436692Y731158D01*
X436672Y731233D01*
X436648Y731307D01*
X436621Y731380D01*
X436590Y731452D01*
X436556Y731522D01*
X436519Y731591D01*
X436478Y731657D01*
X436434Y731722D01*
X436388Y731784D01*
X436338Y731844D01*
X436286Y731902D01*
X436231Y731957D01*
X436173Y732009D01*
X436113Y732059D01*
X436051Y732105D01*
X435986Y732149D01*
X435920Y732190D01*
X435851Y732227D01*
X435781Y732261D01*
X435709Y732292D01*
X435636Y732319D01*
X435562Y732343D01*
X435487Y732363D01*
X435411Y732379D01*
X435334Y732392D01*
X435257Y732402D01*
X435179Y732407D01*
X435101Y732409D01*
X434991Y732407D01*
X434882Y732401D01*
X434772Y732391D01*
X434664Y732378D01*
X434555Y732360D01*
X434448Y732339D01*
X434341Y732313D01*
X434235Y732284D01*
X434130Y732252D01*
X434027Y732215D01*
X433925Y732175D01*
X433824Y732131D01*
X433725Y732083D01*
X433628Y732033D01*
X433533Y731978D01*
X433440Y731920D01*
X433349Y731859D01*
X433260Y731795D01*
X435920Y729339D02*
X435987Y729381D01*
X436052Y729425D01*
X436114Y729473D01*
X436174Y729523D01*
X436232Y729576D01*
X436287Y729632D01*
X436339Y729691D01*
X436389Y729751D01*
X436436Y729815D01*
X436479Y729880D01*
X436520Y729947D01*
X436557Y730016D01*
X436591Y730087D01*
X436622Y730159D01*
X436649Y730233D01*
X436673Y730307D01*
X436693Y730383D01*
X436709Y730460D01*
X436722Y730537D01*
X436732Y730615D01*
X436737Y730694D01*
X436739Y730772D01*
X433669Y728112D02*
X433603Y728071D01*
X433538Y728026D01*
X433476Y727979D01*
X433416Y727928D01*
X433358Y727875D01*
X433303Y727819D01*
X433250Y727761D01*
X433201Y727700D01*
X433154Y727637D01*
X433111Y727572D01*
X433070Y727505D01*
X433033Y727436D01*
X432999Y727365D01*
X432968Y727293D01*
X432941Y727219D01*
X432917Y727144D01*
X432897Y727069D01*
X432881Y726992D01*
X432868Y726915D01*
X432858Y726837D01*
X432853Y726758D01*
X432851Y726680D01*
X433669Y728112D02*
X435920Y729340D01*
X429288Y732409D02*
X429288Y725043D01*
X428470Y725043D02*
X430107Y725043D01*
X430107Y732409D02*
X428470Y732409D01*
X423924Y732409D02*
X423924Y725043D01*
X425970Y732409D02*
X421878Y732409D01*
X418847Y732409D02*
X418847Y725043D01*
X418847Y732409D02*
X416801Y732409D01*
X416712Y732407D01*
X416623Y732401D01*
X416534Y732391D01*
X416446Y732378D01*
X416358Y732361D01*
X416271Y732339D01*
X416186Y732314D01*
X416101Y732286D01*
X416018Y732253D01*
X415936Y732217D01*
X415856Y732178D01*
X415778Y732135D01*
X415702Y732089D01*
X415627Y732039D01*
X415555Y731986D01*
X415486Y731930D01*
X415419Y731871D01*
X415354Y731810D01*
X415293Y731745D01*
X415234Y731678D01*
X415178Y731609D01*
X415125Y731537D01*
X415075Y731462D01*
X415029Y731386D01*
X414986Y731308D01*
X414947Y731228D01*
X414911Y731146D01*
X414878Y731063D01*
X414850Y730978D01*
X414825Y730893D01*
X414803Y730806D01*
X414786Y730718D01*
X414773Y730630D01*
X414763Y730541D01*
X414757Y730452D01*
X414755Y730363D01*
X414757Y730274D01*
X414763Y730185D01*
X414773Y730096D01*
X414786Y730008D01*
X414803Y729920D01*
X414825Y729833D01*
X414850Y729748D01*
X414878Y729663D01*
X414911Y729580D01*
X414947Y729498D01*
X414986Y729418D01*
X415029Y729340D01*
X415075Y729264D01*
X415125Y729189D01*
X415178Y729117D01*
X415234Y729048D01*
X415293Y728981D01*
X415354Y728916D01*
X415419Y728855D01*
X415486Y728796D01*
X415555Y728740D01*
X415627Y728687D01*
X415702Y728637D01*
X415778Y728591D01*
X415856Y728548D01*
X415936Y728509D01*
X416018Y728473D01*
X416101Y728440D01*
X416186Y728412D01*
X416271Y728387D01*
X416358Y728365D01*
X416446Y728348D01*
X416534Y728335D01*
X416623Y728325D01*
X416712Y728319D01*
X416801Y728317D01*
X418847Y728317D01*
X416392Y728317D02*
X414755Y725043D01*
X411583Y727089D02*
X411583Y730363D01*
X411581Y730452D01*
X411575Y730541D01*
X411565Y730630D01*
X411552Y730718D01*
X411535Y730806D01*
X411513Y730893D01*
X411488Y730978D01*
X411460Y731063D01*
X411427Y731146D01*
X411391Y731228D01*
X411352Y731308D01*
X411309Y731386D01*
X411263Y731462D01*
X411213Y731537D01*
X411160Y731609D01*
X411104Y731678D01*
X411045Y731745D01*
X410984Y731810D01*
X410919Y731871D01*
X410852Y731930D01*
X410783Y731986D01*
X410711Y732039D01*
X410636Y732089D01*
X410560Y732135D01*
X410482Y732178D01*
X410402Y732217D01*
X410320Y732253D01*
X410237Y732286D01*
X410152Y732314D01*
X410067Y732339D01*
X409980Y732361D01*
X409892Y732378D01*
X409804Y732391D01*
X409715Y732401D01*
X409626Y732407D01*
X409537Y732409D01*
X409448Y732407D01*
X409359Y732401D01*
X409270Y732391D01*
X409182Y732378D01*
X409094Y732361D01*
X409007Y732339D01*
X408922Y732314D01*
X408837Y732286D01*
X408754Y732253D01*
X408672Y732217D01*
X408592Y732178D01*
X408514Y732135D01*
X408438Y732089D01*
X408363Y732039D01*
X408291Y731986D01*
X408222Y731930D01*
X408155Y731871D01*
X408090Y731810D01*
X408029Y731745D01*
X407970Y731678D01*
X407914Y731609D01*
X407861Y731537D01*
X407811Y731462D01*
X407765Y731386D01*
X407722Y731308D01*
X407683Y731228D01*
X407647Y731146D01*
X407614Y731063D01*
X407586Y730978D01*
X407561Y730893D01*
X407539Y730806D01*
X407522Y730718D01*
X407509Y730630D01*
X407499Y730541D01*
X407493Y730452D01*
X407491Y730363D01*
X407491Y727089D01*
X407493Y727000D01*
X407499Y726911D01*
X407509Y726822D01*
X407522Y726734D01*
X407539Y726646D01*
X407561Y726559D01*
X407586Y726474D01*
X407614Y726389D01*
X407647Y726306D01*
X407683Y726224D01*
X407722Y726144D01*
X407765Y726066D01*
X407811Y725990D01*
X407861Y725915D01*
X407914Y725843D01*
X407970Y725774D01*
X408029Y725707D01*
X408090Y725642D01*
X408155Y725581D01*
X408222Y725522D01*
X408291Y725466D01*
X408363Y725413D01*
X408438Y725363D01*
X408514Y725317D01*
X408592Y725274D01*
X408672Y725235D01*
X408754Y725199D01*
X408837Y725166D01*
X408922Y725138D01*
X409007Y725113D01*
X409094Y725091D01*
X409182Y725074D01*
X409270Y725061D01*
X409359Y725051D01*
X409448Y725045D01*
X409537Y725043D01*
X409626Y725045D01*
X409715Y725051D01*
X409804Y725061D01*
X409892Y725074D01*
X409980Y725091D01*
X410067Y725113D01*
X410152Y725138D01*
X410237Y725166D01*
X410320Y725199D01*
X410402Y725235D01*
X410482Y725274D01*
X410560Y725317D01*
X410636Y725363D01*
X410711Y725413D01*
X410783Y725466D01*
X410852Y725522D01*
X410919Y725581D01*
X410984Y725642D01*
X411045Y725707D01*
X411104Y725774D01*
X411160Y725843D01*
X411213Y725915D01*
X411263Y725990D01*
X411309Y726066D01*
X411352Y726144D01*
X411391Y726224D01*
X411427Y726306D01*
X411460Y726389D01*
X411488Y726474D01*
X411513Y726559D01*
X411535Y726646D01*
X411552Y726734D01*
X411565Y726822D01*
X411575Y726911D01*
X411581Y727000D01*
X411583Y727089D01*
X404024Y725043D02*
X404024Y732409D01*
X399932Y725043D01*
X399932Y732409D01*
X452933Y712851D02*
X456206Y712851D01*
X456206Y720217D01*
X452933Y720217D01*
X453751Y716943D02*
X456206Y716943D01*
X449866Y720217D02*
X449866Y712851D01*
X446593Y712851D01*
X443527Y712851D02*
X440253Y712851D01*
X443527Y712851D02*
X443527Y720217D01*
X440253Y720217D01*
X441071Y716943D02*
X443527Y716943D01*
X435833Y712851D02*
X434196Y712851D01*
X435833Y712851D02*
X435911Y712853D01*
X435989Y712858D01*
X436066Y712868D01*
X436143Y712881D01*
X436219Y712897D01*
X436294Y712917D01*
X436368Y712941D01*
X436441Y712968D01*
X436513Y712999D01*
X436583Y713033D01*
X436652Y713070D01*
X436718Y713111D01*
X436783Y713155D01*
X436845Y713201D01*
X436905Y713251D01*
X436963Y713303D01*
X437018Y713358D01*
X437070Y713416D01*
X437120Y713476D01*
X437166Y713538D01*
X437210Y713603D01*
X437251Y713670D01*
X437288Y713738D01*
X437322Y713808D01*
X437353Y713880D01*
X437380Y713953D01*
X437404Y714027D01*
X437424Y714102D01*
X437440Y714178D01*
X437453Y714255D01*
X437463Y714332D01*
X437468Y714410D01*
X437470Y714488D01*
X437469Y714488D02*
X437469Y718580D01*
X437470Y718580D02*
X437468Y718658D01*
X437463Y718736D01*
X437453Y718813D01*
X437440Y718890D01*
X437424Y718966D01*
X437404Y719041D01*
X437380Y719115D01*
X437353Y719188D01*
X437322Y719260D01*
X437288Y719330D01*
X437251Y719399D01*
X437210Y719465D01*
X437166Y719530D01*
X437120Y719592D01*
X437070Y719652D01*
X437018Y719710D01*
X436963Y719765D01*
X436905Y719817D01*
X436845Y719867D01*
X436783Y719913D01*
X436718Y719957D01*
X436652Y719998D01*
X436583Y720035D01*
X436513Y720069D01*
X436441Y720100D01*
X436368Y720127D01*
X436294Y720151D01*
X436219Y720171D01*
X436143Y720187D01*
X436066Y720200D01*
X435989Y720210D01*
X435911Y720215D01*
X435833Y720217D01*
X434196Y720217D01*
X429792Y720217D02*
X429792Y712851D01*
X431838Y720217D02*
X427746Y720217D01*
X424716Y720217D02*
X424716Y712851D01*
X424716Y720217D02*
X422669Y720217D01*
X422580Y720215D01*
X422491Y720209D01*
X422402Y720199D01*
X422314Y720186D01*
X422226Y720169D01*
X422139Y720147D01*
X422054Y720122D01*
X421969Y720094D01*
X421886Y720061D01*
X421804Y720025D01*
X421724Y719986D01*
X421646Y719943D01*
X421570Y719897D01*
X421495Y719847D01*
X421423Y719794D01*
X421354Y719738D01*
X421287Y719679D01*
X421222Y719618D01*
X421161Y719553D01*
X421102Y719486D01*
X421046Y719417D01*
X420993Y719345D01*
X420943Y719270D01*
X420897Y719194D01*
X420854Y719116D01*
X420815Y719036D01*
X420779Y718954D01*
X420746Y718871D01*
X420718Y718786D01*
X420693Y718701D01*
X420671Y718614D01*
X420654Y718526D01*
X420641Y718438D01*
X420631Y718349D01*
X420625Y718260D01*
X420623Y718171D01*
X420625Y718082D01*
X420631Y717993D01*
X420641Y717904D01*
X420654Y717816D01*
X420671Y717728D01*
X420693Y717641D01*
X420718Y717556D01*
X420746Y717471D01*
X420779Y717388D01*
X420815Y717306D01*
X420854Y717226D01*
X420897Y717148D01*
X420943Y717072D01*
X420993Y716997D01*
X421046Y716925D01*
X421102Y716856D01*
X421161Y716789D01*
X421222Y716724D01*
X421287Y716663D01*
X421354Y716604D01*
X421423Y716548D01*
X421495Y716495D01*
X421570Y716445D01*
X421646Y716399D01*
X421724Y716356D01*
X421804Y716317D01*
X421886Y716281D01*
X421969Y716248D01*
X422054Y716220D01*
X422139Y716195D01*
X422226Y716173D01*
X422314Y716156D01*
X422402Y716143D01*
X422491Y716133D01*
X422580Y716127D01*
X422669Y716125D01*
X424716Y716125D01*
X422260Y716125D02*
X420623Y712851D01*
X417452Y714897D02*
X417452Y718171D01*
X417451Y718171D02*
X417449Y718260D01*
X417443Y718349D01*
X417433Y718438D01*
X417420Y718526D01*
X417403Y718614D01*
X417381Y718701D01*
X417356Y718786D01*
X417328Y718871D01*
X417295Y718954D01*
X417259Y719036D01*
X417220Y719116D01*
X417177Y719194D01*
X417131Y719270D01*
X417081Y719345D01*
X417028Y719417D01*
X416972Y719486D01*
X416913Y719553D01*
X416852Y719618D01*
X416787Y719679D01*
X416720Y719738D01*
X416651Y719794D01*
X416579Y719847D01*
X416504Y719897D01*
X416428Y719943D01*
X416350Y719986D01*
X416270Y720025D01*
X416188Y720061D01*
X416105Y720094D01*
X416020Y720122D01*
X415935Y720147D01*
X415848Y720169D01*
X415760Y720186D01*
X415672Y720199D01*
X415583Y720209D01*
X415494Y720215D01*
X415405Y720217D01*
X415316Y720215D01*
X415227Y720209D01*
X415138Y720199D01*
X415050Y720186D01*
X414962Y720169D01*
X414875Y720147D01*
X414790Y720122D01*
X414705Y720094D01*
X414622Y720061D01*
X414540Y720025D01*
X414460Y719986D01*
X414382Y719943D01*
X414306Y719897D01*
X414231Y719847D01*
X414159Y719794D01*
X414090Y719738D01*
X414023Y719679D01*
X413958Y719618D01*
X413897Y719553D01*
X413838Y719486D01*
X413782Y719417D01*
X413729Y719345D01*
X413679Y719270D01*
X413633Y719194D01*
X413590Y719116D01*
X413551Y719036D01*
X413515Y718954D01*
X413482Y718871D01*
X413454Y718786D01*
X413429Y718701D01*
X413407Y718614D01*
X413390Y718526D01*
X413377Y718438D01*
X413367Y718349D01*
X413361Y718260D01*
X413359Y718171D01*
X413359Y714897D01*
X413361Y714808D01*
X413367Y714719D01*
X413377Y714630D01*
X413390Y714542D01*
X413407Y714454D01*
X413429Y714367D01*
X413454Y714282D01*
X413482Y714197D01*
X413515Y714114D01*
X413551Y714032D01*
X413590Y713952D01*
X413633Y713874D01*
X413679Y713798D01*
X413729Y713723D01*
X413782Y713651D01*
X413838Y713582D01*
X413897Y713515D01*
X413958Y713450D01*
X414023Y713389D01*
X414090Y713330D01*
X414159Y713274D01*
X414231Y713221D01*
X414306Y713171D01*
X414382Y713125D01*
X414460Y713082D01*
X414540Y713043D01*
X414622Y713007D01*
X414705Y712974D01*
X414790Y712946D01*
X414875Y712921D01*
X414962Y712899D01*
X415050Y712882D01*
X415138Y712869D01*
X415227Y712859D01*
X415316Y712853D01*
X415405Y712851D01*
X415494Y712853D01*
X415583Y712859D01*
X415672Y712869D01*
X415760Y712882D01*
X415848Y712899D01*
X415935Y712921D01*
X416020Y712946D01*
X416105Y712974D01*
X416188Y713007D01*
X416270Y713043D01*
X416350Y713082D01*
X416428Y713125D01*
X416504Y713171D01*
X416579Y713221D01*
X416651Y713274D01*
X416720Y713330D01*
X416787Y713389D01*
X416852Y713450D01*
X416913Y713515D01*
X416972Y713582D01*
X417028Y713651D01*
X417081Y713723D01*
X417131Y713798D01*
X417177Y713874D01*
X417220Y713952D01*
X417259Y714032D01*
X417295Y714114D01*
X417328Y714197D01*
X417356Y714282D01*
X417381Y714367D01*
X417403Y714454D01*
X417420Y714542D01*
X417433Y714630D01*
X417443Y714719D01*
X417449Y714808D01*
X417451Y714897D01*
X409893Y712851D02*
X409893Y720217D01*
X405800Y712851D01*
X405800Y720217D01*
X401750Y720217D02*
X401750Y712851D01*
X400932Y712851D02*
X402569Y712851D01*
X402569Y720217D02*
X400932Y720217D01*
X396331Y712851D02*
X394694Y712851D01*
X396331Y712851D02*
X396409Y712853D01*
X396487Y712858D01*
X396564Y712868D01*
X396641Y712881D01*
X396717Y712897D01*
X396792Y712917D01*
X396866Y712941D01*
X396939Y712968D01*
X397011Y712999D01*
X397081Y713033D01*
X397150Y713070D01*
X397216Y713111D01*
X397281Y713155D01*
X397343Y713201D01*
X397403Y713251D01*
X397461Y713303D01*
X397516Y713358D01*
X397568Y713416D01*
X397618Y713476D01*
X397664Y713538D01*
X397708Y713603D01*
X397749Y713670D01*
X397786Y713738D01*
X397820Y713808D01*
X397851Y713880D01*
X397878Y713953D01*
X397902Y714027D01*
X397922Y714102D01*
X397938Y714178D01*
X397951Y714255D01*
X397961Y714332D01*
X397966Y714410D01*
X397968Y714488D01*
X397967Y714488D02*
X397967Y718580D01*
X397968Y718580D02*
X397966Y718658D01*
X397961Y718736D01*
X397951Y718813D01*
X397938Y718890D01*
X397922Y718966D01*
X397902Y719041D01*
X397878Y719115D01*
X397851Y719188D01*
X397820Y719260D01*
X397786Y719330D01*
X397749Y719399D01*
X397708Y719465D01*
X397664Y719530D01*
X397618Y719592D01*
X397568Y719652D01*
X397516Y719710D01*
X397461Y719765D01*
X397403Y719817D01*
X397343Y719867D01*
X397281Y719913D01*
X397216Y719957D01*
X397150Y719998D01*
X397081Y720035D01*
X397011Y720069D01*
X396939Y720100D01*
X396866Y720127D01*
X396792Y720151D01*
X396717Y720171D01*
X396641Y720187D01*
X396564Y720200D01*
X396487Y720210D01*
X396409Y720215D01*
X396331Y720217D01*
X394694Y720217D01*
M02*
