G04 EAGLE Gerber RS-274X export*
G75*
%MOMM*%
%FSLAX34Y34*%
%LPD*%
%INSolderpaste Top*%
%IPPOS*%
%AMOC8*
5,1,8,0,0,1.08239X$1,22.5*%
G01*
%ADD10R,1.100000X1.000000*%
%ADD11R,0.900000X2.000000*%
%ADD12R,2.000000X0.900000*%
%ADD13R,1.330000X1.330000*%
%ADD14R,0.900000X0.950000*%
%ADD15R,0.650000X0.900000*%
%ADD16R,1.400000X0.900000*%
%ADD17R,0.900000X0.800000*%
%ADD18R,0.800000X0.940000*%
%ADD19R,1.526000X0.435000*%
%ADD20R,0.900000X0.650000*%
%ADD21R,0.940000X0.800000*%
%ADD22R,2.500000X1.200000*%
%ADD23R,1.200000X0.550000*%
%ADD24C,0.100000*%
%ADD25R,1.640000X1.290000*%
%ADD26C,0.150000*%
%ADD27R,1.140000X0.600000*%
%ADD28R,1.140000X0.300000*%
%ADD29R,0.950000X0.900000*%
%ADD30R,1.210000X0.730000*%
%ADD31R,0.558800X1.320800*%
%ADD32R,0.508000X1.320800*%
%ADD33R,0.550000X1.050000*%
%ADD34R,1.450000X1.200000*%
%ADD35R,0.900000X1.000000*%


D10*
X344950Y712980D03*
X361950Y712980D03*
D11*
X459000Y637450D03*
X446300Y637450D03*
X433600Y637450D03*
X420900Y637450D03*
X408200Y637450D03*
X395500Y637450D03*
X382800Y637450D03*
X370100Y637450D03*
X357400Y637450D03*
X344700Y637450D03*
X332000Y637450D03*
X319300Y637450D03*
X306600Y637450D03*
X293900Y637450D03*
D12*
X283900Y609600D03*
X283900Y596900D03*
X283900Y584200D03*
X283900Y571500D03*
X283900Y558800D03*
X283900Y546100D03*
X283900Y533400D03*
X283900Y520700D03*
X283900Y508000D03*
X283900Y495300D03*
D11*
X293900Y467450D03*
X306600Y467450D03*
X319300Y467450D03*
X332000Y467450D03*
X344700Y467450D03*
X357400Y467450D03*
X370100Y467450D03*
X382800Y467450D03*
X395500Y467450D03*
X408200Y467450D03*
X420900Y467450D03*
X433600Y467450D03*
X446300Y467450D03*
X459000Y467450D03*
D13*
X402350Y580800D03*
X402350Y562450D03*
X402350Y544100D03*
X384000Y580800D03*
X384000Y562450D03*
X384000Y544100D03*
X365650Y580800D03*
X365650Y562450D03*
X365650Y544100D03*
D14*
X320420Y769620D03*
X304420Y769620D03*
X519810Y681990D03*
X503810Y681990D03*
X320420Y782320D03*
X304420Y782320D03*
D15*
X401690Y450850D03*
X416190Y450850D03*
D16*
X424180Y440030D03*
X424180Y421030D03*
D17*
X304960Y721970D03*
X304960Y702970D03*
X324960Y712470D03*
X304960Y754990D03*
X304960Y735990D03*
X324960Y745490D03*
D18*
X506380Y657860D03*
X519780Y657860D03*
X506380Y669290D03*
X519780Y669290D03*
D19*
X209100Y672470D03*
X209100Y666110D03*
X209100Y659770D03*
X209100Y653410D03*
X209100Y647070D03*
X209100Y640710D03*
X209100Y634370D03*
X209100Y628010D03*
X209100Y621670D03*
X209100Y615310D03*
X263340Y615310D03*
X263340Y621670D03*
X263340Y628010D03*
X263340Y634370D03*
X263340Y640710D03*
X263340Y647070D03*
X263340Y653410D03*
X263340Y659770D03*
X263340Y666110D03*
X263340Y672470D03*
D20*
X349250Y419470D03*
X349250Y433970D03*
X384810Y419470D03*
X384810Y433970D03*
D16*
X367030Y421030D03*
X367030Y440030D03*
X401320Y421030D03*
X401320Y440030D03*
D21*
X288290Y721710D03*
X288290Y708310D03*
X187960Y433420D03*
X187960Y420020D03*
X199390Y420020D03*
X199390Y433420D03*
D22*
X176090Y611740D03*
X176090Y586740D03*
X176090Y561740D03*
D23*
X157180Y662280D03*
X157180Y652780D03*
X157180Y643280D03*
X183180Y643280D03*
X183180Y662280D03*
X183180Y652780D03*
D24*
X260980Y597440D02*
X260980Y582840D01*
X260980Y597440D02*
X263980Y597440D01*
X263980Y582840D01*
X260980Y582840D01*
X260980Y583790D02*
X263980Y583790D01*
X263980Y584740D02*
X260980Y584740D01*
X260980Y585690D02*
X263980Y585690D01*
X263980Y586640D02*
X260980Y586640D01*
X260980Y587590D02*
X263980Y587590D01*
X263980Y588540D02*
X260980Y588540D01*
X260980Y589490D02*
X263980Y589490D01*
X263980Y590440D02*
X260980Y590440D01*
X260980Y591390D02*
X263980Y591390D01*
X263980Y592340D02*
X260980Y592340D01*
X260980Y593290D02*
X263980Y593290D01*
X263980Y594240D02*
X260980Y594240D01*
X260980Y595190D02*
X263980Y595190D01*
X263980Y596140D02*
X260980Y596140D01*
X260980Y597090D02*
X263980Y597090D01*
X254480Y597440D02*
X254480Y582840D01*
X254480Y597440D02*
X257480Y597440D01*
X257480Y582840D01*
X254480Y582840D01*
X254480Y583790D02*
X257480Y583790D01*
X257480Y584740D02*
X254480Y584740D01*
X254480Y585690D02*
X257480Y585690D01*
X257480Y586640D02*
X254480Y586640D01*
X254480Y587590D02*
X257480Y587590D01*
X257480Y588540D02*
X254480Y588540D01*
X254480Y589490D02*
X257480Y589490D01*
X257480Y590440D02*
X254480Y590440D01*
X254480Y591390D02*
X257480Y591390D01*
X257480Y592340D02*
X254480Y592340D01*
X254480Y593290D02*
X257480Y593290D01*
X257480Y594240D02*
X254480Y594240D01*
X254480Y595190D02*
X257480Y595190D01*
X257480Y596140D02*
X254480Y596140D01*
X254480Y597090D02*
X257480Y597090D01*
X247980Y597440D02*
X247980Y582840D01*
X247980Y597440D02*
X250980Y597440D01*
X250980Y582840D01*
X247980Y582840D01*
X247980Y583790D02*
X250980Y583790D01*
X250980Y584740D02*
X247980Y584740D01*
X247980Y585690D02*
X250980Y585690D01*
X250980Y586640D02*
X247980Y586640D01*
X247980Y587590D02*
X250980Y587590D01*
X250980Y588540D02*
X247980Y588540D01*
X247980Y589490D02*
X250980Y589490D01*
X250980Y590440D02*
X247980Y590440D01*
X247980Y591390D02*
X250980Y591390D01*
X250980Y592340D02*
X247980Y592340D01*
X247980Y593290D02*
X250980Y593290D01*
X250980Y594240D02*
X247980Y594240D01*
X247980Y595190D02*
X250980Y595190D01*
X250980Y596140D02*
X247980Y596140D01*
X247980Y597090D02*
X250980Y597090D01*
X241480Y597440D02*
X241480Y582840D01*
X241480Y597440D02*
X244480Y597440D01*
X244480Y582840D01*
X241480Y582840D01*
X241480Y583790D02*
X244480Y583790D01*
X244480Y584740D02*
X241480Y584740D01*
X241480Y585690D02*
X244480Y585690D01*
X244480Y586640D02*
X241480Y586640D01*
X241480Y587590D02*
X244480Y587590D01*
X244480Y588540D02*
X241480Y588540D01*
X241480Y589490D02*
X244480Y589490D01*
X244480Y590440D02*
X241480Y590440D01*
X241480Y591390D02*
X244480Y591390D01*
X244480Y592340D02*
X241480Y592340D01*
X241480Y593290D02*
X244480Y593290D01*
X244480Y594240D02*
X241480Y594240D01*
X241480Y595190D02*
X244480Y595190D01*
X244480Y596140D02*
X241480Y596140D01*
X241480Y597090D02*
X244480Y597090D01*
X241480Y539840D02*
X241480Y525240D01*
X241480Y539840D02*
X244480Y539840D01*
X244480Y525240D01*
X241480Y525240D01*
X241480Y526190D02*
X244480Y526190D01*
X244480Y527140D02*
X241480Y527140D01*
X241480Y528090D02*
X244480Y528090D01*
X244480Y529040D02*
X241480Y529040D01*
X241480Y529990D02*
X244480Y529990D01*
X244480Y530940D02*
X241480Y530940D01*
X241480Y531890D02*
X244480Y531890D01*
X244480Y532840D02*
X241480Y532840D01*
X241480Y533790D02*
X244480Y533790D01*
X244480Y534740D02*
X241480Y534740D01*
X241480Y535690D02*
X244480Y535690D01*
X244480Y536640D02*
X241480Y536640D01*
X241480Y537590D02*
X244480Y537590D01*
X244480Y538540D02*
X241480Y538540D01*
X241480Y539490D02*
X244480Y539490D01*
X247980Y539840D02*
X247980Y525240D01*
X247980Y539840D02*
X250980Y539840D01*
X250980Y525240D01*
X247980Y525240D01*
X247980Y526190D02*
X250980Y526190D01*
X250980Y527140D02*
X247980Y527140D01*
X247980Y528090D02*
X250980Y528090D01*
X250980Y529040D02*
X247980Y529040D01*
X247980Y529990D02*
X250980Y529990D01*
X250980Y530940D02*
X247980Y530940D01*
X247980Y531890D02*
X250980Y531890D01*
X250980Y532840D02*
X247980Y532840D01*
X247980Y533790D02*
X250980Y533790D01*
X250980Y534740D02*
X247980Y534740D01*
X247980Y535690D02*
X250980Y535690D01*
X250980Y536640D02*
X247980Y536640D01*
X247980Y537590D02*
X250980Y537590D01*
X250980Y538540D02*
X247980Y538540D01*
X247980Y539490D02*
X250980Y539490D01*
X254480Y539840D02*
X254480Y525240D01*
X254480Y539840D02*
X257480Y539840D01*
X257480Y525240D01*
X254480Y525240D01*
X254480Y526190D02*
X257480Y526190D01*
X257480Y527140D02*
X254480Y527140D01*
X254480Y528090D02*
X257480Y528090D01*
X257480Y529040D02*
X254480Y529040D01*
X254480Y529990D02*
X257480Y529990D01*
X257480Y530940D02*
X254480Y530940D01*
X254480Y531890D02*
X257480Y531890D01*
X257480Y532840D02*
X254480Y532840D01*
X254480Y533790D02*
X257480Y533790D01*
X257480Y534740D02*
X254480Y534740D01*
X254480Y535690D02*
X257480Y535690D01*
X257480Y536640D02*
X254480Y536640D01*
X254480Y537590D02*
X257480Y537590D01*
X257480Y538540D02*
X254480Y538540D01*
X254480Y539490D02*
X257480Y539490D01*
X260980Y539840D02*
X260980Y525240D01*
X260980Y539840D02*
X263980Y539840D01*
X263980Y525240D01*
X260980Y525240D01*
X260980Y526190D02*
X263980Y526190D01*
X263980Y527140D02*
X260980Y527140D01*
X260980Y528090D02*
X263980Y528090D01*
X263980Y529040D02*
X260980Y529040D01*
X260980Y529990D02*
X263980Y529990D01*
X263980Y530940D02*
X260980Y530940D01*
X260980Y531890D02*
X263980Y531890D01*
X263980Y532840D02*
X260980Y532840D01*
X260980Y533790D02*
X263980Y533790D01*
X263980Y534740D02*
X260980Y534740D01*
X260980Y535690D02*
X263980Y535690D01*
X263980Y536640D02*
X260980Y536640D01*
X260980Y537590D02*
X263980Y537590D01*
X263980Y538540D02*
X260980Y538540D01*
X260980Y539490D02*
X263980Y539490D01*
D25*
X243840Y487680D03*
D26*
X227040Y472030D02*
X227040Y453830D01*
X222540Y453830D01*
X222540Y472030D01*
X227040Y472030D01*
X227040Y455255D02*
X222540Y455255D01*
X222540Y456680D02*
X227040Y456680D01*
X227040Y458105D02*
X222540Y458105D01*
X222540Y459530D02*
X227040Y459530D01*
X227040Y460955D02*
X222540Y460955D01*
X222540Y462380D02*
X227040Y462380D01*
X227040Y463805D02*
X222540Y463805D01*
X222540Y465230D02*
X227040Y465230D01*
X227040Y466655D02*
X222540Y466655D01*
X222540Y468080D02*
X227040Y468080D01*
X227040Y469505D02*
X222540Y469505D01*
X222540Y470930D02*
X227040Y470930D01*
X239740Y472030D02*
X239740Y453830D01*
X235240Y453830D01*
X235240Y472030D01*
X239740Y472030D01*
X239740Y455255D02*
X235240Y455255D01*
X235240Y456680D02*
X239740Y456680D01*
X239740Y458105D02*
X235240Y458105D01*
X235240Y459530D02*
X239740Y459530D01*
X239740Y460955D02*
X235240Y460955D01*
X235240Y462380D02*
X239740Y462380D01*
X239740Y463805D02*
X235240Y463805D01*
X235240Y465230D02*
X239740Y465230D01*
X239740Y466655D02*
X235240Y466655D01*
X235240Y468080D02*
X239740Y468080D01*
X239740Y469505D02*
X235240Y469505D01*
X235240Y470930D02*
X239740Y470930D01*
X252440Y472030D02*
X252440Y453830D01*
X247940Y453830D01*
X247940Y472030D01*
X252440Y472030D01*
X252440Y455255D02*
X247940Y455255D01*
X247940Y456680D02*
X252440Y456680D01*
X252440Y458105D02*
X247940Y458105D01*
X247940Y459530D02*
X252440Y459530D01*
X252440Y460955D02*
X247940Y460955D01*
X247940Y462380D02*
X252440Y462380D01*
X252440Y463805D02*
X247940Y463805D01*
X247940Y465230D02*
X252440Y465230D01*
X252440Y466655D02*
X247940Y466655D01*
X247940Y468080D02*
X252440Y468080D01*
X252440Y469505D02*
X247940Y469505D01*
X247940Y470930D02*
X252440Y470930D01*
X265140Y472030D02*
X265140Y453830D01*
X260640Y453830D01*
X260640Y472030D01*
X265140Y472030D01*
X265140Y455255D02*
X260640Y455255D01*
X260640Y456680D02*
X265140Y456680D01*
X265140Y458105D02*
X260640Y458105D01*
X260640Y459530D02*
X265140Y459530D01*
X265140Y460955D02*
X260640Y460955D01*
X260640Y462380D02*
X265140Y462380D01*
X265140Y463805D02*
X260640Y463805D01*
X260640Y465230D02*
X265140Y465230D01*
X265140Y466655D02*
X260640Y466655D01*
X260640Y468080D02*
X265140Y468080D01*
X265140Y469505D02*
X260640Y469505D01*
X260640Y470930D02*
X265140Y470930D01*
X265140Y503330D02*
X265140Y521530D01*
X265140Y503330D02*
X260640Y503330D01*
X260640Y521530D01*
X265140Y521530D01*
X265140Y504755D02*
X260640Y504755D01*
X260640Y506180D02*
X265140Y506180D01*
X265140Y507605D02*
X260640Y507605D01*
X260640Y509030D02*
X265140Y509030D01*
X265140Y510455D02*
X260640Y510455D01*
X260640Y511880D02*
X265140Y511880D01*
X265140Y513305D02*
X260640Y513305D01*
X260640Y514730D02*
X265140Y514730D01*
X265140Y516155D02*
X260640Y516155D01*
X260640Y517580D02*
X265140Y517580D01*
X265140Y519005D02*
X260640Y519005D01*
X260640Y520430D02*
X265140Y520430D01*
X252440Y521530D02*
X252440Y503330D01*
X247940Y503330D01*
X247940Y521530D01*
X252440Y521530D01*
X252440Y504755D02*
X247940Y504755D01*
X247940Y506180D02*
X252440Y506180D01*
X252440Y507605D02*
X247940Y507605D01*
X247940Y509030D02*
X252440Y509030D01*
X252440Y510455D02*
X247940Y510455D01*
X247940Y511880D02*
X252440Y511880D01*
X252440Y513305D02*
X247940Y513305D01*
X247940Y514730D02*
X252440Y514730D01*
X252440Y516155D02*
X247940Y516155D01*
X247940Y517580D02*
X252440Y517580D01*
X252440Y519005D02*
X247940Y519005D01*
X247940Y520430D02*
X252440Y520430D01*
X239740Y521530D02*
X239740Y503330D01*
X235240Y503330D01*
X235240Y521530D01*
X239740Y521530D01*
X239740Y504755D02*
X235240Y504755D01*
X235240Y506180D02*
X239740Y506180D01*
X239740Y507605D02*
X235240Y507605D01*
X235240Y509030D02*
X239740Y509030D01*
X239740Y510455D02*
X235240Y510455D01*
X235240Y511880D02*
X239740Y511880D01*
X239740Y513305D02*
X235240Y513305D01*
X235240Y514730D02*
X239740Y514730D01*
X239740Y516155D02*
X235240Y516155D01*
X235240Y517580D02*
X239740Y517580D01*
X239740Y519005D02*
X235240Y519005D01*
X235240Y520430D02*
X239740Y520430D01*
X227040Y521530D02*
X227040Y503330D01*
X222540Y503330D01*
X222540Y521530D01*
X227040Y521530D01*
X227040Y504755D02*
X222540Y504755D01*
X222540Y506180D02*
X227040Y506180D01*
X227040Y507605D02*
X222540Y507605D01*
X222540Y509030D02*
X227040Y509030D01*
X227040Y510455D02*
X222540Y510455D01*
X222540Y511880D02*
X227040Y511880D01*
X227040Y513305D02*
X222540Y513305D01*
X222540Y514730D02*
X227040Y514730D01*
X227040Y516155D02*
X222540Y516155D01*
X222540Y517580D02*
X227040Y517580D01*
X227040Y519005D02*
X222540Y519005D01*
X222540Y520430D02*
X227040Y520430D01*
D27*
X206250Y520950D03*
X206250Y512950D03*
D28*
X206250Y491450D03*
X206250Y496450D03*
X206250Y501450D03*
X206250Y506450D03*
X206250Y486450D03*
X206250Y481450D03*
X206250Y476450D03*
X206250Y471450D03*
D27*
X206250Y464950D03*
X206250Y456950D03*
D29*
X271780Y441070D03*
X271780Y425070D03*
D16*
X232410Y421030D03*
X232410Y440030D03*
X254000Y421030D03*
X254000Y440030D03*
D29*
X214630Y435990D03*
X214630Y419990D03*
X228600Y531750D03*
X228600Y547750D03*
D30*
X239740Y704850D03*
X273340Y704850D03*
D31*
X224028Y596392D03*
X205232Y596392D03*
D32*
X214630Y574548D03*
D18*
X209200Y786130D03*
X222600Y786130D03*
X209200Y774700D03*
X222600Y774700D03*
D21*
X288290Y696310D03*
X288290Y682910D03*
X288290Y748380D03*
X288290Y734980D03*
D29*
X203200Y720980D03*
X203200Y736980D03*
D21*
X203200Y695610D03*
X203200Y709010D03*
D14*
X174880Y781050D03*
X190880Y781050D03*
D21*
X214630Y721010D03*
X214630Y734410D03*
D33*
X252120Y728680D03*
X261620Y728680D03*
X271120Y728680D03*
X271120Y754680D03*
X252120Y754680D03*
D21*
X280670Y771240D03*
X280670Y757840D03*
D34*
X233680Y730640D03*
X233680Y747640D03*
D14*
X252350Y768350D03*
X268350Y768350D03*
D35*
X218060Y760730D03*
X234060Y760730D03*
D14*
X292990Y655320D03*
X308990Y655320D03*
D35*
X310260Y666750D03*
X294260Y666750D03*
M02*
