G04 EAGLE Gerber RS-274X export*
G75*
%MOMM*%
%FSLAX34Y34*%
%LPD*%
%IN*%
%IPPOS*%
%AMOC8*
5,1,8,0,0,1.08239X$1,22.5*%
G01*
%ADD10C,0.254000*%


D10*
X2540Y46990D02*
X2695Y43448D01*
X3157Y39933D01*
X3925Y36472D01*
X4991Y33090D01*
X6348Y29815D01*
X7985Y26670D01*
X9890Y23680D01*
X12048Y20867D01*
X14443Y18253D01*
X17057Y15858D01*
X19870Y13700D01*
X22860Y11795D01*
X26005Y10158D01*
X29280Y8801D01*
X32662Y7735D01*
X36123Y6967D01*
X39638Y6505D01*
X43180Y6350D01*
X361950Y6350D01*
X365097Y6654D01*
X368206Y7231D01*
X371253Y8076D01*
X374215Y9184D01*
X377068Y10546D01*
X379792Y12152D01*
X382366Y13988D01*
X384770Y16043D01*
X386986Y18298D01*
X388997Y20739D01*
X390787Y23345D01*
X392343Y26097D01*
X393654Y28975D01*
X394709Y31956D01*
X395500Y35017D01*
X396021Y38136D01*
X396268Y41288D01*
X396240Y44450D01*
X396240Y49530D01*
X414020Y49530D01*
X414020Y33020D01*
X413968Y30412D01*
X414143Y27809D01*
X414544Y25231D01*
X415168Y22698D01*
X416011Y20228D01*
X417066Y17842D01*
X418325Y15557D01*
X419778Y13390D01*
X421414Y11358D01*
X423222Y9477D01*
X425186Y7760D01*
X427293Y6221D01*
X429525Y4871D01*
X431867Y3721D01*
X434300Y2780D01*
X436806Y2054D01*
X439366Y1550D01*
X441960Y1270D01*
X777240Y1270D01*
X779949Y1444D01*
X782633Y1853D01*
X785272Y2495D01*
X787844Y3364D01*
X790330Y4454D01*
X792712Y5756D01*
X794972Y7261D01*
X797092Y8958D01*
X799056Y10832D01*
X800849Y12871D01*
X802457Y15058D01*
X803869Y17377D01*
X805073Y19811D01*
X806061Y22340D01*
X806824Y24945D01*
X807358Y27607D01*
X807657Y30306D01*
X807720Y33020D01*
X807720Y355600D01*
X807565Y359142D01*
X807103Y362657D01*
X806335Y366118D01*
X805269Y369500D01*
X803912Y372775D01*
X802275Y375920D01*
X800370Y378910D01*
X798212Y381723D01*
X795817Y384337D01*
X793203Y386732D01*
X790390Y388890D01*
X787400Y390795D01*
X784255Y392432D01*
X780980Y393789D01*
X777598Y394855D01*
X774137Y395623D01*
X770622Y396085D01*
X767080Y396240D01*
X759460Y396240D01*
X759460Y405130D01*
X774700Y405130D01*
X777409Y405304D01*
X780093Y405713D01*
X782732Y406355D01*
X785304Y407224D01*
X787790Y408314D01*
X790172Y409616D01*
X792432Y411121D01*
X794552Y412818D01*
X796516Y414692D01*
X798309Y416731D01*
X799917Y418918D01*
X801329Y421237D01*
X802533Y423671D01*
X803521Y426200D01*
X804284Y428805D01*
X804818Y431467D01*
X805117Y434166D01*
X805180Y436880D01*
X805180Y759460D01*
X805025Y763002D01*
X804563Y766517D01*
X803795Y769978D01*
X802729Y773360D01*
X801372Y776635D01*
X799735Y779780D01*
X797830Y782770D01*
X795672Y785583D01*
X793277Y788197D01*
X790663Y790592D01*
X787850Y792750D01*
X784860Y794655D01*
X781715Y796292D01*
X778440Y797649D01*
X775058Y798715D01*
X771597Y799483D01*
X768082Y799945D01*
X764540Y800100D01*
X445770Y800100D01*
X442623Y799796D01*
X439514Y799219D01*
X436467Y798374D01*
X433505Y797266D01*
X430652Y795904D01*
X427928Y794298D01*
X425354Y792462D01*
X422950Y790407D01*
X420734Y788152D01*
X418724Y785711D01*
X416933Y783105D01*
X415377Y780353D01*
X414066Y777475D01*
X413011Y774494D01*
X412220Y771433D01*
X411699Y768314D01*
X411452Y765162D01*
X411480Y762000D01*
X411480Y754380D01*
X396240Y754380D01*
X396240Y772160D01*
X396292Y774768D01*
X396117Y777371D01*
X395716Y779949D01*
X395092Y782482D01*
X394249Y784952D01*
X393194Y787338D01*
X391935Y789623D01*
X390482Y791790D01*
X388846Y793822D01*
X387038Y795703D01*
X385074Y797420D01*
X382967Y798959D01*
X380735Y800309D01*
X378393Y801459D01*
X375960Y802400D01*
X373454Y803126D01*
X370894Y803630D01*
X368300Y803910D01*
X33020Y803910D01*
X30311Y803736D01*
X27627Y803327D01*
X24988Y802685D01*
X22416Y801816D01*
X19930Y800726D01*
X17548Y799424D01*
X15288Y797919D01*
X13168Y796222D01*
X11204Y794348D01*
X9411Y792309D01*
X7803Y790122D01*
X6391Y787803D01*
X5187Y785369D01*
X4199Y782840D01*
X3436Y780235D01*
X2902Y777573D01*
X2603Y774874D01*
X2540Y772160D01*
X2540Y449580D01*
X2695Y446038D01*
X3157Y442523D01*
X3925Y439062D01*
X4991Y435680D01*
X6348Y432405D01*
X7985Y429260D01*
X9890Y426270D01*
X12048Y423457D01*
X14443Y420843D01*
X17057Y418448D01*
X19870Y416290D01*
X22860Y414385D01*
X26005Y412748D01*
X29280Y411391D01*
X32662Y410325D01*
X36123Y409557D01*
X39638Y409095D01*
X43180Y408940D01*
X45720Y408940D01*
X45720Y401320D01*
X33020Y401320D01*
X30311Y401146D01*
X27627Y400737D01*
X24988Y400095D01*
X22416Y399226D01*
X19930Y398136D01*
X17548Y396834D01*
X15288Y395329D01*
X13168Y393632D01*
X11204Y391758D01*
X9411Y389719D01*
X7803Y387532D01*
X6391Y385213D01*
X5187Y382779D01*
X4199Y380250D01*
X3436Y377645D01*
X2902Y374983D01*
X2603Y372284D01*
X2540Y369570D01*
X2540Y46990D01*
X782940Y356940D02*
X782951Y356679D01*
X782986Y356419D01*
X783042Y356164D01*
X783121Y355914D01*
X783221Y355672D01*
X783342Y355440D01*
X783483Y355219D01*
X783642Y355012D01*
X783819Y354819D01*
X784012Y354642D01*
X784219Y354483D01*
X784440Y354342D01*
X784672Y354221D01*
X784914Y354121D01*
X785164Y354042D01*
X785419Y353986D01*
X785679Y353951D01*
X785940Y353940D01*
X793940Y353940D01*
X794201Y353951D01*
X794461Y353986D01*
X794716Y354042D01*
X794966Y354121D01*
X795208Y354221D01*
X795440Y354342D01*
X795661Y354483D01*
X795868Y354642D01*
X796061Y354819D01*
X796238Y355012D01*
X796397Y355219D01*
X796538Y355440D01*
X796659Y355672D01*
X796759Y355914D01*
X796838Y356164D01*
X796894Y356419D01*
X796929Y356679D01*
X796940Y356940D01*
X796929Y357201D01*
X796894Y357461D01*
X796838Y357716D01*
X796759Y357966D01*
X796659Y358208D01*
X796538Y358440D01*
X796397Y358661D01*
X796238Y358868D01*
X796061Y359061D01*
X795868Y359238D01*
X795661Y359397D01*
X795440Y359538D01*
X795208Y359659D01*
X794966Y359759D01*
X794716Y359838D01*
X794461Y359894D01*
X794201Y359929D01*
X793940Y359940D01*
X785940Y359940D01*
X785679Y359929D01*
X785419Y359894D01*
X785164Y359838D01*
X784914Y359759D01*
X784672Y359659D01*
X784440Y359538D01*
X784219Y359397D01*
X784012Y359238D01*
X783819Y359061D01*
X783642Y358868D01*
X783483Y358661D01*
X783342Y358440D01*
X783221Y358208D01*
X783121Y357966D01*
X783042Y357716D01*
X782986Y357461D01*
X782951Y357201D01*
X782940Y356940D01*
X53520Y45650D02*
X53531Y45389D01*
X53566Y45129D01*
X53622Y44874D01*
X53701Y44624D01*
X53801Y44382D01*
X53922Y44150D01*
X54063Y43929D01*
X54222Y43722D01*
X54399Y43529D01*
X54592Y43352D01*
X54799Y43193D01*
X55020Y43052D01*
X55252Y42931D01*
X55494Y42831D01*
X55744Y42752D01*
X55999Y42696D01*
X56259Y42661D01*
X56520Y42650D01*
X67520Y42650D01*
X67781Y42661D01*
X68041Y42696D01*
X68296Y42752D01*
X68546Y42831D01*
X68788Y42931D01*
X69020Y43052D01*
X69241Y43193D01*
X69448Y43352D01*
X69641Y43529D01*
X69818Y43722D01*
X69977Y43929D01*
X70118Y44150D01*
X70239Y44382D01*
X70339Y44624D01*
X70418Y44874D01*
X70474Y45129D01*
X70509Y45389D01*
X70520Y45650D01*
X70509Y45911D01*
X70474Y46171D01*
X70418Y46426D01*
X70339Y46676D01*
X70239Y46918D01*
X70118Y47150D01*
X69977Y47371D01*
X69818Y47578D01*
X69641Y47771D01*
X69448Y47948D01*
X69241Y48107D01*
X69020Y48248D01*
X68788Y48369D01*
X68546Y48469D01*
X68296Y48548D01*
X68041Y48604D01*
X67781Y48639D01*
X67520Y48650D01*
X56520Y48650D01*
X56259Y48639D01*
X55999Y48604D01*
X55744Y48548D01*
X55494Y48469D01*
X55252Y48369D01*
X55020Y48248D01*
X54799Y48107D01*
X54592Y47948D01*
X54399Y47771D01*
X54222Y47578D01*
X54063Y47371D01*
X53922Y47150D01*
X53801Y46918D01*
X53701Y46676D01*
X53622Y46426D01*
X53566Y46171D01*
X53531Y45911D01*
X53520Y45650D01*
X53520Y132150D02*
X53531Y131889D01*
X53566Y131629D01*
X53622Y131374D01*
X53701Y131124D01*
X53801Y130882D01*
X53922Y130650D01*
X54063Y130429D01*
X54222Y130222D01*
X54399Y130029D01*
X54592Y129852D01*
X54799Y129693D01*
X55020Y129552D01*
X55252Y129431D01*
X55494Y129331D01*
X55744Y129252D01*
X55999Y129196D01*
X56259Y129161D01*
X56520Y129150D01*
X67520Y129150D01*
X67781Y129161D01*
X68041Y129196D01*
X68296Y129252D01*
X68546Y129331D01*
X68788Y129431D01*
X69020Y129552D01*
X69241Y129693D01*
X69448Y129852D01*
X69641Y130029D01*
X69818Y130222D01*
X69977Y130429D01*
X70118Y130650D01*
X70239Y130882D01*
X70339Y131124D01*
X70418Y131374D01*
X70474Y131629D01*
X70509Y131889D01*
X70520Y132150D01*
X70509Y132411D01*
X70474Y132671D01*
X70418Y132926D01*
X70339Y133176D01*
X70239Y133418D01*
X70118Y133650D01*
X69977Y133871D01*
X69818Y134078D01*
X69641Y134271D01*
X69448Y134448D01*
X69241Y134607D01*
X69020Y134748D01*
X68788Y134869D01*
X68546Y134969D01*
X68296Y135048D01*
X68041Y135104D01*
X67781Y135139D01*
X67520Y135150D01*
X56520Y135150D01*
X56259Y135139D01*
X55999Y135104D01*
X55744Y135048D01*
X55494Y134969D01*
X55252Y134869D01*
X55020Y134748D01*
X54799Y134607D01*
X54592Y134448D01*
X54399Y134271D01*
X54222Y134078D01*
X54063Y133871D01*
X53922Y133650D01*
X53801Y133418D01*
X53701Y133176D01*
X53622Y132926D01*
X53566Y132671D01*
X53531Y132411D01*
X53520Y132150D01*
X13320Y132150D02*
X13331Y131889D01*
X13366Y131629D01*
X13422Y131374D01*
X13501Y131124D01*
X13601Y130882D01*
X13722Y130650D01*
X13863Y130429D01*
X14022Y130222D01*
X14199Y130029D01*
X14392Y129852D01*
X14599Y129693D01*
X14820Y129552D01*
X15052Y129431D01*
X15294Y129331D01*
X15544Y129252D01*
X15799Y129196D01*
X16059Y129161D01*
X16320Y129150D01*
X24320Y129150D01*
X24581Y129161D01*
X24841Y129196D01*
X25096Y129252D01*
X25346Y129331D01*
X25588Y129431D01*
X25820Y129552D01*
X26041Y129693D01*
X26248Y129852D01*
X26441Y130029D01*
X26618Y130222D01*
X26777Y130429D01*
X26918Y130650D01*
X27039Y130882D01*
X27139Y131124D01*
X27218Y131374D01*
X27274Y131629D01*
X27309Y131889D01*
X27320Y132150D01*
X27309Y132411D01*
X27274Y132671D01*
X27218Y132926D01*
X27139Y133176D01*
X27039Y133418D01*
X26918Y133650D01*
X26777Y133871D01*
X26618Y134078D01*
X26441Y134271D01*
X26248Y134448D01*
X26041Y134607D01*
X25820Y134748D01*
X25588Y134869D01*
X25346Y134969D01*
X25096Y135048D01*
X24841Y135104D01*
X24581Y135139D01*
X24320Y135150D01*
X16320Y135150D01*
X16059Y135139D01*
X15799Y135104D01*
X15544Y135048D01*
X15294Y134969D01*
X15052Y134869D01*
X14820Y134748D01*
X14599Y134607D01*
X14392Y134448D01*
X14199Y134271D01*
X14022Y134078D01*
X13863Y133871D01*
X13722Y133650D01*
X13601Y133418D01*
X13501Y133176D01*
X13422Y132926D01*
X13366Y132671D01*
X13331Y132411D01*
X13320Y132150D01*
X13320Y45650D02*
X13331Y45389D01*
X13366Y45129D01*
X13422Y44874D01*
X13501Y44624D01*
X13601Y44382D01*
X13722Y44150D01*
X13863Y43929D01*
X14022Y43722D01*
X14199Y43529D01*
X14392Y43352D01*
X14599Y43193D01*
X14820Y43052D01*
X15052Y42931D01*
X15294Y42831D01*
X15544Y42752D01*
X15799Y42696D01*
X16059Y42661D01*
X16320Y42650D01*
X24320Y42650D01*
X24581Y42661D01*
X24841Y42696D01*
X25096Y42752D01*
X25346Y42831D01*
X25588Y42931D01*
X25820Y43052D01*
X26041Y43193D01*
X26248Y43352D01*
X26441Y43529D01*
X26618Y43722D01*
X26777Y43929D01*
X26918Y44150D01*
X27039Y44382D01*
X27139Y44624D01*
X27218Y44874D01*
X27274Y45129D01*
X27309Y45389D01*
X27320Y45650D01*
X27309Y45911D01*
X27274Y46171D01*
X27218Y46426D01*
X27139Y46676D01*
X27039Y46918D01*
X26918Y47150D01*
X26777Y47371D01*
X26618Y47578D01*
X26441Y47771D01*
X26248Y47948D01*
X26041Y48107D01*
X25820Y48248D01*
X25588Y48369D01*
X25346Y48469D01*
X25096Y48548D01*
X24841Y48604D01*
X24581Y48639D01*
X24320Y48650D01*
X16320Y48650D01*
X16059Y48639D01*
X15799Y48604D01*
X15544Y48548D01*
X15294Y48469D01*
X15052Y48369D01*
X14820Y48248D01*
X14599Y48107D01*
X14392Y47948D01*
X14199Y47771D01*
X14022Y47578D01*
X13863Y47371D01*
X13722Y47150D01*
X13601Y46918D01*
X13501Y46676D01*
X13422Y46426D01*
X13366Y46171D01*
X13331Y45911D01*
X13320Y45650D01*
X739740Y270440D02*
X739751Y270179D01*
X739786Y269919D01*
X739842Y269664D01*
X739921Y269414D01*
X740021Y269172D01*
X740142Y268940D01*
X740283Y268719D01*
X740442Y268512D01*
X740619Y268319D01*
X740812Y268142D01*
X741019Y267983D01*
X741240Y267842D01*
X741472Y267721D01*
X741714Y267621D01*
X741964Y267542D01*
X742219Y267486D01*
X742479Y267451D01*
X742740Y267440D01*
X753740Y267440D01*
X754001Y267451D01*
X754261Y267486D01*
X754516Y267542D01*
X754766Y267621D01*
X755008Y267721D01*
X755240Y267842D01*
X755461Y267983D01*
X755668Y268142D01*
X755861Y268319D01*
X756038Y268512D01*
X756197Y268719D01*
X756338Y268940D01*
X756459Y269172D01*
X756559Y269414D01*
X756638Y269664D01*
X756694Y269919D01*
X756729Y270179D01*
X756740Y270440D01*
X756729Y270701D01*
X756694Y270961D01*
X756638Y271216D01*
X756559Y271466D01*
X756459Y271708D01*
X756338Y271940D01*
X756197Y272161D01*
X756038Y272368D01*
X755861Y272561D01*
X755668Y272738D01*
X755461Y272897D01*
X755240Y273038D01*
X755008Y273159D01*
X754766Y273259D01*
X754516Y273338D01*
X754261Y273394D01*
X754001Y273429D01*
X753740Y273440D01*
X742740Y273440D01*
X742479Y273429D01*
X742219Y273394D01*
X741964Y273338D01*
X741714Y273259D01*
X741472Y273159D01*
X741240Y273038D01*
X741019Y272897D01*
X740812Y272738D01*
X740619Y272561D01*
X740442Y272368D01*
X740283Y272161D01*
X740142Y271940D01*
X740021Y271708D01*
X739921Y271466D01*
X739842Y271216D01*
X739786Y270961D01*
X739751Y270701D01*
X739740Y270440D01*
X739740Y356940D02*
X739751Y356679D01*
X739786Y356419D01*
X739842Y356164D01*
X739921Y355914D01*
X740021Y355672D01*
X740142Y355440D01*
X740283Y355219D01*
X740442Y355012D01*
X740619Y354819D01*
X740812Y354642D01*
X741019Y354483D01*
X741240Y354342D01*
X741472Y354221D01*
X741714Y354121D01*
X741964Y354042D01*
X742219Y353986D01*
X742479Y353951D01*
X742740Y353940D01*
X753740Y353940D01*
X754001Y353951D01*
X754261Y353986D01*
X754516Y354042D01*
X754766Y354121D01*
X755008Y354221D01*
X755240Y354342D01*
X755461Y354483D01*
X755668Y354642D01*
X755861Y354819D01*
X756038Y355012D01*
X756197Y355219D01*
X756338Y355440D01*
X756459Y355672D01*
X756559Y355914D01*
X756638Y356164D01*
X756694Y356419D01*
X756729Y356679D01*
X756740Y356940D01*
X756729Y357201D01*
X756694Y357461D01*
X756638Y357716D01*
X756559Y357966D01*
X756459Y358208D01*
X756338Y358440D01*
X756197Y358661D01*
X756038Y358868D01*
X755861Y359061D01*
X755668Y359238D01*
X755461Y359397D01*
X755240Y359538D01*
X755008Y359659D01*
X754766Y359759D01*
X754516Y359838D01*
X754261Y359894D01*
X754001Y359929D01*
X753740Y359940D01*
X742740Y359940D01*
X742479Y359929D01*
X742219Y359894D01*
X741964Y359838D01*
X741714Y359759D01*
X741472Y359659D01*
X741240Y359538D01*
X741019Y359397D01*
X740812Y359238D01*
X740619Y359061D01*
X740442Y358868D01*
X740283Y358661D01*
X740142Y358440D01*
X740021Y358208D01*
X739921Y357966D01*
X739842Y357716D01*
X739786Y357461D01*
X739751Y357201D01*
X739740Y356940D01*
X782940Y270440D02*
X782951Y270179D01*
X782986Y269919D01*
X783042Y269664D01*
X783121Y269414D01*
X783221Y269172D01*
X783342Y268940D01*
X783483Y268719D01*
X783642Y268512D01*
X783819Y268319D01*
X784012Y268142D01*
X784219Y267983D01*
X784440Y267842D01*
X784672Y267721D01*
X784914Y267621D01*
X785164Y267542D01*
X785419Y267486D01*
X785679Y267451D01*
X785940Y267440D01*
X793940Y267440D01*
X794201Y267451D01*
X794461Y267486D01*
X794716Y267542D01*
X794966Y267621D01*
X795208Y267721D01*
X795440Y267842D01*
X795661Y267983D01*
X795868Y268142D01*
X796061Y268319D01*
X796238Y268512D01*
X796397Y268719D01*
X796538Y268940D01*
X796659Y269172D01*
X796759Y269414D01*
X796838Y269664D01*
X796894Y269919D01*
X796929Y270179D01*
X796940Y270440D01*
X796929Y270701D01*
X796894Y270961D01*
X796838Y271216D01*
X796759Y271466D01*
X796659Y271708D01*
X796538Y271940D01*
X796397Y272161D01*
X796238Y272368D01*
X796061Y272561D01*
X795868Y272738D01*
X795661Y272897D01*
X795440Y273038D01*
X795208Y273159D01*
X794966Y273259D01*
X794716Y273338D01*
X794461Y273394D01*
X794201Y273429D01*
X793940Y273440D01*
X785940Y273440D01*
X785679Y273429D01*
X785419Y273394D01*
X785164Y273338D01*
X784914Y273259D01*
X784672Y273159D01*
X784440Y273038D01*
X784219Y272897D01*
X784012Y272738D01*
X783819Y272561D01*
X783642Y272368D01*
X783483Y272161D01*
X783342Y271940D01*
X783221Y271708D01*
X783121Y271466D01*
X783042Y271216D01*
X782986Y270961D01*
X782951Y270701D01*
X782940Y270440D01*
X780400Y760800D02*
X780411Y760539D01*
X780446Y760279D01*
X780502Y760024D01*
X780581Y759774D01*
X780681Y759532D01*
X780802Y759300D01*
X780943Y759079D01*
X781102Y758872D01*
X781279Y758679D01*
X781472Y758502D01*
X781679Y758343D01*
X781900Y758202D01*
X782132Y758081D01*
X782374Y757981D01*
X782624Y757902D01*
X782879Y757846D01*
X783139Y757811D01*
X783400Y757800D01*
X791400Y757800D01*
X791661Y757811D01*
X791921Y757846D01*
X792176Y757902D01*
X792426Y757981D01*
X792668Y758081D01*
X792900Y758202D01*
X793121Y758343D01*
X793328Y758502D01*
X793521Y758679D01*
X793698Y758872D01*
X793857Y759079D01*
X793998Y759300D01*
X794119Y759532D01*
X794219Y759774D01*
X794298Y760024D01*
X794354Y760279D01*
X794389Y760539D01*
X794400Y760800D01*
X794389Y761061D01*
X794354Y761321D01*
X794298Y761576D01*
X794219Y761826D01*
X794119Y762068D01*
X793998Y762300D01*
X793857Y762521D01*
X793698Y762728D01*
X793521Y762921D01*
X793328Y763098D01*
X793121Y763257D01*
X792900Y763398D01*
X792668Y763519D01*
X792426Y763619D01*
X792176Y763698D01*
X791921Y763754D01*
X791661Y763789D01*
X791400Y763800D01*
X783400Y763800D01*
X783139Y763789D01*
X782879Y763754D01*
X782624Y763698D01*
X782374Y763619D01*
X782132Y763519D01*
X781900Y763398D01*
X781679Y763257D01*
X781472Y763098D01*
X781279Y762921D01*
X781102Y762728D01*
X780943Y762521D01*
X780802Y762300D01*
X780681Y762068D01*
X780581Y761826D01*
X780502Y761576D01*
X780446Y761321D01*
X780411Y761061D01*
X780400Y760800D01*
X780400Y674300D02*
X780411Y674039D01*
X780446Y673779D01*
X780502Y673524D01*
X780581Y673274D01*
X780681Y673032D01*
X780802Y672800D01*
X780943Y672579D01*
X781102Y672372D01*
X781279Y672179D01*
X781472Y672002D01*
X781679Y671843D01*
X781900Y671702D01*
X782132Y671581D01*
X782374Y671481D01*
X782624Y671402D01*
X782879Y671346D01*
X783139Y671311D01*
X783400Y671300D01*
X791400Y671300D01*
X791661Y671311D01*
X791921Y671346D01*
X792176Y671402D01*
X792426Y671481D01*
X792668Y671581D01*
X792900Y671702D01*
X793121Y671843D01*
X793328Y672002D01*
X793521Y672179D01*
X793698Y672372D01*
X793857Y672579D01*
X793998Y672800D01*
X794119Y673032D01*
X794219Y673274D01*
X794298Y673524D01*
X794354Y673779D01*
X794389Y674039D01*
X794400Y674300D01*
X794389Y674561D01*
X794354Y674821D01*
X794298Y675076D01*
X794219Y675326D01*
X794119Y675568D01*
X793998Y675800D01*
X793857Y676021D01*
X793698Y676228D01*
X793521Y676421D01*
X793328Y676598D01*
X793121Y676757D01*
X792900Y676898D01*
X792668Y677019D01*
X792426Y677119D01*
X792176Y677198D01*
X791921Y677254D01*
X791661Y677289D01*
X791400Y677300D01*
X783400Y677300D01*
X783139Y677289D01*
X782879Y677254D01*
X782624Y677198D01*
X782374Y677119D01*
X782132Y677019D01*
X781900Y676898D01*
X781679Y676757D01*
X781472Y676598D01*
X781279Y676421D01*
X781102Y676228D01*
X780943Y676021D01*
X780802Y675800D01*
X780681Y675568D01*
X780581Y675326D01*
X780502Y675076D01*
X780446Y674821D01*
X780411Y674561D01*
X780400Y674300D01*
X737200Y760800D02*
X737211Y760539D01*
X737246Y760279D01*
X737302Y760024D01*
X737381Y759774D01*
X737481Y759532D01*
X737602Y759300D01*
X737743Y759079D01*
X737902Y758872D01*
X738079Y758679D01*
X738272Y758502D01*
X738479Y758343D01*
X738700Y758202D01*
X738932Y758081D01*
X739174Y757981D01*
X739424Y757902D01*
X739679Y757846D01*
X739939Y757811D01*
X740200Y757800D01*
X751200Y757800D01*
X751461Y757811D01*
X751721Y757846D01*
X751976Y757902D01*
X752226Y757981D01*
X752468Y758081D01*
X752700Y758202D01*
X752921Y758343D01*
X753128Y758502D01*
X753321Y758679D01*
X753498Y758872D01*
X753657Y759079D01*
X753798Y759300D01*
X753919Y759532D01*
X754019Y759774D01*
X754098Y760024D01*
X754154Y760279D01*
X754189Y760539D01*
X754200Y760800D01*
X754189Y761061D01*
X754154Y761321D01*
X754098Y761576D01*
X754019Y761826D01*
X753919Y762068D01*
X753798Y762300D01*
X753657Y762521D01*
X753498Y762728D01*
X753321Y762921D01*
X753128Y763098D01*
X752921Y763257D01*
X752700Y763398D01*
X752468Y763519D01*
X752226Y763619D01*
X751976Y763698D01*
X751721Y763754D01*
X751461Y763789D01*
X751200Y763800D01*
X740200Y763800D01*
X739939Y763789D01*
X739679Y763754D01*
X739424Y763698D01*
X739174Y763619D01*
X738932Y763519D01*
X738700Y763398D01*
X738479Y763257D01*
X738272Y763098D01*
X738079Y762921D01*
X737902Y762728D01*
X737743Y762521D01*
X737602Y762300D01*
X737481Y762068D01*
X737381Y761826D01*
X737302Y761576D01*
X737246Y761321D01*
X737211Y761061D01*
X737200Y760800D01*
X737200Y674300D02*
X737211Y674039D01*
X737246Y673779D01*
X737302Y673524D01*
X737381Y673274D01*
X737481Y673032D01*
X737602Y672800D01*
X737743Y672579D01*
X737902Y672372D01*
X738079Y672179D01*
X738272Y672002D01*
X738479Y671843D01*
X738700Y671702D01*
X738932Y671581D01*
X739174Y671481D01*
X739424Y671402D01*
X739679Y671346D01*
X739939Y671311D01*
X740200Y671300D01*
X751200Y671300D01*
X751461Y671311D01*
X751721Y671346D01*
X751976Y671402D01*
X752226Y671481D01*
X752468Y671581D01*
X752700Y671702D01*
X752921Y671843D01*
X753128Y672002D01*
X753321Y672179D01*
X753498Y672372D01*
X753657Y672579D01*
X753798Y672800D01*
X753919Y673032D01*
X754019Y673274D01*
X754098Y673524D01*
X754154Y673779D01*
X754189Y674039D01*
X754200Y674300D01*
X754189Y674561D01*
X754154Y674821D01*
X754098Y675076D01*
X754019Y675326D01*
X753919Y675568D01*
X753798Y675800D01*
X753657Y676021D01*
X753498Y676228D01*
X753321Y676421D01*
X753128Y676598D01*
X752921Y676757D01*
X752700Y676898D01*
X752468Y677019D01*
X752226Y677119D01*
X751976Y677198D01*
X751721Y677254D01*
X751461Y677289D01*
X751200Y677300D01*
X740200Y677300D01*
X739939Y677289D01*
X739679Y677254D01*
X739424Y677198D01*
X739174Y677119D01*
X738932Y677019D01*
X738700Y676898D01*
X738479Y676757D01*
X738272Y676598D01*
X738079Y676421D01*
X737902Y676228D01*
X737743Y676021D01*
X737602Y675800D01*
X737481Y675568D01*
X737381Y675326D01*
X737302Y675076D01*
X737246Y674821D01*
X737211Y674561D01*
X737200Y674300D01*
X53520Y534740D02*
X53531Y534479D01*
X53566Y534219D01*
X53622Y533964D01*
X53701Y533714D01*
X53801Y533472D01*
X53922Y533240D01*
X54063Y533019D01*
X54222Y532812D01*
X54399Y532619D01*
X54592Y532442D01*
X54799Y532283D01*
X55020Y532142D01*
X55252Y532021D01*
X55494Y531921D01*
X55744Y531842D01*
X55999Y531786D01*
X56259Y531751D01*
X56520Y531740D01*
X67520Y531740D01*
X67781Y531751D01*
X68041Y531786D01*
X68296Y531842D01*
X68546Y531921D01*
X68788Y532021D01*
X69020Y532142D01*
X69241Y532283D01*
X69448Y532442D01*
X69641Y532619D01*
X69818Y532812D01*
X69977Y533019D01*
X70118Y533240D01*
X70239Y533472D01*
X70339Y533714D01*
X70418Y533964D01*
X70474Y534219D01*
X70509Y534479D01*
X70520Y534740D01*
X70509Y535001D01*
X70474Y535261D01*
X70418Y535516D01*
X70339Y535766D01*
X70239Y536008D01*
X70118Y536240D01*
X69977Y536461D01*
X69818Y536668D01*
X69641Y536861D01*
X69448Y537038D01*
X69241Y537197D01*
X69020Y537338D01*
X68788Y537459D01*
X68546Y537559D01*
X68296Y537638D01*
X68041Y537694D01*
X67781Y537729D01*
X67520Y537740D01*
X56520Y537740D01*
X56259Y537729D01*
X55999Y537694D01*
X55744Y537638D01*
X55494Y537559D01*
X55252Y537459D01*
X55020Y537338D01*
X54799Y537197D01*
X54592Y537038D01*
X54399Y536861D01*
X54222Y536668D01*
X54063Y536461D01*
X53922Y536240D01*
X53801Y536008D01*
X53701Y535766D01*
X53622Y535516D01*
X53566Y535261D01*
X53531Y535001D01*
X53520Y534740D01*
X53520Y448240D02*
X53531Y447979D01*
X53566Y447719D01*
X53622Y447464D01*
X53701Y447214D01*
X53801Y446972D01*
X53922Y446740D01*
X54063Y446519D01*
X54222Y446312D01*
X54399Y446119D01*
X54592Y445942D01*
X54799Y445783D01*
X55020Y445642D01*
X55252Y445521D01*
X55494Y445421D01*
X55744Y445342D01*
X55999Y445286D01*
X56259Y445251D01*
X56520Y445240D01*
X67520Y445240D01*
X67781Y445251D01*
X68041Y445286D01*
X68296Y445342D01*
X68546Y445421D01*
X68788Y445521D01*
X69020Y445642D01*
X69241Y445783D01*
X69448Y445942D01*
X69641Y446119D01*
X69818Y446312D01*
X69977Y446519D01*
X70118Y446740D01*
X70239Y446972D01*
X70339Y447214D01*
X70418Y447464D01*
X70474Y447719D01*
X70509Y447979D01*
X70520Y448240D01*
X70509Y448501D01*
X70474Y448761D01*
X70418Y449016D01*
X70339Y449266D01*
X70239Y449508D01*
X70118Y449740D01*
X69977Y449961D01*
X69818Y450168D01*
X69641Y450361D01*
X69448Y450538D01*
X69241Y450697D01*
X69020Y450838D01*
X68788Y450959D01*
X68546Y451059D01*
X68296Y451138D01*
X68041Y451194D01*
X67781Y451229D01*
X67520Y451240D01*
X56520Y451240D01*
X56259Y451229D01*
X55999Y451194D01*
X55744Y451138D01*
X55494Y451059D01*
X55252Y450959D01*
X55020Y450838D01*
X54799Y450697D01*
X54592Y450538D01*
X54399Y450361D01*
X54222Y450168D01*
X54063Y449961D01*
X53922Y449740D01*
X53801Y449508D01*
X53701Y449266D01*
X53622Y449016D01*
X53566Y448761D01*
X53531Y448501D01*
X53520Y448240D01*
X13320Y534740D02*
X13331Y534479D01*
X13366Y534219D01*
X13422Y533964D01*
X13501Y533714D01*
X13601Y533472D01*
X13722Y533240D01*
X13863Y533019D01*
X14022Y532812D01*
X14199Y532619D01*
X14392Y532442D01*
X14599Y532283D01*
X14820Y532142D01*
X15052Y532021D01*
X15294Y531921D01*
X15544Y531842D01*
X15799Y531786D01*
X16059Y531751D01*
X16320Y531740D01*
X24320Y531740D01*
X24581Y531751D01*
X24841Y531786D01*
X25096Y531842D01*
X25346Y531921D01*
X25588Y532021D01*
X25820Y532142D01*
X26041Y532283D01*
X26248Y532442D01*
X26441Y532619D01*
X26618Y532812D01*
X26777Y533019D01*
X26918Y533240D01*
X27039Y533472D01*
X27139Y533714D01*
X27218Y533964D01*
X27274Y534219D01*
X27309Y534479D01*
X27320Y534740D01*
X27309Y535001D01*
X27274Y535261D01*
X27218Y535516D01*
X27139Y535766D01*
X27039Y536008D01*
X26918Y536240D01*
X26777Y536461D01*
X26618Y536668D01*
X26441Y536861D01*
X26248Y537038D01*
X26041Y537197D01*
X25820Y537338D01*
X25588Y537459D01*
X25346Y537559D01*
X25096Y537638D01*
X24841Y537694D01*
X24581Y537729D01*
X24320Y537740D01*
X16320Y537740D01*
X16059Y537729D01*
X15799Y537694D01*
X15544Y537638D01*
X15294Y537559D01*
X15052Y537459D01*
X14820Y537338D01*
X14599Y537197D01*
X14392Y537038D01*
X14199Y536861D01*
X14022Y536668D01*
X13863Y536461D01*
X13722Y536240D01*
X13601Y536008D01*
X13501Y535766D01*
X13422Y535516D01*
X13366Y535261D01*
X13331Y535001D01*
X13320Y534740D01*
X13320Y448240D02*
X13331Y447979D01*
X13366Y447719D01*
X13422Y447464D01*
X13501Y447214D01*
X13601Y446972D01*
X13722Y446740D01*
X13863Y446519D01*
X14022Y446312D01*
X14199Y446119D01*
X14392Y445942D01*
X14599Y445783D01*
X14820Y445642D01*
X15052Y445521D01*
X15294Y445421D01*
X15544Y445342D01*
X15799Y445286D01*
X16059Y445251D01*
X16320Y445240D01*
X24320Y445240D01*
X24581Y445251D01*
X24841Y445286D01*
X25096Y445342D01*
X25346Y445421D01*
X25588Y445521D01*
X25820Y445642D01*
X26041Y445783D01*
X26248Y445942D01*
X26441Y446119D01*
X26618Y446312D01*
X26777Y446519D01*
X26918Y446740D01*
X27039Y446972D01*
X27139Y447214D01*
X27218Y447464D01*
X27274Y447719D01*
X27309Y447979D01*
X27320Y448240D01*
X27309Y448501D01*
X27274Y448761D01*
X27218Y449016D01*
X27139Y449266D01*
X27039Y449508D01*
X26918Y449740D01*
X26777Y449961D01*
X26618Y450168D01*
X26441Y450361D01*
X26248Y450538D01*
X26041Y450697D01*
X25820Y450838D01*
X25588Y450959D01*
X25346Y451059D01*
X25096Y451138D01*
X24841Y451194D01*
X24581Y451229D01*
X24320Y451240D01*
X16320Y451240D01*
X16059Y451229D01*
X15799Y451194D01*
X15544Y451138D01*
X15294Y451059D01*
X15052Y450959D01*
X14820Y450838D01*
X14599Y450697D01*
X14392Y450538D01*
X14199Y450361D01*
X14022Y450168D01*
X13863Y449961D01*
X13722Y449740D01*
X13601Y449508D01*
X13501Y449266D01*
X13422Y449016D01*
X13366Y448761D01*
X13331Y448501D01*
X13320Y448240D01*
X478790Y396240D02*
X732790Y396240D01*
X732790Y405130D01*
X478790Y405130D01*
X478790Y396240D01*
X355600Y401320D02*
X368300Y401320D01*
X370894Y401040D01*
X373454Y400536D01*
X375960Y399810D01*
X378393Y398869D01*
X380735Y397719D01*
X382967Y396369D01*
X385074Y394830D01*
X387038Y393113D01*
X388846Y391232D01*
X390482Y389200D01*
X391935Y387033D01*
X393194Y384748D01*
X394249Y382362D01*
X395092Y379892D01*
X395716Y377359D01*
X396117Y374781D01*
X396292Y372178D01*
X396240Y369570D01*
X396240Y354330D01*
X414020Y354330D01*
X414020Y358140D01*
X413992Y361302D01*
X414239Y364454D01*
X414760Y367573D01*
X415551Y370634D01*
X416606Y373615D01*
X417917Y376493D01*
X419473Y379245D01*
X421264Y381851D01*
X423274Y384292D01*
X425490Y386547D01*
X427894Y388602D01*
X430468Y390438D01*
X433192Y392044D01*
X436045Y393406D01*
X439007Y394514D01*
X442054Y395359D01*
X445163Y395936D01*
X448310Y396240D01*
X449580Y396240D01*
X449580Y405130D01*
X439420Y405130D01*
X436826Y405410D01*
X434266Y405914D01*
X431760Y406640D01*
X429327Y407581D01*
X426985Y408731D01*
X424753Y410081D01*
X422646Y411620D01*
X420682Y413337D01*
X418874Y415218D01*
X417238Y417250D01*
X415785Y419417D01*
X414526Y421702D01*
X413471Y424088D01*
X412628Y426558D01*
X412004Y429091D01*
X411603Y431669D01*
X411428Y434272D01*
X411480Y436880D01*
X411480Y464820D01*
X396240Y464820D01*
X396240Y447040D01*
X396268Y443878D01*
X396021Y440726D01*
X395500Y437607D01*
X394709Y434546D01*
X393654Y431565D01*
X392343Y428687D01*
X390787Y425935D01*
X388997Y423329D01*
X386986Y420888D01*
X384770Y418633D01*
X382366Y416578D01*
X379792Y414742D01*
X377068Y413136D01*
X374215Y411774D01*
X371253Y410666D01*
X368206Y409821D01*
X365097Y409244D01*
X361950Y408940D01*
X355600Y408940D01*
X355600Y401320D01*
X396240Y496570D02*
X411480Y496570D01*
X411480Y720090D01*
X396240Y720090D01*
X396240Y496570D01*
X396240Y93980D02*
X414020Y93980D01*
X414020Y314960D01*
X396240Y314960D01*
X396240Y93980D01*
X73660Y401320D02*
X323850Y401320D01*
X323850Y408940D01*
X73660Y408940D01*
X73660Y401320D01*
X9879Y215690D02*
X9321Y215753D01*
X8774Y215878D01*
X8244Y216063D01*
X7738Y216307D01*
X7262Y216606D01*
X6823Y216956D01*
X6426Y217353D01*
X6076Y217792D01*
X5777Y218268D01*
X5533Y218774D01*
X5348Y219304D01*
X5223Y219851D01*
X5160Y220409D01*
X5160Y220971D01*
X5223Y221529D01*
X5348Y222076D01*
X5533Y222606D01*
X5777Y223112D01*
X6076Y223588D01*
X6426Y224027D01*
X6823Y224424D01*
X7262Y224774D01*
X7738Y225073D01*
X8244Y225317D01*
X8774Y225502D01*
X9321Y225627D01*
X9879Y225690D01*
X10441Y225690D01*
X10999Y225627D01*
X11546Y225502D01*
X12076Y225317D01*
X12582Y225073D01*
X13058Y224774D01*
X13497Y224424D01*
X13894Y224027D01*
X14244Y223588D01*
X14543Y223112D01*
X14787Y222606D01*
X14972Y222076D01*
X15097Y221529D01*
X15160Y220971D01*
X15160Y220409D01*
X15097Y219851D01*
X14972Y219304D01*
X14787Y218774D01*
X14543Y218268D01*
X14244Y217792D01*
X13894Y217353D01*
X13497Y216956D01*
X13058Y216606D01*
X12582Y216307D01*
X12076Y216063D01*
X11546Y215878D01*
X10999Y215753D01*
X10441Y215690D01*
X9879Y215690D01*
X9879Y147690D02*
X9321Y147753D01*
X8774Y147878D01*
X8244Y148063D01*
X7738Y148307D01*
X7262Y148606D01*
X6823Y148956D01*
X6426Y149353D01*
X6076Y149792D01*
X5777Y150268D01*
X5533Y150774D01*
X5348Y151304D01*
X5223Y151851D01*
X5160Y152409D01*
X5160Y152971D01*
X5223Y153529D01*
X5348Y154076D01*
X5533Y154606D01*
X5777Y155112D01*
X6076Y155588D01*
X6426Y156027D01*
X6823Y156424D01*
X7262Y156774D01*
X7738Y157073D01*
X8244Y157317D01*
X8774Y157502D01*
X9321Y157627D01*
X9879Y157690D01*
X10441Y157690D01*
X10999Y157627D01*
X11546Y157502D01*
X12076Y157317D01*
X12582Y157073D01*
X13058Y156774D01*
X13497Y156424D01*
X13894Y156027D01*
X14244Y155588D01*
X14543Y155112D01*
X14787Y154606D01*
X14972Y154076D01*
X15097Y153529D01*
X15160Y152971D01*
X15160Y152409D01*
X15097Y151851D01*
X14972Y151304D01*
X14787Y150774D01*
X14543Y150268D01*
X14244Y149792D01*
X13894Y149353D01*
X13497Y148956D01*
X13058Y148606D01*
X12582Y148307D01*
X12076Y148063D01*
X11546Y147878D01*
X10999Y147753D01*
X10441Y147690D01*
X9879Y147690D01*
X56884Y114800D02*
X56418Y114874D01*
X55968Y115020D01*
X55548Y115234D01*
X55166Y115512D01*
X54832Y115846D01*
X54554Y116228D01*
X54340Y116648D01*
X54194Y117098D01*
X54120Y117564D01*
X54120Y118036D01*
X54194Y118503D01*
X54340Y118952D01*
X54554Y119372D01*
X54832Y119754D01*
X55166Y120088D01*
X55548Y120366D01*
X55968Y120580D01*
X56418Y120726D01*
X56884Y120800D01*
X57356Y120800D01*
X57823Y120726D01*
X58272Y120580D01*
X58692Y120366D01*
X59074Y120088D01*
X59408Y119754D01*
X59686Y119372D01*
X59900Y118952D01*
X60046Y118503D01*
X60120Y118036D01*
X60120Y117564D01*
X60046Y117098D01*
X59900Y116648D01*
X59686Y116228D01*
X59408Y115846D01*
X59074Y115512D01*
X58692Y115234D01*
X58272Y115020D01*
X57823Y114874D01*
X57356Y114800D01*
X56884Y114800D01*
X56884Y57000D02*
X56418Y57074D01*
X55968Y57220D01*
X55548Y57434D01*
X55166Y57712D01*
X54832Y58046D01*
X54554Y58428D01*
X54340Y58848D01*
X54194Y59298D01*
X54120Y59764D01*
X54120Y60236D01*
X54194Y60703D01*
X54340Y61152D01*
X54554Y61572D01*
X54832Y61954D01*
X55166Y62288D01*
X55548Y62566D01*
X55968Y62780D01*
X56418Y62926D01*
X56884Y63000D01*
X57356Y63000D01*
X57823Y62926D01*
X58272Y62780D01*
X58692Y62566D01*
X59074Y62288D01*
X59408Y61954D01*
X59686Y61572D01*
X59900Y61152D01*
X60046Y60703D01*
X60120Y60236D01*
X60120Y59764D01*
X60046Y59298D01*
X59900Y58848D01*
X59686Y58428D01*
X59408Y58046D01*
X59074Y57712D01*
X58692Y57434D01*
X58272Y57220D01*
X57823Y57074D01*
X57356Y57000D01*
X56884Y57000D01*
X9879Y618280D02*
X9321Y618343D01*
X8774Y618468D01*
X8244Y618653D01*
X7738Y618897D01*
X7262Y619196D01*
X6823Y619546D01*
X6426Y619943D01*
X6076Y620382D01*
X5777Y620858D01*
X5533Y621364D01*
X5348Y621894D01*
X5223Y622441D01*
X5160Y622999D01*
X5160Y623561D01*
X5223Y624119D01*
X5348Y624666D01*
X5533Y625196D01*
X5777Y625702D01*
X6076Y626178D01*
X6426Y626617D01*
X6823Y627014D01*
X7262Y627364D01*
X7738Y627663D01*
X8244Y627907D01*
X8774Y628092D01*
X9321Y628217D01*
X9879Y628280D01*
X10441Y628280D01*
X10999Y628217D01*
X11546Y628092D01*
X12076Y627907D01*
X12582Y627663D01*
X13058Y627364D01*
X13497Y627014D01*
X13894Y626617D01*
X14244Y626178D01*
X14543Y625702D01*
X14787Y625196D01*
X14972Y624666D01*
X15097Y624119D01*
X15160Y623561D01*
X15160Y622999D01*
X15097Y622441D01*
X14972Y621894D01*
X14787Y621364D01*
X14543Y620858D01*
X14244Y620382D01*
X13894Y619943D01*
X13497Y619546D01*
X13058Y619196D01*
X12582Y618897D01*
X12076Y618653D01*
X11546Y618468D01*
X10999Y618343D01*
X10441Y618280D01*
X9879Y618280D01*
X9879Y550280D02*
X9321Y550343D01*
X8774Y550468D01*
X8244Y550653D01*
X7738Y550897D01*
X7262Y551196D01*
X6823Y551546D01*
X6426Y551943D01*
X6076Y552382D01*
X5777Y552858D01*
X5533Y553364D01*
X5348Y553894D01*
X5223Y554441D01*
X5160Y554999D01*
X5160Y555561D01*
X5223Y556119D01*
X5348Y556666D01*
X5533Y557196D01*
X5777Y557702D01*
X6076Y558178D01*
X6426Y558617D01*
X6823Y559014D01*
X7262Y559364D01*
X7738Y559663D01*
X8244Y559907D01*
X8774Y560092D01*
X9321Y560217D01*
X9879Y560280D01*
X10441Y560280D01*
X10999Y560217D01*
X11546Y560092D01*
X12076Y559907D01*
X12582Y559663D01*
X13058Y559364D01*
X13497Y559014D01*
X13894Y558617D01*
X14244Y558178D01*
X14543Y557702D01*
X14787Y557196D01*
X14972Y556666D01*
X15097Y556119D01*
X15160Y555561D01*
X15160Y554999D01*
X15097Y554441D01*
X14972Y553894D01*
X14787Y553364D01*
X14543Y552858D01*
X14244Y552382D01*
X13894Y551943D01*
X13497Y551546D01*
X13058Y551196D01*
X12582Y550897D01*
X12076Y550653D01*
X11546Y550468D01*
X10999Y550343D01*
X10441Y550280D01*
X9879Y550280D01*
X56884Y517390D02*
X56418Y517464D01*
X55968Y517610D01*
X55548Y517824D01*
X55166Y518102D01*
X54832Y518436D01*
X54554Y518818D01*
X54340Y519238D01*
X54194Y519688D01*
X54120Y520154D01*
X54120Y520626D01*
X54194Y521093D01*
X54340Y521542D01*
X54554Y521962D01*
X54832Y522344D01*
X55166Y522678D01*
X55548Y522956D01*
X55968Y523170D01*
X56418Y523316D01*
X56884Y523390D01*
X57356Y523390D01*
X57823Y523316D01*
X58272Y523170D01*
X58692Y522956D01*
X59074Y522678D01*
X59408Y522344D01*
X59686Y521962D01*
X59900Y521542D01*
X60046Y521093D01*
X60120Y520626D01*
X60120Y520154D01*
X60046Y519688D01*
X59900Y519238D01*
X59686Y518818D01*
X59408Y518436D01*
X59074Y518102D01*
X58692Y517824D01*
X58272Y517610D01*
X57823Y517464D01*
X57356Y517390D01*
X56884Y517390D01*
X56884Y459590D02*
X56418Y459664D01*
X55968Y459810D01*
X55548Y460024D01*
X55166Y460302D01*
X54832Y460636D01*
X54554Y461018D01*
X54340Y461438D01*
X54194Y461888D01*
X54120Y462354D01*
X54120Y462826D01*
X54194Y463293D01*
X54340Y463742D01*
X54554Y464162D01*
X54832Y464544D01*
X55166Y464878D01*
X55548Y465156D01*
X55968Y465370D01*
X56418Y465516D01*
X56884Y465590D01*
X57356Y465590D01*
X57823Y465516D01*
X58272Y465370D01*
X58692Y465156D01*
X59074Y464878D01*
X59408Y464544D01*
X59686Y464162D01*
X59900Y463742D01*
X60046Y463293D01*
X60120Y462826D01*
X60120Y462354D01*
X60046Y461888D01*
X59900Y461438D01*
X59686Y461018D01*
X59408Y460636D01*
X59074Y460302D01*
X58692Y460024D01*
X58272Y459810D01*
X57823Y459664D01*
X57356Y459590D01*
X56884Y459590D01*
X800381Y186900D02*
X800939Y186837D01*
X801486Y186712D01*
X802016Y186527D01*
X802522Y186283D01*
X802998Y185984D01*
X803437Y185634D01*
X803834Y185237D01*
X804184Y184798D01*
X804483Y184322D01*
X804727Y183816D01*
X804912Y183286D01*
X805037Y182739D01*
X805100Y182181D01*
X805100Y181619D01*
X805037Y181061D01*
X804912Y180514D01*
X804727Y179984D01*
X804483Y179478D01*
X804184Y179002D01*
X803834Y178563D01*
X803437Y178166D01*
X802998Y177816D01*
X802522Y177517D01*
X802016Y177273D01*
X801486Y177088D01*
X800939Y176963D01*
X800381Y176900D01*
X799819Y176900D01*
X799261Y176963D01*
X798714Y177088D01*
X798184Y177273D01*
X797678Y177517D01*
X797202Y177816D01*
X796763Y178166D01*
X796366Y178563D01*
X796016Y179002D01*
X795717Y179478D01*
X795473Y179984D01*
X795288Y180514D01*
X795163Y181061D01*
X795100Y181619D01*
X795100Y182181D01*
X795163Y182739D01*
X795288Y183286D01*
X795473Y183816D01*
X795717Y184322D01*
X796016Y184798D01*
X796366Y185237D01*
X796763Y185634D01*
X797202Y185984D01*
X797678Y186283D01*
X798184Y186527D01*
X798714Y186712D01*
X799261Y186837D01*
X799819Y186900D01*
X800381Y186900D01*
X800381Y254900D02*
X800939Y254837D01*
X801486Y254712D01*
X802016Y254527D01*
X802522Y254283D01*
X802998Y253984D01*
X803437Y253634D01*
X803834Y253237D01*
X804184Y252798D01*
X804483Y252322D01*
X804727Y251816D01*
X804912Y251286D01*
X805037Y250739D01*
X805100Y250181D01*
X805100Y249619D01*
X805037Y249061D01*
X804912Y248514D01*
X804727Y247984D01*
X804483Y247478D01*
X804184Y247002D01*
X803834Y246563D01*
X803437Y246166D01*
X802998Y245816D01*
X802522Y245517D01*
X802016Y245273D01*
X801486Y245088D01*
X800939Y244963D01*
X800381Y244900D01*
X799819Y244900D01*
X799261Y244963D01*
X798714Y245088D01*
X798184Y245273D01*
X797678Y245517D01*
X797202Y245816D01*
X796763Y246166D01*
X796366Y246563D01*
X796016Y247002D01*
X795717Y247478D01*
X795473Y247984D01*
X795288Y248514D01*
X795163Y249061D01*
X795100Y249619D01*
X795100Y250181D01*
X795163Y250739D01*
X795288Y251286D01*
X795473Y251816D01*
X795717Y252322D01*
X796016Y252798D01*
X796366Y253237D01*
X796763Y253634D01*
X797202Y253984D01*
X797678Y254283D01*
X798184Y254527D01*
X798714Y254712D01*
X799261Y254837D01*
X799819Y254900D01*
X800381Y254900D01*
X753376Y287790D02*
X753843Y287716D01*
X754292Y287570D01*
X754712Y287356D01*
X755094Y287078D01*
X755428Y286744D01*
X755706Y286362D01*
X755920Y285942D01*
X756066Y285493D01*
X756140Y285026D01*
X756140Y284554D01*
X756066Y284088D01*
X755920Y283638D01*
X755706Y283218D01*
X755428Y282836D01*
X755094Y282502D01*
X754712Y282224D01*
X754292Y282010D01*
X753843Y281864D01*
X753376Y281790D01*
X752904Y281790D01*
X752438Y281864D01*
X751988Y282010D01*
X751568Y282224D01*
X751186Y282502D01*
X750852Y282836D01*
X750574Y283218D01*
X750360Y283638D01*
X750214Y284088D01*
X750140Y284554D01*
X750140Y285026D01*
X750214Y285493D01*
X750360Y285942D01*
X750574Y286362D01*
X750852Y286744D01*
X751186Y287078D01*
X751568Y287356D01*
X751988Y287570D01*
X752438Y287716D01*
X752904Y287790D01*
X753376Y287790D01*
X753376Y345590D02*
X753843Y345516D01*
X754292Y345370D01*
X754712Y345156D01*
X755094Y344878D01*
X755428Y344544D01*
X755706Y344162D01*
X755920Y343742D01*
X756066Y343293D01*
X756140Y342826D01*
X756140Y342354D01*
X756066Y341888D01*
X755920Y341438D01*
X755706Y341018D01*
X755428Y340636D01*
X755094Y340302D01*
X754712Y340024D01*
X754292Y339810D01*
X753843Y339664D01*
X753376Y339590D01*
X752904Y339590D01*
X752438Y339664D01*
X751988Y339810D01*
X751568Y340024D01*
X751186Y340302D01*
X750852Y340636D01*
X750574Y341018D01*
X750360Y341438D01*
X750214Y341888D01*
X750140Y342354D01*
X750140Y342826D01*
X750214Y343293D01*
X750360Y343742D01*
X750574Y344162D01*
X750852Y344544D01*
X751186Y344878D01*
X751568Y345156D01*
X751988Y345370D01*
X752438Y345516D01*
X752904Y345590D01*
X753376Y345590D01*
X797841Y590760D02*
X798399Y590697D01*
X798946Y590572D01*
X799476Y590387D01*
X799982Y590143D01*
X800458Y589844D01*
X800897Y589494D01*
X801294Y589097D01*
X801644Y588658D01*
X801943Y588182D01*
X802187Y587676D01*
X802372Y587146D01*
X802497Y586599D01*
X802560Y586041D01*
X802560Y585479D01*
X802497Y584921D01*
X802372Y584374D01*
X802187Y583844D01*
X801943Y583338D01*
X801644Y582862D01*
X801294Y582423D01*
X800897Y582026D01*
X800458Y581676D01*
X799982Y581377D01*
X799476Y581133D01*
X798946Y580948D01*
X798399Y580823D01*
X797841Y580760D01*
X797279Y580760D01*
X796721Y580823D01*
X796174Y580948D01*
X795644Y581133D01*
X795138Y581377D01*
X794662Y581676D01*
X794223Y582026D01*
X793826Y582423D01*
X793476Y582862D01*
X793177Y583338D01*
X792933Y583844D01*
X792748Y584374D01*
X792623Y584921D01*
X792560Y585479D01*
X792560Y586041D01*
X792623Y586599D01*
X792748Y587146D01*
X792933Y587676D01*
X793177Y588182D01*
X793476Y588658D01*
X793826Y589097D01*
X794223Y589494D01*
X794662Y589844D01*
X795138Y590143D01*
X795644Y590387D01*
X796174Y590572D01*
X796721Y590697D01*
X797279Y590760D01*
X797841Y590760D01*
X797841Y658760D02*
X798399Y658697D01*
X798946Y658572D01*
X799476Y658387D01*
X799982Y658143D01*
X800458Y657844D01*
X800897Y657494D01*
X801294Y657097D01*
X801644Y656658D01*
X801943Y656182D01*
X802187Y655676D01*
X802372Y655146D01*
X802497Y654599D01*
X802560Y654041D01*
X802560Y653479D01*
X802497Y652921D01*
X802372Y652374D01*
X802187Y651844D01*
X801943Y651338D01*
X801644Y650862D01*
X801294Y650423D01*
X800897Y650026D01*
X800458Y649676D01*
X799982Y649377D01*
X799476Y649133D01*
X798946Y648948D01*
X798399Y648823D01*
X797841Y648760D01*
X797279Y648760D01*
X796721Y648823D01*
X796174Y648948D01*
X795644Y649133D01*
X795138Y649377D01*
X794662Y649676D01*
X794223Y650026D01*
X793826Y650423D01*
X793476Y650862D01*
X793177Y651338D01*
X792933Y651844D01*
X792748Y652374D01*
X792623Y652921D01*
X792560Y653479D01*
X792560Y654041D01*
X792623Y654599D01*
X792748Y655146D01*
X792933Y655676D01*
X793177Y656182D01*
X793476Y656658D01*
X793826Y657097D01*
X794223Y657494D01*
X794662Y657844D01*
X795138Y658143D01*
X795644Y658387D01*
X796174Y658572D01*
X796721Y658697D01*
X797279Y658760D01*
X797841Y658760D01*
X750836Y691650D02*
X751303Y691576D01*
X751752Y691430D01*
X752172Y691216D01*
X752554Y690938D01*
X752888Y690604D01*
X753166Y690222D01*
X753380Y689802D01*
X753526Y689353D01*
X753600Y688886D01*
X753600Y688414D01*
X753526Y687948D01*
X753380Y687498D01*
X753166Y687078D01*
X752888Y686696D01*
X752554Y686362D01*
X752172Y686084D01*
X751752Y685870D01*
X751303Y685724D01*
X750836Y685650D01*
X750364Y685650D01*
X749898Y685724D01*
X749448Y685870D01*
X749028Y686084D01*
X748646Y686362D01*
X748312Y686696D01*
X748034Y687078D01*
X747820Y687498D01*
X747674Y687948D01*
X747600Y688414D01*
X747600Y688886D01*
X747674Y689353D01*
X747820Y689802D01*
X748034Y690222D01*
X748312Y690604D01*
X748646Y690938D01*
X749028Y691216D01*
X749448Y691430D01*
X749898Y691576D01*
X750364Y691650D01*
X750836Y691650D01*
X750836Y749450D02*
X751303Y749376D01*
X751752Y749230D01*
X752172Y749016D01*
X752554Y748738D01*
X752888Y748404D01*
X753166Y748022D01*
X753380Y747602D01*
X753526Y747153D01*
X753600Y746686D01*
X753600Y746214D01*
X753526Y745748D01*
X753380Y745298D01*
X753166Y744878D01*
X752888Y744496D01*
X752554Y744162D01*
X752172Y743884D01*
X751752Y743670D01*
X751303Y743524D01*
X750836Y743450D01*
X750364Y743450D01*
X749898Y743524D01*
X749448Y743670D01*
X749028Y743884D01*
X748646Y744162D01*
X748312Y744496D01*
X748034Y744878D01*
X747820Y745298D01*
X747674Y745748D01*
X747600Y746214D01*
X747600Y746686D01*
X747674Y747153D01*
X747820Y747602D01*
X748034Y748022D01*
X748312Y748404D01*
X748646Y748738D01*
X749028Y749016D01*
X749448Y749230D01*
X749898Y749376D01*
X750364Y749450D01*
X750836Y749450D01*
M02*
