G04 EAGLE Gerber RS-274X export*
G75*
%MOMM*%
%FSLAX34Y34*%
%LPD*%
%INSoldermask Top*%
%IPPOS*%
%AMOC8*
5,1,8,0,0,1.08239X$1,22.5*%
G01*
%ADD10R,1.303200X1.203200*%
%ADD11R,1.103200X2.203200*%
%ADD12R,2.203200X1.103200*%
%ADD13R,1.533200X1.533200*%
%ADD14C,0.911200*%
%ADD15R,1.103200X1.153200*%
%ADD16R,0.853200X1.103200*%
%ADD17R,1.603200X1.103200*%
%ADD18R,1.103200X1.003200*%
%ADD19R,1.003200X1.143200*%
%ADD20R,1.729200X0.638200*%
%ADD21R,1.103200X0.853200*%
%ADD22R,1.143200X1.003200*%
%ADD23R,2.703200X1.403200*%
%ADD24C,1.203200*%
%ADD25R,1.403200X0.753200*%
%ADD26C,0.301600*%
%ADD27C,0.353406*%
%ADD28R,3.505200X2.616200*%
%ADD29R,1.240000X0.400000*%
%ADD30R,1.240000X0.700000*%
%ADD31C,0.803200*%
%ADD32R,1.153200X1.103200*%
%ADD33R,1.413200X0.933200*%
%ADD34R,0.762000X1.524000*%
%ADD35R,0.711200X1.524000*%
%ADD36C,1.727200*%
%ADD37P,2.034460X8X22.500000*%
%ADD38P,2.034460X8X292.500000*%
%ADD39R,2.070100X2.070100*%
%ADD40C,2.070100*%
%ADD41R,0.753200X1.253200*%
%ADD42R,1.653200X1.403200*%
%ADD43R,1.103200X1.203200*%
%ADD44P,2.034460X8X202.500000*%
%ADD45P,2.034460X8X112.500000*%

G36*
X67523Y443193D02*
X67523Y443193D01*
X67526Y443191D01*
X68638Y443316D01*
X68644Y443322D01*
X68649Y443319D01*
X69706Y443689D01*
X69710Y443696D01*
X69716Y443693D01*
X70664Y444289D01*
X70667Y444297D01*
X70672Y444296D01*
X71464Y445088D01*
X71465Y445096D01*
X71471Y445096D01*
X72067Y446044D01*
X72066Y446053D01*
X72071Y446054D01*
X72441Y447111D01*
X72440Y447115D01*
X72442Y447117D01*
X72440Y447120D01*
X72444Y447122D01*
X72569Y448235D01*
X72565Y448241D01*
X72569Y448245D01*
X72456Y449348D01*
X72450Y449354D01*
X72454Y449359D01*
X72098Y450408D01*
X72091Y450413D01*
X72093Y450418D01*
X71513Y451363D01*
X71506Y451366D01*
X71506Y451372D01*
X70731Y452163D01*
X70722Y452165D01*
X70722Y452170D01*
X69789Y452770D01*
X69781Y452769D01*
X69780Y452774D01*
X68737Y453151D01*
X68729Y453149D01*
X68726Y453154D01*
X67626Y453289D01*
X67623Y453287D01*
X67622Y453287D01*
X67620Y453289D01*
X56620Y453289D01*
X56617Y453287D01*
X56615Y453289D01*
X55490Y453174D01*
X55484Y453168D01*
X55479Y453171D01*
X54408Y452808D01*
X54404Y452801D01*
X54398Y452804D01*
X53435Y452211D01*
X53432Y452204D01*
X53426Y452205D01*
X52618Y451413D01*
X52617Y451405D01*
X52612Y451404D01*
X52000Y450453D01*
X52001Y450447D01*
X51997Y450444D01*
X51997Y450443D01*
X51996Y450443D01*
X51611Y449379D01*
X51614Y449371D01*
X51609Y449368D01*
X51471Y448246D01*
X51475Y448239D01*
X51471Y448235D01*
X51596Y447122D01*
X51602Y447116D01*
X51599Y447111D01*
X51969Y446054D01*
X51976Y446050D01*
X51973Y446044D01*
X52569Y445096D01*
X52577Y445093D01*
X52576Y445088D01*
X53368Y444296D01*
X53376Y444295D01*
X53376Y444289D01*
X54324Y443693D01*
X54333Y443694D01*
X54334Y443689D01*
X55391Y443319D01*
X55399Y443321D01*
X55402Y443316D01*
X56515Y443191D01*
X56518Y443193D01*
X56520Y443191D01*
X67520Y443191D01*
X67523Y443193D01*
G37*
G36*
X67523Y40603D02*
X67523Y40603D01*
X67526Y40601D01*
X68638Y40726D01*
X68644Y40732D01*
X68649Y40729D01*
X69706Y41099D01*
X69710Y41106D01*
X69716Y41103D01*
X70664Y41699D01*
X70667Y41707D01*
X70672Y41706D01*
X71464Y42498D01*
X71465Y42506D01*
X71471Y42506D01*
X72067Y43454D01*
X72066Y43463D01*
X72071Y43464D01*
X72441Y44521D01*
X72440Y44525D01*
X72442Y44527D01*
X72440Y44530D01*
X72444Y44532D01*
X72569Y45645D01*
X72565Y45651D01*
X72569Y45655D01*
X72456Y46758D01*
X72450Y46764D01*
X72454Y46769D01*
X72098Y47818D01*
X72091Y47823D01*
X72093Y47828D01*
X71513Y48773D01*
X71506Y48776D01*
X71506Y48782D01*
X70731Y49573D01*
X70722Y49575D01*
X70722Y49580D01*
X69789Y50180D01*
X69781Y50179D01*
X69780Y50184D01*
X68737Y50561D01*
X68729Y50559D01*
X68726Y50564D01*
X67626Y50699D01*
X67623Y50697D01*
X67622Y50697D01*
X67620Y50699D01*
X56620Y50699D01*
X56617Y50697D01*
X56615Y50699D01*
X55490Y50584D01*
X55484Y50578D01*
X55479Y50581D01*
X54408Y50218D01*
X54404Y50211D01*
X54398Y50214D01*
X53435Y49621D01*
X53432Y49614D01*
X53426Y49615D01*
X52618Y48823D01*
X52617Y48815D01*
X52612Y48814D01*
X52000Y47863D01*
X52001Y47857D01*
X51997Y47854D01*
X51997Y47853D01*
X51996Y47853D01*
X51611Y46789D01*
X51614Y46781D01*
X51609Y46778D01*
X51471Y45656D01*
X51475Y45649D01*
X51471Y45645D01*
X51596Y44532D01*
X51602Y44526D01*
X51599Y44521D01*
X51969Y43464D01*
X51976Y43460D01*
X51973Y43454D01*
X52569Y42506D01*
X52577Y42503D01*
X52576Y42498D01*
X53368Y41706D01*
X53376Y41705D01*
X53376Y41699D01*
X54324Y41103D01*
X54333Y41104D01*
X54334Y41099D01*
X55391Y40729D01*
X55399Y40731D01*
X55402Y40726D01*
X56515Y40601D01*
X56518Y40603D01*
X56520Y40601D01*
X67520Y40601D01*
X67523Y40603D01*
G37*
G36*
X751103Y755753D02*
X751103Y755753D01*
X751105Y755751D01*
X752230Y755867D01*
X752236Y755872D01*
X752241Y755869D01*
X753312Y756232D01*
X753316Y756239D01*
X753322Y756236D01*
X754285Y756829D01*
X754288Y756836D01*
X754294Y756835D01*
X755102Y757627D01*
X755103Y757635D01*
X755109Y757636D01*
X755720Y758587D01*
X755719Y758592D01*
X755721Y758594D01*
X755720Y758596D01*
X755725Y758597D01*
X756109Y759661D01*
X756106Y759669D01*
X756111Y759672D01*
X756249Y760794D01*
X756245Y760801D01*
X756249Y760806D01*
X756124Y761918D01*
X756118Y761924D01*
X756121Y761929D01*
X755751Y762986D01*
X755745Y762990D01*
X755747Y762996D01*
X755151Y763944D01*
X755143Y763947D01*
X755144Y763952D01*
X754352Y764744D01*
X754344Y764745D01*
X754344Y764751D01*
X753396Y765347D01*
X753387Y765346D01*
X753386Y765351D01*
X752329Y765721D01*
X752321Y765719D01*
X752318Y765724D01*
X751206Y765849D01*
X751202Y765847D01*
X751200Y765849D01*
X740200Y765849D01*
X740197Y765847D01*
X740196Y765847D01*
X740195Y765849D01*
X739082Y765724D01*
X739076Y765718D01*
X739071Y765721D01*
X738014Y765351D01*
X738010Y765345D01*
X738004Y765347D01*
X737056Y764751D01*
X737053Y764743D01*
X737048Y764744D01*
X736256Y763952D01*
X736255Y763944D01*
X736249Y763944D01*
X735653Y762996D01*
X735654Y762987D01*
X735649Y762986D01*
X735279Y761929D01*
X735281Y761923D01*
X735277Y761920D01*
X735278Y761919D01*
X735276Y761918D01*
X735151Y760806D01*
X735155Y760799D01*
X735151Y760795D01*
X735264Y759692D01*
X735270Y759686D01*
X735266Y759682D01*
X735622Y758632D01*
X735629Y758627D01*
X735627Y758622D01*
X736207Y757677D01*
X736214Y757674D01*
X736214Y757668D01*
X736989Y756877D01*
X736998Y756875D01*
X736998Y756870D01*
X737931Y756270D01*
X737939Y756271D01*
X737940Y756266D01*
X738983Y755889D01*
X738991Y755891D01*
X738994Y755886D01*
X740094Y755751D01*
X740098Y755753D01*
X740100Y755751D01*
X751100Y755751D01*
X751103Y755753D01*
G37*
G36*
X753643Y351893D02*
X753643Y351893D01*
X753645Y351891D01*
X754770Y352007D01*
X754776Y352012D01*
X754781Y352009D01*
X755852Y352372D01*
X755856Y352379D01*
X755862Y352376D01*
X756825Y352969D01*
X756828Y352976D01*
X756834Y352975D01*
X757642Y353767D01*
X757643Y353775D01*
X757649Y353776D01*
X758260Y354727D01*
X758259Y354732D01*
X758261Y354734D01*
X758260Y354736D01*
X758265Y354737D01*
X758649Y355801D01*
X758646Y355809D01*
X758651Y355812D01*
X758789Y356934D01*
X758785Y356941D01*
X758789Y356946D01*
X758664Y358058D01*
X758658Y358064D01*
X758661Y358069D01*
X758291Y359126D01*
X758285Y359130D01*
X758287Y359136D01*
X757691Y360084D01*
X757683Y360087D01*
X757684Y360092D01*
X756892Y360884D01*
X756884Y360885D01*
X756884Y360891D01*
X755936Y361487D01*
X755927Y361486D01*
X755926Y361491D01*
X754869Y361861D01*
X754861Y361859D01*
X754858Y361864D01*
X753746Y361989D01*
X753742Y361987D01*
X753740Y361989D01*
X742740Y361989D01*
X742737Y361987D01*
X742736Y361987D01*
X742735Y361989D01*
X741622Y361864D01*
X741616Y361858D01*
X741611Y361861D01*
X740554Y361491D01*
X740550Y361485D01*
X740544Y361487D01*
X739596Y360891D01*
X739593Y360883D01*
X739588Y360884D01*
X738796Y360092D01*
X738795Y360084D01*
X738789Y360084D01*
X738193Y359136D01*
X738194Y359127D01*
X738189Y359126D01*
X737819Y358069D01*
X737821Y358063D01*
X737817Y358060D01*
X737818Y358059D01*
X737816Y358058D01*
X737691Y356946D01*
X737695Y356939D01*
X737691Y356935D01*
X737804Y355832D01*
X737810Y355826D01*
X737806Y355822D01*
X738162Y354772D01*
X738169Y354767D01*
X738167Y354762D01*
X738747Y353817D01*
X738754Y353814D01*
X738754Y353808D01*
X739529Y353017D01*
X739538Y353015D01*
X739538Y353010D01*
X740471Y352410D01*
X740479Y352411D01*
X740480Y352406D01*
X741523Y352029D01*
X741531Y352031D01*
X741534Y352026D01*
X742634Y351891D01*
X742638Y351893D01*
X742640Y351891D01*
X753640Y351891D01*
X753643Y351893D01*
G37*
G36*
X751203Y669253D02*
X751203Y669253D01*
X751206Y669251D01*
X752318Y669376D01*
X752324Y669382D01*
X752329Y669379D01*
X753386Y669749D01*
X753390Y669756D01*
X753396Y669753D01*
X754344Y670349D01*
X754347Y670357D01*
X754352Y670356D01*
X755144Y671148D01*
X755145Y671156D01*
X755151Y671156D01*
X755747Y672104D01*
X755746Y672113D01*
X755751Y672114D01*
X756121Y673171D01*
X756120Y673175D01*
X756122Y673177D01*
X756120Y673180D01*
X756124Y673182D01*
X756249Y674295D01*
X756245Y674302D01*
X756249Y674306D01*
X756124Y675418D01*
X756118Y675424D01*
X756121Y675429D01*
X755751Y676486D01*
X755745Y676490D01*
X755747Y676496D01*
X755151Y677444D01*
X755143Y677447D01*
X755144Y677452D01*
X754352Y678244D01*
X754344Y678245D01*
X754344Y678251D01*
X753396Y678847D01*
X753387Y678846D01*
X753386Y678851D01*
X752329Y679221D01*
X752321Y679219D01*
X752318Y679224D01*
X751206Y679349D01*
X751202Y679347D01*
X751200Y679349D01*
X740200Y679349D01*
X740197Y679347D01*
X740196Y679347D01*
X740195Y679349D01*
X739082Y679224D01*
X739076Y679218D01*
X739071Y679221D01*
X738014Y678851D01*
X738010Y678845D01*
X738004Y678847D01*
X737056Y678251D01*
X737053Y678243D01*
X737048Y678244D01*
X736256Y677452D01*
X736255Y677444D01*
X736249Y677444D01*
X735653Y676496D01*
X735654Y676487D01*
X735649Y676486D01*
X735279Y675429D01*
X735281Y675423D01*
X735277Y675420D01*
X735278Y675419D01*
X735276Y675418D01*
X735151Y674306D01*
X735155Y674298D01*
X735151Y674295D01*
X735276Y673182D01*
X735282Y673176D01*
X735279Y673171D01*
X735649Y672114D01*
X735656Y672110D01*
X735653Y672104D01*
X736249Y671156D01*
X736257Y671153D01*
X736256Y671148D01*
X737048Y670356D01*
X737056Y670355D01*
X737056Y670349D01*
X738004Y669753D01*
X738013Y669754D01*
X738014Y669749D01*
X739071Y669379D01*
X739079Y669381D01*
X739082Y669376D01*
X740195Y669251D01*
X740198Y669253D01*
X740200Y669251D01*
X751200Y669251D01*
X751203Y669253D01*
G37*
G36*
X67523Y529693D02*
X67523Y529693D01*
X67526Y529691D01*
X68638Y529816D01*
X68644Y529822D01*
X68649Y529819D01*
X69706Y530189D01*
X69710Y530196D01*
X69716Y530193D01*
X70664Y530789D01*
X70667Y530797D01*
X70672Y530796D01*
X71464Y531588D01*
X71465Y531596D01*
X71471Y531596D01*
X72067Y532544D01*
X72066Y532553D01*
X72071Y532554D01*
X72441Y533611D01*
X72440Y533615D01*
X72442Y533617D01*
X72440Y533620D01*
X72444Y533622D01*
X72569Y534735D01*
X72565Y534742D01*
X72569Y534746D01*
X72444Y535858D01*
X72438Y535864D01*
X72441Y535869D01*
X72071Y536926D01*
X72065Y536930D01*
X72067Y536936D01*
X71471Y537884D01*
X71463Y537887D01*
X71464Y537892D01*
X70672Y538684D01*
X70664Y538685D01*
X70664Y538691D01*
X69716Y539287D01*
X69707Y539286D01*
X69706Y539291D01*
X68649Y539661D01*
X68641Y539659D01*
X68638Y539664D01*
X67526Y539789D01*
X67522Y539787D01*
X67520Y539789D01*
X56520Y539789D01*
X56517Y539787D01*
X56516Y539787D01*
X56515Y539789D01*
X55402Y539664D01*
X55396Y539658D01*
X55391Y539661D01*
X54334Y539291D01*
X54330Y539285D01*
X54324Y539287D01*
X53376Y538691D01*
X53373Y538683D01*
X53368Y538684D01*
X52576Y537892D01*
X52575Y537884D01*
X52569Y537884D01*
X51973Y536936D01*
X51974Y536927D01*
X51969Y536926D01*
X51599Y535869D01*
X51601Y535863D01*
X51597Y535860D01*
X51598Y535859D01*
X51596Y535858D01*
X51471Y534746D01*
X51475Y534738D01*
X51471Y534735D01*
X51596Y533622D01*
X51602Y533616D01*
X51599Y533611D01*
X51969Y532554D01*
X51976Y532550D01*
X51973Y532544D01*
X52569Y531596D01*
X52577Y531593D01*
X52576Y531588D01*
X53368Y530796D01*
X53376Y530795D01*
X53376Y530789D01*
X54324Y530193D01*
X54333Y530194D01*
X54334Y530189D01*
X55391Y529819D01*
X55399Y529821D01*
X55402Y529816D01*
X56515Y529691D01*
X56518Y529693D01*
X56520Y529691D01*
X67520Y529691D01*
X67523Y529693D01*
G37*
G36*
X753743Y265393D02*
X753743Y265393D01*
X753746Y265391D01*
X754858Y265516D01*
X754864Y265522D01*
X754869Y265519D01*
X755926Y265889D01*
X755930Y265896D01*
X755936Y265893D01*
X756884Y266489D01*
X756887Y266497D01*
X756892Y266496D01*
X757684Y267288D01*
X757685Y267296D01*
X757691Y267296D01*
X758287Y268244D01*
X758286Y268253D01*
X758291Y268254D01*
X758661Y269311D01*
X758660Y269315D01*
X758662Y269317D01*
X758660Y269320D01*
X758664Y269322D01*
X758789Y270435D01*
X758785Y270442D01*
X758789Y270446D01*
X758664Y271558D01*
X758658Y271564D01*
X758661Y271569D01*
X758291Y272626D01*
X758285Y272630D01*
X758287Y272636D01*
X757691Y273584D01*
X757683Y273587D01*
X757684Y273592D01*
X756892Y274384D01*
X756884Y274385D01*
X756884Y274391D01*
X755936Y274987D01*
X755927Y274986D01*
X755926Y274991D01*
X754869Y275361D01*
X754861Y275359D01*
X754858Y275364D01*
X753746Y275489D01*
X753742Y275487D01*
X753740Y275489D01*
X742740Y275489D01*
X742737Y275487D01*
X742736Y275487D01*
X742735Y275489D01*
X741622Y275364D01*
X741616Y275358D01*
X741611Y275361D01*
X740554Y274991D01*
X740550Y274985D01*
X740544Y274987D01*
X739596Y274391D01*
X739593Y274383D01*
X739588Y274384D01*
X738796Y273592D01*
X738795Y273584D01*
X738789Y273584D01*
X738193Y272636D01*
X738194Y272627D01*
X738189Y272626D01*
X737819Y271569D01*
X737821Y271563D01*
X737817Y271560D01*
X737818Y271559D01*
X737816Y271558D01*
X737691Y270446D01*
X737695Y270438D01*
X737691Y270435D01*
X737816Y269322D01*
X737822Y269316D01*
X737819Y269311D01*
X738189Y268254D01*
X738196Y268250D01*
X738193Y268244D01*
X738789Y267296D01*
X738797Y267293D01*
X738796Y267288D01*
X739588Y266496D01*
X739596Y266495D01*
X739596Y266489D01*
X740544Y265893D01*
X740553Y265894D01*
X740554Y265889D01*
X741611Y265519D01*
X741619Y265521D01*
X741622Y265516D01*
X742735Y265391D01*
X742738Y265393D01*
X742740Y265391D01*
X753740Y265391D01*
X753743Y265393D01*
G37*
G36*
X67523Y127103D02*
X67523Y127103D01*
X67526Y127101D01*
X68638Y127226D01*
X68644Y127232D01*
X68649Y127229D01*
X69706Y127599D01*
X69710Y127606D01*
X69716Y127603D01*
X70664Y128199D01*
X70667Y128207D01*
X70672Y128206D01*
X71464Y128998D01*
X71465Y129006D01*
X71471Y129006D01*
X72067Y129954D01*
X72066Y129963D01*
X72071Y129964D01*
X72441Y131021D01*
X72440Y131025D01*
X72442Y131027D01*
X72440Y131030D01*
X72444Y131032D01*
X72569Y132145D01*
X72565Y132152D01*
X72569Y132156D01*
X72444Y133268D01*
X72438Y133274D01*
X72441Y133279D01*
X72071Y134336D01*
X72065Y134340D01*
X72067Y134346D01*
X71471Y135294D01*
X71463Y135297D01*
X71464Y135302D01*
X70672Y136094D01*
X70664Y136095D01*
X70664Y136101D01*
X69716Y136697D01*
X69707Y136696D01*
X69706Y136701D01*
X68649Y137071D01*
X68641Y137069D01*
X68638Y137074D01*
X67526Y137199D01*
X67522Y137197D01*
X67520Y137199D01*
X56520Y137199D01*
X56517Y137197D01*
X56516Y137197D01*
X56515Y137199D01*
X55402Y137074D01*
X55396Y137068D01*
X55391Y137071D01*
X54334Y136701D01*
X54330Y136695D01*
X54324Y136697D01*
X53376Y136101D01*
X53373Y136093D01*
X53368Y136094D01*
X52576Y135302D01*
X52575Y135294D01*
X52569Y135294D01*
X51973Y134346D01*
X51974Y134337D01*
X51969Y134336D01*
X51599Y133279D01*
X51601Y133273D01*
X51597Y133270D01*
X51598Y133269D01*
X51596Y133268D01*
X51471Y132156D01*
X51475Y132148D01*
X51471Y132145D01*
X51596Y131032D01*
X51602Y131026D01*
X51599Y131021D01*
X51969Y129964D01*
X51976Y129960D01*
X51973Y129954D01*
X52569Y129006D01*
X52577Y129003D01*
X52576Y128998D01*
X53368Y128206D01*
X53376Y128205D01*
X53376Y128199D01*
X54324Y127603D01*
X54333Y127604D01*
X54334Y127599D01*
X55391Y127229D01*
X55399Y127231D01*
X55402Y127226D01*
X56515Y127101D01*
X56518Y127103D01*
X56520Y127101D01*
X67520Y127101D01*
X67523Y127103D01*
G37*
G36*
X791403Y755753D02*
X791403Y755753D01*
X791406Y755751D01*
X792518Y755876D01*
X792524Y755882D01*
X792529Y755879D01*
X793586Y756249D01*
X793590Y756256D01*
X793596Y756253D01*
X794544Y756849D01*
X794547Y756857D01*
X794552Y756856D01*
X795344Y757648D01*
X795345Y757656D01*
X795351Y757656D01*
X795947Y758604D01*
X795946Y758613D01*
X795951Y758614D01*
X796321Y759671D01*
X796320Y759675D01*
X796322Y759677D01*
X796320Y759680D01*
X796324Y759682D01*
X796449Y760795D01*
X796445Y760802D01*
X796449Y760806D01*
X796324Y761918D01*
X796318Y761924D01*
X796321Y761929D01*
X795951Y762986D01*
X795945Y762990D01*
X795947Y762996D01*
X795351Y763944D01*
X795343Y763947D01*
X795344Y763952D01*
X794552Y764744D01*
X794544Y764745D01*
X794544Y764751D01*
X793596Y765347D01*
X793587Y765346D01*
X793586Y765351D01*
X792529Y765721D01*
X792521Y765719D01*
X792518Y765724D01*
X791406Y765849D01*
X791402Y765847D01*
X791400Y765849D01*
X783400Y765849D01*
X783397Y765847D01*
X783396Y765847D01*
X783395Y765849D01*
X782282Y765724D01*
X782276Y765718D01*
X782271Y765721D01*
X781214Y765351D01*
X781210Y765345D01*
X781204Y765347D01*
X780256Y764751D01*
X780253Y764743D01*
X780248Y764744D01*
X779456Y763952D01*
X779455Y763944D01*
X779449Y763944D01*
X778853Y762996D01*
X778854Y762987D01*
X778849Y762986D01*
X778479Y761929D01*
X778481Y761923D01*
X778477Y761920D01*
X778478Y761919D01*
X778476Y761918D01*
X778351Y760806D01*
X778355Y760798D01*
X778351Y760795D01*
X778476Y759682D01*
X778482Y759676D01*
X778479Y759671D01*
X778849Y758614D01*
X778856Y758610D01*
X778853Y758604D01*
X779449Y757656D01*
X779457Y757653D01*
X779456Y757648D01*
X780248Y756856D01*
X780256Y756855D01*
X780256Y756849D01*
X781204Y756253D01*
X781213Y756254D01*
X781214Y756249D01*
X782271Y755879D01*
X782279Y755881D01*
X782282Y755876D01*
X783395Y755751D01*
X783398Y755753D01*
X783400Y755751D01*
X791400Y755751D01*
X791403Y755753D01*
G37*
G36*
X791403Y669253D02*
X791403Y669253D01*
X791406Y669251D01*
X792518Y669376D01*
X792524Y669382D01*
X792529Y669379D01*
X793586Y669749D01*
X793590Y669756D01*
X793596Y669753D01*
X794544Y670349D01*
X794547Y670357D01*
X794552Y670356D01*
X795344Y671148D01*
X795345Y671156D01*
X795351Y671156D01*
X795947Y672104D01*
X795946Y672113D01*
X795951Y672114D01*
X796321Y673171D01*
X796320Y673175D01*
X796322Y673177D01*
X796320Y673180D01*
X796324Y673182D01*
X796449Y674295D01*
X796445Y674302D01*
X796449Y674306D01*
X796324Y675418D01*
X796318Y675424D01*
X796321Y675429D01*
X795951Y676486D01*
X795945Y676490D01*
X795947Y676496D01*
X795351Y677444D01*
X795343Y677447D01*
X795344Y677452D01*
X794552Y678244D01*
X794544Y678245D01*
X794544Y678251D01*
X793596Y678847D01*
X793587Y678846D01*
X793586Y678851D01*
X792529Y679221D01*
X792521Y679219D01*
X792518Y679224D01*
X791406Y679349D01*
X791402Y679347D01*
X791400Y679349D01*
X783400Y679349D01*
X783397Y679347D01*
X783396Y679347D01*
X783395Y679349D01*
X782282Y679224D01*
X782276Y679218D01*
X782271Y679221D01*
X781214Y678851D01*
X781210Y678845D01*
X781204Y678847D01*
X780256Y678251D01*
X780253Y678243D01*
X780248Y678244D01*
X779456Y677452D01*
X779455Y677444D01*
X779449Y677444D01*
X778853Y676496D01*
X778854Y676487D01*
X778849Y676486D01*
X778479Y675429D01*
X778481Y675423D01*
X778477Y675420D01*
X778478Y675419D01*
X778476Y675418D01*
X778351Y674306D01*
X778355Y674298D01*
X778351Y674295D01*
X778476Y673182D01*
X778482Y673176D01*
X778479Y673171D01*
X778849Y672114D01*
X778856Y672110D01*
X778853Y672104D01*
X779449Y671156D01*
X779457Y671153D01*
X779456Y671148D01*
X780248Y670356D01*
X780256Y670355D01*
X780256Y670349D01*
X781204Y669753D01*
X781213Y669754D01*
X781214Y669749D01*
X782271Y669379D01*
X782279Y669381D01*
X782282Y669376D01*
X783395Y669251D01*
X783398Y669253D01*
X783400Y669251D01*
X791400Y669251D01*
X791403Y669253D01*
G37*
G36*
X24323Y529693D02*
X24323Y529693D01*
X24326Y529691D01*
X25438Y529816D01*
X25444Y529822D01*
X25449Y529819D01*
X26506Y530189D01*
X26510Y530196D01*
X26516Y530193D01*
X27464Y530789D01*
X27467Y530797D01*
X27472Y530796D01*
X28264Y531588D01*
X28265Y531596D01*
X28271Y531596D01*
X28867Y532544D01*
X28866Y532553D01*
X28871Y532554D01*
X29241Y533611D01*
X29240Y533615D01*
X29242Y533617D01*
X29240Y533620D01*
X29244Y533622D01*
X29369Y534735D01*
X29365Y534742D01*
X29369Y534746D01*
X29244Y535858D01*
X29238Y535864D01*
X29241Y535869D01*
X28871Y536926D01*
X28865Y536930D01*
X28867Y536936D01*
X28271Y537884D01*
X28263Y537887D01*
X28264Y537892D01*
X27472Y538684D01*
X27464Y538685D01*
X27464Y538691D01*
X26516Y539287D01*
X26507Y539286D01*
X26506Y539291D01*
X25449Y539661D01*
X25441Y539659D01*
X25438Y539664D01*
X24326Y539789D01*
X24322Y539787D01*
X24320Y539789D01*
X16320Y539789D01*
X16317Y539787D01*
X16316Y539787D01*
X16315Y539789D01*
X15202Y539664D01*
X15196Y539658D01*
X15191Y539661D01*
X14134Y539291D01*
X14130Y539285D01*
X14124Y539287D01*
X13176Y538691D01*
X13173Y538683D01*
X13168Y538684D01*
X12376Y537892D01*
X12375Y537884D01*
X12369Y537884D01*
X11773Y536936D01*
X11774Y536927D01*
X11769Y536926D01*
X11399Y535869D01*
X11401Y535863D01*
X11397Y535860D01*
X11398Y535859D01*
X11396Y535858D01*
X11271Y534746D01*
X11275Y534738D01*
X11271Y534735D01*
X11396Y533622D01*
X11402Y533616D01*
X11399Y533611D01*
X11769Y532554D01*
X11776Y532550D01*
X11773Y532544D01*
X12369Y531596D01*
X12377Y531593D01*
X12376Y531588D01*
X13168Y530796D01*
X13176Y530795D01*
X13176Y530789D01*
X14124Y530193D01*
X14133Y530194D01*
X14134Y530189D01*
X15191Y529819D01*
X15199Y529821D01*
X15202Y529816D01*
X16315Y529691D01*
X16318Y529693D01*
X16320Y529691D01*
X24320Y529691D01*
X24323Y529693D01*
G37*
G36*
X24323Y443193D02*
X24323Y443193D01*
X24326Y443191D01*
X25438Y443316D01*
X25444Y443322D01*
X25449Y443319D01*
X26506Y443689D01*
X26510Y443696D01*
X26516Y443693D01*
X27464Y444289D01*
X27467Y444297D01*
X27472Y444296D01*
X28264Y445088D01*
X28265Y445096D01*
X28271Y445096D01*
X28867Y446044D01*
X28866Y446053D01*
X28871Y446054D01*
X29241Y447111D01*
X29240Y447115D01*
X29242Y447117D01*
X29240Y447120D01*
X29244Y447122D01*
X29369Y448235D01*
X29365Y448242D01*
X29369Y448246D01*
X29244Y449358D01*
X29238Y449364D01*
X29241Y449369D01*
X28871Y450426D01*
X28865Y450430D01*
X28867Y450436D01*
X28271Y451384D01*
X28263Y451387D01*
X28264Y451392D01*
X27472Y452184D01*
X27464Y452185D01*
X27464Y452191D01*
X26516Y452787D01*
X26507Y452786D01*
X26506Y452791D01*
X25449Y453161D01*
X25441Y453159D01*
X25438Y453164D01*
X24326Y453289D01*
X24322Y453287D01*
X24320Y453289D01*
X16320Y453289D01*
X16317Y453287D01*
X16316Y453287D01*
X16315Y453289D01*
X15202Y453164D01*
X15196Y453158D01*
X15191Y453161D01*
X14134Y452791D01*
X14130Y452785D01*
X14124Y452787D01*
X13176Y452191D01*
X13173Y452183D01*
X13168Y452184D01*
X12376Y451392D01*
X12375Y451384D01*
X12369Y451384D01*
X11773Y450436D01*
X11774Y450427D01*
X11769Y450426D01*
X11399Y449369D01*
X11401Y449363D01*
X11397Y449360D01*
X11398Y449359D01*
X11396Y449358D01*
X11271Y448246D01*
X11275Y448238D01*
X11271Y448235D01*
X11396Y447122D01*
X11402Y447116D01*
X11399Y447111D01*
X11769Y446054D01*
X11776Y446050D01*
X11773Y446044D01*
X12369Y445096D01*
X12377Y445093D01*
X12376Y445088D01*
X13168Y444296D01*
X13176Y444295D01*
X13176Y444289D01*
X14124Y443693D01*
X14133Y443694D01*
X14134Y443689D01*
X15191Y443319D01*
X15199Y443321D01*
X15202Y443316D01*
X16315Y443191D01*
X16318Y443193D01*
X16320Y443191D01*
X24320Y443191D01*
X24323Y443193D01*
G37*
G36*
X793943Y351893D02*
X793943Y351893D01*
X793946Y351891D01*
X795058Y352016D01*
X795064Y352022D01*
X795069Y352019D01*
X796126Y352389D01*
X796130Y352396D01*
X796136Y352393D01*
X797084Y352989D01*
X797087Y352997D01*
X797092Y352996D01*
X797884Y353788D01*
X797885Y353796D01*
X797891Y353796D01*
X798487Y354744D01*
X798486Y354753D01*
X798491Y354754D01*
X798861Y355811D01*
X798860Y355815D01*
X798862Y355817D01*
X798860Y355820D01*
X798864Y355822D01*
X798989Y356935D01*
X798985Y356942D01*
X798989Y356946D01*
X798864Y358058D01*
X798858Y358064D01*
X798861Y358069D01*
X798491Y359126D01*
X798485Y359130D01*
X798487Y359136D01*
X797891Y360084D01*
X797883Y360087D01*
X797884Y360092D01*
X797092Y360884D01*
X797084Y360885D01*
X797084Y360891D01*
X796136Y361487D01*
X796127Y361486D01*
X796126Y361491D01*
X795069Y361861D01*
X795061Y361859D01*
X795058Y361864D01*
X793946Y361989D01*
X793942Y361987D01*
X793940Y361989D01*
X785940Y361989D01*
X785937Y361987D01*
X785936Y361987D01*
X785935Y361989D01*
X784822Y361864D01*
X784816Y361858D01*
X784811Y361861D01*
X783754Y361491D01*
X783750Y361485D01*
X783744Y361487D01*
X782796Y360891D01*
X782793Y360883D01*
X782788Y360884D01*
X781996Y360092D01*
X781995Y360084D01*
X781989Y360084D01*
X781393Y359136D01*
X781394Y359127D01*
X781389Y359126D01*
X781019Y358069D01*
X781021Y358063D01*
X781017Y358060D01*
X781018Y358059D01*
X781016Y358058D01*
X780891Y356946D01*
X780895Y356938D01*
X780891Y356935D01*
X781016Y355822D01*
X781022Y355816D01*
X781019Y355811D01*
X781389Y354754D01*
X781396Y354750D01*
X781393Y354744D01*
X781989Y353796D01*
X781997Y353793D01*
X781996Y353788D01*
X782788Y352996D01*
X782796Y352995D01*
X782796Y352989D01*
X783744Y352393D01*
X783753Y352394D01*
X783754Y352389D01*
X784811Y352019D01*
X784819Y352021D01*
X784822Y352016D01*
X785935Y351891D01*
X785938Y351893D01*
X785940Y351891D01*
X793940Y351891D01*
X793943Y351893D01*
G37*
G36*
X793943Y265393D02*
X793943Y265393D01*
X793946Y265391D01*
X795058Y265516D01*
X795064Y265522D01*
X795069Y265519D01*
X796126Y265889D01*
X796130Y265896D01*
X796136Y265893D01*
X797084Y266489D01*
X797087Y266497D01*
X797092Y266496D01*
X797884Y267288D01*
X797885Y267296D01*
X797891Y267296D01*
X798487Y268244D01*
X798486Y268253D01*
X798491Y268254D01*
X798861Y269311D01*
X798860Y269315D01*
X798862Y269317D01*
X798860Y269320D01*
X798864Y269322D01*
X798989Y270435D01*
X798985Y270442D01*
X798989Y270446D01*
X798864Y271558D01*
X798858Y271564D01*
X798861Y271569D01*
X798491Y272626D01*
X798485Y272630D01*
X798487Y272636D01*
X797891Y273584D01*
X797883Y273587D01*
X797884Y273592D01*
X797092Y274384D01*
X797084Y274385D01*
X797084Y274391D01*
X796136Y274987D01*
X796127Y274986D01*
X796126Y274991D01*
X795069Y275361D01*
X795061Y275359D01*
X795058Y275364D01*
X793946Y275489D01*
X793942Y275487D01*
X793940Y275489D01*
X785940Y275489D01*
X785937Y275487D01*
X785936Y275487D01*
X785935Y275489D01*
X784822Y275364D01*
X784816Y275358D01*
X784811Y275361D01*
X783754Y274991D01*
X783750Y274985D01*
X783744Y274987D01*
X782796Y274391D01*
X782793Y274383D01*
X782788Y274384D01*
X781996Y273592D01*
X781995Y273584D01*
X781989Y273584D01*
X781393Y272636D01*
X781394Y272627D01*
X781389Y272626D01*
X781019Y271569D01*
X781021Y271563D01*
X781017Y271560D01*
X781018Y271559D01*
X781016Y271558D01*
X780891Y270446D01*
X780895Y270438D01*
X780891Y270435D01*
X781016Y269322D01*
X781022Y269316D01*
X781019Y269311D01*
X781389Y268254D01*
X781396Y268250D01*
X781393Y268244D01*
X781989Y267296D01*
X781997Y267293D01*
X781996Y267288D01*
X782788Y266496D01*
X782796Y266495D01*
X782796Y266489D01*
X783744Y265893D01*
X783753Y265894D01*
X783754Y265889D01*
X784811Y265519D01*
X784819Y265521D01*
X784822Y265516D01*
X785935Y265391D01*
X785938Y265393D01*
X785940Y265391D01*
X793940Y265391D01*
X793943Y265393D01*
G37*
G36*
X24323Y127103D02*
X24323Y127103D01*
X24326Y127101D01*
X25438Y127226D01*
X25444Y127232D01*
X25449Y127229D01*
X26506Y127599D01*
X26510Y127606D01*
X26516Y127603D01*
X27464Y128199D01*
X27467Y128207D01*
X27472Y128206D01*
X28264Y128998D01*
X28265Y129006D01*
X28271Y129006D01*
X28867Y129954D01*
X28866Y129963D01*
X28871Y129964D01*
X29241Y131021D01*
X29240Y131025D01*
X29242Y131027D01*
X29240Y131030D01*
X29244Y131032D01*
X29369Y132145D01*
X29365Y132152D01*
X29369Y132156D01*
X29244Y133268D01*
X29238Y133274D01*
X29241Y133279D01*
X28871Y134336D01*
X28865Y134340D01*
X28867Y134346D01*
X28271Y135294D01*
X28263Y135297D01*
X28264Y135302D01*
X27472Y136094D01*
X27464Y136095D01*
X27464Y136101D01*
X26516Y136697D01*
X26507Y136696D01*
X26506Y136701D01*
X25449Y137071D01*
X25441Y137069D01*
X25438Y137074D01*
X24326Y137199D01*
X24322Y137197D01*
X24320Y137199D01*
X16320Y137199D01*
X16317Y137197D01*
X16316Y137197D01*
X16315Y137199D01*
X15202Y137074D01*
X15196Y137068D01*
X15191Y137071D01*
X14134Y136701D01*
X14130Y136695D01*
X14124Y136697D01*
X13176Y136101D01*
X13173Y136093D01*
X13168Y136094D01*
X12376Y135302D01*
X12375Y135294D01*
X12369Y135294D01*
X11773Y134346D01*
X11774Y134337D01*
X11769Y134336D01*
X11399Y133279D01*
X11401Y133273D01*
X11397Y133270D01*
X11398Y133269D01*
X11396Y133268D01*
X11271Y132156D01*
X11275Y132148D01*
X11271Y132145D01*
X11396Y131032D01*
X11402Y131026D01*
X11399Y131021D01*
X11769Y129964D01*
X11776Y129960D01*
X11773Y129954D01*
X12369Y129006D01*
X12377Y129003D01*
X12376Y128998D01*
X13168Y128206D01*
X13176Y128205D01*
X13176Y128199D01*
X14124Y127603D01*
X14133Y127604D01*
X14134Y127599D01*
X15191Y127229D01*
X15199Y127231D01*
X15202Y127226D01*
X16315Y127101D01*
X16318Y127103D01*
X16320Y127101D01*
X24320Y127101D01*
X24323Y127103D01*
G37*
G36*
X24323Y40603D02*
X24323Y40603D01*
X24326Y40601D01*
X25438Y40726D01*
X25444Y40732D01*
X25449Y40729D01*
X26506Y41099D01*
X26510Y41106D01*
X26516Y41103D01*
X27464Y41699D01*
X27467Y41707D01*
X27472Y41706D01*
X28264Y42498D01*
X28265Y42506D01*
X28271Y42506D01*
X28867Y43454D01*
X28866Y43463D01*
X28871Y43464D01*
X29241Y44521D01*
X29240Y44525D01*
X29242Y44527D01*
X29240Y44530D01*
X29244Y44532D01*
X29369Y45645D01*
X29365Y45652D01*
X29369Y45656D01*
X29244Y46768D01*
X29238Y46774D01*
X29241Y46779D01*
X28871Y47836D01*
X28865Y47840D01*
X28867Y47846D01*
X28271Y48794D01*
X28263Y48797D01*
X28264Y48802D01*
X27472Y49594D01*
X27464Y49595D01*
X27464Y49601D01*
X26516Y50197D01*
X26507Y50196D01*
X26506Y50201D01*
X25449Y50571D01*
X25441Y50569D01*
X25438Y50574D01*
X24326Y50699D01*
X24322Y50697D01*
X24320Y50699D01*
X16320Y50699D01*
X16317Y50697D01*
X16316Y50697D01*
X16315Y50699D01*
X15202Y50574D01*
X15196Y50568D01*
X15191Y50571D01*
X14134Y50201D01*
X14130Y50195D01*
X14124Y50197D01*
X13176Y49601D01*
X13173Y49593D01*
X13168Y49594D01*
X12376Y48802D01*
X12375Y48794D01*
X12369Y48794D01*
X11773Y47846D01*
X11774Y47837D01*
X11769Y47836D01*
X11399Y46779D01*
X11401Y46773D01*
X11397Y46770D01*
X11398Y46769D01*
X11396Y46768D01*
X11271Y45656D01*
X11275Y45648D01*
X11271Y45645D01*
X11396Y44532D01*
X11402Y44526D01*
X11399Y44521D01*
X11769Y43464D01*
X11776Y43460D01*
X11773Y43454D01*
X12369Y42506D01*
X12377Y42503D01*
X12376Y42498D01*
X13168Y41706D01*
X13176Y41705D01*
X13176Y41699D01*
X14124Y41103D01*
X14133Y41104D01*
X14134Y41099D01*
X15191Y40729D01*
X15199Y40731D01*
X15202Y40726D01*
X16315Y40601D01*
X16318Y40603D01*
X16320Y40601D01*
X24320Y40601D01*
X24323Y40603D01*
G37*
D10*
X206520Y312930D03*
X223520Y312930D03*
D11*
X320570Y237400D03*
X307870Y237400D03*
X295170Y237400D03*
X282470Y237400D03*
X269770Y237400D03*
X257070Y237400D03*
X244370Y237400D03*
X231670Y237400D03*
X218970Y237400D03*
X206270Y237400D03*
X193570Y237400D03*
X180870Y237400D03*
X168170Y237400D03*
X155470Y237400D03*
D12*
X145470Y209550D03*
X145470Y196850D03*
X145470Y184150D03*
X145470Y171450D03*
X145470Y158750D03*
X145470Y146050D03*
X145470Y133350D03*
X145470Y120650D03*
X145470Y107950D03*
X145470Y95250D03*
D11*
X155470Y67400D03*
X168170Y67400D03*
X180870Y67400D03*
X193570Y67400D03*
X206270Y67400D03*
X218970Y67400D03*
X231670Y67400D03*
X244370Y67400D03*
X257070Y67400D03*
X269770Y67400D03*
X282470Y67400D03*
X295170Y67400D03*
X307870Y67400D03*
X320570Y67400D03*
D13*
X263920Y180750D03*
X263920Y162400D03*
X263920Y144050D03*
X245570Y180750D03*
X245570Y162400D03*
X245570Y144050D03*
X227220Y180750D03*
X227220Y162400D03*
X227220Y144050D03*
D14*
X263920Y171575D03*
X263920Y153225D03*
X254745Y180750D03*
X254745Y162400D03*
X254745Y144050D03*
X245570Y171575D03*
X245570Y153225D03*
X236395Y180750D03*
X236395Y162400D03*
X236395Y144050D03*
X227220Y171575D03*
X227220Y153225D03*
D15*
X181990Y369570D03*
X165990Y369570D03*
X381380Y281940D03*
X365380Y281940D03*
X181990Y382270D03*
X165990Y382270D03*
D16*
X263260Y50800D03*
X277760Y50800D03*
D17*
X285750Y39980D03*
X285750Y20980D03*
D18*
X166530Y321920D03*
X166530Y302920D03*
X186530Y312420D03*
X166530Y354940D03*
X166530Y335940D03*
X186530Y345440D03*
D19*
X367950Y257810D03*
X381350Y257810D03*
X367950Y269240D03*
X381350Y269240D03*
D20*
X70670Y272420D03*
X70670Y266060D03*
X70670Y259720D03*
X70670Y253360D03*
X70670Y247020D03*
X70670Y240660D03*
X70670Y234320D03*
X70670Y227960D03*
X70670Y221620D03*
X70670Y215260D03*
X124910Y215260D03*
X124910Y221620D03*
X124910Y227960D03*
X124910Y234320D03*
X124910Y240660D03*
X124910Y247020D03*
X124910Y253360D03*
X124910Y259720D03*
X124910Y266060D03*
X124910Y272420D03*
D21*
X210820Y19420D03*
X210820Y33920D03*
X246380Y19420D03*
X246380Y33920D03*
D17*
X228600Y20980D03*
X228600Y39980D03*
X262890Y20980D03*
X262890Y39980D03*
D22*
X149860Y321660D03*
X149860Y308260D03*
X49530Y33370D03*
X49530Y19970D03*
X60960Y19970D03*
X60960Y33370D03*
D23*
X37660Y211690D03*
X37660Y186690D03*
X37660Y161690D03*
D24*
X10160Y220690D03*
X10160Y152690D03*
D25*
X18750Y262230D03*
X18750Y252730D03*
X18750Y243230D03*
X44750Y243230D03*
X44750Y262230D03*
X44750Y252730D03*
D26*
X122542Y197398D02*
X122542Y182782D01*
X122542Y197398D02*
X125558Y197398D01*
X125558Y182782D01*
X122542Y182782D01*
X122542Y185647D02*
X125558Y185647D01*
X125558Y188512D02*
X122542Y188512D01*
X122542Y191377D02*
X125558Y191377D01*
X125558Y194242D02*
X122542Y194242D01*
X122542Y197107D02*
X125558Y197107D01*
X116042Y197398D02*
X116042Y182782D01*
X116042Y197398D02*
X119058Y197398D01*
X119058Y182782D01*
X116042Y182782D01*
X116042Y185647D02*
X119058Y185647D01*
X119058Y188512D02*
X116042Y188512D01*
X116042Y191377D02*
X119058Y191377D01*
X119058Y194242D02*
X116042Y194242D01*
X116042Y197107D02*
X119058Y197107D01*
X109542Y197398D02*
X109542Y182782D01*
X109542Y197398D02*
X112558Y197398D01*
X112558Y182782D01*
X109542Y182782D01*
X109542Y185647D02*
X112558Y185647D01*
X112558Y188512D02*
X109542Y188512D01*
X109542Y191377D02*
X112558Y191377D01*
X112558Y194242D02*
X109542Y194242D01*
X109542Y197107D02*
X112558Y197107D01*
X103042Y197398D02*
X103042Y182782D01*
X103042Y197398D02*
X106058Y197398D01*
X106058Y182782D01*
X103042Y182782D01*
X103042Y185647D02*
X106058Y185647D01*
X106058Y188512D02*
X103042Y188512D01*
X103042Y191377D02*
X106058Y191377D01*
X106058Y194242D02*
X103042Y194242D01*
X103042Y197107D02*
X106058Y197107D01*
X103042Y139798D02*
X103042Y125182D01*
X103042Y139798D02*
X106058Y139798D01*
X106058Y125182D01*
X103042Y125182D01*
X103042Y128047D02*
X106058Y128047D01*
X106058Y130912D02*
X103042Y130912D01*
X103042Y133777D02*
X106058Y133777D01*
X106058Y136642D02*
X103042Y136642D01*
X103042Y139507D02*
X106058Y139507D01*
X109542Y139798D02*
X109542Y125182D01*
X109542Y139798D02*
X112558Y139798D01*
X112558Y125182D01*
X109542Y125182D01*
X109542Y128047D02*
X112558Y128047D01*
X112558Y130912D02*
X109542Y130912D01*
X109542Y133777D02*
X112558Y133777D01*
X112558Y136642D02*
X109542Y136642D01*
X109542Y139507D02*
X112558Y139507D01*
X116042Y139798D02*
X116042Y125182D01*
X116042Y139798D02*
X119058Y139798D01*
X119058Y125182D01*
X116042Y125182D01*
X116042Y128047D02*
X119058Y128047D01*
X119058Y130912D02*
X116042Y130912D01*
X116042Y133777D02*
X119058Y133777D01*
X119058Y136642D02*
X116042Y136642D01*
X116042Y139507D02*
X119058Y139507D01*
X122542Y139798D02*
X122542Y125182D01*
X122542Y139798D02*
X125558Y139798D01*
X125558Y125182D01*
X122542Y125182D01*
X122542Y128047D02*
X125558Y128047D01*
X125558Y130912D02*
X122542Y130912D01*
X122542Y133777D02*
X125558Y133777D01*
X125558Y136642D02*
X122542Y136642D01*
X122542Y139507D02*
X125558Y139507D01*
D27*
X88609Y71979D02*
X88609Y53781D01*
X84111Y53781D01*
X84111Y71979D01*
X88609Y71979D01*
X88609Y57138D02*
X84111Y57138D01*
X84111Y60495D02*
X88609Y60495D01*
X88609Y63852D02*
X84111Y63852D01*
X84111Y67209D02*
X88609Y67209D01*
X88609Y70566D02*
X84111Y70566D01*
X101309Y71979D02*
X101309Y53781D01*
X96811Y53781D01*
X96811Y71979D01*
X101309Y71979D01*
X101309Y57138D02*
X96811Y57138D01*
X96811Y60495D02*
X101309Y60495D01*
X101309Y63852D02*
X96811Y63852D01*
X96811Y67209D02*
X101309Y67209D01*
X101309Y70566D02*
X96811Y70566D01*
X114009Y71979D02*
X114009Y53781D01*
X109511Y53781D01*
X109511Y71979D01*
X114009Y71979D01*
X114009Y57138D02*
X109511Y57138D01*
X109511Y60495D02*
X114009Y60495D01*
X114009Y63852D02*
X109511Y63852D01*
X109511Y67209D02*
X114009Y67209D01*
X114009Y70566D02*
X109511Y70566D01*
X126709Y71979D02*
X126709Y53781D01*
X122211Y53781D01*
X122211Y71979D01*
X126709Y71979D01*
X126709Y57138D02*
X122211Y57138D01*
X122211Y60495D02*
X126709Y60495D01*
X126709Y63852D02*
X122211Y63852D01*
X122211Y67209D02*
X126709Y67209D01*
X126709Y70566D02*
X122211Y70566D01*
X126709Y103281D02*
X126709Y121479D01*
X126709Y103281D02*
X122211Y103281D01*
X122211Y121479D01*
X126709Y121479D01*
X126709Y106638D02*
X122211Y106638D01*
X122211Y109995D02*
X126709Y109995D01*
X126709Y113352D02*
X122211Y113352D01*
X122211Y116709D02*
X126709Y116709D01*
X126709Y120066D02*
X122211Y120066D01*
X114009Y121479D02*
X114009Y103281D01*
X109511Y103281D01*
X109511Y121479D01*
X114009Y121479D01*
X114009Y106638D02*
X109511Y106638D01*
X109511Y109995D02*
X114009Y109995D01*
X114009Y113352D02*
X109511Y113352D01*
X109511Y116709D02*
X114009Y116709D01*
X114009Y120066D02*
X109511Y120066D01*
X101309Y121479D02*
X101309Y103281D01*
X96811Y103281D01*
X96811Y121479D01*
X101309Y121479D01*
X101309Y106638D02*
X96811Y106638D01*
X96811Y109995D02*
X101309Y109995D01*
X101309Y113352D02*
X96811Y113352D01*
X96811Y116709D02*
X101309Y116709D01*
X101309Y120066D02*
X96811Y120066D01*
X88609Y121479D02*
X88609Y103281D01*
X84111Y103281D01*
X84111Y121479D01*
X88609Y121479D01*
X88609Y106638D02*
X84111Y106638D01*
X84111Y109995D02*
X88609Y109995D01*
X88609Y113352D02*
X84111Y113352D01*
X84111Y116709D02*
X88609Y116709D01*
X88609Y120066D02*
X84111Y120066D01*
D28*
X105410Y87630D03*
D29*
X67820Y106400D03*
X67820Y101400D03*
X67820Y96400D03*
X67820Y71400D03*
X67820Y76400D03*
X67820Y81400D03*
X67820Y91400D03*
X67820Y86400D03*
D30*
X67820Y120900D03*
X67820Y56900D03*
X67820Y112900D03*
X67820Y64900D03*
D31*
X57120Y117800D03*
X57120Y60000D03*
D32*
X133350Y41020D03*
X133350Y25020D03*
D17*
X93980Y20980D03*
X93980Y39980D03*
X115570Y20980D03*
X115570Y39980D03*
D32*
X76200Y35940D03*
X76200Y19940D03*
X90170Y131700D03*
X90170Y147700D03*
D33*
X101310Y304800D03*
X134910Y304800D03*
D34*
X85598Y196342D03*
X66802Y196342D03*
D35*
X76200Y174498D03*
D19*
X70770Y386080D03*
X84170Y386080D03*
X70770Y374650D03*
X84170Y374650D03*
D22*
X149860Y296260D03*
X149860Y282860D03*
X149860Y348330D03*
X149860Y334930D03*
D32*
X64770Y320930D03*
X64770Y336930D03*
D22*
X64770Y295560D03*
X64770Y308960D03*
D15*
X36450Y381000D03*
X52450Y381000D03*
D22*
X76200Y320960D03*
X76200Y334360D03*
D36*
X344170Y284480D02*
X344170Y269240D01*
X318770Y269240D02*
X318770Y284480D01*
X293370Y284480D02*
X293370Y269240D01*
X267970Y269240D02*
X267970Y284480D01*
X242570Y284480D02*
X242570Y269240D01*
X217170Y269240D02*
X217170Y284480D01*
X191770Y284480D02*
X191770Y269240D01*
D37*
X162720Y25400D03*
X182720Y25400D03*
D38*
X21590Y352580D03*
X21590Y332580D03*
X21590Y312580D03*
X21590Y292580D03*
D39*
X309626Y36830D03*
D40*
X374650Y36830D03*
D41*
X113690Y328630D03*
X123190Y328630D03*
X132690Y328630D03*
X132690Y354630D03*
X113690Y354630D03*
D22*
X142240Y371190D03*
X142240Y357790D03*
D42*
X95250Y330590D03*
X95250Y347590D03*
D15*
X113920Y368300D03*
X129920Y368300D03*
D43*
X79630Y360680D03*
X95630Y360680D03*
D15*
X154560Y255270D03*
X170560Y255270D03*
D43*
X171830Y266700D03*
X155830Y266700D03*
D10*
X206520Y715520D03*
X223520Y715520D03*
D11*
X320570Y639990D03*
X307870Y639990D03*
X295170Y639990D03*
X282470Y639990D03*
X269770Y639990D03*
X257070Y639990D03*
X244370Y639990D03*
X231670Y639990D03*
X218970Y639990D03*
X206270Y639990D03*
X193570Y639990D03*
X180870Y639990D03*
X168170Y639990D03*
X155470Y639990D03*
D12*
X145470Y612140D03*
X145470Y599440D03*
X145470Y586740D03*
X145470Y574040D03*
X145470Y561340D03*
X145470Y548640D03*
X145470Y535940D03*
X145470Y523240D03*
X145470Y510540D03*
X145470Y497840D03*
D11*
X155470Y469990D03*
X168170Y469990D03*
X180870Y469990D03*
X193570Y469990D03*
X206270Y469990D03*
X218970Y469990D03*
X231670Y469990D03*
X244370Y469990D03*
X257070Y469990D03*
X269770Y469990D03*
X282470Y469990D03*
X295170Y469990D03*
X307870Y469990D03*
X320570Y469990D03*
D13*
X263920Y583340D03*
X263920Y564990D03*
X263920Y546640D03*
X245570Y583340D03*
X245570Y564990D03*
X245570Y546640D03*
X227220Y583340D03*
X227220Y564990D03*
X227220Y546640D03*
D14*
X263920Y574165D03*
X263920Y555815D03*
X254745Y583340D03*
X254745Y564990D03*
X254745Y546640D03*
X245570Y574165D03*
X245570Y555815D03*
X236395Y583340D03*
X236395Y564990D03*
X236395Y546640D03*
X227220Y574165D03*
X227220Y555815D03*
D15*
X181990Y772160D03*
X165990Y772160D03*
X381380Y684530D03*
X365380Y684530D03*
X181990Y784860D03*
X165990Y784860D03*
D16*
X263260Y453390D03*
X277760Y453390D03*
D17*
X285750Y442570D03*
X285750Y423570D03*
D18*
X166530Y724510D03*
X166530Y705510D03*
X186530Y715010D03*
X166530Y757530D03*
X166530Y738530D03*
X186530Y748030D03*
D19*
X367950Y660400D03*
X381350Y660400D03*
X367950Y671830D03*
X381350Y671830D03*
D20*
X70670Y675010D03*
X70670Y668650D03*
X70670Y662310D03*
X70670Y655950D03*
X70670Y649610D03*
X70670Y643250D03*
X70670Y636910D03*
X70670Y630550D03*
X70670Y624210D03*
X70670Y617850D03*
X124910Y617850D03*
X124910Y624210D03*
X124910Y630550D03*
X124910Y636910D03*
X124910Y643250D03*
X124910Y649610D03*
X124910Y655950D03*
X124910Y662310D03*
X124910Y668650D03*
X124910Y675010D03*
D21*
X210820Y422010D03*
X210820Y436510D03*
X246380Y422010D03*
X246380Y436510D03*
D17*
X228600Y423570D03*
X228600Y442570D03*
X262890Y423570D03*
X262890Y442570D03*
D22*
X149860Y724250D03*
X149860Y710850D03*
X49530Y435960D03*
X49530Y422560D03*
X60960Y422560D03*
X60960Y435960D03*
D23*
X37660Y614280D03*
X37660Y589280D03*
X37660Y564280D03*
D24*
X10160Y623280D03*
X10160Y555280D03*
D25*
X18750Y664820D03*
X18750Y655320D03*
X18750Y645820D03*
X44750Y645820D03*
X44750Y664820D03*
X44750Y655320D03*
D26*
X122542Y599988D02*
X122542Y585372D01*
X122542Y599988D02*
X125558Y599988D01*
X125558Y585372D01*
X122542Y585372D01*
X122542Y588237D02*
X125558Y588237D01*
X125558Y591102D02*
X122542Y591102D01*
X122542Y593967D02*
X125558Y593967D01*
X125558Y596832D02*
X122542Y596832D01*
X122542Y599697D02*
X125558Y599697D01*
X116042Y599988D02*
X116042Y585372D01*
X116042Y599988D02*
X119058Y599988D01*
X119058Y585372D01*
X116042Y585372D01*
X116042Y588237D02*
X119058Y588237D01*
X119058Y591102D02*
X116042Y591102D01*
X116042Y593967D02*
X119058Y593967D01*
X119058Y596832D02*
X116042Y596832D01*
X116042Y599697D02*
X119058Y599697D01*
X109542Y599988D02*
X109542Y585372D01*
X109542Y599988D02*
X112558Y599988D01*
X112558Y585372D01*
X109542Y585372D01*
X109542Y588237D02*
X112558Y588237D01*
X112558Y591102D02*
X109542Y591102D01*
X109542Y593967D02*
X112558Y593967D01*
X112558Y596832D02*
X109542Y596832D01*
X109542Y599697D02*
X112558Y599697D01*
X103042Y599988D02*
X103042Y585372D01*
X103042Y599988D02*
X106058Y599988D01*
X106058Y585372D01*
X103042Y585372D01*
X103042Y588237D02*
X106058Y588237D01*
X106058Y591102D02*
X103042Y591102D01*
X103042Y593967D02*
X106058Y593967D01*
X106058Y596832D02*
X103042Y596832D01*
X103042Y599697D02*
X106058Y599697D01*
X103042Y542388D02*
X103042Y527772D01*
X103042Y542388D02*
X106058Y542388D01*
X106058Y527772D01*
X103042Y527772D01*
X103042Y530637D02*
X106058Y530637D01*
X106058Y533502D02*
X103042Y533502D01*
X103042Y536367D02*
X106058Y536367D01*
X106058Y539232D02*
X103042Y539232D01*
X103042Y542097D02*
X106058Y542097D01*
X109542Y542388D02*
X109542Y527772D01*
X109542Y542388D02*
X112558Y542388D01*
X112558Y527772D01*
X109542Y527772D01*
X109542Y530637D02*
X112558Y530637D01*
X112558Y533502D02*
X109542Y533502D01*
X109542Y536367D02*
X112558Y536367D01*
X112558Y539232D02*
X109542Y539232D01*
X109542Y542097D02*
X112558Y542097D01*
X116042Y542388D02*
X116042Y527772D01*
X116042Y542388D02*
X119058Y542388D01*
X119058Y527772D01*
X116042Y527772D01*
X116042Y530637D02*
X119058Y530637D01*
X119058Y533502D02*
X116042Y533502D01*
X116042Y536367D02*
X119058Y536367D01*
X119058Y539232D02*
X116042Y539232D01*
X116042Y542097D02*
X119058Y542097D01*
X122542Y542388D02*
X122542Y527772D01*
X122542Y542388D02*
X125558Y542388D01*
X125558Y527772D01*
X122542Y527772D01*
X122542Y530637D02*
X125558Y530637D01*
X125558Y533502D02*
X122542Y533502D01*
X122542Y536367D02*
X125558Y536367D01*
X125558Y539232D02*
X122542Y539232D01*
X122542Y542097D02*
X125558Y542097D01*
D27*
X88609Y474569D02*
X88609Y456371D01*
X84111Y456371D01*
X84111Y474569D01*
X88609Y474569D01*
X88609Y459728D02*
X84111Y459728D01*
X84111Y463085D02*
X88609Y463085D01*
X88609Y466442D02*
X84111Y466442D01*
X84111Y469799D02*
X88609Y469799D01*
X88609Y473156D02*
X84111Y473156D01*
X101309Y474569D02*
X101309Y456371D01*
X96811Y456371D01*
X96811Y474569D01*
X101309Y474569D01*
X101309Y459728D02*
X96811Y459728D01*
X96811Y463085D02*
X101309Y463085D01*
X101309Y466442D02*
X96811Y466442D01*
X96811Y469799D02*
X101309Y469799D01*
X101309Y473156D02*
X96811Y473156D01*
X114009Y474569D02*
X114009Y456371D01*
X109511Y456371D01*
X109511Y474569D01*
X114009Y474569D01*
X114009Y459728D02*
X109511Y459728D01*
X109511Y463085D02*
X114009Y463085D01*
X114009Y466442D02*
X109511Y466442D01*
X109511Y469799D02*
X114009Y469799D01*
X114009Y473156D02*
X109511Y473156D01*
X126709Y474569D02*
X126709Y456371D01*
X122211Y456371D01*
X122211Y474569D01*
X126709Y474569D01*
X126709Y459728D02*
X122211Y459728D01*
X122211Y463085D02*
X126709Y463085D01*
X126709Y466442D02*
X122211Y466442D01*
X122211Y469799D02*
X126709Y469799D01*
X126709Y473156D02*
X122211Y473156D01*
X126709Y505871D02*
X126709Y524069D01*
X126709Y505871D02*
X122211Y505871D01*
X122211Y524069D01*
X126709Y524069D01*
X126709Y509228D02*
X122211Y509228D01*
X122211Y512585D02*
X126709Y512585D01*
X126709Y515942D02*
X122211Y515942D01*
X122211Y519299D02*
X126709Y519299D01*
X126709Y522656D02*
X122211Y522656D01*
X114009Y524069D02*
X114009Y505871D01*
X109511Y505871D01*
X109511Y524069D01*
X114009Y524069D01*
X114009Y509228D02*
X109511Y509228D01*
X109511Y512585D02*
X114009Y512585D01*
X114009Y515942D02*
X109511Y515942D01*
X109511Y519299D02*
X114009Y519299D01*
X114009Y522656D02*
X109511Y522656D01*
X101309Y524069D02*
X101309Y505871D01*
X96811Y505871D01*
X96811Y524069D01*
X101309Y524069D01*
X101309Y509228D02*
X96811Y509228D01*
X96811Y512585D02*
X101309Y512585D01*
X101309Y515942D02*
X96811Y515942D01*
X96811Y519299D02*
X101309Y519299D01*
X101309Y522656D02*
X96811Y522656D01*
X88609Y524069D02*
X88609Y505871D01*
X84111Y505871D01*
X84111Y524069D01*
X88609Y524069D01*
X88609Y509228D02*
X84111Y509228D01*
X84111Y512585D02*
X88609Y512585D01*
X88609Y515942D02*
X84111Y515942D01*
X84111Y519299D02*
X88609Y519299D01*
X88609Y522656D02*
X84111Y522656D01*
D28*
X105410Y490220D03*
D29*
X67820Y508990D03*
X67820Y503990D03*
X67820Y498990D03*
X67820Y473990D03*
X67820Y478990D03*
X67820Y483990D03*
X67820Y493990D03*
X67820Y488990D03*
D30*
X67820Y523490D03*
X67820Y459490D03*
X67820Y515490D03*
X67820Y467490D03*
D31*
X57120Y520390D03*
X57120Y462590D03*
D32*
X133350Y443610D03*
X133350Y427610D03*
D17*
X93980Y423570D03*
X93980Y442570D03*
X115570Y423570D03*
X115570Y442570D03*
D32*
X76200Y438530D03*
X76200Y422530D03*
X90170Y534290D03*
X90170Y550290D03*
D33*
X101310Y707390D03*
X134910Y707390D03*
D34*
X85598Y598932D03*
X66802Y598932D03*
D35*
X76200Y577088D03*
D19*
X70770Y788670D03*
X84170Y788670D03*
X70770Y777240D03*
X84170Y777240D03*
D22*
X149860Y698850D03*
X149860Y685450D03*
X149860Y750920D03*
X149860Y737520D03*
D32*
X64770Y723520D03*
X64770Y739520D03*
D22*
X64770Y698150D03*
X64770Y711550D03*
D15*
X36450Y783590D03*
X52450Y783590D03*
D22*
X76200Y723550D03*
X76200Y736950D03*
D36*
X344170Y687070D02*
X344170Y671830D01*
X318770Y671830D02*
X318770Y687070D01*
X293370Y687070D02*
X293370Y671830D01*
X267970Y671830D02*
X267970Y687070D01*
X242570Y687070D02*
X242570Y671830D01*
X217170Y671830D02*
X217170Y687070D01*
X191770Y687070D02*
X191770Y671830D01*
D37*
X162720Y427990D03*
X182720Y427990D03*
D38*
X21590Y755170D03*
X21590Y735170D03*
X21590Y715170D03*
X21590Y695170D03*
D39*
X309626Y439420D03*
D40*
X374650Y439420D03*
D41*
X113690Y731220D03*
X123190Y731220D03*
X132690Y731220D03*
X132690Y757220D03*
X113690Y757220D03*
D22*
X142240Y773780D03*
X142240Y760380D03*
D42*
X95250Y733180D03*
X95250Y750180D03*
D15*
X113920Y770890D03*
X129920Y770890D03*
D43*
X79630Y763270D03*
X95630Y763270D03*
D15*
X154560Y657860D03*
X170560Y657860D03*
D43*
X171830Y669290D03*
X155830Y669290D03*
D10*
X603740Y89660D03*
X586740Y89660D03*
D11*
X489690Y165190D03*
X502390Y165190D03*
X515090Y165190D03*
X527790Y165190D03*
X540490Y165190D03*
X553190Y165190D03*
X565890Y165190D03*
X578590Y165190D03*
X591290Y165190D03*
X603990Y165190D03*
X616690Y165190D03*
X629390Y165190D03*
X642090Y165190D03*
X654790Y165190D03*
D12*
X664790Y193040D03*
X664790Y205740D03*
X664790Y218440D03*
X664790Y231140D03*
X664790Y243840D03*
X664790Y256540D03*
X664790Y269240D03*
X664790Y281940D03*
X664790Y294640D03*
X664790Y307340D03*
D11*
X654790Y335190D03*
X642090Y335190D03*
X629390Y335190D03*
X616690Y335190D03*
X603990Y335190D03*
X591290Y335190D03*
X578590Y335190D03*
X565890Y335190D03*
X553190Y335190D03*
X540490Y335190D03*
X527790Y335190D03*
X515090Y335190D03*
X502390Y335190D03*
X489690Y335190D03*
D13*
X546340Y221840D03*
X546340Y240190D03*
X546340Y258540D03*
X564690Y221840D03*
X564690Y240190D03*
X564690Y258540D03*
X583040Y221840D03*
X583040Y240190D03*
X583040Y258540D03*
D14*
X546340Y231015D03*
X546340Y249365D03*
X555515Y221840D03*
X555515Y240190D03*
X555515Y258540D03*
X564690Y231015D03*
X564690Y249365D03*
X573865Y221840D03*
X573865Y240190D03*
X573865Y258540D03*
X583040Y231015D03*
X583040Y249365D03*
D15*
X628270Y33020D03*
X644270Y33020D03*
X428880Y120650D03*
X444880Y120650D03*
X628270Y20320D03*
X644270Y20320D03*
D16*
X547000Y351790D03*
X532500Y351790D03*
D17*
X524510Y362610D03*
X524510Y381610D03*
D18*
X643730Y80670D03*
X643730Y99670D03*
X623730Y90170D03*
X643730Y47650D03*
X643730Y66650D03*
X623730Y57150D03*
D19*
X442310Y144780D03*
X428910Y144780D03*
X442310Y133350D03*
X428910Y133350D03*
D20*
X739590Y130170D03*
X739590Y136530D03*
X739590Y142870D03*
X739590Y149230D03*
X739590Y155570D03*
X739590Y161930D03*
X739590Y168270D03*
X739590Y174630D03*
X739590Y180970D03*
X739590Y187330D03*
X685350Y187330D03*
X685350Y180970D03*
X685350Y174630D03*
X685350Y168270D03*
X685350Y161930D03*
X685350Y155570D03*
X685350Y149230D03*
X685350Y142870D03*
X685350Y136530D03*
X685350Y130170D03*
D21*
X599440Y383170D03*
X599440Y368670D03*
X563880Y383170D03*
X563880Y368670D03*
D17*
X581660Y381610D03*
X581660Y362610D03*
X547370Y381610D03*
X547370Y362610D03*
D22*
X660400Y80930D03*
X660400Y94330D03*
X760730Y369220D03*
X760730Y382620D03*
X749300Y382620D03*
X749300Y369220D03*
D23*
X772600Y190900D03*
X772600Y215900D03*
X772600Y240900D03*
D24*
X800100Y181900D03*
X800100Y249900D03*
D25*
X791510Y140360D03*
X791510Y149860D03*
X791510Y159360D03*
X765510Y159360D03*
X765510Y140360D03*
X765510Y149860D03*
D26*
X687718Y205192D02*
X687718Y219808D01*
X687718Y205192D02*
X684702Y205192D01*
X684702Y219808D01*
X687718Y219808D01*
X687718Y208057D02*
X684702Y208057D01*
X684702Y210922D02*
X687718Y210922D01*
X687718Y213787D02*
X684702Y213787D01*
X684702Y216652D02*
X687718Y216652D01*
X687718Y219517D02*
X684702Y219517D01*
X694218Y219808D02*
X694218Y205192D01*
X691202Y205192D01*
X691202Y219808D01*
X694218Y219808D01*
X694218Y208057D02*
X691202Y208057D01*
X691202Y210922D02*
X694218Y210922D01*
X694218Y213787D02*
X691202Y213787D01*
X691202Y216652D02*
X694218Y216652D01*
X694218Y219517D02*
X691202Y219517D01*
X700718Y219808D02*
X700718Y205192D01*
X697702Y205192D01*
X697702Y219808D01*
X700718Y219808D01*
X700718Y208057D02*
X697702Y208057D01*
X697702Y210922D02*
X700718Y210922D01*
X700718Y213787D02*
X697702Y213787D01*
X697702Y216652D02*
X700718Y216652D01*
X700718Y219517D02*
X697702Y219517D01*
X707218Y219808D02*
X707218Y205192D01*
X704202Y205192D01*
X704202Y219808D01*
X707218Y219808D01*
X707218Y208057D02*
X704202Y208057D01*
X704202Y210922D02*
X707218Y210922D01*
X707218Y213787D02*
X704202Y213787D01*
X704202Y216652D02*
X707218Y216652D01*
X707218Y219517D02*
X704202Y219517D01*
X707218Y262792D02*
X707218Y277408D01*
X707218Y262792D02*
X704202Y262792D01*
X704202Y277408D01*
X707218Y277408D01*
X707218Y265657D02*
X704202Y265657D01*
X704202Y268522D02*
X707218Y268522D01*
X707218Y271387D02*
X704202Y271387D01*
X704202Y274252D02*
X707218Y274252D01*
X707218Y277117D02*
X704202Y277117D01*
X700718Y277408D02*
X700718Y262792D01*
X697702Y262792D01*
X697702Y277408D01*
X700718Y277408D01*
X700718Y265657D02*
X697702Y265657D01*
X697702Y268522D02*
X700718Y268522D01*
X700718Y271387D02*
X697702Y271387D01*
X697702Y274252D02*
X700718Y274252D01*
X700718Y277117D02*
X697702Y277117D01*
X694218Y277408D02*
X694218Y262792D01*
X691202Y262792D01*
X691202Y277408D01*
X694218Y277408D01*
X694218Y265657D02*
X691202Y265657D01*
X691202Y268522D02*
X694218Y268522D01*
X694218Y271387D02*
X691202Y271387D01*
X691202Y274252D02*
X694218Y274252D01*
X694218Y277117D02*
X691202Y277117D01*
X687718Y277408D02*
X687718Y262792D01*
X684702Y262792D01*
X684702Y277408D01*
X687718Y277408D01*
X687718Y265657D02*
X684702Y265657D01*
X684702Y268522D02*
X687718Y268522D01*
X687718Y271387D02*
X684702Y271387D01*
X684702Y274252D02*
X687718Y274252D01*
X687718Y277117D02*
X684702Y277117D01*
D27*
X721651Y330611D02*
X721651Y348809D01*
X726149Y348809D01*
X726149Y330611D01*
X721651Y330611D01*
X721651Y333968D02*
X726149Y333968D01*
X726149Y337325D02*
X721651Y337325D01*
X721651Y340682D02*
X726149Y340682D01*
X726149Y344039D02*
X721651Y344039D01*
X721651Y347396D02*
X726149Y347396D01*
X708951Y348809D02*
X708951Y330611D01*
X708951Y348809D02*
X713449Y348809D01*
X713449Y330611D01*
X708951Y330611D01*
X708951Y333968D02*
X713449Y333968D01*
X713449Y337325D02*
X708951Y337325D01*
X708951Y340682D02*
X713449Y340682D01*
X713449Y344039D02*
X708951Y344039D01*
X708951Y347396D02*
X713449Y347396D01*
X696251Y348809D02*
X696251Y330611D01*
X696251Y348809D02*
X700749Y348809D01*
X700749Y330611D01*
X696251Y330611D01*
X696251Y333968D02*
X700749Y333968D01*
X700749Y337325D02*
X696251Y337325D01*
X696251Y340682D02*
X700749Y340682D01*
X700749Y344039D02*
X696251Y344039D01*
X696251Y347396D02*
X700749Y347396D01*
X683551Y348809D02*
X683551Y330611D01*
X683551Y348809D02*
X688049Y348809D01*
X688049Y330611D01*
X683551Y330611D01*
X683551Y333968D02*
X688049Y333968D01*
X688049Y337325D02*
X683551Y337325D01*
X683551Y340682D02*
X688049Y340682D01*
X688049Y344039D02*
X683551Y344039D01*
X683551Y347396D02*
X688049Y347396D01*
X683551Y299309D02*
X683551Y281111D01*
X683551Y299309D02*
X688049Y299309D01*
X688049Y281111D01*
X683551Y281111D01*
X683551Y284468D02*
X688049Y284468D01*
X688049Y287825D02*
X683551Y287825D01*
X683551Y291182D02*
X688049Y291182D01*
X688049Y294539D02*
X683551Y294539D01*
X683551Y297896D02*
X688049Y297896D01*
X696251Y299309D02*
X696251Y281111D01*
X696251Y299309D02*
X700749Y299309D01*
X700749Y281111D01*
X696251Y281111D01*
X696251Y284468D02*
X700749Y284468D01*
X700749Y287825D02*
X696251Y287825D01*
X696251Y291182D02*
X700749Y291182D01*
X700749Y294539D02*
X696251Y294539D01*
X696251Y297896D02*
X700749Y297896D01*
X708951Y299309D02*
X708951Y281111D01*
X708951Y299309D02*
X713449Y299309D01*
X713449Y281111D01*
X708951Y281111D01*
X708951Y284468D02*
X713449Y284468D01*
X713449Y287825D02*
X708951Y287825D01*
X708951Y291182D02*
X713449Y291182D01*
X713449Y294539D02*
X708951Y294539D01*
X708951Y297896D02*
X713449Y297896D01*
X721651Y299309D02*
X721651Y281111D01*
X721651Y299309D02*
X726149Y299309D01*
X726149Y281111D01*
X721651Y281111D01*
X721651Y284468D02*
X726149Y284468D01*
X726149Y287825D02*
X721651Y287825D01*
X721651Y291182D02*
X726149Y291182D01*
X726149Y294539D02*
X721651Y294539D01*
X721651Y297896D02*
X726149Y297896D01*
D28*
X704850Y314960D03*
D29*
X742440Y296190D03*
X742440Y301190D03*
X742440Y306190D03*
X742440Y331190D03*
X742440Y326190D03*
X742440Y321190D03*
X742440Y311190D03*
X742440Y316190D03*
D30*
X742440Y281690D03*
X742440Y345690D03*
X742440Y289690D03*
X742440Y337690D03*
D31*
X753140Y284790D03*
X753140Y342590D03*
D32*
X676910Y361570D03*
X676910Y377570D03*
D17*
X716280Y381610D03*
X716280Y362610D03*
X694690Y381610D03*
X694690Y362610D03*
D32*
X734060Y366650D03*
X734060Y382650D03*
X720090Y270890D03*
X720090Y254890D03*
D33*
X708950Y97790D03*
X675350Y97790D03*
D34*
X724662Y206248D03*
X743458Y206248D03*
D35*
X734060Y228092D03*
D19*
X739490Y16510D03*
X726090Y16510D03*
X739490Y27940D03*
X726090Y27940D03*
D22*
X660400Y106330D03*
X660400Y119730D03*
X660400Y54260D03*
X660400Y67660D03*
D32*
X745490Y81660D03*
X745490Y65660D03*
D22*
X745490Y107030D03*
X745490Y93630D03*
D15*
X773810Y21590D03*
X757810Y21590D03*
D22*
X734060Y81630D03*
X734060Y68230D03*
D36*
X466090Y118110D02*
X466090Y133350D01*
X491490Y133350D02*
X491490Y118110D01*
X516890Y118110D02*
X516890Y133350D01*
X542290Y133350D02*
X542290Y118110D01*
X567690Y118110D02*
X567690Y133350D01*
X593090Y133350D02*
X593090Y118110D01*
X618490Y118110D02*
X618490Y133350D01*
D44*
X647540Y377190D03*
X627540Y377190D03*
D45*
X788670Y50010D03*
X788670Y70010D03*
X788670Y90010D03*
X788670Y110010D03*
D39*
X500634Y365760D03*
D40*
X435610Y365760D03*
D41*
X696570Y73960D03*
X687070Y73960D03*
X677570Y73960D03*
X677570Y47960D03*
X696570Y47960D03*
D22*
X668020Y31400D03*
X668020Y44800D03*
D42*
X715010Y72000D03*
X715010Y55000D03*
D15*
X696340Y34290D03*
X680340Y34290D03*
D43*
X730630Y41910D03*
X714630Y41910D03*
D15*
X655700Y147320D03*
X639700Y147320D03*
D43*
X638430Y135890D03*
X654430Y135890D03*
D10*
X601200Y493520D03*
X584200Y493520D03*
D11*
X487150Y569050D03*
X499850Y569050D03*
X512550Y569050D03*
X525250Y569050D03*
X537950Y569050D03*
X550650Y569050D03*
X563350Y569050D03*
X576050Y569050D03*
X588750Y569050D03*
X601450Y569050D03*
X614150Y569050D03*
X626850Y569050D03*
X639550Y569050D03*
X652250Y569050D03*
D12*
X662250Y596900D03*
X662250Y609600D03*
X662250Y622300D03*
X662250Y635000D03*
X662250Y647700D03*
X662250Y660400D03*
X662250Y673100D03*
X662250Y685800D03*
X662250Y698500D03*
X662250Y711200D03*
D11*
X652250Y739050D03*
X639550Y739050D03*
X626850Y739050D03*
X614150Y739050D03*
X601450Y739050D03*
X588750Y739050D03*
X576050Y739050D03*
X563350Y739050D03*
X550650Y739050D03*
X537950Y739050D03*
X525250Y739050D03*
X512550Y739050D03*
X499850Y739050D03*
X487150Y739050D03*
D13*
X543800Y625700D03*
X543800Y644050D03*
X543800Y662400D03*
X562150Y625700D03*
X562150Y644050D03*
X562150Y662400D03*
X580500Y625700D03*
X580500Y644050D03*
X580500Y662400D03*
D14*
X543800Y634875D03*
X543800Y653225D03*
X552975Y625700D03*
X552975Y644050D03*
X552975Y662400D03*
X562150Y634875D03*
X562150Y653225D03*
X571325Y625700D03*
X571325Y644050D03*
X571325Y662400D03*
X580500Y634875D03*
X580500Y653225D03*
D15*
X625730Y436880D03*
X641730Y436880D03*
X426340Y524510D03*
X442340Y524510D03*
X625730Y424180D03*
X641730Y424180D03*
D16*
X544460Y755650D03*
X529960Y755650D03*
D17*
X521970Y766470D03*
X521970Y785470D03*
D18*
X641190Y484530D03*
X641190Y503530D03*
X621190Y494030D03*
X641190Y451510D03*
X641190Y470510D03*
X621190Y461010D03*
D19*
X439770Y548640D03*
X426370Y548640D03*
X439770Y537210D03*
X426370Y537210D03*
D20*
X737050Y534030D03*
X737050Y540390D03*
X737050Y546730D03*
X737050Y553090D03*
X737050Y559430D03*
X737050Y565790D03*
X737050Y572130D03*
X737050Y578490D03*
X737050Y584830D03*
X737050Y591190D03*
X682810Y591190D03*
X682810Y584830D03*
X682810Y578490D03*
X682810Y572130D03*
X682810Y565790D03*
X682810Y559430D03*
X682810Y553090D03*
X682810Y546730D03*
X682810Y540390D03*
X682810Y534030D03*
D21*
X596900Y787030D03*
X596900Y772530D03*
X561340Y787030D03*
X561340Y772530D03*
D17*
X579120Y785470D03*
X579120Y766470D03*
X544830Y785470D03*
X544830Y766470D03*
D22*
X657860Y484790D03*
X657860Y498190D03*
X758190Y773080D03*
X758190Y786480D03*
X746760Y786480D03*
X746760Y773080D03*
D23*
X770060Y594760D03*
X770060Y619760D03*
X770060Y644760D03*
D24*
X797560Y585760D03*
X797560Y653760D03*
D25*
X788970Y544220D03*
X788970Y553720D03*
X788970Y563220D03*
X762970Y563220D03*
X762970Y544220D03*
X762970Y553720D03*
D26*
X685178Y609052D02*
X685178Y623668D01*
X685178Y609052D02*
X682162Y609052D01*
X682162Y623668D01*
X685178Y623668D01*
X685178Y611917D02*
X682162Y611917D01*
X682162Y614782D02*
X685178Y614782D01*
X685178Y617647D02*
X682162Y617647D01*
X682162Y620512D02*
X685178Y620512D01*
X685178Y623377D02*
X682162Y623377D01*
X691678Y623668D02*
X691678Y609052D01*
X688662Y609052D01*
X688662Y623668D01*
X691678Y623668D01*
X691678Y611917D02*
X688662Y611917D01*
X688662Y614782D02*
X691678Y614782D01*
X691678Y617647D02*
X688662Y617647D01*
X688662Y620512D02*
X691678Y620512D01*
X691678Y623377D02*
X688662Y623377D01*
X698178Y623668D02*
X698178Y609052D01*
X695162Y609052D01*
X695162Y623668D01*
X698178Y623668D01*
X698178Y611917D02*
X695162Y611917D01*
X695162Y614782D02*
X698178Y614782D01*
X698178Y617647D02*
X695162Y617647D01*
X695162Y620512D02*
X698178Y620512D01*
X698178Y623377D02*
X695162Y623377D01*
X704678Y623668D02*
X704678Y609052D01*
X701662Y609052D01*
X701662Y623668D01*
X704678Y623668D01*
X704678Y611917D02*
X701662Y611917D01*
X701662Y614782D02*
X704678Y614782D01*
X704678Y617647D02*
X701662Y617647D01*
X701662Y620512D02*
X704678Y620512D01*
X704678Y623377D02*
X701662Y623377D01*
X704678Y666652D02*
X704678Y681268D01*
X704678Y666652D02*
X701662Y666652D01*
X701662Y681268D01*
X704678Y681268D01*
X704678Y669517D02*
X701662Y669517D01*
X701662Y672382D02*
X704678Y672382D01*
X704678Y675247D02*
X701662Y675247D01*
X701662Y678112D02*
X704678Y678112D01*
X704678Y680977D02*
X701662Y680977D01*
X698178Y681268D02*
X698178Y666652D01*
X695162Y666652D01*
X695162Y681268D01*
X698178Y681268D01*
X698178Y669517D02*
X695162Y669517D01*
X695162Y672382D02*
X698178Y672382D01*
X698178Y675247D02*
X695162Y675247D01*
X695162Y678112D02*
X698178Y678112D01*
X698178Y680977D02*
X695162Y680977D01*
X691678Y681268D02*
X691678Y666652D01*
X688662Y666652D01*
X688662Y681268D01*
X691678Y681268D01*
X691678Y669517D02*
X688662Y669517D01*
X688662Y672382D02*
X691678Y672382D01*
X691678Y675247D02*
X688662Y675247D01*
X688662Y678112D02*
X691678Y678112D01*
X691678Y680977D02*
X688662Y680977D01*
X685178Y681268D02*
X685178Y666652D01*
X682162Y666652D01*
X682162Y681268D01*
X685178Y681268D01*
X685178Y669517D02*
X682162Y669517D01*
X682162Y672382D02*
X685178Y672382D01*
X685178Y675247D02*
X682162Y675247D01*
X682162Y678112D02*
X685178Y678112D01*
X685178Y680977D02*
X682162Y680977D01*
D27*
X719111Y734471D02*
X719111Y752669D01*
X723609Y752669D01*
X723609Y734471D01*
X719111Y734471D01*
X719111Y737828D02*
X723609Y737828D01*
X723609Y741185D02*
X719111Y741185D01*
X719111Y744542D02*
X723609Y744542D01*
X723609Y747899D02*
X719111Y747899D01*
X719111Y751256D02*
X723609Y751256D01*
X706411Y752669D02*
X706411Y734471D01*
X706411Y752669D02*
X710909Y752669D01*
X710909Y734471D01*
X706411Y734471D01*
X706411Y737828D02*
X710909Y737828D01*
X710909Y741185D02*
X706411Y741185D01*
X706411Y744542D02*
X710909Y744542D01*
X710909Y747899D02*
X706411Y747899D01*
X706411Y751256D02*
X710909Y751256D01*
X693711Y752669D02*
X693711Y734471D01*
X693711Y752669D02*
X698209Y752669D01*
X698209Y734471D01*
X693711Y734471D01*
X693711Y737828D02*
X698209Y737828D01*
X698209Y741185D02*
X693711Y741185D01*
X693711Y744542D02*
X698209Y744542D01*
X698209Y747899D02*
X693711Y747899D01*
X693711Y751256D02*
X698209Y751256D01*
X681011Y752669D02*
X681011Y734471D01*
X681011Y752669D02*
X685509Y752669D01*
X685509Y734471D01*
X681011Y734471D01*
X681011Y737828D02*
X685509Y737828D01*
X685509Y741185D02*
X681011Y741185D01*
X681011Y744542D02*
X685509Y744542D01*
X685509Y747899D02*
X681011Y747899D01*
X681011Y751256D02*
X685509Y751256D01*
X681011Y703169D02*
X681011Y684971D01*
X681011Y703169D02*
X685509Y703169D01*
X685509Y684971D01*
X681011Y684971D01*
X681011Y688328D02*
X685509Y688328D01*
X685509Y691685D02*
X681011Y691685D01*
X681011Y695042D02*
X685509Y695042D01*
X685509Y698399D02*
X681011Y698399D01*
X681011Y701756D02*
X685509Y701756D01*
X693711Y703169D02*
X693711Y684971D01*
X693711Y703169D02*
X698209Y703169D01*
X698209Y684971D01*
X693711Y684971D01*
X693711Y688328D02*
X698209Y688328D01*
X698209Y691685D02*
X693711Y691685D01*
X693711Y695042D02*
X698209Y695042D01*
X698209Y698399D02*
X693711Y698399D01*
X693711Y701756D02*
X698209Y701756D01*
X706411Y703169D02*
X706411Y684971D01*
X706411Y703169D02*
X710909Y703169D01*
X710909Y684971D01*
X706411Y684971D01*
X706411Y688328D02*
X710909Y688328D01*
X710909Y691685D02*
X706411Y691685D01*
X706411Y695042D02*
X710909Y695042D01*
X710909Y698399D02*
X706411Y698399D01*
X706411Y701756D02*
X710909Y701756D01*
X719111Y703169D02*
X719111Y684971D01*
X719111Y703169D02*
X723609Y703169D01*
X723609Y684971D01*
X719111Y684971D01*
X719111Y688328D02*
X723609Y688328D01*
X723609Y691685D02*
X719111Y691685D01*
X719111Y695042D02*
X723609Y695042D01*
X723609Y698399D02*
X719111Y698399D01*
X719111Y701756D02*
X723609Y701756D01*
D28*
X702310Y718820D03*
D29*
X739900Y700050D03*
X739900Y705050D03*
X739900Y710050D03*
X739900Y735050D03*
X739900Y730050D03*
X739900Y725050D03*
X739900Y715050D03*
X739900Y720050D03*
D30*
X739900Y685550D03*
X739900Y749550D03*
X739900Y693550D03*
X739900Y741550D03*
D31*
X750600Y688650D03*
X750600Y746450D03*
D32*
X674370Y765430D03*
X674370Y781430D03*
D17*
X713740Y785470D03*
X713740Y766470D03*
X692150Y785470D03*
X692150Y766470D03*
D32*
X731520Y770510D03*
X731520Y786510D03*
X717550Y674750D03*
X717550Y658750D03*
D33*
X706410Y501650D03*
X672810Y501650D03*
D34*
X722122Y610108D03*
X740918Y610108D03*
D35*
X731520Y631952D03*
D19*
X736950Y420370D03*
X723550Y420370D03*
X736950Y431800D03*
X723550Y431800D03*
D22*
X657860Y510190D03*
X657860Y523590D03*
X657860Y458120D03*
X657860Y471520D03*
D32*
X742950Y485520D03*
X742950Y469520D03*
D22*
X742950Y510890D03*
X742950Y497490D03*
D15*
X771270Y425450D03*
X755270Y425450D03*
D22*
X731520Y485490D03*
X731520Y472090D03*
D36*
X463550Y521970D02*
X463550Y537210D01*
X488950Y537210D02*
X488950Y521970D01*
X514350Y521970D02*
X514350Y537210D01*
X539750Y537210D02*
X539750Y521970D01*
X565150Y521970D02*
X565150Y537210D01*
X590550Y537210D02*
X590550Y521970D01*
X615950Y521970D02*
X615950Y537210D01*
D44*
X645000Y781050D03*
X625000Y781050D03*
D45*
X786130Y453870D03*
X786130Y473870D03*
X786130Y493870D03*
X786130Y513870D03*
D39*
X498094Y769620D03*
D40*
X433070Y769620D03*
D41*
X694030Y477820D03*
X684530Y477820D03*
X675030Y477820D03*
X675030Y451820D03*
X694030Y451820D03*
D22*
X665480Y435260D03*
X665480Y448660D03*
D42*
X712470Y475860D03*
X712470Y458860D03*
D15*
X693800Y438150D03*
X677800Y438150D03*
D43*
X728090Y445770D03*
X712090Y445770D03*
D15*
X653160Y551180D03*
X637160Y551180D03*
D43*
X635890Y539750D03*
X651890Y539750D03*
M02*
