G04 EAGLE Gerber RS-274X export*
G75*
%MOMM*%
%FSLAX34Y34*%
%LPD*%
%INSoldermask Bottom*%
%IPPOS*%
%AMOC8*
5,1,8,0,0,1.08239X$1,22.5*%
G01*
%ADD10C,0.911200*%
%ADD11C,1.203200*%
%ADD12C,0.803200*%
%ADD13C,1.727200*%
%ADD14P,2.034460X8X22.500000*%
%ADD15P,2.034460X8X292.500000*%
%ADD16R,2.070100X2.070100*%
%ADD17C,2.070100*%
%ADD18P,2.034460X8X202.500000*%
%ADD19P,2.034460X8X112.500000*%

G36*
X67523Y443193D02*
X67523Y443193D01*
X67526Y443191D01*
X68638Y443316D01*
X68644Y443322D01*
X68649Y443319D01*
X69706Y443689D01*
X69710Y443696D01*
X69716Y443693D01*
X70664Y444289D01*
X70667Y444297D01*
X70672Y444296D01*
X71464Y445088D01*
X71465Y445096D01*
X71471Y445096D01*
X72067Y446044D01*
X72066Y446053D01*
X72071Y446054D01*
X72441Y447111D01*
X72440Y447115D01*
X72442Y447117D01*
X72440Y447120D01*
X72444Y447122D01*
X72569Y448235D01*
X72565Y448241D01*
X72569Y448245D01*
X72456Y449348D01*
X72450Y449354D01*
X72454Y449359D01*
X72098Y450408D01*
X72091Y450413D01*
X72093Y450418D01*
X71513Y451363D01*
X71506Y451366D01*
X71506Y451372D01*
X70731Y452163D01*
X70722Y452165D01*
X70722Y452170D01*
X69789Y452770D01*
X69781Y452769D01*
X69780Y452774D01*
X68737Y453151D01*
X68729Y453149D01*
X68726Y453154D01*
X67626Y453289D01*
X67623Y453287D01*
X67622Y453287D01*
X67620Y453289D01*
X56620Y453289D01*
X56617Y453287D01*
X56615Y453289D01*
X55490Y453174D01*
X55484Y453168D01*
X55479Y453171D01*
X54408Y452808D01*
X54404Y452801D01*
X54398Y452804D01*
X53435Y452211D01*
X53432Y452204D01*
X53426Y452205D01*
X52618Y451413D01*
X52617Y451405D01*
X52612Y451404D01*
X52000Y450453D01*
X52001Y450447D01*
X51997Y450444D01*
X51997Y450443D01*
X51996Y450443D01*
X51611Y449379D01*
X51614Y449371D01*
X51609Y449368D01*
X51471Y448246D01*
X51475Y448239D01*
X51471Y448235D01*
X51596Y447122D01*
X51602Y447116D01*
X51599Y447111D01*
X51969Y446054D01*
X51976Y446050D01*
X51973Y446044D01*
X52569Y445096D01*
X52577Y445093D01*
X52576Y445088D01*
X53368Y444296D01*
X53376Y444295D01*
X53376Y444289D01*
X54324Y443693D01*
X54333Y443694D01*
X54334Y443689D01*
X55391Y443319D01*
X55399Y443321D01*
X55402Y443316D01*
X56515Y443191D01*
X56518Y443193D01*
X56520Y443191D01*
X67520Y443191D01*
X67523Y443193D01*
G37*
G36*
X67523Y40603D02*
X67523Y40603D01*
X67526Y40601D01*
X68638Y40726D01*
X68644Y40732D01*
X68649Y40729D01*
X69706Y41099D01*
X69710Y41106D01*
X69716Y41103D01*
X70664Y41699D01*
X70667Y41707D01*
X70672Y41706D01*
X71464Y42498D01*
X71465Y42506D01*
X71471Y42506D01*
X72067Y43454D01*
X72066Y43463D01*
X72071Y43464D01*
X72441Y44521D01*
X72440Y44525D01*
X72442Y44527D01*
X72440Y44530D01*
X72444Y44532D01*
X72569Y45645D01*
X72565Y45651D01*
X72569Y45655D01*
X72456Y46758D01*
X72450Y46764D01*
X72454Y46769D01*
X72098Y47818D01*
X72091Y47823D01*
X72093Y47828D01*
X71513Y48773D01*
X71506Y48776D01*
X71506Y48782D01*
X70731Y49573D01*
X70722Y49575D01*
X70722Y49580D01*
X69789Y50180D01*
X69781Y50179D01*
X69780Y50184D01*
X68737Y50561D01*
X68729Y50559D01*
X68726Y50564D01*
X67626Y50699D01*
X67623Y50697D01*
X67622Y50697D01*
X67620Y50699D01*
X56620Y50699D01*
X56617Y50697D01*
X56615Y50699D01*
X55490Y50584D01*
X55484Y50578D01*
X55479Y50581D01*
X54408Y50218D01*
X54404Y50211D01*
X54398Y50214D01*
X53435Y49621D01*
X53432Y49614D01*
X53426Y49615D01*
X52618Y48823D01*
X52617Y48815D01*
X52612Y48814D01*
X52000Y47863D01*
X52001Y47857D01*
X51997Y47854D01*
X51997Y47853D01*
X51996Y47853D01*
X51611Y46789D01*
X51614Y46781D01*
X51609Y46778D01*
X51471Y45656D01*
X51475Y45649D01*
X51471Y45645D01*
X51596Y44532D01*
X51602Y44526D01*
X51599Y44521D01*
X51969Y43464D01*
X51976Y43460D01*
X51973Y43454D01*
X52569Y42506D01*
X52577Y42503D01*
X52576Y42498D01*
X53368Y41706D01*
X53376Y41705D01*
X53376Y41699D01*
X54324Y41103D01*
X54333Y41104D01*
X54334Y41099D01*
X55391Y40729D01*
X55399Y40731D01*
X55402Y40726D01*
X56515Y40601D01*
X56518Y40603D01*
X56520Y40601D01*
X67520Y40601D01*
X67523Y40603D01*
G37*
G36*
X751103Y755753D02*
X751103Y755753D01*
X751105Y755751D01*
X752230Y755867D01*
X752236Y755872D01*
X752241Y755869D01*
X753312Y756232D01*
X753316Y756239D01*
X753322Y756236D01*
X754285Y756829D01*
X754288Y756836D01*
X754294Y756835D01*
X755102Y757627D01*
X755103Y757635D01*
X755109Y757636D01*
X755720Y758587D01*
X755719Y758592D01*
X755721Y758594D01*
X755720Y758596D01*
X755725Y758597D01*
X756109Y759661D01*
X756106Y759669D01*
X756111Y759672D01*
X756249Y760794D01*
X756245Y760801D01*
X756249Y760806D01*
X756124Y761918D01*
X756118Y761924D01*
X756121Y761929D01*
X755751Y762986D01*
X755745Y762990D01*
X755747Y762996D01*
X755151Y763944D01*
X755143Y763947D01*
X755144Y763952D01*
X754352Y764744D01*
X754344Y764745D01*
X754344Y764751D01*
X753396Y765347D01*
X753387Y765346D01*
X753386Y765351D01*
X752329Y765721D01*
X752321Y765719D01*
X752318Y765724D01*
X751206Y765849D01*
X751202Y765847D01*
X751200Y765849D01*
X740200Y765849D01*
X740197Y765847D01*
X740196Y765847D01*
X740195Y765849D01*
X739082Y765724D01*
X739076Y765718D01*
X739071Y765721D01*
X738014Y765351D01*
X738010Y765345D01*
X738004Y765347D01*
X737056Y764751D01*
X737053Y764743D01*
X737048Y764744D01*
X736256Y763952D01*
X736255Y763944D01*
X736249Y763944D01*
X735653Y762996D01*
X735654Y762987D01*
X735649Y762986D01*
X735279Y761929D01*
X735281Y761923D01*
X735277Y761920D01*
X735278Y761919D01*
X735276Y761918D01*
X735151Y760806D01*
X735155Y760799D01*
X735151Y760795D01*
X735264Y759692D01*
X735270Y759686D01*
X735266Y759682D01*
X735622Y758632D01*
X735629Y758627D01*
X735627Y758622D01*
X736207Y757677D01*
X736214Y757674D01*
X736214Y757668D01*
X736989Y756877D01*
X736998Y756875D01*
X736998Y756870D01*
X737931Y756270D01*
X737939Y756271D01*
X737940Y756266D01*
X738983Y755889D01*
X738991Y755891D01*
X738994Y755886D01*
X740094Y755751D01*
X740098Y755753D01*
X740100Y755751D01*
X751100Y755751D01*
X751103Y755753D01*
G37*
G36*
X753643Y351893D02*
X753643Y351893D01*
X753645Y351891D01*
X754770Y352007D01*
X754776Y352012D01*
X754781Y352009D01*
X755852Y352372D01*
X755856Y352379D01*
X755862Y352376D01*
X756825Y352969D01*
X756828Y352976D01*
X756834Y352975D01*
X757642Y353767D01*
X757643Y353775D01*
X757649Y353776D01*
X758260Y354727D01*
X758259Y354732D01*
X758261Y354734D01*
X758260Y354736D01*
X758265Y354737D01*
X758649Y355801D01*
X758646Y355809D01*
X758651Y355812D01*
X758789Y356934D01*
X758785Y356941D01*
X758789Y356946D01*
X758664Y358058D01*
X758658Y358064D01*
X758661Y358069D01*
X758291Y359126D01*
X758285Y359130D01*
X758287Y359136D01*
X757691Y360084D01*
X757683Y360087D01*
X757684Y360092D01*
X756892Y360884D01*
X756884Y360885D01*
X756884Y360891D01*
X755936Y361487D01*
X755927Y361486D01*
X755926Y361491D01*
X754869Y361861D01*
X754861Y361859D01*
X754858Y361864D01*
X753746Y361989D01*
X753742Y361987D01*
X753740Y361989D01*
X742740Y361989D01*
X742737Y361987D01*
X742736Y361987D01*
X742735Y361989D01*
X741622Y361864D01*
X741616Y361858D01*
X741611Y361861D01*
X740554Y361491D01*
X740550Y361485D01*
X740544Y361487D01*
X739596Y360891D01*
X739593Y360883D01*
X739588Y360884D01*
X738796Y360092D01*
X738795Y360084D01*
X738789Y360084D01*
X738193Y359136D01*
X738194Y359127D01*
X738189Y359126D01*
X737819Y358069D01*
X737821Y358063D01*
X737817Y358060D01*
X737818Y358059D01*
X737816Y358058D01*
X737691Y356946D01*
X737695Y356939D01*
X737691Y356935D01*
X737804Y355832D01*
X737810Y355826D01*
X737806Y355822D01*
X738162Y354772D01*
X738169Y354767D01*
X738167Y354762D01*
X738747Y353817D01*
X738754Y353814D01*
X738754Y353808D01*
X739529Y353017D01*
X739538Y353015D01*
X739538Y353010D01*
X740471Y352410D01*
X740479Y352411D01*
X740480Y352406D01*
X741523Y352029D01*
X741531Y352031D01*
X741534Y352026D01*
X742634Y351891D01*
X742638Y351893D01*
X742640Y351891D01*
X753640Y351891D01*
X753643Y351893D01*
G37*
G36*
X751203Y669253D02*
X751203Y669253D01*
X751206Y669251D01*
X752318Y669376D01*
X752324Y669382D01*
X752329Y669379D01*
X753386Y669749D01*
X753390Y669756D01*
X753396Y669753D01*
X754344Y670349D01*
X754347Y670357D01*
X754352Y670356D01*
X755144Y671148D01*
X755145Y671156D01*
X755151Y671156D01*
X755747Y672104D01*
X755746Y672113D01*
X755751Y672114D01*
X756121Y673171D01*
X756120Y673175D01*
X756122Y673177D01*
X756120Y673180D01*
X756124Y673182D01*
X756249Y674295D01*
X756245Y674302D01*
X756249Y674306D01*
X756124Y675418D01*
X756118Y675424D01*
X756121Y675429D01*
X755751Y676486D01*
X755745Y676490D01*
X755747Y676496D01*
X755151Y677444D01*
X755143Y677447D01*
X755144Y677452D01*
X754352Y678244D01*
X754344Y678245D01*
X754344Y678251D01*
X753396Y678847D01*
X753387Y678846D01*
X753386Y678851D01*
X752329Y679221D01*
X752321Y679219D01*
X752318Y679224D01*
X751206Y679349D01*
X751202Y679347D01*
X751200Y679349D01*
X740200Y679349D01*
X740197Y679347D01*
X740196Y679347D01*
X740195Y679349D01*
X739082Y679224D01*
X739076Y679218D01*
X739071Y679221D01*
X738014Y678851D01*
X738010Y678845D01*
X738004Y678847D01*
X737056Y678251D01*
X737053Y678243D01*
X737048Y678244D01*
X736256Y677452D01*
X736255Y677444D01*
X736249Y677444D01*
X735653Y676496D01*
X735654Y676487D01*
X735649Y676486D01*
X735279Y675429D01*
X735281Y675423D01*
X735277Y675420D01*
X735278Y675419D01*
X735276Y675418D01*
X735151Y674306D01*
X735155Y674298D01*
X735151Y674295D01*
X735276Y673182D01*
X735282Y673176D01*
X735279Y673171D01*
X735649Y672114D01*
X735656Y672110D01*
X735653Y672104D01*
X736249Y671156D01*
X736257Y671153D01*
X736256Y671148D01*
X737048Y670356D01*
X737056Y670355D01*
X737056Y670349D01*
X738004Y669753D01*
X738013Y669754D01*
X738014Y669749D01*
X739071Y669379D01*
X739079Y669381D01*
X739082Y669376D01*
X740195Y669251D01*
X740198Y669253D01*
X740200Y669251D01*
X751200Y669251D01*
X751203Y669253D01*
G37*
G36*
X67523Y529693D02*
X67523Y529693D01*
X67526Y529691D01*
X68638Y529816D01*
X68644Y529822D01*
X68649Y529819D01*
X69706Y530189D01*
X69710Y530196D01*
X69716Y530193D01*
X70664Y530789D01*
X70667Y530797D01*
X70672Y530796D01*
X71464Y531588D01*
X71465Y531596D01*
X71471Y531596D01*
X72067Y532544D01*
X72066Y532553D01*
X72071Y532554D01*
X72441Y533611D01*
X72440Y533615D01*
X72442Y533617D01*
X72440Y533620D01*
X72444Y533622D01*
X72569Y534735D01*
X72565Y534742D01*
X72569Y534746D01*
X72444Y535858D01*
X72438Y535864D01*
X72441Y535869D01*
X72071Y536926D01*
X72065Y536930D01*
X72067Y536936D01*
X71471Y537884D01*
X71463Y537887D01*
X71464Y537892D01*
X70672Y538684D01*
X70664Y538685D01*
X70664Y538691D01*
X69716Y539287D01*
X69707Y539286D01*
X69706Y539291D01*
X68649Y539661D01*
X68641Y539659D01*
X68638Y539664D01*
X67526Y539789D01*
X67522Y539787D01*
X67520Y539789D01*
X56520Y539789D01*
X56517Y539787D01*
X56516Y539787D01*
X56515Y539789D01*
X55402Y539664D01*
X55396Y539658D01*
X55391Y539661D01*
X54334Y539291D01*
X54330Y539285D01*
X54324Y539287D01*
X53376Y538691D01*
X53373Y538683D01*
X53368Y538684D01*
X52576Y537892D01*
X52575Y537884D01*
X52569Y537884D01*
X51973Y536936D01*
X51974Y536927D01*
X51969Y536926D01*
X51599Y535869D01*
X51601Y535863D01*
X51597Y535860D01*
X51598Y535859D01*
X51596Y535858D01*
X51471Y534746D01*
X51475Y534738D01*
X51471Y534735D01*
X51596Y533622D01*
X51602Y533616D01*
X51599Y533611D01*
X51969Y532554D01*
X51976Y532550D01*
X51973Y532544D01*
X52569Y531596D01*
X52577Y531593D01*
X52576Y531588D01*
X53368Y530796D01*
X53376Y530795D01*
X53376Y530789D01*
X54324Y530193D01*
X54333Y530194D01*
X54334Y530189D01*
X55391Y529819D01*
X55399Y529821D01*
X55402Y529816D01*
X56515Y529691D01*
X56518Y529693D01*
X56520Y529691D01*
X67520Y529691D01*
X67523Y529693D01*
G37*
G36*
X753743Y265393D02*
X753743Y265393D01*
X753746Y265391D01*
X754858Y265516D01*
X754864Y265522D01*
X754869Y265519D01*
X755926Y265889D01*
X755930Y265896D01*
X755936Y265893D01*
X756884Y266489D01*
X756887Y266497D01*
X756892Y266496D01*
X757684Y267288D01*
X757685Y267296D01*
X757691Y267296D01*
X758287Y268244D01*
X758286Y268253D01*
X758291Y268254D01*
X758661Y269311D01*
X758660Y269315D01*
X758662Y269317D01*
X758660Y269320D01*
X758664Y269322D01*
X758789Y270435D01*
X758785Y270442D01*
X758789Y270446D01*
X758664Y271558D01*
X758658Y271564D01*
X758661Y271569D01*
X758291Y272626D01*
X758285Y272630D01*
X758287Y272636D01*
X757691Y273584D01*
X757683Y273587D01*
X757684Y273592D01*
X756892Y274384D01*
X756884Y274385D01*
X756884Y274391D01*
X755936Y274987D01*
X755927Y274986D01*
X755926Y274991D01*
X754869Y275361D01*
X754861Y275359D01*
X754858Y275364D01*
X753746Y275489D01*
X753742Y275487D01*
X753740Y275489D01*
X742740Y275489D01*
X742737Y275487D01*
X742736Y275487D01*
X742735Y275489D01*
X741622Y275364D01*
X741616Y275358D01*
X741611Y275361D01*
X740554Y274991D01*
X740550Y274985D01*
X740544Y274987D01*
X739596Y274391D01*
X739593Y274383D01*
X739588Y274384D01*
X738796Y273592D01*
X738795Y273584D01*
X738789Y273584D01*
X738193Y272636D01*
X738194Y272627D01*
X738189Y272626D01*
X737819Y271569D01*
X737821Y271563D01*
X737817Y271560D01*
X737818Y271559D01*
X737816Y271558D01*
X737691Y270446D01*
X737695Y270438D01*
X737691Y270435D01*
X737816Y269322D01*
X737822Y269316D01*
X737819Y269311D01*
X738189Y268254D01*
X738196Y268250D01*
X738193Y268244D01*
X738789Y267296D01*
X738797Y267293D01*
X738796Y267288D01*
X739588Y266496D01*
X739596Y266495D01*
X739596Y266489D01*
X740544Y265893D01*
X740553Y265894D01*
X740554Y265889D01*
X741611Y265519D01*
X741619Y265521D01*
X741622Y265516D01*
X742735Y265391D01*
X742738Y265393D01*
X742740Y265391D01*
X753740Y265391D01*
X753743Y265393D01*
G37*
G36*
X67523Y127103D02*
X67523Y127103D01*
X67526Y127101D01*
X68638Y127226D01*
X68644Y127232D01*
X68649Y127229D01*
X69706Y127599D01*
X69710Y127606D01*
X69716Y127603D01*
X70664Y128199D01*
X70667Y128207D01*
X70672Y128206D01*
X71464Y128998D01*
X71465Y129006D01*
X71471Y129006D01*
X72067Y129954D01*
X72066Y129963D01*
X72071Y129964D01*
X72441Y131021D01*
X72440Y131025D01*
X72442Y131027D01*
X72440Y131030D01*
X72444Y131032D01*
X72569Y132145D01*
X72565Y132152D01*
X72569Y132156D01*
X72444Y133268D01*
X72438Y133274D01*
X72441Y133279D01*
X72071Y134336D01*
X72065Y134340D01*
X72067Y134346D01*
X71471Y135294D01*
X71463Y135297D01*
X71464Y135302D01*
X70672Y136094D01*
X70664Y136095D01*
X70664Y136101D01*
X69716Y136697D01*
X69707Y136696D01*
X69706Y136701D01*
X68649Y137071D01*
X68641Y137069D01*
X68638Y137074D01*
X67526Y137199D01*
X67522Y137197D01*
X67520Y137199D01*
X56520Y137199D01*
X56517Y137197D01*
X56516Y137197D01*
X56515Y137199D01*
X55402Y137074D01*
X55396Y137068D01*
X55391Y137071D01*
X54334Y136701D01*
X54330Y136695D01*
X54324Y136697D01*
X53376Y136101D01*
X53373Y136093D01*
X53368Y136094D01*
X52576Y135302D01*
X52575Y135294D01*
X52569Y135294D01*
X51973Y134346D01*
X51974Y134337D01*
X51969Y134336D01*
X51599Y133279D01*
X51601Y133273D01*
X51597Y133270D01*
X51598Y133269D01*
X51596Y133268D01*
X51471Y132156D01*
X51475Y132148D01*
X51471Y132145D01*
X51596Y131032D01*
X51602Y131026D01*
X51599Y131021D01*
X51969Y129964D01*
X51976Y129960D01*
X51973Y129954D01*
X52569Y129006D01*
X52577Y129003D01*
X52576Y128998D01*
X53368Y128206D01*
X53376Y128205D01*
X53376Y128199D01*
X54324Y127603D01*
X54333Y127604D01*
X54334Y127599D01*
X55391Y127229D01*
X55399Y127231D01*
X55402Y127226D01*
X56515Y127101D01*
X56518Y127103D01*
X56520Y127101D01*
X67520Y127101D01*
X67523Y127103D01*
G37*
G36*
X791403Y755753D02*
X791403Y755753D01*
X791406Y755751D01*
X792518Y755876D01*
X792524Y755882D01*
X792529Y755879D01*
X793586Y756249D01*
X793590Y756256D01*
X793596Y756253D01*
X794544Y756849D01*
X794547Y756857D01*
X794552Y756856D01*
X795344Y757648D01*
X795345Y757656D01*
X795351Y757656D01*
X795947Y758604D01*
X795946Y758613D01*
X795951Y758614D01*
X796321Y759671D01*
X796320Y759675D01*
X796322Y759677D01*
X796320Y759680D01*
X796324Y759682D01*
X796449Y760795D01*
X796445Y760802D01*
X796449Y760806D01*
X796324Y761918D01*
X796318Y761924D01*
X796321Y761929D01*
X795951Y762986D01*
X795945Y762990D01*
X795947Y762996D01*
X795351Y763944D01*
X795343Y763947D01*
X795344Y763952D01*
X794552Y764744D01*
X794544Y764745D01*
X794544Y764751D01*
X793596Y765347D01*
X793587Y765346D01*
X793586Y765351D01*
X792529Y765721D01*
X792521Y765719D01*
X792518Y765724D01*
X791406Y765849D01*
X791402Y765847D01*
X791400Y765849D01*
X783400Y765849D01*
X783397Y765847D01*
X783396Y765847D01*
X783395Y765849D01*
X782282Y765724D01*
X782276Y765718D01*
X782271Y765721D01*
X781214Y765351D01*
X781210Y765345D01*
X781204Y765347D01*
X780256Y764751D01*
X780253Y764743D01*
X780248Y764744D01*
X779456Y763952D01*
X779455Y763944D01*
X779449Y763944D01*
X778853Y762996D01*
X778854Y762987D01*
X778849Y762986D01*
X778479Y761929D01*
X778481Y761923D01*
X778477Y761920D01*
X778478Y761919D01*
X778476Y761918D01*
X778351Y760806D01*
X778355Y760798D01*
X778351Y760795D01*
X778476Y759682D01*
X778482Y759676D01*
X778479Y759671D01*
X778849Y758614D01*
X778856Y758610D01*
X778853Y758604D01*
X779449Y757656D01*
X779457Y757653D01*
X779456Y757648D01*
X780248Y756856D01*
X780256Y756855D01*
X780256Y756849D01*
X781204Y756253D01*
X781213Y756254D01*
X781214Y756249D01*
X782271Y755879D01*
X782279Y755881D01*
X782282Y755876D01*
X783395Y755751D01*
X783398Y755753D01*
X783400Y755751D01*
X791400Y755751D01*
X791403Y755753D01*
G37*
G36*
X791403Y669253D02*
X791403Y669253D01*
X791406Y669251D01*
X792518Y669376D01*
X792524Y669382D01*
X792529Y669379D01*
X793586Y669749D01*
X793590Y669756D01*
X793596Y669753D01*
X794544Y670349D01*
X794547Y670357D01*
X794552Y670356D01*
X795344Y671148D01*
X795345Y671156D01*
X795351Y671156D01*
X795947Y672104D01*
X795946Y672113D01*
X795951Y672114D01*
X796321Y673171D01*
X796320Y673175D01*
X796322Y673177D01*
X796320Y673180D01*
X796324Y673182D01*
X796449Y674295D01*
X796445Y674302D01*
X796449Y674306D01*
X796324Y675418D01*
X796318Y675424D01*
X796321Y675429D01*
X795951Y676486D01*
X795945Y676490D01*
X795947Y676496D01*
X795351Y677444D01*
X795343Y677447D01*
X795344Y677452D01*
X794552Y678244D01*
X794544Y678245D01*
X794544Y678251D01*
X793596Y678847D01*
X793587Y678846D01*
X793586Y678851D01*
X792529Y679221D01*
X792521Y679219D01*
X792518Y679224D01*
X791406Y679349D01*
X791402Y679347D01*
X791400Y679349D01*
X783400Y679349D01*
X783397Y679347D01*
X783396Y679347D01*
X783395Y679349D01*
X782282Y679224D01*
X782276Y679218D01*
X782271Y679221D01*
X781214Y678851D01*
X781210Y678845D01*
X781204Y678847D01*
X780256Y678251D01*
X780253Y678243D01*
X780248Y678244D01*
X779456Y677452D01*
X779455Y677444D01*
X779449Y677444D01*
X778853Y676496D01*
X778854Y676487D01*
X778849Y676486D01*
X778479Y675429D01*
X778481Y675423D01*
X778477Y675420D01*
X778478Y675419D01*
X778476Y675418D01*
X778351Y674306D01*
X778355Y674298D01*
X778351Y674295D01*
X778476Y673182D01*
X778482Y673176D01*
X778479Y673171D01*
X778849Y672114D01*
X778856Y672110D01*
X778853Y672104D01*
X779449Y671156D01*
X779457Y671153D01*
X779456Y671148D01*
X780248Y670356D01*
X780256Y670355D01*
X780256Y670349D01*
X781204Y669753D01*
X781213Y669754D01*
X781214Y669749D01*
X782271Y669379D01*
X782279Y669381D01*
X782282Y669376D01*
X783395Y669251D01*
X783398Y669253D01*
X783400Y669251D01*
X791400Y669251D01*
X791403Y669253D01*
G37*
G36*
X24323Y529693D02*
X24323Y529693D01*
X24326Y529691D01*
X25438Y529816D01*
X25444Y529822D01*
X25449Y529819D01*
X26506Y530189D01*
X26510Y530196D01*
X26516Y530193D01*
X27464Y530789D01*
X27467Y530797D01*
X27472Y530796D01*
X28264Y531588D01*
X28265Y531596D01*
X28271Y531596D01*
X28867Y532544D01*
X28866Y532553D01*
X28871Y532554D01*
X29241Y533611D01*
X29240Y533615D01*
X29242Y533617D01*
X29240Y533620D01*
X29244Y533622D01*
X29369Y534735D01*
X29365Y534742D01*
X29369Y534746D01*
X29244Y535858D01*
X29238Y535864D01*
X29241Y535869D01*
X28871Y536926D01*
X28865Y536930D01*
X28867Y536936D01*
X28271Y537884D01*
X28263Y537887D01*
X28264Y537892D01*
X27472Y538684D01*
X27464Y538685D01*
X27464Y538691D01*
X26516Y539287D01*
X26507Y539286D01*
X26506Y539291D01*
X25449Y539661D01*
X25441Y539659D01*
X25438Y539664D01*
X24326Y539789D01*
X24322Y539787D01*
X24320Y539789D01*
X16320Y539789D01*
X16317Y539787D01*
X16316Y539787D01*
X16315Y539789D01*
X15202Y539664D01*
X15196Y539658D01*
X15191Y539661D01*
X14134Y539291D01*
X14130Y539285D01*
X14124Y539287D01*
X13176Y538691D01*
X13173Y538683D01*
X13168Y538684D01*
X12376Y537892D01*
X12375Y537884D01*
X12369Y537884D01*
X11773Y536936D01*
X11774Y536927D01*
X11769Y536926D01*
X11399Y535869D01*
X11401Y535863D01*
X11397Y535860D01*
X11398Y535859D01*
X11396Y535858D01*
X11271Y534746D01*
X11275Y534738D01*
X11271Y534735D01*
X11396Y533622D01*
X11402Y533616D01*
X11399Y533611D01*
X11769Y532554D01*
X11776Y532550D01*
X11773Y532544D01*
X12369Y531596D01*
X12377Y531593D01*
X12376Y531588D01*
X13168Y530796D01*
X13176Y530795D01*
X13176Y530789D01*
X14124Y530193D01*
X14133Y530194D01*
X14134Y530189D01*
X15191Y529819D01*
X15199Y529821D01*
X15202Y529816D01*
X16315Y529691D01*
X16318Y529693D01*
X16320Y529691D01*
X24320Y529691D01*
X24323Y529693D01*
G37*
G36*
X24323Y443193D02*
X24323Y443193D01*
X24326Y443191D01*
X25438Y443316D01*
X25444Y443322D01*
X25449Y443319D01*
X26506Y443689D01*
X26510Y443696D01*
X26516Y443693D01*
X27464Y444289D01*
X27467Y444297D01*
X27472Y444296D01*
X28264Y445088D01*
X28265Y445096D01*
X28271Y445096D01*
X28867Y446044D01*
X28866Y446053D01*
X28871Y446054D01*
X29241Y447111D01*
X29240Y447115D01*
X29242Y447117D01*
X29240Y447120D01*
X29244Y447122D01*
X29369Y448235D01*
X29365Y448242D01*
X29369Y448246D01*
X29244Y449358D01*
X29238Y449364D01*
X29241Y449369D01*
X28871Y450426D01*
X28865Y450430D01*
X28867Y450436D01*
X28271Y451384D01*
X28263Y451387D01*
X28264Y451392D01*
X27472Y452184D01*
X27464Y452185D01*
X27464Y452191D01*
X26516Y452787D01*
X26507Y452786D01*
X26506Y452791D01*
X25449Y453161D01*
X25441Y453159D01*
X25438Y453164D01*
X24326Y453289D01*
X24322Y453287D01*
X24320Y453289D01*
X16320Y453289D01*
X16317Y453287D01*
X16316Y453287D01*
X16315Y453289D01*
X15202Y453164D01*
X15196Y453158D01*
X15191Y453161D01*
X14134Y452791D01*
X14130Y452785D01*
X14124Y452787D01*
X13176Y452191D01*
X13173Y452183D01*
X13168Y452184D01*
X12376Y451392D01*
X12375Y451384D01*
X12369Y451384D01*
X11773Y450436D01*
X11774Y450427D01*
X11769Y450426D01*
X11399Y449369D01*
X11401Y449363D01*
X11397Y449360D01*
X11398Y449359D01*
X11396Y449358D01*
X11271Y448246D01*
X11275Y448238D01*
X11271Y448235D01*
X11396Y447122D01*
X11402Y447116D01*
X11399Y447111D01*
X11769Y446054D01*
X11776Y446050D01*
X11773Y446044D01*
X12369Y445096D01*
X12377Y445093D01*
X12376Y445088D01*
X13168Y444296D01*
X13176Y444295D01*
X13176Y444289D01*
X14124Y443693D01*
X14133Y443694D01*
X14134Y443689D01*
X15191Y443319D01*
X15199Y443321D01*
X15202Y443316D01*
X16315Y443191D01*
X16318Y443193D01*
X16320Y443191D01*
X24320Y443191D01*
X24323Y443193D01*
G37*
G36*
X793943Y351893D02*
X793943Y351893D01*
X793946Y351891D01*
X795058Y352016D01*
X795064Y352022D01*
X795069Y352019D01*
X796126Y352389D01*
X796130Y352396D01*
X796136Y352393D01*
X797084Y352989D01*
X797087Y352997D01*
X797092Y352996D01*
X797884Y353788D01*
X797885Y353796D01*
X797891Y353796D01*
X798487Y354744D01*
X798486Y354753D01*
X798491Y354754D01*
X798861Y355811D01*
X798860Y355815D01*
X798862Y355817D01*
X798860Y355820D01*
X798864Y355822D01*
X798989Y356935D01*
X798985Y356942D01*
X798989Y356946D01*
X798864Y358058D01*
X798858Y358064D01*
X798861Y358069D01*
X798491Y359126D01*
X798485Y359130D01*
X798487Y359136D01*
X797891Y360084D01*
X797883Y360087D01*
X797884Y360092D01*
X797092Y360884D01*
X797084Y360885D01*
X797084Y360891D01*
X796136Y361487D01*
X796127Y361486D01*
X796126Y361491D01*
X795069Y361861D01*
X795061Y361859D01*
X795058Y361864D01*
X793946Y361989D01*
X793942Y361987D01*
X793940Y361989D01*
X785940Y361989D01*
X785937Y361987D01*
X785936Y361987D01*
X785935Y361989D01*
X784822Y361864D01*
X784816Y361858D01*
X784811Y361861D01*
X783754Y361491D01*
X783750Y361485D01*
X783744Y361487D01*
X782796Y360891D01*
X782793Y360883D01*
X782788Y360884D01*
X781996Y360092D01*
X781995Y360084D01*
X781989Y360084D01*
X781393Y359136D01*
X781394Y359127D01*
X781389Y359126D01*
X781019Y358069D01*
X781021Y358063D01*
X781017Y358060D01*
X781018Y358059D01*
X781016Y358058D01*
X780891Y356946D01*
X780895Y356938D01*
X780891Y356935D01*
X781016Y355822D01*
X781022Y355816D01*
X781019Y355811D01*
X781389Y354754D01*
X781396Y354750D01*
X781393Y354744D01*
X781989Y353796D01*
X781997Y353793D01*
X781996Y353788D01*
X782788Y352996D01*
X782796Y352995D01*
X782796Y352989D01*
X783744Y352393D01*
X783753Y352394D01*
X783754Y352389D01*
X784811Y352019D01*
X784819Y352021D01*
X784822Y352016D01*
X785935Y351891D01*
X785938Y351893D01*
X785940Y351891D01*
X793940Y351891D01*
X793943Y351893D01*
G37*
G36*
X793943Y265393D02*
X793943Y265393D01*
X793946Y265391D01*
X795058Y265516D01*
X795064Y265522D01*
X795069Y265519D01*
X796126Y265889D01*
X796130Y265896D01*
X796136Y265893D01*
X797084Y266489D01*
X797087Y266497D01*
X797092Y266496D01*
X797884Y267288D01*
X797885Y267296D01*
X797891Y267296D01*
X798487Y268244D01*
X798486Y268253D01*
X798491Y268254D01*
X798861Y269311D01*
X798860Y269315D01*
X798862Y269317D01*
X798860Y269320D01*
X798864Y269322D01*
X798989Y270435D01*
X798985Y270442D01*
X798989Y270446D01*
X798864Y271558D01*
X798858Y271564D01*
X798861Y271569D01*
X798491Y272626D01*
X798485Y272630D01*
X798487Y272636D01*
X797891Y273584D01*
X797883Y273587D01*
X797884Y273592D01*
X797092Y274384D01*
X797084Y274385D01*
X797084Y274391D01*
X796136Y274987D01*
X796127Y274986D01*
X796126Y274991D01*
X795069Y275361D01*
X795061Y275359D01*
X795058Y275364D01*
X793946Y275489D01*
X793942Y275487D01*
X793940Y275489D01*
X785940Y275489D01*
X785937Y275487D01*
X785936Y275487D01*
X785935Y275489D01*
X784822Y275364D01*
X784816Y275358D01*
X784811Y275361D01*
X783754Y274991D01*
X783750Y274985D01*
X783744Y274987D01*
X782796Y274391D01*
X782793Y274383D01*
X782788Y274384D01*
X781996Y273592D01*
X781995Y273584D01*
X781989Y273584D01*
X781393Y272636D01*
X781394Y272627D01*
X781389Y272626D01*
X781019Y271569D01*
X781021Y271563D01*
X781017Y271560D01*
X781018Y271559D01*
X781016Y271558D01*
X780891Y270446D01*
X780895Y270438D01*
X780891Y270435D01*
X781016Y269322D01*
X781022Y269316D01*
X781019Y269311D01*
X781389Y268254D01*
X781396Y268250D01*
X781393Y268244D01*
X781989Y267296D01*
X781997Y267293D01*
X781996Y267288D01*
X782788Y266496D01*
X782796Y266495D01*
X782796Y266489D01*
X783744Y265893D01*
X783753Y265894D01*
X783754Y265889D01*
X784811Y265519D01*
X784819Y265521D01*
X784822Y265516D01*
X785935Y265391D01*
X785938Y265393D01*
X785940Y265391D01*
X793940Y265391D01*
X793943Y265393D01*
G37*
G36*
X24323Y127103D02*
X24323Y127103D01*
X24326Y127101D01*
X25438Y127226D01*
X25444Y127232D01*
X25449Y127229D01*
X26506Y127599D01*
X26510Y127606D01*
X26516Y127603D01*
X27464Y128199D01*
X27467Y128207D01*
X27472Y128206D01*
X28264Y128998D01*
X28265Y129006D01*
X28271Y129006D01*
X28867Y129954D01*
X28866Y129963D01*
X28871Y129964D01*
X29241Y131021D01*
X29240Y131025D01*
X29242Y131027D01*
X29240Y131030D01*
X29244Y131032D01*
X29369Y132145D01*
X29365Y132152D01*
X29369Y132156D01*
X29244Y133268D01*
X29238Y133274D01*
X29241Y133279D01*
X28871Y134336D01*
X28865Y134340D01*
X28867Y134346D01*
X28271Y135294D01*
X28263Y135297D01*
X28264Y135302D01*
X27472Y136094D01*
X27464Y136095D01*
X27464Y136101D01*
X26516Y136697D01*
X26507Y136696D01*
X26506Y136701D01*
X25449Y137071D01*
X25441Y137069D01*
X25438Y137074D01*
X24326Y137199D01*
X24322Y137197D01*
X24320Y137199D01*
X16320Y137199D01*
X16317Y137197D01*
X16316Y137197D01*
X16315Y137199D01*
X15202Y137074D01*
X15196Y137068D01*
X15191Y137071D01*
X14134Y136701D01*
X14130Y136695D01*
X14124Y136697D01*
X13176Y136101D01*
X13173Y136093D01*
X13168Y136094D01*
X12376Y135302D01*
X12375Y135294D01*
X12369Y135294D01*
X11773Y134346D01*
X11774Y134337D01*
X11769Y134336D01*
X11399Y133279D01*
X11401Y133273D01*
X11397Y133270D01*
X11398Y133269D01*
X11396Y133268D01*
X11271Y132156D01*
X11275Y132148D01*
X11271Y132145D01*
X11396Y131032D01*
X11402Y131026D01*
X11399Y131021D01*
X11769Y129964D01*
X11776Y129960D01*
X11773Y129954D01*
X12369Y129006D01*
X12377Y129003D01*
X12376Y128998D01*
X13168Y128206D01*
X13176Y128205D01*
X13176Y128199D01*
X14124Y127603D01*
X14133Y127604D01*
X14134Y127599D01*
X15191Y127229D01*
X15199Y127231D01*
X15202Y127226D01*
X16315Y127101D01*
X16318Y127103D01*
X16320Y127101D01*
X24320Y127101D01*
X24323Y127103D01*
G37*
G36*
X24323Y40603D02*
X24323Y40603D01*
X24326Y40601D01*
X25438Y40726D01*
X25444Y40732D01*
X25449Y40729D01*
X26506Y41099D01*
X26510Y41106D01*
X26516Y41103D01*
X27464Y41699D01*
X27467Y41707D01*
X27472Y41706D01*
X28264Y42498D01*
X28265Y42506D01*
X28271Y42506D01*
X28867Y43454D01*
X28866Y43463D01*
X28871Y43464D01*
X29241Y44521D01*
X29240Y44525D01*
X29242Y44527D01*
X29240Y44530D01*
X29244Y44532D01*
X29369Y45645D01*
X29365Y45652D01*
X29369Y45656D01*
X29244Y46768D01*
X29238Y46774D01*
X29241Y46779D01*
X28871Y47836D01*
X28865Y47840D01*
X28867Y47846D01*
X28271Y48794D01*
X28263Y48797D01*
X28264Y48802D01*
X27472Y49594D01*
X27464Y49595D01*
X27464Y49601D01*
X26516Y50197D01*
X26507Y50196D01*
X26506Y50201D01*
X25449Y50571D01*
X25441Y50569D01*
X25438Y50574D01*
X24326Y50699D01*
X24322Y50697D01*
X24320Y50699D01*
X16320Y50699D01*
X16317Y50697D01*
X16316Y50697D01*
X16315Y50699D01*
X15202Y50574D01*
X15196Y50568D01*
X15191Y50571D01*
X14134Y50201D01*
X14130Y50195D01*
X14124Y50197D01*
X13176Y49601D01*
X13173Y49593D01*
X13168Y49594D01*
X12376Y48802D01*
X12375Y48794D01*
X12369Y48794D01*
X11773Y47846D01*
X11774Y47837D01*
X11769Y47836D01*
X11399Y46779D01*
X11401Y46773D01*
X11397Y46770D01*
X11398Y46769D01*
X11396Y46768D01*
X11271Y45656D01*
X11275Y45648D01*
X11271Y45645D01*
X11396Y44532D01*
X11402Y44526D01*
X11399Y44521D01*
X11769Y43464D01*
X11776Y43460D01*
X11773Y43454D01*
X12369Y42506D01*
X12377Y42503D01*
X12376Y42498D01*
X13168Y41706D01*
X13176Y41705D01*
X13176Y41699D01*
X14124Y41103D01*
X14133Y41104D01*
X14134Y41099D01*
X15191Y40729D01*
X15199Y40731D01*
X15202Y40726D01*
X16315Y40601D01*
X16318Y40603D01*
X16320Y40601D01*
X24320Y40601D01*
X24323Y40603D01*
G37*
D10*
X263920Y171575D03*
X263920Y153225D03*
X254745Y180750D03*
X254745Y162400D03*
X254745Y144050D03*
X245570Y171575D03*
X245570Y153225D03*
X236395Y180750D03*
X236395Y162400D03*
X236395Y144050D03*
X227220Y171575D03*
X227220Y153225D03*
D11*
X10160Y220690D03*
X10160Y152690D03*
D12*
X57120Y117800D03*
X57120Y60000D03*
D13*
X344170Y269240D02*
X344170Y284480D01*
X318770Y284480D02*
X318770Y269240D01*
X293370Y269240D02*
X293370Y284480D01*
X267970Y284480D02*
X267970Y269240D01*
X242570Y269240D02*
X242570Y284480D01*
X217170Y284480D02*
X217170Y269240D01*
X191770Y269240D02*
X191770Y284480D01*
D14*
X162720Y25400D03*
X182720Y25400D03*
D15*
X21590Y352580D03*
X21590Y332580D03*
X21590Y312580D03*
X21590Y292580D03*
D16*
X309626Y36830D03*
D17*
X374650Y36830D03*
D10*
X263920Y574165D03*
X263920Y555815D03*
X254745Y583340D03*
X254745Y564990D03*
X254745Y546640D03*
X245570Y574165D03*
X245570Y555815D03*
X236395Y583340D03*
X236395Y564990D03*
X236395Y546640D03*
X227220Y574165D03*
X227220Y555815D03*
D11*
X10160Y623280D03*
X10160Y555280D03*
D12*
X57120Y520390D03*
X57120Y462590D03*
D13*
X344170Y671830D02*
X344170Y687070D01*
X318770Y687070D02*
X318770Y671830D01*
X293370Y671830D02*
X293370Y687070D01*
X267970Y687070D02*
X267970Y671830D01*
X242570Y671830D02*
X242570Y687070D01*
X217170Y687070D02*
X217170Y671830D01*
X191770Y671830D02*
X191770Y687070D01*
D14*
X162720Y427990D03*
X182720Y427990D03*
D15*
X21590Y755170D03*
X21590Y735170D03*
X21590Y715170D03*
X21590Y695170D03*
D16*
X309626Y439420D03*
D17*
X374650Y439420D03*
D10*
X546340Y231015D03*
X546340Y249365D03*
X555515Y221840D03*
X555515Y240190D03*
X555515Y258540D03*
X564690Y231015D03*
X564690Y249365D03*
X573865Y221840D03*
X573865Y240190D03*
X573865Y258540D03*
X583040Y231015D03*
X583040Y249365D03*
D11*
X800100Y181900D03*
X800100Y249900D03*
D12*
X753140Y284790D03*
X753140Y342590D03*
D13*
X466090Y133350D02*
X466090Y118110D01*
X491490Y118110D02*
X491490Y133350D01*
X516890Y133350D02*
X516890Y118110D01*
X542290Y118110D02*
X542290Y133350D01*
X567690Y133350D02*
X567690Y118110D01*
X593090Y118110D02*
X593090Y133350D01*
X618490Y133350D02*
X618490Y118110D01*
D18*
X647540Y377190D03*
X627540Y377190D03*
D19*
X788670Y50010D03*
X788670Y70010D03*
X788670Y90010D03*
X788670Y110010D03*
D16*
X500634Y365760D03*
D17*
X435610Y365760D03*
D10*
X543800Y634875D03*
X543800Y653225D03*
X552975Y625700D03*
X552975Y644050D03*
X552975Y662400D03*
X562150Y634875D03*
X562150Y653225D03*
X571325Y625700D03*
X571325Y644050D03*
X571325Y662400D03*
X580500Y634875D03*
X580500Y653225D03*
D11*
X797560Y585760D03*
X797560Y653760D03*
D12*
X750600Y688650D03*
X750600Y746450D03*
D13*
X463550Y537210D02*
X463550Y521970D01*
X488950Y521970D02*
X488950Y537210D01*
X514350Y537210D02*
X514350Y521970D01*
X539750Y521970D02*
X539750Y537210D01*
X565150Y537210D02*
X565150Y521970D01*
X590550Y521970D02*
X590550Y537210D01*
X615950Y537210D02*
X615950Y521970D01*
D18*
X645000Y781050D03*
X625000Y781050D03*
D19*
X786130Y453870D03*
X786130Y473870D03*
X786130Y493870D03*
X786130Y513870D03*
D16*
X498094Y769620D03*
D17*
X433070Y769620D03*
M02*
