M48
;GenerationSoftware,Autodesk,EAGLE,9.6.2*%
;CreationDate,2024-06-28T02:42:32Z*%
FMAT,2
ICI,OFF
METRIC,TZ,000.000
T7C0.200
T6C0.350
T5C0.600
T4C0.813
T3C1.000
T2C1.016
T1C1.245
%
G90
M71
T1
X51308Y43688
X44806Y43688
T2
X48260Y67691
X45720Y67691
X43180Y67691
X40640Y67691
X38100Y67691
X35560Y67691
X33020Y67691
T3
X14859Y62074
X14859Y55274
T4
X30115Y42545
X32115Y42545
X16002Y75263
X16002Y73263
X16002Y71263
X16002Y69263
T5
X19555Y51785
X19555Y46005
X20045Y53220
X20045Y44570
X15875Y53220
X15875Y44570
T6
X22098Y44704
X18542Y44196
X30480Y60960
X19558Y64262
X18542Y72136
X45339Y59690
X49530Y69469
X49022Y71755
X49911Y71755
X49911Y72644
X49022Y72644
X21590Y70993
X21463Y69088
X26162Y69342
X19558Y76454
X18034Y67945
X22860Y53175
X22202Y48514
X18288Y74780
X42291Y51562
X19197Y74780
X37442Y78087
X38758Y77724
X43434Y49149
X21590Y46482
X26289Y46293
X18796Y48487
X21545Y51243
X23368Y71425
X30480Y74549
X22591Y71933
X32131Y75692
X35052Y75311
X42037Y48895
X22204Y64538
X34013Y59817
X32766Y70104
X40767Y50315
X25019Y66900
X20701Y56515
X24229Y61956
X23218Y60662
X20173Y57424
X34671Y44831
X34671Y48768
X34671Y61468
X27813Y71501
X22226Y65953
X24903Y62981
X40005Y43022
X23670Y63824
X36576Y43022
X20701Y60833
X47371Y43942
X44577Y61849
X37338Y72517
X23605Y77930
X25019Y51243
X24320Y43182
X27421Y47233
X23749Y51243
X23749Y46293
X22860Y54775
X21999Y56614
X23467Y56515
X17145Y63373
X18542Y57531
X16637Y57531
X19177Y68827
X19177Y70358
X26543Y60706
X16510Y67056
X31380Y58917
X33345Y58547
X15718Y65278
X17399Y76327
X24003Y55753
X18438Y55043
X16236Y63376
X16716Y54452
X32131Y44854
X26162Y57703
X20447Y68580
X33909Y60833
X30734Y60071
X31496Y74549
X34495Y71298
X43180Y45085
X42291Y59055
X30099Y68961
X26924Y74295
X21463Y59436
X22214Y61733
X24384Y71882
X25946Y71755
X24064Y77104
X20574Y76327
X51943Y77470
X24003Y69596
X19304Y62992
X23495Y67186
X36068Y73914
X33147Y76962
X29337Y76581
X51435Y78232
X27940Y73406
X50546Y78740
X52070Y76327
X36068Y73025
X31242Y68453
X32131Y65278
X31623Y57785
X37973Y60833
X36957Y51689
X31623Y52705
X30353Y49784
X36957Y48768
X33401Y44958
X30988Y45085
X37846Y51689
X45339Y51689
X37846Y48768
X21209Y54102
X25781Y55372
T7
X37483Y56245
X37483Y54410
X36565Y57162
X40235Y57162
X40235Y55327
X39318Y58080
X39318Y56245
X39318Y54410
X38400Y57162
X38400Y55327
X37483Y58080
X36565Y55327
M30